
    <svg version="1.1"
        width="1280.1" height="613.1"
        xmlns="http://www.w3.org/2000/svg">

        <rect width="100%" height="100%" style="fill:white; stroke-width:0.1; stroke: black" />

<circle cx="284.55" cy="40.55" r="1.275" fill="blue" stroke="none" stroke-width="0.2"/>
<circle cx="469.55" cy="153.55" r="1.275" fill="blue" stroke="none" stroke-width="0.2"/>
<circle cx="1250.55" cy="569.55" r="1.275" fill="blue" stroke="none" stroke-width="0.2"/>
<circle cx="1200.55" cy="533.55" r="1.275" fill="blue" stroke="none" stroke-width="0.2"/>
<circle cx="1265.55" cy="574.55" r="1.275" fill="blue" stroke="none" stroke-width="0.2"/>
<circle cx="1218.55" cy="542.55" r="1.275" fill="blue" stroke="none" stroke-width="0.2"/>
<circle cx="682.55" cy="243.55" r="1.275" fill="blue" stroke="none" stroke-width="0.2"/>
<circle cx="1047.55" cy="441.55" r="1.275" fill="blue" stroke="none" stroke-width="0.2"/>
<circle cx="643.55" cy="224.55" r="1.275" fill="blue" stroke="none" stroke-width="0.2"/>
<circle cx="16.55" cy="90.55" r="1.275" fill="blue" stroke="none" stroke-width="0.2"/>
<circle cx="939.55" cy="369.55" r="1.275" fill="blue" stroke="none" stroke-width="0.2"/>
<circle cx="1265.55" cy="579.55" r="1.275" fill="blue" stroke="none" stroke-width="0.2"/>
<circle cx="353.55" cy="98.55" r="1.275" fill="blue" stroke="none" stroke-width="0.2"/>
<circle cx="590.55" cy="207.55" r="1.275" fill="blue" stroke="none" stroke-width="0.2"/>
<circle cx="1012.55" cy="422.55" r="1.275" fill="blue" stroke="none" stroke-width="0.2"/>
<circle cx="901.55" cy="347.55" r="1.275" fill="blue" stroke="none" stroke-width="0.2"/>
<circle cx="704.55" cy="251.55" r="1.275" fill="blue" stroke="none" stroke-width="0.2"/>
<circle cx="1266.55" cy="585.55" r="1.275" fill="blue" stroke="none" stroke-width="0.2"/>
<circle cx="805.55" cy="295.55" r="1.275" fill="blue" stroke="none" stroke-width="0.2"/>
<circle cx="613.55" cy="209.55" r="1.275" fill="blue" stroke="none" stroke-width="0.2"/>
<circle cx="167.55" cy="12.55" r="1.275" fill="blue" stroke="none" stroke-width="0.2"/>
<circle cx="1105.55" cy="466.55" r="1.275" fill="blue" stroke="none" stroke-width="0.2"/>
<circle cx="32.55" cy="81.55" r="1.275" fill="blue" stroke="none" stroke-width="0.2"/>
<circle cx="1275.55" cy="610.55" r="1.275" fill="blue" stroke="none" stroke-width="0.2"/>
<circle cx="178.55" cy="8.55" r="1.275" fill="blue" stroke="none" stroke-width="0.2"/>
<circle cx="219.55" cy="5.55" r="1.275" fill="blue" stroke="none" stroke-width="0.2"/>
<circle cx="2.55" cy="86.55" r="1.275" fill="blue" stroke="none" stroke-width="0.2"/>
<circle cx="569.55" cy="192.55" r="1.275" fill="blue" stroke="none" stroke-width="0.2"/>
<circle cx="244.55" cy="7.55" r="1.275" fill="blue" stroke="none" stroke-width="0.2"/>
<circle cx="1188.55" cy="521.55" r="1.275" fill="blue" stroke="none" stroke-width="0.2"/>
<circle cx="46.55" cy="76.55" r="1.275" fill="blue" stroke="none" stroke-width="0.2"/>
<circle cx="1085.55" cy="459.55" r="1.275" fill="blue" stroke="none" stroke-width="0.2"/>
<circle cx="369.55" cy="111.55" r="1.275" fill="blue" stroke="none" stroke-width="0.2"/>
<circle cx="85.55" cy="77.55" r="1.275" fill="blue" stroke="none" stroke-width="0.2"/>
<circle cx="336.55" cy="84.55" r="1.275" fill="blue" stroke="none" stroke-width="0.2"/>
<circle cx="1179.55" cy="515.55" r="1.275" fill="blue" stroke="none" stroke-width="0.2"/>
<circle cx="1261.55" cy="569.55" r="1.275" fill="blue" stroke="none" stroke-width="0.2"/>
<circle cx="155.55" cy="50.55" r="1.275" fill="blue" stroke="none" stroke-width="0.2"/>
<circle cx="214.55" cy="6.55" r="1.275" fill="blue" stroke="none" stroke-width="0.2"/>
<circle cx="1243.55" cy="562.55" r="1.275" fill="blue" stroke="none" stroke-width="0.2"/>
<circle cx="146.55" cy="52.55" r="1.275" fill="blue" stroke="none" stroke-width="0.2"/>
<circle cx="753.55" cy="272.55" r="1.275" fill="blue" stroke="none" stroke-width="0.2"/>
<circle cx="205.55" cy="2.55" r="1.275" fill="blue" stroke="none" stroke-width="0.2"/>
<circle cx="299.55" cy="50.55" r="1.275" fill="blue" stroke="none" stroke-width="0.2"/>
<circle cx="1271.55" cy="590.55" r="1.275" fill="blue" stroke="none" stroke-width="0.2"/>
<circle cx="1236.55" cy="556.55" r="1.275" fill="blue" stroke="none" stroke-width="0.2"/>
<circle cx="1135.55" cy="482.55" r="1.275" fill="blue" stroke="none" stroke-width="0.2"/>
<circle cx="274.55" cy="33.55" r="1.275" fill="blue" stroke="none" stroke-width="0.2"/>
<circle cx="728.55" cy="262.55" r="1.275" fill="blue" stroke="none" stroke-width="0.2"/>
<circle cx="157.55" cy="44.55" r="1.275" fill="blue" stroke="none" stroke-width="0.2"/>
<circle cx="1277.55" cy="596.55" r="1.275" fill="blue" stroke="none" stroke-width="0.2"/>
<circle cx="184.55" cy="8.55" r="1.275" fill="blue" stroke="none" stroke-width="0.2"/>
<circle cx="1064.55" cy="445.55" r="1.275" fill="blue" stroke="none" stroke-width="0.2"/>
<circle cx="311.55" cy="63.55" r="1.275" fill="blue" stroke="none" stroke-width="0.2"/>
<circle cx="196.55" cy="9.55" r="1.275" fill="blue" stroke="none" stroke-width="0.2"/>
<circle cx="921.55" cy="355.55" r="1.275" fill="blue" stroke="none" stroke-width="0.2"/>
<circle cx="880.55" cy="335.55" r="1.275" fill="blue" stroke="none" stroke-width="0.2"/>
<circle cx="404.55" cy="130.55" r="1.275" fill="blue" stroke="none" stroke-width="0.2"/>
<circle cx="165.55" cy="32.55" r="1.275" fill="blue" stroke="none" stroke-width="0.2"/>
<circle cx="168.55" cy="9.55" r="1.275" fill="blue" stroke="none" stroke-width="0.2"/>
<circle cx="384.55" cy="117.55" r="1.275" fill="blue" stroke="none" stroke-width="0.2"/>
<circle cx="1265.55" cy="590.55" r="1.275" fill="blue" stroke="none" stroke-width="0.2"/>
<circle cx="1118.55" cy="473.55" r="1.275" fill="blue" stroke="none" stroke-width="0.2"/>
<circle cx="853.55" cy="319.55" r="1.275" fill="blue" stroke="none" stroke-width="0.2"/>
<circle cx="1028.55" cy="433.55" r="1.275" fill="blue" stroke="none" stroke-width="0.2"/>
<circle cx="494.55" cy="160.55" r="1.275" fill="blue" stroke="none" stroke-width="0.2"/>
<circle cx="226.55" cy="3.55" r="1.275" fill="blue" stroke="none" stroke-width="0.2"/>
<circle cx="173.55" cy="12.55" r="1.275" fill="blue" stroke="none" stroke-width="0.2"/>
<circle cx="62.55" cy="75.55" r="1.275" fill="blue" stroke="none" stroke-width="0.2"/>
<circle cx="162.55" cy="38.55" r="1.275" fill="blue" stroke="none" stroke-width="0.2"/>
<circle cx="993.55" cy="408.55" r="1.275" fill="blue" stroke="none" stroke-width="0.2"/>
<circle cx="547.55" cy="183.55" r="1.275" fill="blue" stroke="none" stroke-width="0.2"/>
<circle cx="1147.55" cy="490.55" r="1.275" fill="blue" stroke="none" stroke-width="0.2"/>
<circle cx="1276.55" cy="604.55" r="1.275" fill="blue" stroke="none" stroke-width="0.2"/>
<circle cx="168.55" cy="25.55" r="1.275" fill="blue" stroke="none" stroke-width="0.2"/>
<circle cx="73.55" cy="77.55" r="1.275" fill="blue" stroke="none" stroke-width="0.2"/>
<circle cx="958.55" cy="383.55" r="1.275" fill="blue" stroke="none" stroke-width="0.2"/>
<circle cx="179.55" cy="10.55" r="1.275" fill="blue" stroke="none" stroke-width="0.2"/>
<circle cx="326.55" cy="70.55" r="1.275" fill="blue" stroke="none" stroke-width="0.2"/>
<circle cx="256.55" cy="14.55" r="1.275" fill="blue" stroke="none" stroke-width="0.2"/>
<circle cx="659.55" cy="235.55" r="1.275" fill="blue" stroke="none" stroke-width="0.2"/>
<circle cx="117.55" cy="64.55" r="1.275" fill="blue" stroke="none" stroke-width="0.2"/>
<circle cx="236.55" cy="6.55" r="1.275" fill="blue" stroke="none" stroke-width="0.2"/>
<circle cx="832.55" cy="312.55" r="1.275" fill="blue" stroke="none" stroke-width="0.2"/>
<circle cx="777.55" cy="284.55" r="1.275" fill="blue" stroke="none" stroke-width="0.2"/>
<circle cx="160.55" cy="14.55" r="1.275" fill="blue" stroke="none" stroke-width="0.2"/>
<circle cx="420.55" cy="134.55" r="1.275" fill="blue" stroke="none" stroke-width="0.2"/>
<circle cx="1224.55" cy="552.55" r="1.275" fill="blue" stroke="none" stroke-width="0.2"/>
<circle cx="976.55" cy="393.55" r="1.275" fill="blue" stroke="none" stroke-width="0.2"/>
<circle cx="1207.55" cy="539.55" r="1.275" fill="blue" stroke="none" stroke-width="0.2"/>
<circle cx="103.55" cy="68.55" r="1.275" fill="blue" stroke="none" stroke-width="0.2"/>
<circle cx="1233.55" cy="552.55" r="1.275" fill="blue" stroke="none" stroke-width="0.2"/>
<circle cx="519.55" cy="172.55" r="1.275" fill="blue" stroke="none" stroke-width="0.2"/>
<circle cx="140.55" cy="52.55" r="1.275" fill="blue" stroke="none" stroke-width="0.2"/>
<circle cx="161.55" cy="16.55" r="1.275" fill="blue" stroke="none" stroke-width="0.2"/>
<circle cx="260.55" cy="22.55" r="1.275" fill="blue" stroke="none" stroke-width="0.2"/>
<circle cx="1165.55" cy="500.55" r="1.275" fill="blue" stroke="none" stroke-width="0.2"/>
<circle cx="443.55" cy="142.55" r="1.275" fill="blue" stroke="none" stroke-width="0.2"/>
<circle cx="129.55" cy="61.55" r="1.275" fill="blue" stroke="none" stroke-width="0.2"/>
<circle cx="190.55" cy="9.55" r="1.275" fill="blue" stroke="none" stroke-width="0.2"/>

    </svg>
