
    <svg version="1.1"
        width="1640.536" height="1635.536"
        xmlns="http://www.w3.org/2000/svg">

        <rect width="100%" height="100%" style="fill:white; stroke-width:0.1; stroke: black" />

<circle cx="1319.268" cy="1129.268" r="1.634" fill="blue" stroke="none" stroke-width="0.2"/>
<circle cx="1535.268" cy="1424.268" r="1.634" fill="blue" stroke="none" stroke-width="0.2"/>
<circle cx="991.268" cy="804.268" r="1.634" fill="blue" stroke="none" stroke-width="0.2"/>
<circle cx="951.268" cy="772.268" r="1.634" fill="blue" stroke="none" stroke-width="0.2"/>
<circle cx="852.268" cy="700.268" r="1.634" fill="blue" stroke="none" stroke-width="0.2"/>
<circle cx="338.268" cy="346.268" r="1.634" fill="blue" stroke="none" stroke-width="0.2"/>
<circle cx="1558.268" cy="1473.268" r="1.634" fill="blue" stroke="none" stroke-width="0.2"/>
<circle cx="1508.268" cy="1379.268" r="1.634" fill="blue" stroke="none" stroke-width="0.2"/>
<circle cx="1610.268" cy="1579.268" r="1.634" fill="blue" stroke="none" stroke-width="0.2"/>
<circle cx="402.268" cy="395.268" r="1.634" fill="blue" stroke="none" stroke-width="0.2"/>
<circle cx="456.268" cy="432.268" r="1.634" fill="blue" stroke="none" stroke-width="0.2"/>
<circle cx="270.268" cy="290.268" r="1.634" fill="blue" stroke="none" stroke-width="0.2"/>
<circle cx="110.268" cy="145.268" r="1.634" fill="blue" stroke="none" stroke-width="0.2"/>
<circle cx="386.268" cy="383.268" r="1.634" fill="blue" stroke="none" stroke-width="0.2"/>
<circle cx="607.268" cy="535.268" r="1.634" fill="blue" stroke="none" stroke-width="0.2"/>
<circle cx="1623.268" cy="1606.268" r="1.634" fill="blue" stroke="none" stroke-width="0.2"/>
<circle cx="736.268" cy="625.268" r="1.634" fill="blue" stroke="none" stroke-width="0.2"/>
<circle cx="1032.268" cy="838.268" r="1.634" fill="blue" stroke="none" stroke-width="0.2"/>
<circle cx="1072.268" cy="874.268" r="1.634" fill="blue" stroke="none" stroke-width="0.2"/>
<circle cx="550.268" cy="497.268" r="1.634" fill="blue" stroke="none" stroke-width="0.2"/>
<circle cx="681.268" cy="587.268" r="1.634" fill="blue" stroke="none" stroke-width="0.2"/>
<circle cx="324.268" cy="335.268" r="1.634" fill="blue" stroke="none" stroke-width="0.2"/>
<circle cx="1372.268" cy="1192.268" r="1.634" fill="blue" stroke="none" stroke-width="0.2"/>
<circle cx="124.268" cy="160.268" r="1.634" fill="blue" stroke="none" stroke-width="0.2"/>
<circle cx="1281.268" cy="1090.268" r="1.634" fill="blue" stroke="none" stroke-width="0.2"/>
<circle cx="531.268" cy="484.268" r="1.634" fill="blue" stroke="none" stroke-width="0.2"/>
<circle cx="1467.268" cy="1315.268" r="1.634" fill="blue" stroke="none" stroke-width="0.2"/>
<circle cx="1194.268" cy="985.268" r="1.634" fill="blue" stroke="none" stroke-width="0.2"/>
<circle cx="911.268" cy="742.268" r="1.634" fill="blue" stroke="none" stroke-width="0.2"/>
<circle cx="971.268" cy="788.268" r="1.634" fill="blue" stroke="none" stroke-width="0.2"/>
<circle cx="73.268" cy="101.268" r="1.634" fill="blue" stroke="none" stroke-width="0.2"/>
<circle cx="151.268" cy="188.268" r="1.634" fill="blue" stroke="none" stroke-width="0.2"/>
<circle cx="1212.268" cy="1005.268" r="1.634" fill="blue" stroke="none" stroke-width="0.2"/>
<circle cx="1263.268" cy="1069.268" r="1.634" fill="blue" stroke="none" stroke-width="0.2"/>
<circle cx="475.268" cy="444.268" r="1.634" fill="blue" stroke="none" stroke-width="0.2"/>
<circle cx="718.268" cy="612.268" r="1.634" fill="blue" stroke="none" stroke-width="0.2"/>
<circle cx="196.268" cy="227.268" r="1.634" fill="blue" stroke="none" stroke-width="0.2"/>
<circle cx="369.268" cy="370.268" r="1.634" fill="blue" stroke="none" stroke-width="0.2"/>
<circle cx="310.268" cy="324.268" r="1.634" fill="blue" stroke="none" stroke-width="0.2"/>
<circle cx="180.268" cy="215.268" r="1.634" fill="blue" stroke="none" stroke-width="0.2"/>
<circle cx="625.268" cy="548.268" r="1.634" fill="blue" stroke="none" stroke-width="0.2"/>
<circle cx="588.268" cy="522.268" r="1.634" fill="blue" stroke="none" stroke-width="0.2"/>
<circle cx="16.268" cy="20.268" r="1.634" fill="blue" stroke="none" stroke-width="0.2"/>
<circle cx="85.268" cy="116.268" r="1.634" fill="blue" stroke="none" stroke-width="0.2"/>
<circle cx="1637.268" cy="1632.268" r="1.634" fill="blue" stroke="none" stroke-width="0.2"/>
<circle cx="227.268" cy="253.268" r="1.634" fill="blue" stroke="none" stroke-width="0.2"/>
<circle cx="891.268" cy="728.268" r="1.634" fill="blue" stroke="none" stroke-width="0.2"/>
<circle cx="1355.268" cy="1170.268" r="1.634" fill="blue" stroke="none" stroke-width="0.2"/>
<circle cx="353.268" cy="358.268" r="1.634" fill="blue" stroke="none" stroke-width="0.2"/>
<circle cx="774.268" cy="648.268" r="1.634" fill="blue" stroke="none" stroke-width="0.2"/>
<circle cx="1437.268" cy="1274.268" r="1.634" fill="blue" stroke="none" stroke-width="0.2"/>
<circle cx="699.268" cy="599.268" r="1.634" fill="blue" stroke="none" stroke-width="0.2"/>
<circle cx="1246.268" cy="1047.268" r="1.634" fill="blue" stroke="none" stroke-width="0.2"/>
<circle cx="419.268" cy="408.268" r="1.634" fill="blue" stroke="none" stroke-width="0.2"/>
<circle cx="437.268" cy="420.268" r="1.634" fill="blue" stroke="none" stroke-width="0.2"/>
<circle cx="62.268" cy="86.268" r="1.634" fill="blue" stroke="none" stroke-width="0.2"/>
<circle cx="1481.268" cy="1336.268" r="1.634" fill="blue" stroke="none" stroke-width="0.2"/>
<circle cx="1052.268" cy="856.268" r="1.634" fill="blue" stroke="none" stroke-width="0.2"/>
<circle cx="1337.268" cy="1149.268" r="1.634" fill="blue" stroke="none" stroke-width="0.2"/>
<circle cx="283.268" cy="301.268" r="1.634" fill="blue" stroke="none" stroke-width="0.2"/>
<circle cx="931.268" cy="757.268" r="1.634" fill="blue" stroke="none" stroke-width="0.2"/>
<circle cx="3.268" cy="3.268" r="1.634" fill="blue" stroke="none" stroke-width="0.2"/>
<circle cx="1300.268" cy="1110.268" r="1.634" fill="blue" stroke="none" stroke-width="0.2"/>
<circle cx="256.268" cy="278.268" r="1.634" fill="blue" stroke="none" stroke-width="0.2"/>
<circle cx="662.268" cy="574.268" r="1.634" fill="blue" stroke="none" stroke-width="0.2"/>
<circle cx="1570.268" cy="1498.268" r="1.634" fill="blue" stroke="none" stroke-width="0.2"/>
<circle cx="493.268" cy="457.268" r="1.634" fill="blue" stroke="none" stroke-width="0.2"/>
<circle cx="1494.268" cy="1358.268" r="1.634" fill="blue" stroke="none" stroke-width="0.2"/>
<circle cx="1583.268" cy="1524.268" r="1.634" fill="blue" stroke="none" stroke-width="0.2"/>
<circle cx="1093.268" cy="893.268" r="1.634" fill="blue" stroke="none" stroke-width="0.2"/>
<circle cx="1175.268" cy="965.268" r="1.634" fill="blue" stroke="none" stroke-width="0.2"/>
<circle cx="1114.268" cy="911.268" r="1.634" fill="blue" stroke="none" stroke-width="0.2"/>
<circle cx="512.268" cy="470.268" r="1.634" fill="blue" stroke="none" stroke-width="0.2"/>
<circle cx="1135.268" cy="928.268" r="1.634" fill="blue" stroke="none" stroke-width="0.2"/>
<circle cx="212.268" cy="240.268" r="1.634" fill="blue" stroke="none" stroke-width="0.2"/>
<circle cx="569.268" cy="509.268" r="1.634" fill="blue" stroke="none" stroke-width="0.2"/>
<circle cx="831.268" cy="686.268" r="1.634" fill="blue" stroke="none" stroke-width="0.2"/>
<circle cx="1388.268" cy="1213.268" r="1.634" fill="blue" stroke="none" stroke-width="0.2"/>
<circle cx="792.268" cy="660.268" r="1.634" fill="blue" stroke="none" stroke-width="0.2"/>
<circle cx="1522.268" cy="1401.268" r="1.634" fill="blue" stroke="none" stroke-width="0.2"/>
<circle cx="1597.268" cy="1551.268" r="1.634" fill="blue" stroke="none" stroke-width="0.2"/>
<circle cx="242.268" cy="265.268" r="1.634" fill="blue" stroke="none" stroke-width="0.2"/>
<circle cx="644.268" cy="561.268" r="1.634" fill="blue" stroke="none" stroke-width="0.2"/>
<circle cx="52.268" cy="70.268" r="1.634" fill="blue" stroke="none" stroke-width="0.2"/>
<circle cx="41.268" cy="53.268" r="1.634" fill="blue" stroke="none" stroke-width="0.2"/>
<circle cx="97.268" cy="130.268" r="1.634" fill="blue" stroke="none" stroke-width="0.2"/>
<circle cx="1421.268" cy="1254.268" r="1.634" fill="blue" stroke="none" stroke-width="0.2"/>
<circle cx="1229.268" cy="1026.268" r="1.634" fill="blue" stroke="none" stroke-width="0.2"/>
<circle cx="296.268" cy="312.268" r="1.634" fill="blue" stroke="none" stroke-width="0.2"/>
<circle cx="29.268" cy="37.268" r="1.634" fill="blue" stroke="none" stroke-width="0.2"/>
<circle cx="1404.268" cy="1233.268" r="1.634" fill="blue" stroke="none" stroke-width="0.2"/>
<circle cx="1547.268" cy="1448.268" r="1.634" fill="blue" stroke="none" stroke-width="0.2"/>
<circle cx="755.268" cy="637.268" r="1.634" fill="blue" stroke="none" stroke-width="0.2"/>
<circle cx="1452.268" cy="1294.268" r="1.634" fill="blue" stroke="none" stroke-width="0.2"/>
<circle cx="1155.268" cy="946.268" r="1.634" fill="blue" stroke="none" stroke-width="0.2"/>
<circle cx="811.268" cy="673.268" r="1.634" fill="blue" stroke="none" stroke-width="0.2"/>
<circle cx="165.268" cy="202.268" r="1.634" fill="blue" stroke="none" stroke-width="0.2"/>
<circle cx="1011.268" cy="821.268" r="1.634" fill="blue" stroke="none" stroke-width="0.2"/>
<circle cx="872.268" cy="714.268" r="1.634" fill="blue" stroke="none" stroke-width="0.2"/>
<circle cx="137.268" cy="174.268" r="1.634" fill="blue" stroke="none" stroke-width="0.2"/>

    </svg>
