
    <svg version="1.1"
        viewBox="-10.4, -10.4, 20.8, 20.8"
        xmlns="http://www.w3.org/2000/svg">

        <rect x="-10.4" y="-10.4" width="100%" height="100%" style="fill:white; stroke-width:0.1; stroke: black" />

<circle cx="0" cy="0" r="0.30000000000000004" fill="red" stroke="none" stroke-width="0.2"/>
<circle cx="-8" cy="7" r="0.2" fill="blue" stroke="none" stroke-width="0.2"/>
<circle cx="-10" cy="4" r="0.2" fill="blue" stroke="none" stroke-width="0.2"/>
<circle cx="-6" cy="-1" r="0.2" fill="blue" stroke="none" stroke-width="0.2"/>
<circle cx="-5" cy="-8" r="0.2" fill="blue" stroke="none" stroke-width="0.2"/>
<circle cx="4" cy="10" r="0.2" fill="blue" stroke="none" stroke-width="0.2"/>
<circle cx="0" cy="-1" r="0.2" fill="blue" stroke="none" stroke-width="0.2"/>
<circle cx="-8" cy="-1" r="0.2" fill="blue" stroke="none" stroke-width="0.2"/>
<circle cx="-7" cy="-10" r="0.2" fill="blue" stroke="none" stroke-width="0.2"/>
<circle cx="2" cy="8" r="0.2" fill="blue" stroke="none" stroke-width="0.2"/>
<circle cx="10" cy="1" r="0.2" fill="blue" stroke="none" stroke-width="0.2"/>
<circle cx="5" cy="4" r="0.2" fill="blue" stroke="none" stroke-width="0.2"/>
<circle cx="-8" cy="-2" r="0.2" fill="blue" stroke="none" stroke-width="0.2"/>
<circle cx="-1" cy="5" r="0.2" fill="blue" stroke="none" stroke-width="0.2"/>
<circle cx="6" cy="-5" r="0.2" fill="blue" stroke="none" stroke-width="0.2"/>
<circle cx="-7" cy="-3" r="0.2" fill="blue" stroke="none" stroke-width="0.2"/>
<circle cx="-5" cy="-4" r="0.2" fill="blue" stroke="none" stroke-width="0.2"/>
<circle cx="9" cy="-5" r="0.2" fill="blue" stroke="none" stroke-width="0.2"/>
<circle cx="0" cy="0" r="0.2" fill="blue" stroke="none" stroke-width="0.2"/>
<circle cx="-9" cy="-4" r="0.2" fill="blue" stroke="none" stroke-width="0.2"/>
<line x1="0" y1="0" x2="0" y2="0" stroke="black" stroke-width="0.1" />
<circle cx="0" cy="0" r="0.1" fill="green" stroke="none" stroke-width="0.2"/>
<line x1="0" y1="0" x2="0" y2="-1" stroke="black" stroke-width="0.1" />
<circle cx="0" cy="-1" r="0.1" fill="green" stroke="none" stroke-width="0.2"/>
<line x1="0" y1="-1" x2="-1" y2="-3" stroke="black" stroke-width="0.1" />
<circle cx="-1" cy="-3" r="0.1" fill="green" stroke="none" stroke-width="0.2"/>
<line x1="-1" y1="-3" x2="-3" y2="-4" stroke="black" stroke-width="0.1" />
<circle cx="-3" cy="-4" r="0.1" fill="green" stroke="none" stroke-width="0.2"/>
<line x1="-3" y1="-4" x2="-5" y2="-4" stroke="black" stroke-width="0.1" />
<circle cx="-5" cy="-4" r="0.1" fill="green" stroke="none" stroke-width="0.2"/>
<line x1="-5" y1="-4" x2="-7" y2="-3" stroke="black" stroke-width="0.1" />
<circle cx="-7" cy="-3" r="0.1" fill="green" stroke="none" stroke-width="0.2"/>
<line x1="-7" y1="-3" x2="-8" y2="-2" stroke="black" stroke-width="0.1" />
<circle cx="-8" cy="-2" r="0.1" fill="green" stroke="none" stroke-width="0.2"/>
<line x1="-8" y1="-2" x2="-8" y2="-1" stroke="black" stroke-width="0.1" />
<circle cx="-8" cy="-1" r="0.1" fill="green" stroke="none" stroke-width="0.2"/>
<line x1="-8" y1="-1" x2="-7" y2="-1" stroke="black" stroke-width="0.1" />
<circle cx="-7" cy="-1" r="0.1" fill="green" stroke="none" stroke-width="0.2"/>
<line x1="-7" y1="-1" x2="-6" y2="-1" stroke="black" stroke-width="0.1" />
<circle cx="-6" cy="-1" r="0.1" fill="green" stroke="none" stroke-width="0.2"/>
<line x1="-6" y1="-1" x2="-6" y2="-2" stroke="black" stroke-width="0.1" />
<circle cx="-6" cy="-2" r="0.1" fill="green" stroke="none" stroke-width="0.2"/>
<line x1="-6" y1="-2" x2="-7" y2="-4" stroke="black" stroke-width="0.1" />
<circle cx="-7" cy="-4" r="0.1" fill="green" stroke="none" stroke-width="0.2"/>
<line x1="-7" y1="-4" x2="-9" y2="-5" stroke="black" stroke-width="0.1" />
<circle cx="-9" cy="-5" r="0.1" fill="green" stroke="none" stroke-width="0.2"/>
<line x1="-9" y1="-5" x2="-10" y2="-5" stroke="black" stroke-width="0.1" />
<circle cx="-10" cy="-5" r="0.1" fill="green" stroke="none" stroke-width="0.2"/>
<line x1="-10" y1="-5" x2="-10" y2="-4" stroke="black" stroke-width="0.1" />
<circle cx="-10" cy="-4" r="0.1" fill="green" stroke="none" stroke-width="0.2"/>
<line x1="-10" y1="-4" x2="-9" y2="-4" stroke="black" stroke-width="0.1" />
<circle cx="-9" cy="-4" r="0.1" fill="green" stroke="none" stroke-width="0.2"/>
<line x1="-9" y1="-4" x2="-7" y2="-5" stroke="black" stroke-width="0.1" />
<circle cx="-7" cy="-5" r="0.1" fill="green" stroke="none" stroke-width="0.2"/>
<line x1="-7" y1="-5" x2="-5" y2="-7" stroke="black" stroke-width="0.1" />
<circle cx="-5" cy="-7" r="0.1" fill="green" stroke="none" stroke-width="0.2"/>
<line x1="-5" y1="-7" x2="-4" y2="-8" stroke="black" stroke-width="0.1" />
<circle cx="-4" cy="-8" r="0.1" fill="green" stroke="none" stroke-width="0.2"/>
<line x1="-4" y1="-8" x2="-4" y2="-8" stroke="black" stroke-width="0.1" />
<circle cx="-4" cy="-8" r="0.1" fill="green" stroke="none" stroke-width="0.2"/>
<line x1="-4" y1="-8" x2="-5" y2="-8" stroke="black" stroke-width="0.1" />
<circle cx="-5" cy="-8" r="0.1" fill="green" stroke="none" stroke-width="0.2"/>
<line x1="-5" y1="-8" x2="-7" y2="-9" stroke="black" stroke-width="0.1" />
<circle cx="-7" cy="-9" r="0.1" fill="green" stroke="none" stroke-width="0.2"/>
<line x1="-7" y1="-9" x2="-8" y2="-10" stroke="black" stroke-width="0.1" />
<circle cx="-8" cy="-10" r="0.1" fill="green" stroke="none" stroke-width="0.2"/>
<line x1="-8" y1="-10" x2="-8" y2="-10" stroke="black" stroke-width="0.1" />
<circle cx="-8" cy="-10" r="0.1" fill="green" stroke="none" stroke-width="0.2"/>
<line x1="-8" y1="-10" x2="-7" y2="-10" stroke="black" stroke-width="0.1" />
<circle cx="-7" cy="-10" r="0.1" fill="green" stroke="none" stroke-width="0.2"/>
<line x1="-7" y1="-10" x2="-5" y2="-9" stroke="black" stroke-width="0.1" />
<circle cx="-5" cy="-9" r="0.1" fill="green" stroke="none" stroke-width="0.2"/>
<line x1="-5" y1="-9" x2="-2" y2="-7" stroke="black" stroke-width="0.1" />
<circle cx="-2" cy="-7" r="0.1" fill="green" stroke="none" stroke-width="0.2"/>
<line x1="-2" y1="-7" x2="2" y2="-5" stroke="black" stroke-width="0.1" />
<circle cx="2" cy="-5" r="0.1" fill="green" stroke="none" stroke-width="0.2"/>
<line x1="2" y1="-5" x2="6" y2="-4" stroke="black" stroke-width="0.1" />
<circle cx="6" cy="-4" r="0.1" fill="green" stroke="none" stroke-width="0.2"/>
<line x1="6" y1="-4" x2="9" y2="-4" stroke="black" stroke-width="0.1" />
<circle cx="9" cy="-4" r="0.1" fill="green" stroke="none" stroke-width="0.2"/>
<line x1="9" y1="-4" x2="11" y2="-5" stroke="black" stroke-width="0.1" />
<circle cx="11" cy="-5" r="0.1" fill="green" stroke="none" stroke-width="0.2"/>
<line x1="11" y1="-5" x2="12" y2="-5" stroke="black" stroke-width="0.1" />
<circle cx="12" cy="-5" r="0.1" fill="green" stroke="none" stroke-width="0.2"/>
<line x1="12" y1="-5" x2="12" y2="-5" stroke="black" stroke-width="0.1" />
<circle cx="12" cy="-5" r="0.1" fill="green" stroke="none" stroke-width="0.2"/>
<line x1="12" y1="-5" x2="11" y2="-5" stroke="black" stroke-width="0.1" />
<circle cx="11" cy="-5" r="0.1" fill="green" stroke="none" stroke-width="0.2"/>
<line x1="11" y1="-5" x2="9" y2="-5" stroke="black" stroke-width="0.1" />
<circle cx="9" cy="-5" r="0.1" fill="green" stroke="none" stroke-width="0.2"/>
<line x1="9" y1="-5" x2="6" y2="-5" stroke="black" stroke-width="0.1" />
<circle cx="6" cy="-5" r="0.1" fill="green" stroke="none" stroke-width="0.2"/>
<line x1="6" y1="-5" x2="4" y2="-4" stroke="black" stroke-width="0.1" />
<circle cx="4" cy="-4" r="0.1" fill="green" stroke="none" stroke-width="0.2"/>
<line x1="4" y1="-4" x2="3" y2="-2" stroke="black" stroke-width="0.1" />
<circle cx="3" cy="-2" r="0.1" fill="green" stroke="none" stroke-width="0.2"/>
<line x1="3" y1="-2" x2="3" y2="1" stroke="black" stroke-width="0.1" />
<circle cx="3" cy="1" r="0.1" fill="green" stroke="none" stroke-width="0.2"/>
<line x1="3" y1="1" x2="4" y2="4" stroke="black" stroke-width="0.1" />
<circle cx="4" cy="4" r="0.1" fill="green" stroke="none" stroke-width="0.2"/>
<line x1="4" y1="4" x2="5" y2="6" stroke="black" stroke-width="0.1" />
<circle cx="5" cy="6" r="0.1" fill="green" stroke="none" stroke-width="0.2"/>
<line x1="5" y1="6" x2="5" y2="7" stroke="black" stroke-width="0.1" />
<circle cx="5" cy="7" r="0.1" fill="green" stroke="none" stroke-width="0.2"/>
<line x1="5" y1="7" x2="5" y2="7" stroke="black" stroke-width="0.1" />
<circle cx="5" cy="7" r="0.1" fill="green" stroke="none" stroke-width="0.2"/>
<line x1="5" y1="7" x2="5" y2="6" stroke="black" stroke-width="0.1" />
<circle cx="5" cy="6" r="0.1" fill="green" stroke="none" stroke-width="0.2"/>
<line x1="5" y1="6" x2="5" y2="4" stroke="black" stroke-width="0.1" />
<circle cx="5" cy="4" r="0.1" fill="green" stroke="none" stroke-width="0.2"/>
<line x1="5" y1="4" x2="4" y2="3" stroke="black" stroke-width="0.1" />
<circle cx="4" cy="3" r="0.1" fill="green" stroke="none" stroke-width="0.2"/>
<line x1="4" y1="3" x2="2" y2="3" stroke="black" stroke-width="0.1" />
<circle cx="2" cy="3" r="0.1" fill="green" stroke="none" stroke-width="0.2"/>
<line x1="2" y1="3" x2="-1" y2="4" stroke="black" stroke-width="0.1" />
<circle cx="-1" cy="4" r="0.1" fill="green" stroke="none" stroke-width="0.2"/>
<line x1="-1" y1="4" x2="-3" y2="5" stroke="black" stroke-width="0.1" />
<circle cx="-3" cy="5" r="0.1" fill="green" stroke="none" stroke-width="0.2"/>
<line x1="-3" y1="5" x2="-4" y2="5" stroke="black" stroke-width="0.1" />
<circle cx="-4" cy="5" r="0.1" fill="green" stroke="none" stroke-width="0.2"/>
<line x1="-4" y1="5" x2="-4" y2="5" stroke="black" stroke-width="0.1" />
<circle cx="-4" cy="5" r="0.1" fill="green" stroke="none" stroke-width="0.2"/>
<line x1="-4" y1="5" x2="-3" y2="5" stroke="black" stroke-width="0.1" />
<circle cx="-3" cy="5" r="0.1" fill="green" stroke="none" stroke-width="0.2"/>
<line x1="-3" y1="5" x2="-1" y2="5" stroke="black" stroke-width="0.1" />
<circle cx="-1" cy="5" r="0.1" fill="green" stroke="none" stroke-width="0.2"/>
<line x1="-1" y1="5" x2="2" y2="6" stroke="black" stroke-width="0.1" />
<circle cx="2" cy="6" r="0.1" fill="green" stroke="none" stroke-width="0.2"/>
<line x1="2" y1="6" x2="4" y2="8" stroke="black" stroke-width="0.1" />
<circle cx="4" cy="8" r="0.1" fill="green" stroke="none" stroke-width="0.2"/>
<line x1="4" y1="8" x2="5" y2="10" stroke="black" stroke-width="0.1" />
<circle cx="5" cy="10" r="0.1" fill="green" stroke="none" stroke-width="0.2"/>
<line x1="5" y1="10" x2="5" y2="11" stroke="black" stroke-width="0.1" />
<circle cx="5" cy="11" r="0.1" fill="green" stroke="none" stroke-width="0.2"/>
<line x1="5" y1="11" x2="4" y2="11" stroke="black" stroke-width="0.1" />
<circle cx="4" cy="11" r="0.1" fill="green" stroke="none" stroke-width="0.2"/>
<line x1="4" y1="11" x2="4" y2="10" stroke="black" stroke-width="0.1" />
<circle cx="4" cy="10" r="0.1" fill="green" stroke="none" stroke-width="0.2"/>
<line x1="4" y1="10" x2="3" y2="8" stroke="black" stroke-width="0.1" />
<circle cx="3" cy="8" r="0.1" fill="green" stroke="none" stroke-width="0.2"/>
<line x1="3" y1="8" x2="2" y2="7" stroke="black" stroke-width="0.1" />
<circle cx="2" cy="7" r="0.1" fill="green" stroke="none" stroke-width="0.2"/>
<line x1="2" y1="7" x2="2" y2="7" stroke="black" stroke-width="0.1" />
<circle cx="2" cy="7" r="0.1" fill="green" stroke="none" stroke-width="0.2"/>
<line x1="2" y1="7" x2="2" y2="8" stroke="black" stroke-width="0.1" />
<circle cx="2" cy="8" r="0.1" fill="green" stroke="none" stroke-width="0.2"/>
<line x1="2" y1="8" x2="1" y2="8" stroke="black" stroke-width="0.1" />
<circle cx="1" cy="8" r="0.1" fill="green" stroke="none" stroke-width="0.2"/>
<line x1="1" y1="8" x2="-1" y2="7" stroke="black" stroke-width="0.1" />
<circle cx="-1" cy="7" r="0.1" fill="green" stroke="none" stroke-width="0.2"/>
<line x1="-1" y1="7" x2="-4" y2="7" stroke="black" stroke-width="0.1" />
<circle cx="-4" cy="7" r="0.1" fill="green" stroke="none" stroke-width="0.2"/>
<line x1="-4" y1="7" x2="-8" y2="7" stroke="black" stroke-width="0.1" />
<circle cx="-8" cy="7" r="0.1" fill="green" stroke="none" stroke-width="0.2"/>
<line x1="-8" y1="7" x2="-11" y2="6" stroke="black" stroke-width="0.1" />
<circle cx="-11" cy="6" r="0.1" fill="green" stroke="none" stroke-width="0.2"/>
<line x1="-11" y1="6" x2="-13" y2="4" stroke="black" stroke-width="0.1" />
<circle cx="-13" cy="4" r="0.1" fill="green" stroke="none" stroke-width="0.2"/>
<line x1="-13" y1="4" x2="-14" y2="3" stroke="black" stroke-width="0.1" />
<circle cx="-14" cy="3" r="0.1" fill="green" stroke="none" stroke-width="0.2"/>
<line x1="-14" y1="3" x2="-14" y2="3" stroke="black" stroke-width="0.1" />
<circle cx="-14" cy="3" r="0.1" fill="green" stroke="none" stroke-width="0.2"/>
<line x1="-14" y1="3" x2="-13" y2="4" stroke="black" stroke-width="0.1" />
<circle cx="-13" cy="4" r="0.1" fill="green" stroke="none" stroke-width="0.2"/>
<line x1="-13" y1="4" x2="-11" y2="4" stroke="black" stroke-width="0.1" />
<circle cx="-11" cy="4" r="0.1" fill="green" stroke="none" stroke-width="0.2"/>
<line x1="-11" y1="4" x2="-10" y2="4" stroke="black" stroke-width="0.1" />
<circle cx="-10" cy="4" r="0.1" fill="green" stroke="none" stroke-width="0.2"/>
<line x1="-10" y1="4" x2="-8" y2="3" stroke="black" stroke-width="0.1" />
<circle cx="-8" cy="3" r="0.1" fill="green" stroke="none" stroke-width="0.2"/>
<line x1="-8" y1="3" x2="-5" y2="1" stroke="black" stroke-width="0.1" />
<circle cx="-5" cy="1" r="0.1" fill="green" stroke="none" stroke-width="0.2"/>
<line x1="-5" y1="1" x2="-1" y2="0" stroke="black" stroke-width="0.1" />
<circle cx="-1" cy="0" r="0.1" fill="green" stroke="none" stroke-width="0.2"/>
<line x1="-1" y1="0" x2="4" y2="0" stroke="black" stroke-width="0.1" />
<circle cx="4" cy="0" r="0.1" fill="green" stroke="none" stroke-width="0.2"/>
<line x1="4" y1="0" x2="10" y2="1" stroke="black" stroke-width="0.1" />
<circle cx="10" cy="1" r="0.1" fill="green" stroke="none" stroke-width="0.2"/>

    </svg>
