
    <svg version="1.1"
        viewBox="-10.4, -10.4, 20.8, 20.8"
        xmlns="http://www.w3.org/2000/svg">

        <rect x="-10.4" y="-10.4" width="100%" height="100%" style="fill:white; stroke-width:0.1; stroke: black" />

<circle cx="0" cy="0" r="0.30000000000000004" fill="red" stroke="none" stroke-width="0.2"/>
<circle cx="-8" cy="7" r="0.2" fill="blue" stroke="none" stroke-width="0.2"/>
<circle cx="-10" cy="4" r="0.2" fill="blue" stroke="none" stroke-width="0.2"/>
<circle cx="-6" cy="-1" r="0.2" fill="blue" stroke="none" stroke-width="0.2"/>
<circle cx="-5" cy="-8" r="0.2" fill="blue" stroke="none" stroke-width="0.2"/>
<circle cx="4" cy="10" r="0.2" fill="blue" stroke="none" stroke-width="0.2"/>
<circle cx="0" cy="-1" r="0.2" fill="blue" stroke="none" stroke-width="0.2"/>
<circle cx="-8" cy="-1" r="0.2" fill="blue" stroke="none" stroke-width="0.2"/>
<circle cx="-7" cy="-10" r="0.2" fill="blue" stroke="none" stroke-width="0.2"/>
<circle cx="2" cy="8" r="0.2" fill="blue" stroke="none" stroke-width="0.2"/>
<circle cx="10" cy="1" r="0.2" fill="blue" stroke="none" stroke-width="0.2"/>
<circle cx="5" cy="4" r="0.2" fill="blue" stroke="none" stroke-width="0.2"/>
<circle cx="-8" cy="-2" r="0.2" fill="blue" stroke="none" stroke-width="0.2"/>
<circle cx="-1" cy="5" r="0.2" fill="blue" stroke="none" stroke-width="0.2"/>
<circle cx="6" cy="-5" r="0.2" fill="blue" stroke="none" stroke-width="0.2"/>
<circle cx="-7" cy="-3" r="0.2" fill="blue" stroke="none" stroke-width="0.2"/>
<circle cx="-5" cy="-4" r="0.2" fill="blue" stroke="none" stroke-width="0.2"/>
<circle cx="9" cy="-5" r="0.2" fill="blue" stroke="none" stroke-width="0.2"/>
<circle cx="0" cy="0" r="0.2" fill="blue" stroke="none" stroke-width="0.2"/>
<circle cx="-9" cy="-4" r="0.2" fill="blue" stroke="none" stroke-width="0.2"/>

    </svg>
