
    <svg version="1.1"
        width="20.8" height="20.8"
        xmlns="http://www.w3.org/2000/svg">

        <rect width="100%" height="100%" style="fill:white; stroke-width:0.1; stroke: black" />

<circle cx="2.4" cy="17.4" r="0.2" fill="blue" stroke="none" stroke-width="0.2"/>
<circle cx="0.4" cy="14.4" r="0.2" fill="blue" stroke="none" stroke-width="0.2"/>
<circle cx="4.4" cy="9.4" r="0.2" fill="blue" stroke="none" stroke-width="0.2"/>
<circle cx="5.4" cy="2.4" r="0.2" fill="blue" stroke="none" stroke-width="0.2"/>
<circle cx="14.4" cy="20.4" r="0.2" fill="blue" stroke="none" stroke-width="0.2"/>
<circle cx="10.4" cy="9.4" r="0.2" fill="blue" stroke="none" stroke-width="0.2"/>
<circle cx="2.4" cy="9.4" r="0.2" fill="blue" stroke="none" stroke-width="0.2"/>
<circle cx="3.4" cy="0.4" r="0.2" fill="blue" stroke="none" stroke-width="0.2"/>
<circle cx="12.4" cy="18.4" r="0.2" fill="blue" stroke="none" stroke-width="0.2"/>
<circle cx="20.4" cy="11.4" r="0.2" fill="blue" stroke="none" stroke-width="0.2"/>
<circle cx="15.4" cy="14.4" r="0.2" fill="blue" stroke="none" stroke-width="0.2"/>
<circle cx="2.4" cy="8.4" r="0.2" fill="blue" stroke="none" stroke-width="0.2"/>
<circle cx="9.4" cy="15.4" r="0.2" fill="blue" stroke="none" stroke-width="0.2"/>
<circle cx="16.4" cy="5.4" r="0.2" fill="blue" stroke="none" stroke-width="0.2"/>
<circle cx="3.4" cy="7.4" r="0.2" fill="blue" stroke="none" stroke-width="0.2"/>
<circle cx="5.4" cy="6.4" r="0.2" fill="blue" stroke="none" stroke-width="0.2"/>
<circle cx="19.4" cy="5.4" r="0.2" fill="blue" stroke="none" stroke-width="0.2"/>
<circle cx="10.4" cy="10.4" r="0.2" fill="blue" stroke="none" stroke-width="0.2"/>
<circle cx="1.4" cy="6.4" r="0.2" fill="blue" stroke="none" stroke-width="0.2"/>

    </svg>
