
    <svg version="1.1"
        width="200.8" height="200.8"
        xmlns="http://www.w3.org/2000/svg">

        <rect width="100%" height="100%" style="fill:white; stroke-width:0.1; stroke: black" />

<circle cx="141.4" cy="17.4" r="0.2" fill="blue" stroke="none" stroke-width="0.2"/>
<circle cx="3.4" cy="54.4" r="0.2" fill="blue" stroke="none" stroke-width="0.2"/>
<circle cx="127.4" cy="14.4" r="0.2" fill="blue" stroke="none" stroke-width="0.2"/>
<circle cx="127.4" cy="117.4" r="0.2" fill="blue" stroke="none" stroke-width="0.2"/>
<circle cx="0.4" cy="75.4" r="0.2" fill="blue" stroke="none" stroke-width="0.2"/>
<circle cx="111.4" cy="157.4" r="0.2" fill="blue" stroke="none" stroke-width="0.2"/>
<circle cx="70.4" cy="111.4" r="0.2" fill="blue" stroke="none" stroke-width="0.2"/>
<circle cx="63.4" cy="17.4" r="0.2" fill="blue" stroke="none" stroke-width="0.2"/>
<circle cx="72.4" cy="183.4" r="0.2" fill="blue" stroke="none" stroke-width="0.2"/>
<circle cx="53.4" cy="146.4" r="0.2" fill="blue" stroke="none" stroke-width="0.2"/>
<circle cx="47.4" cy="162.4" r="0.2" fill="blue" stroke="none" stroke-width="0.2"/>
<circle cx="14.4" cy="40.4" r="0.2" fill="blue" stroke="none" stroke-width="0.2"/>
<circle cx="19.4" cy="95.4" r="0.2" fill="blue" stroke="none" stroke-width="0.2"/>
<circle cx="97.4" cy="71.4" r="0.2" fill="blue" stroke="none" stroke-width="0.2"/>
<circle cx="33.4" cy="4.4" r="0.2" fill="blue" stroke="none" stroke-width="0.2"/>
<circle cx="102.4" cy="124.4" r="0.2" fill="blue" stroke="none" stroke-width="0.2"/>
<circle cx="106.4" cy="81.4" r="0.2" fill="blue" stroke="none" stroke-width="0.2"/>
<circle cx="177.4" cy="51.4" r="0.2" fill="blue" stroke="none" stroke-width="0.2"/>
<circle cx="76.4" cy="114.4" r="0.2" fill="blue" stroke="none" stroke-width="0.2"/>
<circle cx="30.4" cy="182.4" r="0.2" fill="blue" stroke="none" stroke-width="0.2"/>
<circle cx="179.4" cy="33.4" r="0.2" fill="blue" stroke="none" stroke-width="0.2"/>
<circle cx="144.4" cy="156.4" r="0.2" fill="blue" stroke="none" stroke-width="0.2"/>
<circle cx="51.4" cy="16.4" r="0.2" fill="blue" stroke="none" stroke-width="0.2"/>
<circle cx="169.4" cy="93.4" r="0.2" fill="blue" stroke="none" stroke-width="0.2"/>
<circle cx="193.4" cy="67.4" r="0.2" fill="blue" stroke="none" stroke-width="0.2"/>
<circle cx="8.4" cy="66.4" r="0.2" fill="blue" stroke="none" stroke-width="0.2"/>
<circle cx="109.4" cy="80.4" r="0.2" fill="blue" stroke="none" stroke-width="0.2"/>
<circle cx="194.4" cy="95.4" r="0.2" fill="blue" stroke="none" stroke-width="0.2"/>
<circle cx="91.4" cy="106.4" r="0.2" fill="blue" stroke="none" stroke-width="0.2"/>
<circle cx="75.4" cy="36.4" r="0.2" fill="blue" stroke="none" stroke-width="0.2"/>
<circle cx="109.4" cy="155.4" r="0.2" fill="blue" stroke="none" stroke-width="0.2"/>
<circle cx="63.4" cy="5.4" r="0.2" fill="blue" stroke="none" stroke-width="0.2"/>
<circle cx="93.4" cy="86.4" r="0.2" fill="blue" stroke="none" stroke-width="0.2"/>
<circle cx="6.4" cy="128.4" r="0.2" fill="blue" stroke="none" stroke-width="0.2"/>
<circle cx="67.4" cy="4.4" r="0.2" fill="blue" stroke="none" stroke-width="0.2"/>
<circle cx="99.4" cy="37.4" r="0.2" fill="blue" stroke="none" stroke-width="0.2"/>
<circle cx="181.4" cy="113.4" r="0.2" fill="blue" stroke="none" stroke-width="0.2"/>
<circle cx="43.4" cy="57.4" r="0.2" fill="blue" stroke="none" stroke-width="0.2"/>
<circle cx="80.4" cy="78.4" r="0.2" fill="blue" stroke="none" stroke-width="0.2"/>
<circle cx="104.4" cy="151.4" r="0.2" fill="blue" stroke="none" stroke-width="0.2"/>
<circle cx="103.4" cy="46.4" r="0.2" fill="blue" stroke="none" stroke-width="0.2"/>
<circle cx="179.4" cy="59.4" r="0.2" fill="blue" stroke="none" stroke-width="0.2"/>
<circle cx="18.4" cy="187.4" r="0.2" fill="blue" stroke="none" stroke-width="0.2"/>
<circle cx="162.4" cy="32.4" r="0.2" fill="blue" stroke="none" stroke-width="0.2"/>
<circle cx="133.4" cy="115.4" r="0.2" fill="blue" stroke="none" stroke-width="0.2"/>
<circle cx="1.4" cy="26.4" r="0.2" fill="blue" stroke="none" stroke-width="0.2"/>
<circle cx="199.4" cy="159.4" r="0.2" fill="blue" stroke="none" stroke-width="0.2"/>
<circle cx="92.4" cy="106.4" r="0.2" fill="blue" stroke="none" stroke-width="0.2"/>
<circle cx="98.4" cy="95.4" r="0.2" fill="blue" stroke="none" stroke-width="0.2"/>
<circle cx="14.4" cy="168.4" r="0.2" fill="blue" stroke="none" stroke-width="0.2"/>
<circle cx="34.4" cy="94.4" r="0.2" fill="blue" stroke="none" stroke-width="0.2"/>
<circle cx="26.4" cy="162.4" r="0.2" fill="blue" stroke="none" stroke-width="0.2"/>
<circle cx="141.4" cy="180.4" r="0.2" fill="blue" stroke="none" stroke-width="0.2"/>
<circle cx="121.4" cy="87.4" r="0.2" fill="blue" stroke="none" stroke-width="0.2"/>
<circle cx="49.4" cy="197.4" r="0.2" fill="blue" stroke="none" stroke-width="0.2"/>
<circle cx="8.4" cy="16.4" r="0.2" fill="blue" stroke="none" stroke-width="0.2"/>
<circle cx="44.4" cy="138.4" r="0.2" fill="blue" stroke="none" stroke-width="0.2"/>
<circle cx="175.4" cy="186.4" r="0.2" fill="blue" stroke="none" stroke-width="0.2"/>
<circle cx="184.4" cy="138.4" r="0.2" fill="blue" stroke="none" stroke-width="0.2"/>
<circle cx="136.4" cy="80.4" r="0.2" fill="blue" stroke="none" stroke-width="0.2"/>
<circle cx="34.4" cy="40.4" r="0.2" fill="blue" stroke="none" stroke-width="0.2"/>
<circle cx="186.4" cy="20.4" r="0.2" fill="blue" stroke="none" stroke-width="0.2"/>
<circle cx="28.4" cy="6.4" r="0.2" fill="blue" stroke="none" stroke-width="0.2"/>
<circle cx="158.4" cy="185.4" r="0.2" fill="blue" stroke="none" stroke-width="0.2"/>
<circle cx="138.4" cy="123.4" r="0.2" fill="blue" stroke="none" stroke-width="0.2"/>
<circle cx="57.4" cy="53.4" r="0.2" fill="blue" stroke="none" stroke-width="0.2"/>
<circle cx="158.4" cy="117.4" r="0.2" fill="blue" stroke="none" stroke-width="0.2"/>
<circle cx="48.4" cy="59.4" r="0.2" fill="blue" stroke="none" stroke-width="0.2"/>
<circle cx="113.4" cy="19.4" r="0.2" fill="blue" stroke="none" stroke-width="0.2"/>
<circle cx="74.4" cy="58.4" r="0.2" fill="blue" stroke="none" stroke-width="0.2"/>
<circle cx="46.4" cy="140.4" r="0.2" fill="blue" stroke="none" stroke-width="0.2"/>
<circle cx="164.4" cy="57.4" r="0.2" fill="blue" stroke="none" stroke-width="0.2"/>
<circle cx="121.4" cy="186.4" r="0.2" fill="blue" stroke="none" stroke-width="0.2"/>
<circle cx="175.4" cy="70.4" r="0.2" fill="blue" stroke="none" stroke-width="0.2"/>
<circle cx="186.4" cy="10.4" r="0.2" fill="blue" stroke="none" stroke-width="0.2"/>
<circle cx="127.4" cy="140.4" r="0.2" fill="blue" stroke="none" stroke-width="0.2"/>
<circle cx="153.4" cy="56.4" r="0.2" fill="blue" stroke="none" stroke-width="0.2"/>
<circle cx="173.4" cy="25.4" r="0.2" fill="blue" stroke="none" stroke-width="0.2"/>
<circle cx="138.4" cy="11.4" r="0.2" fill="blue" stroke="none" stroke-width="0.2"/>
<circle cx="197.4" cy="54.4" r="0.2" fill="blue" stroke="none" stroke-width="0.2"/>
<circle cx="93.4" cy="129.4" r="0.2" fill="blue" stroke="none" stroke-width="0.2"/>
<circle cx="48.4" cy="41.4" r="0.2" fill="blue" stroke="none" stroke-width="0.2"/>
<circle cx="4.4" cy="20.4" r="0.2" fill="blue" stroke="none" stroke-width="0.2"/>
<circle cx="167.4" cy="39.4" r="0.2" fill="blue" stroke="none" stroke-width="0.2"/>
<circle cx="82.4" cy="124.4" r="0.2" fill="blue" stroke="none" stroke-width="0.2"/>
<circle cx="71.4" cy="178.4" r="0.2" fill="blue" stroke="none" stroke-width="0.2"/>
<circle cx="58.4" cy="67.4" r="0.2" fill="blue" stroke="none" stroke-width="0.2"/>
<circle cx="112.4" cy="136.4" r="0.2" fill="blue" stroke="none" stroke-width="0.2"/>
<circle cx="132.4" cy="33.4" r="0.2" fill="blue" stroke="none" stroke-width="0.2"/>
<circle cx="158.4" cy="138.4" r="0.2" fill="blue" stroke="none" stroke-width="0.2"/>
<circle cx="160.4" cy="88.4" r="0.2" fill="blue" stroke="none" stroke-width="0.2"/>
<circle cx="125.4" cy="108.4" r="0.2" fill="blue" stroke="none" stroke-width="0.2"/>
<circle cx="191.4" cy="135.4" r="0.2" fill="blue" stroke="none" stroke-width="0.2"/>
<circle cx="114.4" cy="92.4" r="0.2" fill="blue" stroke="none" stroke-width="0.2"/>
<circle cx="198.4" cy="68.4" r="0.2" fill="blue" stroke="none" stroke-width="0.2"/>
<circle cx="181.4" cy="150.4" r="0.2" fill="blue" stroke="none" stroke-width="0.2"/>
<circle cx="76.4" cy="128.4" r="0.2" fill="blue" stroke="none" stroke-width="0.2"/>
<circle cx="85.4" cy="84.4" r="0.2" fill="blue" stroke="none" stroke-width="0.2"/>
<circle cx="118.4" cy="63.4" r="0.2" fill="blue" stroke="none" stroke-width="0.2"/>
<circle cx="151.4" cy="18.4" r="0.2" fill="blue" stroke="none" stroke-width="0.2"/>
<circle cx="58.4" cy="146.4" r="0.2" fill="blue" stroke="none" stroke-width="0.2"/>
<circle cx="128.4" cy="12.4" r="0.2" fill="blue" stroke="none" stroke-width="0.2"/>
<circle cx="136.4" cy="140.4" r="0.2" fill="blue" stroke="none" stroke-width="0.2"/>
<circle cx="15.4" cy="11.4" r="0.2" fill="blue" stroke="none" stroke-width="0.2"/>
<circle cx="152.4" cy="200.4" r="0.2" fill="blue" stroke="none" stroke-width="0.2"/>
<circle cx="92.4" cy="126.4" r="0.2" fill="blue" stroke="none" stroke-width="0.2"/>
<circle cx="25.4" cy="13.4" r="0.2" fill="blue" stroke="none" stroke-width="0.2"/>
<circle cx="87.4" cy="84.4" r="0.2" fill="blue" stroke="none" stroke-width="0.2"/>
<circle cx="119.4" cy="174.4" r="0.2" fill="blue" stroke="none" stroke-width="0.2"/>
<circle cx="0.4" cy="72.4" r="0.2" fill="blue" stroke="none" stroke-width="0.2"/>
<circle cx="7.4" cy="118.4" r="0.2" fill="blue" stroke="none" stroke-width="0.2"/>
<circle cx="123.4" cy="161.4" r="0.2" fill="blue" stroke="none" stroke-width="0.2"/>
<circle cx="175.4" cy="26.4" r="0.2" fill="blue" stroke="none" stroke-width="0.2"/>
<circle cx="60.4" cy="124.4" r="0.2" fill="blue" stroke="none" stroke-width="0.2"/>
<circle cx="110.4" cy="170.4" r="0.2" fill="blue" stroke="none" stroke-width="0.2"/>
<circle cx="31.4" cy="147.4" r="0.2" fill="blue" stroke="none" stroke-width="0.2"/>
<circle cx="195.4" cy="152.4" r="0.2" fill="blue" stroke="none" stroke-width="0.2"/>
<circle cx="103.4" cy="144.4" r="0.2" fill="blue" stroke="none" stroke-width="0.2"/>
<circle cx="142.4" cy="43.4" r="0.2" fill="blue" stroke="none" stroke-width="0.2"/>
<circle cx="167.4" cy="68.4" r="0.2" fill="blue" stroke="none" stroke-width="0.2"/>
<circle cx="46.4" cy="105.4" r="0.2" fill="blue" stroke="none" stroke-width="0.2"/>
<circle cx="14.4" cy="126.4" r="0.2" fill="blue" stroke="none" stroke-width="0.2"/>
<circle cx="23.4" cy="37.4" r="0.2" fill="blue" stroke="none" stroke-width="0.2"/>
<circle cx="124.4" cy="154.4" r="0.2" fill="blue" stroke="none" stroke-width="0.2"/>
<circle cx="188.4" cy="53.4" r="0.2" fill="blue" stroke="none" stroke-width="0.2"/>
<circle cx="33.4" cy="35.4" r="0.2" fill="blue" stroke="none" stroke-width="0.2"/>
<circle cx="158.4" cy="120.4" r="0.2" fill="blue" stroke="none" stroke-width="0.2"/>
<circle cx="73.4" cy="115.4" r="0.2" fill="blue" stroke="none" stroke-width="0.2"/>
<circle cx="181.4" cy="176.4" r="0.2" fill="blue" stroke="none" stroke-width="0.2"/>
<circle cx="198.4" cy="39.4" r="0.2" fill="blue" stroke="none" stroke-width="0.2"/>
<circle cx="130.4" cy="25.4" r="0.2" fill="blue" stroke="none" stroke-width="0.2"/>
<circle cx="187.4" cy="46.4" r="0.2" fill="blue" stroke="none" stroke-width="0.2"/>
<circle cx="182.4" cy="37.4" r="0.2" fill="blue" stroke="none" stroke-width="0.2"/>
<circle cx="33.4" cy="108.4" r="0.2" fill="blue" stroke="none" stroke-width="0.2"/>
<circle cx="77.4" cy="99.4" r="0.2" fill="blue" stroke="none" stroke-width="0.2"/>
<circle cx="122.4" cy="56.4" r="0.2" fill="blue" stroke="none" stroke-width="0.2"/>
<circle cx="41.4" cy="98.4" r="0.2" fill="blue" stroke="none" stroke-width="0.2"/>
<circle cx="8.4" cy="78.4" r="0.2" fill="blue" stroke="none" stroke-width="0.2"/>
<circle cx="110.4" cy="35.4" r="0.2" fill="blue" stroke="none" stroke-width="0.2"/>
<circle cx="104.4" cy="171.4" r="0.2" fill="blue" stroke="none" stroke-width="0.2"/>
<circle cx="62.4" cy="12.4" r="0.2" fill="blue" stroke="none" stroke-width="0.2"/>
<circle cx="62.4" cy="40.4" r="0.2" fill="blue" stroke="none" stroke-width="0.2"/>
<circle cx="191.4" cy="159.4" r="0.2" fill="blue" stroke="none" stroke-width="0.2"/>
<circle cx="159.4" cy="80.4" r="0.2" fill="blue" stroke="none" stroke-width="0.2"/>
<circle cx="155.4" cy="49.4" r="0.2" fill="blue" stroke="none" stroke-width="0.2"/>
<circle cx="1.4" cy="176.4" r="0.2" fill="blue" stroke="none" stroke-width="0.2"/>
<circle cx="89.4" cy="197.4" r="0.2" fill="blue" stroke="none" stroke-width="0.2"/>
<circle cx="98.4" cy="170.4" r="0.2" fill="blue" stroke="none" stroke-width="0.2"/>
<circle cx="175.4" cy="39.4" r="0.2" fill="blue" stroke="none" stroke-width="0.2"/>
<circle cx="8.4" cy="29.4" r="0.2" fill="blue" stroke="none" stroke-width="0.2"/>
<circle cx="134.4" cy="64.4" r="0.2" fill="blue" stroke="none" stroke-width="0.2"/>
<circle cx="78.4" cy="0.4" r="0.2" fill="blue" stroke="none" stroke-width="0.2"/>
<circle cx="179.4" cy="188.4" r="0.2" fill="blue" stroke="none" stroke-width="0.2"/>
<circle cx="139.4" cy="94.4" r="0.2" fill="blue" stroke="none" stroke-width="0.2"/>
<circle cx="3.4" cy="41.4" r="0.2" fill="blue" stroke="none" stroke-width="0.2"/>
<circle cx="96.4" cy="8.4" r="0.2" fill="blue" stroke="none" stroke-width="0.2"/>
<circle cx="44.4" cy="8.4" r="0.2" fill="blue" stroke="none" stroke-width="0.2"/>
<circle cx="6.4" cy="58.4" r="0.2" fill="blue" stroke="none" stroke-width="0.2"/>
<circle cx="87.4" cy="50.4" r="0.2" fill="blue" stroke="none" stroke-width="0.2"/>
<circle cx="86.4" cy="155.4" r="0.2" fill="blue" stroke="none" stroke-width="0.2"/>
<circle cx="69.4" cy="25.4" r="0.2" fill="blue" stroke="none" stroke-width="0.2"/>
<circle cx="108.4" cy="2.4" r="0.2" fill="blue" stroke="none" stroke-width="0.2"/>
<circle cx="42.4" cy="128.4" r="0.2" fill="blue" stroke="none" stroke-width="0.2"/>
<circle cx="82.4" cy="16.4" r="0.2" fill="blue" stroke="none" stroke-width="0.2"/>
<circle cx="98.4" cy="108.4" r="0.2" fill="blue" stroke="none" stroke-width="0.2"/>
<circle cx="108.4" cy="12.4" r="0.2" fill="blue" stroke="none" stroke-width="0.2"/>
<circle cx="147.4" cy="183.4" r="0.2" fill="blue" stroke="none" stroke-width="0.2"/>
<circle cx="120.4" cy="80.4" r="0.2" fill="blue" stroke="none" stroke-width="0.2"/>
<circle cx="23.4" cy="177.4" r="0.2" fill="blue" stroke="none" stroke-width="0.2"/>
<circle cx="122.4" cy="14.4" r="0.2" fill="blue" stroke="none" stroke-width="0.2"/>
<circle cx="145.4" cy="6.4" r="0.2" fill="blue" stroke="none" stroke-width="0.2"/>
<circle cx="158.4" cy="93.4" r="0.2" fill="blue" stroke="none" stroke-width="0.2"/>
<circle cx="134.4" cy="197.4" r="0.2" fill="blue" stroke="none" stroke-width="0.2"/>
<circle cx="92.4" cy="145.4" r="0.2" fill="blue" stroke="none" stroke-width="0.2"/>
<circle cx="86.4" cy="172.4" r="0.2" fill="blue" stroke="none" stroke-width="0.2"/>
<circle cx="27.4" cy="29.4" r="0.2" fill="blue" stroke="none" stroke-width="0.2"/>
<circle cx="131.4" cy="69.4" r="0.2" fill="blue" stroke="none" stroke-width="0.2"/>
<circle cx="13.4" cy="166.4" r="0.2" fill="blue" stroke="none" stroke-width="0.2"/>
<circle cx="113.4" cy="73.4" r="0.2" fill="blue" stroke="none" stroke-width="0.2"/>
<circle cx="43.4" cy="113.4" r="0.2" fill="blue" stroke="none" stroke-width="0.2"/>
<circle cx="9.4" cy="151.4" r="0.2" fill="blue" stroke="none" stroke-width="0.2"/>
<circle cx="147.4" cy="18.4" r="0.2" fill="blue" stroke="none" stroke-width="0.2"/>
<circle cx="192.4" cy="71.4" r="0.2" fill="blue" stroke="none" stroke-width="0.2"/>
<circle cx="70.4" cy="77.4" r="0.2" fill="blue" stroke="none" stroke-width="0.2"/>
<circle cx="17.4" cy="60.4" r="0.2" fill="blue" stroke="none" stroke-width="0.2"/>
<circle cx="59.4" cy="175.4" r="0.2" fill="blue" stroke="none" stroke-width="0.2"/>
<circle cx="90.4" cy="153.4" r="0.2" fill="blue" stroke="none" stroke-width="0.2"/>
<circle cx="36.4" cy="29.4" r="0.2" fill="blue" stroke="none" stroke-width="0.2"/>
<circle cx="32.4" cy="70.4" r="0.2" fill="blue" stroke="none" stroke-width="0.2"/>
<circle cx="159.4" cy="77.4" r="0.2" fill="blue" stroke="none" stroke-width="0.2"/>
<circle cx="170.4" cy="90.4" r="0.2" fill="blue" stroke="none" stroke-width="0.2"/>
<circle cx="192.4" cy="96.4" r="0.2" fill="blue" stroke="none" stroke-width="0.2"/>
<circle cx="18.4" cy="18.4" r="0.2" fill="blue" stroke="none" stroke-width="0.2"/>
<circle cx="87.4" cy="148.4" r="0.2" fill="blue" stroke="none" stroke-width="0.2"/>
<circle cx="193.4" cy="34.4" r="0.2" fill="blue" stroke="none" stroke-width="0.2"/>
<circle cx="31.4" cy="24.4" r="0.2" fill="blue" stroke="none" stroke-width="0.2"/>
<circle cx="98.4" cy="80.4" r="0.2" fill="blue" stroke="none" stroke-width="0.2"/>
<circle cx="193.4" cy="78.4" r="0.2" fill="blue" stroke="none" stroke-width="0.2"/>
<circle cx="164.4" cy="71.4" r="0.2" fill="blue" stroke="none" stroke-width="0.2"/>
<circle cx="90.4" cy="150.4" r="0.2" fill="blue" stroke="none" stroke-width="0.2"/>
<circle cx="192.4" cy="9.4" r="0.2" fill="blue" stroke="none" stroke-width="0.2"/>
<circle cx="178.4" cy="17.4" r="0.2" fill="blue" stroke="none" stroke-width="0.2"/>
<circle cx="33.4" cy="128.4" r="0.2" fill="blue" stroke="none" stroke-width="0.2"/>
<circle cx="125.4" cy="145.4" r="0.2" fill="blue" stroke="none" stroke-width="0.2"/>
<circle cx="34.4" cy="73.4" r="0.2" fill="blue" stroke="none" stroke-width="0.2"/>
<circle cx="5.4" cy="91.4" r="0.2" fill="blue" stroke="none" stroke-width="0.2"/>
<circle cx="133.4" cy="77.4" r="0.2" fill="blue" stroke="none" stroke-width="0.2"/>
<circle cx="9.4" cy="159.4" r="0.2" fill="blue" stroke="none" stroke-width="0.2"/>
<circle cx="88.4" cy="137.4" r="0.2" fill="blue" stroke="none" stroke-width="0.2"/>
<circle cx="195.4" cy="56.4" r="0.2" fill="blue" stroke="none" stroke-width="0.2"/>
<circle cx="181.4" cy="26.4" r="0.2" fill="blue" stroke="none" stroke-width="0.2"/>
<circle cx="110.4" cy="162.4" r="0.2" fill="blue" stroke="none" stroke-width="0.2"/>
<circle cx="114.4" cy="16.4" r="0.2" fill="blue" stroke="none" stroke-width="0.2"/>
<circle cx="115.4" cy="92.4" r="0.2" fill="blue" stroke="none" stroke-width="0.2"/>
<circle cx="71.4" cy="88.4" r="0.2" fill="blue" stroke="none" stroke-width="0.2"/>
<circle cx="197.4" cy="3.4" r="0.2" fill="blue" stroke="none" stroke-width="0.2"/>
<circle cx="113.4" cy="104.4" r="0.2" fill="blue" stroke="none" stroke-width="0.2"/>
<circle cx="98.4" cy="2.4" r="0.2" fill="blue" stroke="none" stroke-width="0.2"/>
<circle cx="103.4" cy="168.4" r="0.2" fill="blue" stroke="none" stroke-width="0.2"/>
<circle cx="16.4" cy="118.4" r="0.2" fill="blue" stroke="none" stroke-width="0.2"/>
<circle cx="128.4" cy="28.4" r="0.2" fill="blue" stroke="none" stroke-width="0.2"/>
<circle cx="44.4" cy="174.4" r="0.2" fill="blue" stroke="none" stroke-width="0.2"/>
<circle cx="147.4" cy="26.4" r="0.2" fill="blue" stroke="none" stroke-width="0.2"/>
<circle cx="158.4" cy="136.4" r="0.2" fill="blue" stroke="none" stroke-width="0.2"/>
<circle cx="64.4" cy="70.4" r="0.2" fill="blue" stroke="none" stroke-width="0.2"/>
<circle cx="184.4" cy="194.4" r="0.2" fill="blue" stroke="none" stroke-width="0.2"/>
<circle cx="157.4" cy="4.4" r="0.2" fill="blue" stroke="none" stroke-width="0.2"/>
<circle cx="17.4" cy="84.4" r="0.2" fill="blue" stroke="none" stroke-width="0.2"/>
<circle cx="147.4" cy="40.4" r="0.2" fill="blue" stroke="none" stroke-width="0.2"/>
<circle cx="50.4" cy="131.4" r="0.2" fill="blue" stroke="none" stroke-width="0.2"/>
<circle cx="49.4" cy="72.4" r="0.2" fill="blue" stroke="none" stroke-width="0.2"/>
<circle cx="25.4" cy="186.4" r="0.2" fill="blue" stroke="none" stroke-width="0.2"/>
<circle cx="134.4" cy="93.4" r="0.2" fill="blue" stroke="none" stroke-width="0.2"/>
<circle cx="161.4" cy="141.4" r="0.2" fill="blue" stroke="none" stroke-width="0.2"/>
<circle cx="49.4" cy="46.4" r="0.2" fill="blue" stroke="none" stroke-width="0.2"/>
<circle cx="19.4" cy="183.4" r="0.2" fill="blue" stroke="none" stroke-width="0.2"/>
<circle cx="132.4" cy="80.4" r="0.2" fill="blue" stroke="none" stroke-width="0.2"/>
<circle cx="27.4" cy="74.4" r="0.2" fill="blue" stroke="none" stroke-width="0.2"/>
<circle cx="181.4" cy="34.4" r="0.2" fill="blue" stroke="none" stroke-width="0.2"/>
<circle cx="31.4" cy="23.4" r="0.2" fill="blue" stroke="none" stroke-width="0.2"/>
<circle cx="123.4" cy="113.4" r="0.2" fill="blue" stroke="none" stroke-width="0.2"/>
<circle cx="28.4" cy="179.4" r="0.2" fill="blue" stroke="none" stroke-width="0.2"/>
<circle cx="36.4" cy="7.4" r="0.2" fill="blue" stroke="none" stroke-width="0.2"/>
<circle cx="143.4" cy="44.4" r="0.2" fill="blue" stroke="none" stroke-width="0.2"/>
<circle cx="53.4" cy="42.4" r="0.2" fill="blue" stroke="none" stroke-width="0.2"/>
<circle cx="79.4" cy="168.4" r="0.2" fill="blue" stroke="none" stroke-width="0.2"/>
<circle cx="194.4" cy="29.4" r="0.2" fill="blue" stroke="none" stroke-width="0.2"/>
<circle cx="24.4" cy="33.4" r="0.2" fill="blue" stroke="none" stroke-width="0.2"/>
<circle cx="96.4" cy="196.4" r="0.2" fill="blue" stroke="none" stroke-width="0.2"/>
<circle cx="71.4" cy="183.4" r="0.2" fill="blue" stroke="none" stroke-width="0.2"/>
<circle cx="149.4" cy="151.4" r="0.2" fill="blue" stroke="none" stroke-width="0.2"/>
<circle cx="96.4" cy="90.4" r="0.2" fill="blue" stroke="none" stroke-width="0.2"/>
<circle cx="148.4" cy="89.4" r="0.2" fill="blue" stroke="none" stroke-width="0.2"/>
<circle cx="194.4" cy="191.4" r="0.2" fill="blue" stroke="none" stroke-width="0.2"/>
<circle cx="182.4" cy="8.4" r="0.2" fill="blue" stroke="none" stroke-width="0.2"/>
<circle cx="123.4" cy="61.4" r="0.2" fill="blue" stroke="none" stroke-width="0.2"/>
<circle cx="100.4" cy="158.4" r="0.2" fill="blue" stroke="none" stroke-width="0.2"/>
<circle cx="147.4" cy="6.4" r="0.2" fill="blue" stroke="none" stroke-width="0.2"/>
<circle cx="185.4" cy="176.4" r="0.2" fill="blue" stroke="none" stroke-width="0.2"/>
<circle cx="87.4" cy="43.4" r="0.2" fill="blue" stroke="none" stroke-width="0.2"/>
<circle cx="153.4" cy="149.4" r="0.2" fill="blue" stroke="none" stroke-width="0.2"/>
<circle cx="147.4" cy="146.4" r="0.2" fill="blue" stroke="none" stroke-width="0.2"/>
<circle cx="20.4" cy="25.4" r="0.2" fill="blue" stroke="none" stroke-width="0.2"/>
<circle cx="66.4" cy="196.4" r="0.2" fill="blue" stroke="none" stroke-width="0.2"/>
<circle cx="163.4" cy="43.4" r="0.2" fill="blue" stroke="none" stroke-width="0.2"/>
<circle cx="78.4" cy="186.4" r="0.2" fill="blue" stroke="none" stroke-width="0.2"/>
<circle cx="130.4" cy="181.4" r="0.2" fill="blue" stroke="none" stroke-width="0.2"/>
<circle cx="119.4" cy="94.4" r="0.2" fill="blue" stroke="none" stroke-width="0.2"/>
<circle cx="88.4" cy="161.4" r="0.2" fill="blue" stroke="none" stroke-width="0.2"/>
<circle cx="127.4" cy="30.4" r="0.2" fill="blue" stroke="none" stroke-width="0.2"/>
<circle cx="87.4" cy="94.4" r="0.2" fill="blue" stroke="none" stroke-width="0.2"/>
<circle cx="56.4" cy="37.4" r="0.2" fill="blue" stroke="none" stroke-width="0.2"/>
<circle cx="187.4" cy="173.4" r="0.2" fill="blue" stroke="none" stroke-width="0.2"/>
<circle cx="144.4" cy="110.4" r="0.2" fill="blue" stroke="none" stroke-width="0.2"/>
<circle cx="34.4" cy="103.4" r="0.2" fill="blue" stroke="none" stroke-width="0.2"/>
<circle cx="50.4" cy="144.4" r="0.2" fill="blue" stroke="none" stroke-width="0.2"/>
<circle cx="84.4" cy="102.4" r="0.2" fill="blue" stroke="none" stroke-width="0.2"/>
<circle cx="164.4" cy="81.4" r="0.2" fill="blue" stroke="none" stroke-width="0.2"/>
<circle cx="12.4" cy="104.4" r="0.2" fill="blue" stroke="none" stroke-width="0.2"/>
<circle cx="23.4" cy="176.4" r="0.2" fill="blue" stroke="none" stroke-width="0.2"/>
<circle cx="66.4" cy="159.4" r="0.2" fill="blue" stroke="none" stroke-width="0.2"/>
<circle cx="145.4" cy="196.4" r="0.2" fill="blue" stroke="none" stroke-width="0.2"/>
<circle cx="164.4" cy="175.4" r="0.2" fill="blue" stroke="none" stroke-width="0.2"/>
<circle cx="125.4" cy="68.4" r="0.2" fill="blue" stroke="none" stroke-width="0.2"/>
<circle cx="2.4" cy="103.4" r="0.2" fill="blue" stroke="none" stroke-width="0.2"/>
<circle cx="135.4" cy="181.4" r="0.2" fill="blue" stroke="none" stroke-width="0.2"/>
<circle cx="96.4" cy="160.4" r="0.2" fill="blue" stroke="none" stroke-width="0.2"/>
<circle cx="132.4" cy="41.4" r="0.2" fill="blue" stroke="none" stroke-width="0.2"/>
<circle cx="101.4" cy="52.4" r="0.2" fill="blue" stroke="none" stroke-width="0.2"/>
<circle cx="196.4" cy="19.4" r="0.2" fill="blue" stroke="none" stroke-width="0.2"/>
<circle cx="109.4" cy="158.4" r="0.2" fill="blue" stroke="none" stroke-width="0.2"/>
<circle cx="156.4" cy="81.4" r="0.2" fill="blue" stroke="none" stroke-width="0.2"/>
<circle cx="73.4" cy="10.4" r="0.2" fill="blue" stroke="none" stroke-width="0.2"/>
<circle cx="11.4" cy="153.4" r="0.2" fill="blue" stroke="none" stroke-width="0.2"/>
<circle cx="41.4" cy="138.4" r="0.2" fill="blue" stroke="none" stroke-width="0.2"/>
<circle cx="140.4" cy="42.4" r="0.2" fill="blue" stroke="none" stroke-width="0.2"/>
<circle cx="169.4" cy="140.4" r="0.2" fill="blue" stroke="none" stroke-width="0.2"/>
<circle cx="6.4" cy="103.4" r="0.2" fill="blue" stroke="none" stroke-width="0.2"/>
<circle cx="110.4" cy="82.4" r="0.2" fill="blue" stroke="none" stroke-width="0.2"/>
<circle cx="5.4" cy="175.4" r="0.2" fill="blue" stroke="none" stroke-width="0.2"/>
<circle cx="199.4" cy="193.4" r="0.2" fill="blue" stroke="none" stroke-width="0.2"/>
<circle cx="19.4" cy="23.4" r="0.2" fill="blue" stroke="none" stroke-width="0.2"/>
<circle cx="16.4" cy="33.4" r="0.2" fill="blue" stroke="none" stroke-width="0.2"/>
<circle cx="193.4" cy="65.4" r="0.2" fill="blue" stroke="none" stroke-width="0.2"/>
<circle cx="81.4" cy="134.4" r="0.2" fill="blue" stroke="none" stroke-width="0.2"/>
<circle cx="139.4" cy="15.4" r="0.2" fill="blue" stroke="none" stroke-width="0.2"/>
<circle cx="173.4" cy="154.4" r="0.2" fill="blue" stroke="none" stroke-width="0.2"/>
<circle cx="39.4" cy="96.4" r="0.2" fill="blue" stroke="none" stroke-width="0.2"/>
<circle cx="192.4" cy="152.4" r="0.2" fill="blue" stroke="none" stroke-width="0.2"/>
<circle cx="177.4" cy="198.4" r="0.2" fill="blue" stroke="none" stroke-width="0.2"/>
<circle cx="193.4" cy="156.4" r="0.2" fill="blue" stroke="none" stroke-width="0.2"/>
<circle cx="163.4" cy="38.4" r="0.2" fill="blue" stroke="none" stroke-width="0.2"/>
<circle cx="110.4" cy="126.4" r="0.2" fill="blue" stroke="none" stroke-width="0.2"/>
<circle cx="101.4" cy="22.4" r="0.2" fill="blue" stroke="none" stroke-width="0.2"/>
<circle cx="190.4" cy="154.4" r="0.2" fill="blue" stroke="none" stroke-width="0.2"/>
<circle cx="150.4" cy="124.4" r="0.2" fill="blue" stroke="none" stroke-width="0.2"/>
<circle cx="32.4" cy="163.4" r="0.2" fill="blue" stroke="none" stroke-width="0.2"/>
<circle cx="152.4" cy="138.4" r="0.2" fill="blue" stroke="none" stroke-width="0.2"/>
<circle cx="198.4" cy="102.4" r="0.2" fill="blue" stroke="none" stroke-width="0.2"/>
<circle cx="144.4" cy="108.4" r="0.2" fill="blue" stroke="none" stroke-width="0.2"/>
<circle cx="110.4" cy="125.4" r="0.2" fill="blue" stroke="none" stroke-width="0.2"/>
<circle cx="164.4" cy="138.4" r="0.2" fill="blue" stroke="none" stroke-width="0.2"/>
<circle cx="80.4" cy="5.4" r="0.2" fill="blue" stroke="none" stroke-width="0.2"/>
<circle cx="105.4" cy="37.4" r="0.2" fill="blue" stroke="none" stroke-width="0.2"/>
<circle cx="193.4" cy="101.4" r="0.2" fill="blue" stroke="none" stroke-width="0.2"/>
<circle cx="109.4" cy="150.4" r="0.2" fill="blue" stroke="none" stroke-width="0.2"/>
<circle cx="75.4" cy="41.4" r="0.2" fill="blue" stroke="none" stroke-width="0.2"/>
<circle cx="153.4" cy="179.4" r="0.2" fill="blue" stroke="none" stroke-width="0.2"/>
<circle cx="108.4" cy="114.4" r="0.2" fill="blue" stroke="none" stroke-width="0.2"/>
<circle cx="147.4" cy="68.4" r="0.2" fill="blue" stroke="none" stroke-width="0.2"/>
<circle cx="114.4" cy="111.4" r="0.2" fill="blue" stroke="none" stroke-width="0.2"/>
<circle cx="65.4" cy="80.4" r="0.2" fill="blue" stroke="none" stroke-width="0.2"/>
<circle cx="23.4" cy="151.4" r="0.2" fill="blue" stroke="none" stroke-width="0.2"/>
<circle cx="15.4" cy="20.4" r="0.2" fill="blue" stroke="none" stroke-width="0.2"/>
<circle cx="155.4" cy="16.4" r="0.2" fill="blue" stroke="none" stroke-width="0.2"/>
<circle cx="101.4" cy="35.4" r="0.2" fill="blue" stroke="none" stroke-width="0.2"/>
<circle cx="128.4" cy="158.4" r="0.2" fill="blue" stroke="none" stroke-width="0.2"/>
<circle cx="139.4" cy="100.4" r="0.2" fill="blue" stroke="none" stroke-width="0.2"/>
<circle cx="4.4" cy="45.4" r="0.2" fill="blue" stroke="none" stroke-width="0.2"/>
<circle cx="13.4" cy="195.4" r="0.2" fill="blue" stroke="none" stroke-width="0.2"/>
<circle cx="173.4" cy="41.4" r="0.2" fill="blue" stroke="none" stroke-width="0.2"/>
<circle cx="138.4" cy="44.4" r="0.2" fill="blue" stroke="none" stroke-width="0.2"/>
<circle cx="81.4" cy="142.4" r="0.2" fill="blue" stroke="none" stroke-width="0.2"/>
<circle cx="126.4" cy="156.4" r="0.2" fill="blue" stroke="none" stroke-width="0.2"/>
<circle cx="68.4" cy="190.4" r="0.2" fill="blue" stroke="none" stroke-width="0.2"/>
<circle cx="117.4" cy="4.4" r="0.2" fill="blue" stroke="none" stroke-width="0.2"/>
<circle cx="124.4" cy="88.4" r="0.2" fill="blue" stroke="none" stroke-width="0.2"/>
<circle cx="188.4" cy="73.4" r="0.2" fill="blue" stroke="none" stroke-width="0.2"/>
<circle cx="12.4" cy="131.4" r="0.2" fill="blue" stroke="none" stroke-width="0.2"/>
<circle cx="50.4" cy="84.4" r="0.2" fill="blue" stroke="none" stroke-width="0.2"/>
<circle cx="22.4" cy="4.4" r="0.2" fill="blue" stroke="none" stroke-width="0.2"/>
<circle cx="122.4" cy="109.4" r="0.2" fill="blue" stroke="none" stroke-width="0.2"/>
<circle cx="63.4" cy="107.4" r="0.2" fill="blue" stroke="none" stroke-width="0.2"/>
<circle cx="27.4" cy="28.4" r="0.2" fill="blue" stroke="none" stroke-width="0.2"/>
<circle cx="163.4" cy="72.4" r="0.2" fill="blue" stroke="none" stroke-width="0.2"/>
<circle cx="18.4" cy="138.4" r="0.2" fill="blue" stroke="none" stroke-width="0.2"/>
<circle cx="143.4" cy="152.4" r="0.2" fill="blue" stroke="none" stroke-width="0.2"/>
<circle cx="185.4" cy="10.4" r="0.2" fill="blue" stroke="none" stroke-width="0.2"/>
<circle cx="137.4" cy="138.4" r="0.2" fill="blue" stroke="none" stroke-width="0.2"/>
<circle cx="42.4" cy="176.4" r="0.2" fill="blue" stroke="none" stroke-width="0.2"/>
<circle cx="153.4" cy="130.4" r="0.2" fill="blue" stroke="none" stroke-width="0.2"/>
<circle cx="144.4" cy="55.4" r="0.2" fill="blue" stroke="none" stroke-width="0.2"/>
<circle cx="106.4" cy="156.4" r="0.2" fill="blue" stroke="none" stroke-width="0.2"/>
<circle cx="133.4" cy="3.4" r="0.2" fill="blue" stroke="none" stroke-width="0.2"/>
<circle cx="87.4" cy="69.4" r="0.2" fill="blue" stroke="none" stroke-width="0.2"/>
<circle cx="31.4" cy="74.4" r="0.2" fill="blue" stroke="none" stroke-width="0.2"/>
<circle cx="36.4" cy="141.4" r="0.2" fill="blue" stroke="none" stroke-width="0.2"/>
<circle cx="94.4" cy="77.4" r="0.2" fill="blue" stroke="none" stroke-width="0.2"/>
<circle cx="181.4" cy="173.4" r="0.2" fill="blue" stroke="none" stroke-width="0.2"/>
<circle cx="96.4" cy="34.4" r="0.2" fill="blue" stroke="none" stroke-width="0.2"/>
<circle cx="79.4" cy="60.4" r="0.2" fill="blue" stroke="none" stroke-width="0.2"/>
<circle cx="176.4" cy="77.4" r="0.2" fill="blue" stroke="none" stroke-width="0.2"/>
<circle cx="28.4" cy="189.4" r="0.2" fill="blue" stroke="none" stroke-width="0.2"/>
<circle cx="91.4" cy="165.4" r="0.2" fill="blue" stroke="none" stroke-width="0.2"/>
<circle cx="147.4" cy="89.4" r="0.2" fill="blue" stroke="none" stroke-width="0.2"/>
<circle cx="3.4" cy="178.4" r="0.2" fill="blue" stroke="none" stroke-width="0.2"/>
<circle cx="65.4" cy="28.4" r="0.2" fill="blue" stroke="none" stroke-width="0.2"/>
<circle cx="65.4" cy="29.4" r="0.2" fill="blue" stroke="none" stroke-width="0.2"/>
<circle cx="97.4" cy="46.4" r="0.2" fill="blue" stroke="none" stroke-width="0.2"/>
<circle cx="66.4" cy="131.4" r="0.2" fill="blue" stroke="none" stroke-width="0.2"/>
<circle cx="143.4" cy="29.4" r="0.2" fill="blue" stroke="none" stroke-width="0.2"/>
<circle cx="136.4" cy="133.4" r="0.2" fill="blue" stroke="none" stroke-width="0.2"/>
<circle cx="6.4" cy="182.4" r="0.2" fill="blue" stroke="none" stroke-width="0.2"/>
<circle cx="19.4" cy="50.4" r="0.2" fill="blue" stroke="none" stroke-width="0.2"/>
<circle cx="29.4" cy="29.4" r="0.2" fill="blue" stroke="none" stroke-width="0.2"/>
<circle cx="134.4" cy="60.4" r="0.2" fill="blue" stroke="none" stroke-width="0.2"/>
<circle cx="130.4" cy="69.4" r="0.2" fill="blue" stroke="none" stroke-width="0.2"/>
<circle cx="82.4" cy="69.4" r="0.2" fill="blue" stroke="none" stroke-width="0.2"/>
<circle cx="91.4" cy="131.4" r="0.2" fill="blue" stroke="none" stroke-width="0.2"/>
<circle cx="171.4" cy="20.4" r="0.2" fill="blue" stroke="none" stroke-width="0.2"/>
<circle cx="61.4" cy="146.4" r="0.2" fill="blue" stroke="none" stroke-width="0.2"/>
<circle cx="153.4" cy="74.4" r="0.2" fill="blue" stroke="none" stroke-width="0.2"/>
<circle cx="71.4" cy="56.4" r="0.2" fill="blue" stroke="none" stroke-width="0.2"/>
<circle cx="22.4" cy="87.4" r="0.2" fill="blue" stroke="none" stroke-width="0.2"/>
<circle cx="41.4" cy="108.4" r="0.2" fill="blue" stroke="none" stroke-width="0.2"/>
<circle cx="10.4" cy="132.4" r="0.2" fill="blue" stroke="none" stroke-width="0.2"/>
<circle cx="137.4" cy="51.4" r="0.2" fill="blue" stroke="none" stroke-width="0.2"/>
<circle cx="144.4" cy="139.4" r="0.2" fill="blue" stroke="none" stroke-width="0.2"/>
<circle cx="56.4" cy="197.4" r="0.2" fill="blue" stroke="none" stroke-width="0.2"/>
<circle cx="115.4" cy="54.4" r="0.2" fill="blue" stroke="none" stroke-width="0.2"/>
<circle cx="4.4" cy="96.4" r="0.2" fill="blue" stroke="none" stroke-width="0.2"/>
<circle cx="66.4" cy="12.4" r="0.2" fill="blue" stroke="none" stroke-width="0.2"/>
<circle cx="113.4" cy="40.4" r="0.2" fill="blue" stroke="none" stroke-width="0.2"/>
<circle cx="94.4" cy="58.4" r="0.2" fill="blue" stroke="none" stroke-width="0.2"/>
<circle cx="114.4" cy="117.4" r="0.2" fill="blue" stroke="none" stroke-width="0.2"/>
<circle cx="121.4" cy="10.4" r="0.2" fill="blue" stroke="none" stroke-width="0.2"/>
<circle cx="161.4" cy="146.4" r="0.2" fill="blue" stroke="none" stroke-width="0.2"/>
<circle cx="78.4" cy="162.4" r="0.2" fill="blue" stroke="none" stroke-width="0.2"/>
<circle cx="156.4" cy="104.4" r="0.2" fill="blue" stroke="none" stroke-width="0.2"/>
<circle cx="30.4" cy="102.4" r="0.2" fill="blue" stroke="none" stroke-width="0.2"/>
<circle cx="112.4" cy="46.4" r="0.2" fill="blue" stroke="none" stroke-width="0.2"/>
<circle cx="135.4" cy="70.4" r="0.2" fill="blue" stroke="none" stroke-width="0.2"/>
<circle cx="157.4" cy="165.4" r="0.2" fill="blue" stroke="none" stroke-width="0.2"/>
<circle cx="90.4" cy="48.4" r="0.2" fill="blue" stroke="none" stroke-width="0.2"/>
<circle cx="19.4" cy="148.4" r="0.2" fill="blue" stroke="none" stroke-width="0.2"/>
<circle cx="88.4" cy="45.4" r="0.2" fill="blue" stroke="none" stroke-width="0.2"/>
<circle cx="56.4" cy="7.4" r="0.2" fill="blue" stroke="none" stroke-width="0.2"/>
<circle cx="83.4" cy="182.4" r="0.2" fill="blue" stroke="none" stroke-width="0.2"/>
<circle cx="6.4" cy="34.4" r="0.2" fill="blue" stroke="none" stroke-width="0.2"/>
<circle cx="199.4" cy="158.4" r="0.2" fill="blue" stroke="none" stroke-width="0.2"/>
<circle cx="187.4" cy="1.4" r="0.2" fill="blue" stroke="none" stroke-width="0.2"/>
<circle cx="165.4" cy="137.4" r="0.2" fill="blue" stroke="none" stroke-width="0.2"/>
<circle cx="123.4" cy="187.4" r="0.2" fill="blue" stroke="none" stroke-width="0.2"/>
<circle cx="66.4" cy="82.4" r="0.2" fill="blue" stroke="none" stroke-width="0.2"/>
<circle cx="1.4" cy="20.4" r="0.2" fill="blue" stroke="none" stroke-width="0.2"/>
<circle cx="129.4" cy="94.4" r="0.2" fill="blue" stroke="none" stroke-width="0.2"/>
<circle cx="53.4" cy="68.4" r="0.2" fill="blue" stroke="none" stroke-width="0.2"/>
<circle cx="104.4" cy="106.4" r="0.2" fill="blue" stroke="none" stroke-width="0.2"/>
<circle cx="14.4" cy="52.4" r="0.2" fill="blue" stroke="none" stroke-width="0.2"/>
<circle cx="24.4" cy="150.4" r="0.2" fill="blue" stroke="none" stroke-width="0.2"/>
<circle cx="161.4" cy="22.4" r="0.2" fill="blue" stroke="none" stroke-width="0.2"/>
<circle cx="55.4" cy="18.4" r="0.2" fill="blue" stroke="none" stroke-width="0.2"/>
<circle cx="69.4" cy="44.4" r="0.2" fill="blue" stroke="none" stroke-width="0.2"/>
<circle cx="6.4" cy="196.4" r="0.2" fill="blue" stroke="none" stroke-width="0.2"/>
<circle cx="144.4" cy="158.4" r="0.2" fill="blue" stroke="none" stroke-width="0.2"/>
<circle cx="155.4" cy="47.4" r="0.2" fill="blue" stroke="none" stroke-width="0.2"/>
<circle cx="169.4" cy="117.4" r="0.2" fill="blue" stroke="none" stroke-width="0.2"/>
<circle cx="137.4" cy="110.4" r="0.2" fill="blue" stroke="none" stroke-width="0.2"/>
<circle cx="199.4" cy="46.4" r="0.2" fill="blue" stroke="none" stroke-width="0.2"/>
<circle cx="8.4" cy="50.4" r="0.2" fill="blue" stroke="none" stroke-width="0.2"/>
<circle cx="194.4" cy="168.4" r="0.2" fill="blue" stroke="none" stroke-width="0.2"/>
<circle cx="18.4" cy="19.4" r="0.2" fill="blue" stroke="none" stroke-width="0.2"/>
<circle cx="130.4" cy="136.4" r="0.2" fill="blue" stroke="none" stroke-width="0.2"/>
<circle cx="17.4" cy="131.4" r="0.2" fill="blue" stroke="none" stroke-width="0.2"/>
<circle cx="9.4" cy="124.4" r="0.2" fill="blue" stroke="none" stroke-width="0.2"/>
<circle cx="44.4" cy="19.4" r="0.2" fill="blue" stroke="none" stroke-width="0.2"/>
<circle cx="32.4" cy="67.4" r="0.2" fill="blue" stroke="none" stroke-width="0.2"/>
<circle cx="107.4" cy="108.4" r="0.2" fill="blue" stroke="none" stroke-width="0.2"/>
<circle cx="56.4" cy="169.4" r="0.2" fill="blue" stroke="none" stroke-width="0.2"/>
<circle cx="52.4" cy="58.4" r="0.2" fill="blue" stroke="none" stroke-width="0.2"/>
<circle cx="181.4" cy="161.4" r="0.2" fill="blue" stroke="none" stroke-width="0.2"/>
<circle cx="37.4" cy="167.4" r="0.2" fill="blue" stroke="none" stroke-width="0.2"/>
<circle cx="200.4" cy="21.4" r="0.2" fill="blue" stroke="none" stroke-width="0.2"/>
<circle cx="93.4" cy="72.4" r="0.2" fill="blue" stroke="none" stroke-width="0.2"/>
<circle cx="66.4" cy="151.4" r="0.2" fill="blue" stroke="none" stroke-width="0.2"/>
<circle cx="149.4" cy="100.4" r="0.2" fill="blue" stroke="none" stroke-width="0.2"/>
<circle cx="17.4" cy="8.4" r="0.2" fill="blue" stroke="none" stroke-width="0.2"/>
<circle cx="36.4" cy="87.4" r="0.2" fill="blue" stroke="none" stroke-width="0.2"/>
<circle cx="8.4" cy="15.4" r="0.2" fill="blue" stroke="none" stroke-width="0.2"/>
<circle cx="128.4" cy="97.4" r="0.2" fill="blue" stroke="none" stroke-width="0.2"/>
<circle cx="80.4" cy="97.4" r="0.2" fill="blue" stroke="none" stroke-width="0.2"/>
<circle cx="80.4" cy="94.4" r="0.2" fill="blue" stroke="none" stroke-width="0.2"/>
<circle cx="8.4" cy="67.4" r="0.2" fill="blue" stroke="none" stroke-width="0.2"/>
<circle cx="26.4" cy="134.4" r="0.2" fill="blue" stroke="none" stroke-width="0.2"/>
<circle cx="157.4" cy="151.4" r="0.2" fill="blue" stroke="none" stroke-width="0.2"/>
<circle cx="85.4" cy="59.4" r="0.2" fill="blue" stroke="none" stroke-width="0.2"/>
<circle cx="62.4" cy="139.4" r="0.2" fill="blue" stroke="none" stroke-width="0.2"/>
<circle cx="6.4" cy="170.4" r="0.2" fill="blue" stroke="none" stroke-width="0.2"/>
<circle cx="18.4" cy="21.4" r="0.2" fill="blue" stroke="none" stroke-width="0.2"/>
<circle cx="178.4" cy="93.4" r="0.2" fill="blue" stroke="none" stroke-width="0.2"/>
<circle cx="22.4" cy="127.4" r="0.2" fill="blue" stroke="none" stroke-width="0.2"/>
<circle cx="197.4" cy="180.4" r="0.2" fill="blue" stroke="none" stroke-width="0.2"/>
<circle cx="123.4" cy="45.4" r="0.2" fill="blue" stroke="none" stroke-width="0.2"/>
<circle cx="10.4" cy="143.4" r="0.2" fill="blue" stroke="none" stroke-width="0.2"/>
<circle cx="120.4" cy="134.4" r="0.2" fill="blue" stroke="none" stroke-width="0.2"/>
<circle cx="63.4" cy="27.4" r="0.2" fill="blue" stroke="none" stroke-width="0.2"/>
<circle cx="120.4" cy="132.4" r="0.2" fill="blue" stroke="none" stroke-width="0.2"/>
<circle cx="59.4" cy="168.4" r="0.2" fill="blue" stroke="none" stroke-width="0.2"/>
<circle cx="73.4" cy="17.4" r="0.2" fill="blue" stroke="none" stroke-width="0.2"/>
<circle cx="80.4" cy="74.4" r="0.2" fill="blue" stroke="none" stroke-width="0.2"/>
<circle cx="128.4" cy="138.4" r="0.2" fill="blue" stroke="none" stroke-width="0.2"/>
<circle cx="61.4" cy="195.4" r="0.2" fill="blue" stroke="none" stroke-width="0.2"/>
<circle cx="83.4" cy="46.4" r="0.2" fill="blue" stroke="none" stroke-width="0.2"/>
<circle cx="121.4" cy="172.4" r="0.2" fill="blue" stroke="none" stroke-width="0.2"/>
<circle cx="134.4" cy="171.4" r="0.2" fill="blue" stroke="none" stroke-width="0.2"/>
<circle cx="164.4" cy="160.4" r="0.2" fill="blue" stroke="none" stroke-width="0.2"/>
<circle cx="129.4" cy="167.4" r="0.2" fill="blue" stroke="none" stroke-width="0.2"/>
<circle cx="38.4" cy="29.4" r="0.2" fill="blue" stroke="none" stroke-width="0.2"/>
<circle cx="113.4" cy="84.4" r="0.2" fill="blue" stroke="none" stroke-width="0.2"/>
<circle cx="8.4" cy="33.4" r="0.2" fill="blue" stroke="none" stroke-width="0.2"/>
<circle cx="52.4" cy="90.4" r="0.2" fill="blue" stroke="none" stroke-width="0.2"/>
<circle cx="7.4" cy="181.4" r="0.2" fill="blue" stroke="none" stroke-width="0.2"/>
<circle cx="182.4" cy="17.4" r="0.2" fill="blue" stroke="none" stroke-width="0.2"/>
<circle cx="72.4" cy="43.4" r="0.2" fill="blue" stroke="none" stroke-width="0.2"/>
<circle cx="125.4" cy="172.4" r="0.2" fill="blue" stroke="none" stroke-width="0.2"/>
<circle cx="108.4" cy="143.4" r="0.2" fill="blue" stroke="none" stroke-width="0.2"/>
<circle cx="138.4" cy="182.4" r="0.2" fill="blue" stroke="none" stroke-width="0.2"/>

    </svg>
