
    <svg version="1.1"
        viewBox="-100.4, -100.4, 200.8, 200.8"
        xmlns="http://www.w3.org/2000/svg">

        <rect x="-100.4" y="-100.4" width="100%" height="100%" style="fill:white; stroke-width:0.1; stroke: black" />

<circle cx="0" cy="0" r="0.30000000000000004" fill="red" stroke="none" stroke-width="0.2"/>
<circle cx="41" cy="-83" r="0.2" fill="blue" stroke="none" stroke-width="0.2"/>
<circle cx="-97" cy="-46" r="0.2" fill="blue" stroke="none" stroke-width="0.2"/>
<circle cx="27" cy="-86" r="0.2" fill="blue" stroke="none" stroke-width="0.2"/>
<circle cx="27" cy="17" r="0.2" fill="blue" stroke="none" stroke-width="0.2"/>
<circle cx="-100" cy="-25" r="0.2" fill="blue" stroke="none" stroke-width="0.2"/>
<circle cx="11" cy="57" r="0.2" fill="blue" stroke="none" stroke-width="0.2"/>
<circle cx="-30" cy="11" r="0.2" fill="blue" stroke="none" stroke-width="0.2"/>
<circle cx="-37" cy="-83" r="0.2" fill="blue" stroke="none" stroke-width="0.2"/>
<circle cx="-28" cy="83" r="0.2" fill="blue" stroke="none" stroke-width="0.2"/>
<circle cx="-47" cy="46" r="0.2" fill="blue" stroke="none" stroke-width="0.2"/>
<circle cx="-53" cy="62" r="0.2" fill="blue" stroke="none" stroke-width="0.2"/>
<circle cx="-86" cy="-60" r="0.2" fill="blue" stroke="none" stroke-width="0.2"/>
<circle cx="-81" cy="-5" r="0.2" fill="blue" stroke="none" stroke-width="0.2"/>
<circle cx="-3" cy="-29" r="0.2" fill="blue" stroke="none" stroke-width="0.2"/>
<circle cx="-67" cy="-96" r="0.2" fill="blue" stroke="none" stroke-width="0.2"/>
<circle cx="2" cy="24" r="0.2" fill="blue" stroke="none" stroke-width="0.2"/>
<circle cx="6" cy="-19" r="0.2" fill="blue" stroke="none" stroke-width="0.2"/>
<circle cx="77" cy="-49" r="0.2" fill="blue" stroke="none" stroke-width="0.2"/>
<circle cx="-24" cy="14" r="0.2" fill="blue" stroke="none" stroke-width="0.2"/>
<circle cx="-70" cy="82" r="0.2" fill="blue" stroke="none" stroke-width="0.2"/>
<circle cx="79" cy="-67" r="0.2" fill="blue" stroke="none" stroke-width="0.2"/>
<circle cx="44" cy="56" r="0.2" fill="blue" stroke="none" stroke-width="0.2"/>
<circle cx="-49" cy="-84" r="0.2" fill="blue" stroke="none" stroke-width="0.2"/>
<circle cx="69" cy="-7" r="0.2" fill="blue" stroke="none" stroke-width="0.2"/>
<circle cx="93" cy="-33" r="0.2" fill="blue" stroke="none" stroke-width="0.2"/>
<circle cx="-92" cy="-34" r="0.2" fill="blue" stroke="none" stroke-width="0.2"/>
<circle cx="9" cy="-20" r="0.2" fill="blue" stroke="none" stroke-width="0.2"/>
<circle cx="94" cy="-5" r="0.2" fill="blue" stroke="none" stroke-width="0.2"/>
<circle cx="-9" cy="6" r="0.2" fill="blue" stroke="none" stroke-width="0.2"/>
<circle cx="-25" cy="-64" r="0.2" fill="blue" stroke="none" stroke-width="0.2"/>
<circle cx="9" cy="55" r="0.2" fill="blue" stroke="none" stroke-width="0.2"/>
<circle cx="-37" cy="-95" r="0.2" fill="blue" stroke="none" stroke-width="0.2"/>
<circle cx="-7" cy="-14" r="0.2" fill="blue" stroke="none" stroke-width="0.2"/>
<circle cx="-94" cy="28" r="0.2" fill="blue" stroke="none" stroke-width="0.2"/>
<circle cx="-33" cy="-96" r="0.2" fill="blue" stroke="none" stroke-width="0.2"/>
<circle cx="-1" cy="-63" r="0.2" fill="blue" stroke="none" stroke-width="0.2"/>
<circle cx="81" cy="13" r="0.2" fill="blue" stroke="none" stroke-width="0.2"/>
<circle cx="-57" cy="-43" r="0.2" fill="blue" stroke="none" stroke-width="0.2"/>
<circle cx="-20" cy="-22" r="0.2" fill="blue" stroke="none" stroke-width="0.2"/>
<circle cx="4" cy="51" r="0.2" fill="blue" stroke="none" stroke-width="0.2"/>
<circle cx="3" cy="-54" r="0.2" fill="blue" stroke="none" stroke-width="0.2"/>
<circle cx="79" cy="-41" r="0.2" fill="blue" stroke="none" stroke-width="0.2"/>
<circle cx="-82" cy="87" r="0.2" fill="blue" stroke="none" stroke-width="0.2"/>
<circle cx="62" cy="-68" r="0.2" fill="blue" stroke="none" stroke-width="0.2"/>
<circle cx="33" cy="15" r="0.2" fill="blue" stroke="none" stroke-width="0.2"/>
<circle cx="-99" cy="-74" r="0.2" fill="blue" stroke="none" stroke-width="0.2"/>
<circle cx="99" cy="59" r="0.2" fill="blue" stroke="none" stroke-width="0.2"/>
<circle cx="-8" cy="6" r="0.2" fill="blue" stroke="none" stroke-width="0.2"/>
<circle cx="-2" cy="-5" r="0.2" fill="blue" stroke="none" stroke-width="0.2"/>
<circle cx="-86" cy="68" r="0.2" fill="blue" stroke="none" stroke-width="0.2"/>
<circle cx="-66" cy="-6" r="0.2" fill="blue" stroke="none" stroke-width="0.2"/>
<circle cx="-74" cy="62" r="0.2" fill="blue" stroke="none" stroke-width="0.2"/>
<circle cx="41" cy="80" r="0.2" fill="blue" stroke="none" stroke-width="0.2"/>
<circle cx="21" cy="-13" r="0.2" fill="blue" stroke="none" stroke-width="0.2"/>
<circle cx="-51" cy="97" r="0.2" fill="blue" stroke="none" stroke-width="0.2"/>
<circle cx="-92" cy="-84" r="0.2" fill="blue" stroke="none" stroke-width="0.2"/>
<circle cx="-56" cy="38" r="0.2" fill="blue" stroke="none" stroke-width="0.2"/>
<circle cx="75" cy="86" r="0.2" fill="blue" stroke="none" stroke-width="0.2"/>
<circle cx="84" cy="38" r="0.2" fill="blue" stroke="none" stroke-width="0.2"/>
<circle cx="36" cy="-20" r="0.2" fill="blue" stroke="none" stroke-width="0.2"/>
<circle cx="-66" cy="-60" r="0.2" fill="blue" stroke="none" stroke-width="0.2"/>
<circle cx="86" cy="-80" r="0.2" fill="blue" stroke="none" stroke-width="0.2"/>
<circle cx="-72" cy="-94" r="0.2" fill="blue" stroke="none" stroke-width="0.2"/>
<circle cx="58" cy="85" r="0.2" fill="blue" stroke="none" stroke-width="0.2"/>
<circle cx="38" cy="23" r="0.2" fill="blue" stroke="none" stroke-width="0.2"/>
<circle cx="-43" cy="-47" r="0.2" fill="blue" stroke="none" stroke-width="0.2"/>
<circle cx="58" cy="17" r="0.2" fill="blue" stroke="none" stroke-width="0.2"/>
<circle cx="-52" cy="-41" r="0.2" fill="blue" stroke="none" stroke-width="0.2"/>
<circle cx="13" cy="-81" r="0.2" fill="blue" stroke="none" stroke-width="0.2"/>
<circle cx="-26" cy="-42" r="0.2" fill="blue" stroke="none" stroke-width="0.2"/>
<circle cx="-54" cy="40" r="0.2" fill="blue" stroke="none" stroke-width="0.2"/>
<circle cx="64" cy="-43" r="0.2" fill="blue" stroke="none" stroke-width="0.2"/>
<circle cx="21" cy="86" r="0.2" fill="blue" stroke="none" stroke-width="0.2"/>
<circle cx="75" cy="-30" r="0.2" fill="blue" stroke="none" stroke-width="0.2"/>
<circle cx="86" cy="-90" r="0.2" fill="blue" stroke="none" stroke-width="0.2"/>
<circle cx="27" cy="40" r="0.2" fill="blue" stroke="none" stroke-width="0.2"/>
<circle cx="53" cy="-44" r="0.2" fill="blue" stroke="none" stroke-width="0.2"/>
<circle cx="73" cy="-75" r="0.2" fill="blue" stroke="none" stroke-width="0.2"/>
<circle cx="38" cy="-89" r="0.2" fill="blue" stroke="none" stroke-width="0.2"/>
<circle cx="97" cy="-46" r="0.2" fill="blue" stroke="none" stroke-width="0.2"/>
<circle cx="-7" cy="29" r="0.2" fill="blue" stroke="none" stroke-width="0.2"/>
<circle cx="-52" cy="-59" r="0.2" fill="blue" stroke="none" stroke-width="0.2"/>
<circle cx="-96" cy="-80" r="0.2" fill="blue" stroke="none" stroke-width="0.2"/>
<circle cx="67" cy="-61" r="0.2" fill="blue" stroke="none" stroke-width="0.2"/>
<circle cx="-18" cy="24" r="0.2" fill="blue" stroke="none" stroke-width="0.2"/>
<circle cx="-29" cy="78" r="0.2" fill="blue" stroke="none" stroke-width="0.2"/>
<circle cx="-42" cy="-33" r="0.2" fill="blue" stroke="none" stroke-width="0.2"/>
<circle cx="12" cy="36" r="0.2" fill="blue" stroke="none" stroke-width="0.2"/>
<circle cx="32" cy="-67" r="0.2" fill="blue" stroke="none" stroke-width="0.2"/>
<circle cx="58" cy="38" r="0.2" fill="blue" stroke="none" stroke-width="0.2"/>
<circle cx="60" cy="-12" r="0.2" fill="blue" stroke="none" stroke-width="0.2"/>
<circle cx="25" cy="8" r="0.2" fill="blue" stroke="none" stroke-width="0.2"/>
<circle cx="91" cy="35" r="0.2" fill="blue" stroke="none" stroke-width="0.2"/>
<circle cx="14" cy="-8" r="0.2" fill="blue" stroke="none" stroke-width="0.2"/>
<circle cx="98" cy="-32" r="0.2" fill="blue" stroke="none" stroke-width="0.2"/>
<circle cx="81" cy="50" r="0.2" fill="blue" stroke="none" stroke-width="0.2"/>
<circle cx="-24" cy="28" r="0.2" fill="blue" stroke="none" stroke-width="0.2"/>
<circle cx="-15" cy="-16" r="0.2" fill="blue" stroke="none" stroke-width="0.2"/>
<circle cx="18" cy="-37" r="0.2" fill="blue" stroke="none" stroke-width="0.2"/>
<circle cx="51" cy="-82" r="0.2" fill="blue" stroke="none" stroke-width="0.2"/>
<circle cx="-42" cy="46" r="0.2" fill="blue" stroke="none" stroke-width="0.2"/>
<circle cx="28" cy="-88" r="0.2" fill="blue" stroke="none" stroke-width="0.2"/>
<circle cx="36" cy="40" r="0.2" fill="blue" stroke="none" stroke-width="0.2"/>
<circle cx="-85" cy="-89" r="0.2" fill="blue" stroke="none" stroke-width="0.2"/>
<circle cx="52" cy="100" r="0.2" fill="blue" stroke="none" stroke-width="0.2"/>
<circle cx="-8" cy="26" r="0.2" fill="blue" stroke="none" stroke-width="0.2"/>
<circle cx="-75" cy="-87" r="0.2" fill="blue" stroke="none" stroke-width="0.2"/>
<circle cx="-13" cy="-16" r="0.2" fill="blue" stroke="none" stroke-width="0.2"/>
<circle cx="19" cy="74" r="0.2" fill="blue" stroke="none" stroke-width="0.2"/>
<circle cx="-100" cy="-28" r="0.2" fill="blue" stroke="none" stroke-width="0.2"/>
<circle cx="-93" cy="18" r="0.2" fill="blue" stroke="none" stroke-width="0.2"/>
<circle cx="23" cy="61" r="0.2" fill="blue" stroke="none" stroke-width="0.2"/>
<circle cx="75" cy="-74" r="0.2" fill="blue" stroke="none" stroke-width="0.2"/>
<circle cx="-40" cy="24" r="0.2" fill="blue" stroke="none" stroke-width="0.2"/>
<circle cx="10" cy="70" r="0.2" fill="blue" stroke="none" stroke-width="0.2"/>
<circle cx="-69" cy="47" r="0.2" fill="blue" stroke="none" stroke-width="0.2"/>
<circle cx="95" cy="52" r="0.2" fill="blue" stroke="none" stroke-width="0.2"/>
<circle cx="3" cy="44" r="0.2" fill="blue" stroke="none" stroke-width="0.2"/>
<circle cx="42" cy="-57" r="0.2" fill="blue" stroke="none" stroke-width="0.2"/>
<circle cx="67" cy="-32" r="0.2" fill="blue" stroke="none" stroke-width="0.2"/>
<circle cx="-54" cy="5" r="0.2" fill="blue" stroke="none" stroke-width="0.2"/>
<circle cx="-86" cy="26" r="0.2" fill="blue" stroke="none" stroke-width="0.2"/>
<circle cx="-77" cy="-63" r="0.2" fill="blue" stroke="none" stroke-width="0.2"/>
<circle cx="24" cy="54" r="0.2" fill="blue" stroke="none" stroke-width="0.2"/>
<circle cx="88" cy="-47" r="0.2" fill="blue" stroke="none" stroke-width="0.2"/>
<circle cx="-67" cy="-65" r="0.2" fill="blue" stroke="none" stroke-width="0.2"/>
<circle cx="58" cy="20" r="0.2" fill="blue" stroke="none" stroke-width="0.2"/>
<circle cx="-27" cy="15" r="0.2" fill="blue" stroke="none" stroke-width="0.2"/>
<circle cx="81" cy="76" r="0.2" fill="blue" stroke="none" stroke-width="0.2"/>
<circle cx="98" cy="-61" r="0.2" fill="blue" stroke="none" stroke-width="0.2"/>
<circle cx="30" cy="-75" r="0.2" fill="blue" stroke="none" stroke-width="0.2"/>
<circle cx="87" cy="-54" r="0.2" fill="blue" stroke="none" stroke-width="0.2"/>
<circle cx="82" cy="-63" r="0.2" fill="blue" stroke="none" stroke-width="0.2"/>
<circle cx="-67" cy="8" r="0.2" fill="blue" stroke="none" stroke-width="0.2"/>
<circle cx="-23" cy="-1" r="0.2" fill="blue" stroke="none" stroke-width="0.2"/>
<circle cx="22" cy="-44" r="0.2" fill="blue" stroke="none" stroke-width="0.2"/>
<circle cx="-59" cy="-2" r="0.2" fill="blue" stroke="none" stroke-width="0.2"/>
<circle cx="-92" cy="-22" r="0.2" fill="blue" stroke="none" stroke-width="0.2"/>
<circle cx="10" cy="-65" r="0.2" fill="blue" stroke="none" stroke-width="0.2"/>
<circle cx="4" cy="71" r="0.2" fill="blue" stroke="none" stroke-width="0.2"/>
<circle cx="-38" cy="-88" r="0.2" fill="blue" stroke="none" stroke-width="0.2"/>
<circle cx="-38" cy="-60" r="0.2" fill="blue" stroke="none" stroke-width="0.2"/>
<circle cx="91" cy="59" r="0.2" fill="blue" stroke="none" stroke-width="0.2"/>
<circle cx="59" cy="-20" r="0.2" fill="blue" stroke="none" stroke-width="0.2"/>
<circle cx="55" cy="-51" r="0.2" fill="blue" stroke="none" stroke-width="0.2"/>
<circle cx="-99" cy="76" r="0.2" fill="blue" stroke="none" stroke-width="0.2"/>
<circle cx="-11" cy="97" r="0.2" fill="blue" stroke="none" stroke-width="0.2"/>
<circle cx="-2" cy="70" r="0.2" fill="blue" stroke="none" stroke-width="0.2"/>
<circle cx="75" cy="-61" r="0.2" fill="blue" stroke="none" stroke-width="0.2"/>
<circle cx="-92" cy="-71" r="0.2" fill="blue" stroke="none" stroke-width="0.2"/>
<circle cx="34" cy="-36" r="0.2" fill="blue" stroke="none" stroke-width="0.2"/>
<circle cx="-22" cy="-100" r="0.2" fill="blue" stroke="none" stroke-width="0.2"/>
<circle cx="79" cy="88" r="0.2" fill="blue" stroke="none" stroke-width="0.2"/>
<circle cx="39" cy="-6" r="0.2" fill="blue" stroke="none" stroke-width="0.2"/>
<circle cx="-97" cy="-59" r="0.2" fill="blue" stroke="none" stroke-width="0.2"/>
<circle cx="-4" cy="-92" r="0.2" fill="blue" stroke="none" stroke-width="0.2"/>
<circle cx="-56" cy="-92" r="0.2" fill="blue" stroke="none" stroke-width="0.2"/>
<circle cx="-94" cy="-42" r="0.2" fill="blue" stroke="none" stroke-width="0.2"/>
<circle cx="-13" cy="-50" r="0.2" fill="blue" stroke="none" stroke-width="0.2"/>
<circle cx="-14" cy="55" r="0.2" fill="blue" stroke="none" stroke-width="0.2"/>
<circle cx="-31" cy="-75" r="0.2" fill="blue" stroke="none" stroke-width="0.2"/>
<circle cx="8" cy="-98" r="0.2" fill="blue" stroke="none" stroke-width="0.2"/>
<circle cx="-58" cy="28" r="0.2" fill="blue" stroke="none" stroke-width="0.2"/>
<circle cx="-18" cy="-84" r="0.2" fill="blue" stroke="none" stroke-width="0.2"/>
<circle cx="-2" cy="8" r="0.2" fill="blue" stroke="none" stroke-width="0.2"/>
<circle cx="8" cy="-88" r="0.2" fill="blue" stroke="none" stroke-width="0.2"/>
<circle cx="47" cy="83" r="0.2" fill="blue" stroke="none" stroke-width="0.2"/>
<circle cx="20" cy="-20" r="0.2" fill="blue" stroke="none" stroke-width="0.2"/>
<circle cx="-77" cy="77" r="0.2" fill="blue" stroke="none" stroke-width="0.2"/>
<circle cx="22" cy="-86" r="0.2" fill="blue" stroke="none" stroke-width="0.2"/>
<circle cx="45" cy="-94" r="0.2" fill="blue" stroke="none" stroke-width="0.2"/>
<circle cx="58" cy="-7" r="0.2" fill="blue" stroke="none" stroke-width="0.2"/>
<circle cx="34" cy="97" r="0.2" fill="blue" stroke="none" stroke-width="0.2"/>
<circle cx="-8" cy="45" r="0.2" fill="blue" stroke="none" stroke-width="0.2"/>
<circle cx="-14" cy="72" r="0.2" fill="blue" stroke="none" stroke-width="0.2"/>
<circle cx="-73" cy="-71" r="0.2" fill="blue" stroke="none" stroke-width="0.2"/>
<circle cx="31" cy="-31" r="0.2" fill="blue" stroke="none" stroke-width="0.2"/>
<circle cx="-87" cy="66" r="0.2" fill="blue" stroke="none" stroke-width="0.2"/>
<circle cx="13" cy="-27" r="0.2" fill="blue" stroke="none" stroke-width="0.2"/>
<circle cx="-57" cy="13" r="0.2" fill="blue" stroke="none" stroke-width="0.2"/>
<circle cx="-91" cy="51" r="0.2" fill="blue" stroke="none" stroke-width="0.2"/>
<circle cx="47" cy="-82" r="0.2" fill="blue" stroke="none" stroke-width="0.2"/>
<circle cx="92" cy="-29" r="0.2" fill="blue" stroke="none" stroke-width="0.2"/>
<circle cx="-30" cy="-23" r="0.2" fill="blue" stroke="none" stroke-width="0.2"/>
<circle cx="-83" cy="-40" r="0.2" fill="blue" stroke="none" stroke-width="0.2"/>
<circle cx="-41" cy="75" r="0.2" fill="blue" stroke="none" stroke-width="0.2"/>
<circle cx="-10" cy="53" r="0.2" fill="blue" stroke="none" stroke-width="0.2"/>
<circle cx="-64" cy="-71" r="0.2" fill="blue" stroke="none" stroke-width="0.2"/>
<circle cx="-68" cy="-30" r="0.2" fill="blue" stroke="none" stroke-width="0.2"/>
<circle cx="59" cy="-23" r="0.2" fill="blue" stroke="none" stroke-width="0.2"/>
<circle cx="70" cy="-10" r="0.2" fill="blue" stroke="none" stroke-width="0.2"/>
<circle cx="92" cy="-4" r="0.2" fill="blue" stroke="none" stroke-width="0.2"/>
<circle cx="-82" cy="-82" r="0.2" fill="blue" stroke="none" stroke-width="0.2"/>
<circle cx="-13" cy="48" r="0.2" fill="blue" stroke="none" stroke-width="0.2"/>
<circle cx="93" cy="-66" r="0.2" fill="blue" stroke="none" stroke-width="0.2"/>
<circle cx="-69" cy="-76" r="0.2" fill="blue" stroke="none" stroke-width="0.2"/>
<circle cx="-2" cy="-20" r="0.2" fill="blue" stroke="none" stroke-width="0.2"/>
<circle cx="93" cy="-22" r="0.2" fill="blue" stroke="none" stroke-width="0.2"/>
<circle cx="64" cy="-29" r="0.2" fill="blue" stroke="none" stroke-width="0.2"/>
<circle cx="-10" cy="50" r="0.2" fill="blue" stroke="none" stroke-width="0.2"/>
<circle cx="92" cy="-91" r="0.2" fill="blue" stroke="none" stroke-width="0.2"/>
<circle cx="78" cy="-83" r="0.2" fill="blue" stroke="none" stroke-width="0.2"/>
<circle cx="-67" cy="28" r="0.2" fill="blue" stroke="none" stroke-width="0.2"/>
<circle cx="25" cy="45" r="0.2" fill="blue" stroke="none" stroke-width="0.2"/>
<circle cx="-66" cy="-27" r="0.2" fill="blue" stroke="none" stroke-width="0.2"/>
<circle cx="-95" cy="-9" r="0.2" fill="blue" stroke="none" stroke-width="0.2"/>
<circle cx="33" cy="-23" r="0.2" fill="blue" stroke="none" stroke-width="0.2"/>
<circle cx="-91" cy="59" r="0.2" fill="blue" stroke="none" stroke-width="0.2"/>
<circle cx="-12" cy="37" r="0.2" fill="blue" stroke="none" stroke-width="0.2"/>
<circle cx="95" cy="-44" r="0.2" fill="blue" stroke="none" stroke-width="0.2"/>
<circle cx="81" cy="-74" r="0.2" fill="blue" stroke="none" stroke-width="0.2"/>
<circle cx="10" cy="62" r="0.2" fill="blue" stroke="none" stroke-width="0.2"/>
<circle cx="14" cy="-84" r="0.2" fill="blue" stroke="none" stroke-width="0.2"/>
<circle cx="15" cy="-8" r="0.2" fill="blue" stroke="none" stroke-width="0.2"/>
<circle cx="-29" cy="-12" r="0.2" fill="blue" stroke="none" stroke-width="0.2"/>
<circle cx="97" cy="-97" r="0.2" fill="blue" stroke="none" stroke-width="0.2"/>
<circle cx="13" cy="4" r="0.2" fill="blue" stroke="none" stroke-width="0.2"/>
<circle cx="-2" cy="-98" r="0.2" fill="blue" stroke="none" stroke-width="0.2"/>
<circle cx="3" cy="68" r="0.2" fill="blue" stroke="none" stroke-width="0.2"/>
<circle cx="-84" cy="18" r="0.2" fill="blue" stroke="none" stroke-width="0.2"/>
<circle cx="28" cy="-72" r="0.2" fill="blue" stroke="none" stroke-width="0.2"/>
<circle cx="-56" cy="74" r="0.2" fill="blue" stroke="none" stroke-width="0.2"/>
<circle cx="47" cy="-74" r="0.2" fill="blue" stroke="none" stroke-width="0.2"/>
<circle cx="58" cy="36" r="0.2" fill="blue" stroke="none" stroke-width="0.2"/>
<circle cx="-36" cy="-30" r="0.2" fill="blue" stroke="none" stroke-width="0.2"/>
<circle cx="84" cy="94" r="0.2" fill="blue" stroke="none" stroke-width="0.2"/>
<circle cx="57" cy="-96" r="0.2" fill="blue" stroke="none" stroke-width="0.2"/>
<circle cx="-83" cy="-16" r="0.2" fill="blue" stroke="none" stroke-width="0.2"/>
<circle cx="47" cy="-60" r="0.2" fill="blue" stroke="none" stroke-width="0.2"/>
<circle cx="-50" cy="31" r="0.2" fill="blue" stroke="none" stroke-width="0.2"/>
<circle cx="-51" cy="-28" r="0.2" fill="blue" stroke="none" stroke-width="0.2"/>
<circle cx="-75" cy="86" r="0.2" fill="blue" stroke="none" stroke-width="0.2"/>
<circle cx="34" cy="-7" r="0.2" fill="blue" stroke="none" stroke-width="0.2"/>
<circle cx="61" cy="41" r="0.2" fill="blue" stroke="none" stroke-width="0.2"/>
<circle cx="-51" cy="-54" r="0.2" fill="blue" stroke="none" stroke-width="0.2"/>
<circle cx="-81" cy="83" r="0.2" fill="blue" stroke="none" stroke-width="0.2"/>
<circle cx="32" cy="-20" r="0.2" fill="blue" stroke="none" stroke-width="0.2"/>
<circle cx="-73" cy="-26" r="0.2" fill="blue" stroke="none" stroke-width="0.2"/>
<circle cx="81" cy="-66" r="0.2" fill="blue" stroke="none" stroke-width="0.2"/>
<circle cx="-69" cy="-77" r="0.2" fill="blue" stroke="none" stroke-width="0.2"/>
<circle cx="23" cy="13" r="0.2" fill="blue" stroke="none" stroke-width="0.2"/>
<circle cx="-72" cy="79" r="0.2" fill="blue" stroke="none" stroke-width="0.2"/>
<circle cx="-64" cy="-93" r="0.2" fill="blue" stroke="none" stroke-width="0.2"/>
<circle cx="43" cy="-56" r="0.2" fill="blue" stroke="none" stroke-width="0.2"/>
<circle cx="-47" cy="-58" r="0.2" fill="blue" stroke="none" stroke-width="0.2"/>
<circle cx="-21" cy="68" r="0.2" fill="blue" stroke="none" stroke-width="0.2"/>
<circle cx="94" cy="-71" r="0.2" fill="blue" stroke="none" stroke-width="0.2"/>
<circle cx="-76" cy="-67" r="0.2" fill="blue" stroke="none" stroke-width="0.2"/>
<circle cx="-4" cy="96" r="0.2" fill="blue" stroke="none" stroke-width="0.2"/>
<circle cx="-29" cy="83" r="0.2" fill="blue" stroke="none" stroke-width="0.2"/>
<circle cx="49" cy="51" r="0.2" fill="blue" stroke="none" stroke-width="0.2"/>
<circle cx="-4" cy="-10" r="0.2" fill="blue" stroke="none" stroke-width="0.2"/>
<circle cx="48" cy="-11" r="0.2" fill="blue" stroke="none" stroke-width="0.2"/>
<circle cx="94" cy="91" r="0.2" fill="blue" stroke="none" stroke-width="0.2"/>
<circle cx="82" cy="-92" r="0.2" fill="blue" stroke="none" stroke-width="0.2"/>
<circle cx="23" cy="-39" r="0.2" fill="blue" stroke="none" stroke-width="0.2"/>
<circle cx="0" cy="58" r="0.2" fill="blue" stroke="none" stroke-width="0.2"/>
<circle cx="47" cy="-94" r="0.2" fill="blue" stroke="none" stroke-width="0.2"/>
<circle cx="85" cy="76" r="0.2" fill="blue" stroke="none" stroke-width="0.2"/>
<circle cx="-13" cy="-57" r="0.2" fill="blue" stroke="none" stroke-width="0.2"/>
<circle cx="53" cy="49" r="0.2" fill="blue" stroke="none" stroke-width="0.2"/>
<circle cx="47" cy="46" r="0.2" fill="blue" stroke="none" stroke-width="0.2"/>
<circle cx="-80" cy="-75" r="0.2" fill="blue" stroke="none" stroke-width="0.2"/>
<circle cx="-34" cy="96" r="0.2" fill="blue" stroke="none" stroke-width="0.2"/>
<circle cx="63" cy="-57" r="0.2" fill="blue" stroke="none" stroke-width="0.2"/>
<circle cx="-22" cy="86" r="0.2" fill="blue" stroke="none" stroke-width="0.2"/>
<circle cx="30" cy="81" r="0.2" fill="blue" stroke="none" stroke-width="0.2"/>
<circle cx="19" cy="-6" r="0.2" fill="blue" stroke="none" stroke-width="0.2"/>
<circle cx="-12" cy="61" r="0.2" fill="blue" stroke="none" stroke-width="0.2"/>
<circle cx="27" cy="-70" r="0.2" fill="blue" stroke="none" stroke-width="0.2"/>
<circle cx="-13" cy="-6" r="0.2" fill="blue" stroke="none" stroke-width="0.2"/>
<circle cx="-44" cy="-63" r="0.2" fill="blue" stroke="none" stroke-width="0.2"/>
<circle cx="87" cy="73" r="0.2" fill="blue" stroke="none" stroke-width="0.2"/>
<circle cx="44" cy="10" r="0.2" fill="blue" stroke="none" stroke-width="0.2"/>
<circle cx="-66" cy="3" r="0.2" fill="blue" stroke="none" stroke-width="0.2"/>
<circle cx="-50" cy="44" r="0.2" fill="blue" stroke="none" stroke-width="0.2"/>
<circle cx="-16" cy="2" r="0.2" fill="blue" stroke="none" stroke-width="0.2"/>
<circle cx="64" cy="-19" r="0.2" fill="blue" stroke="none" stroke-width="0.2"/>
<circle cx="-88" cy="4" r="0.2" fill="blue" stroke="none" stroke-width="0.2"/>
<circle cx="-77" cy="76" r="0.2" fill="blue" stroke="none" stroke-width="0.2"/>
<circle cx="-34" cy="59" r="0.2" fill="blue" stroke="none" stroke-width="0.2"/>
<circle cx="45" cy="96" r="0.2" fill="blue" stroke="none" stroke-width="0.2"/>
<circle cx="64" cy="75" r="0.2" fill="blue" stroke="none" stroke-width="0.2"/>
<circle cx="25" cy="-32" r="0.2" fill="blue" stroke="none" stroke-width="0.2"/>
<circle cx="-98" cy="3" r="0.2" fill="blue" stroke="none" stroke-width="0.2"/>
<circle cx="35" cy="81" r="0.2" fill="blue" stroke="none" stroke-width="0.2"/>
<circle cx="-4" cy="60" r="0.2" fill="blue" stroke="none" stroke-width="0.2"/>
<circle cx="32" cy="-59" r="0.2" fill="blue" stroke="none" stroke-width="0.2"/>
<circle cx="1" cy="-48" r="0.2" fill="blue" stroke="none" stroke-width="0.2"/>
<circle cx="96" cy="-81" r="0.2" fill="blue" stroke="none" stroke-width="0.2"/>
<circle cx="9" cy="58" r="0.2" fill="blue" stroke="none" stroke-width="0.2"/>
<circle cx="56" cy="-19" r="0.2" fill="blue" stroke="none" stroke-width="0.2"/>
<circle cx="-27" cy="-90" r="0.2" fill="blue" stroke="none" stroke-width="0.2"/>
<circle cx="-89" cy="53" r="0.2" fill="blue" stroke="none" stroke-width="0.2"/>
<circle cx="-59" cy="38" r="0.2" fill="blue" stroke="none" stroke-width="0.2"/>
<circle cx="40" cy="-58" r="0.2" fill="blue" stroke="none" stroke-width="0.2"/>
<circle cx="69" cy="40" r="0.2" fill="blue" stroke="none" stroke-width="0.2"/>
<circle cx="-94" cy="3" r="0.2" fill="blue" stroke="none" stroke-width="0.2"/>
<circle cx="10" cy="-18" r="0.2" fill="blue" stroke="none" stroke-width="0.2"/>
<circle cx="-95" cy="75" r="0.2" fill="blue" stroke="none" stroke-width="0.2"/>
<circle cx="99" cy="93" r="0.2" fill="blue" stroke="none" stroke-width="0.2"/>
<circle cx="-81" cy="-77" r="0.2" fill="blue" stroke="none" stroke-width="0.2"/>
<circle cx="-84" cy="-67" r="0.2" fill="blue" stroke="none" stroke-width="0.2"/>
<circle cx="93" cy="-35" r="0.2" fill="blue" stroke="none" stroke-width="0.2"/>
<circle cx="-19" cy="34" r="0.2" fill="blue" stroke="none" stroke-width="0.2"/>
<circle cx="39" cy="-85" r="0.2" fill="blue" stroke="none" stroke-width="0.2"/>
<circle cx="73" cy="54" r="0.2" fill="blue" stroke="none" stroke-width="0.2"/>
<circle cx="-61" cy="-4" r="0.2" fill="blue" stroke="none" stroke-width="0.2"/>
<circle cx="92" cy="52" r="0.2" fill="blue" stroke="none" stroke-width="0.2"/>
<circle cx="77" cy="98" r="0.2" fill="blue" stroke="none" stroke-width="0.2"/>
<circle cx="93" cy="56" r="0.2" fill="blue" stroke="none" stroke-width="0.2"/>
<circle cx="63" cy="-62" r="0.2" fill="blue" stroke="none" stroke-width="0.2"/>
<circle cx="10" cy="26" r="0.2" fill="blue" stroke="none" stroke-width="0.2"/>
<circle cx="1" cy="-78" r="0.2" fill="blue" stroke="none" stroke-width="0.2"/>
<circle cx="90" cy="54" r="0.2" fill="blue" stroke="none" stroke-width="0.2"/>
<circle cx="50" cy="24" r="0.2" fill="blue" stroke="none" stroke-width="0.2"/>
<circle cx="-68" cy="63" r="0.2" fill="blue" stroke="none" stroke-width="0.2"/>
<circle cx="52" cy="38" r="0.2" fill="blue" stroke="none" stroke-width="0.2"/>
<circle cx="98" cy="2" r="0.2" fill="blue" stroke="none" stroke-width="0.2"/>
<circle cx="44" cy="8" r="0.2" fill="blue" stroke="none" stroke-width="0.2"/>
<circle cx="10" cy="25" r="0.2" fill="blue" stroke="none" stroke-width="0.2"/>
<circle cx="64" cy="38" r="0.2" fill="blue" stroke="none" stroke-width="0.2"/>
<circle cx="-20" cy="-95" r="0.2" fill="blue" stroke="none" stroke-width="0.2"/>
<circle cx="5" cy="-63" r="0.2" fill="blue" stroke="none" stroke-width="0.2"/>
<circle cx="93" cy="1" r="0.2" fill="blue" stroke="none" stroke-width="0.2"/>
<circle cx="9" cy="50" r="0.2" fill="blue" stroke="none" stroke-width="0.2"/>
<circle cx="-25" cy="-59" r="0.2" fill="blue" stroke="none" stroke-width="0.2"/>
<circle cx="53" cy="79" r="0.2" fill="blue" stroke="none" stroke-width="0.2"/>
<circle cx="8" cy="14" r="0.2" fill="blue" stroke="none" stroke-width="0.2"/>
<circle cx="47" cy="-32" r="0.2" fill="blue" stroke="none" stroke-width="0.2"/>
<circle cx="14" cy="11" r="0.2" fill="blue" stroke="none" stroke-width="0.2"/>
<circle cx="-35" cy="-20" r="0.2" fill="blue" stroke="none" stroke-width="0.2"/>
<circle cx="-77" cy="51" r="0.2" fill="blue" stroke="none" stroke-width="0.2"/>
<circle cx="-85" cy="-80" r="0.2" fill="blue" stroke="none" stroke-width="0.2"/>
<circle cx="55" cy="-84" r="0.2" fill="blue" stroke="none" stroke-width="0.2"/>
<circle cx="1" cy="-65" r="0.2" fill="blue" stroke="none" stroke-width="0.2"/>
<circle cx="28" cy="58" r="0.2" fill="blue" stroke="none" stroke-width="0.2"/>
<circle cx="39" cy="0" r="0.2" fill="blue" stroke="none" stroke-width="0.2"/>
<circle cx="-96" cy="-55" r="0.2" fill="blue" stroke="none" stroke-width="0.2"/>
<circle cx="-87" cy="95" r="0.2" fill="blue" stroke="none" stroke-width="0.2"/>
<circle cx="73" cy="-59" r="0.2" fill="blue" stroke="none" stroke-width="0.2"/>
<circle cx="38" cy="-56" r="0.2" fill="blue" stroke="none" stroke-width="0.2"/>
<circle cx="-19" cy="42" r="0.2" fill="blue" stroke="none" stroke-width="0.2"/>
<circle cx="26" cy="56" r="0.2" fill="blue" stroke="none" stroke-width="0.2"/>
<circle cx="-32" cy="90" r="0.2" fill="blue" stroke="none" stroke-width="0.2"/>
<circle cx="17" cy="-96" r="0.2" fill="blue" stroke="none" stroke-width="0.2"/>
<circle cx="24" cy="-12" r="0.2" fill="blue" stroke="none" stroke-width="0.2"/>
<circle cx="88" cy="-27" r="0.2" fill="blue" stroke="none" stroke-width="0.2"/>
<circle cx="-88" cy="31" r="0.2" fill="blue" stroke="none" stroke-width="0.2"/>
<circle cx="-50" cy="-16" r="0.2" fill="blue" stroke="none" stroke-width="0.2"/>
<circle cx="-78" cy="-96" r="0.2" fill="blue" stroke="none" stroke-width="0.2"/>
<circle cx="22" cy="9" r="0.2" fill="blue" stroke="none" stroke-width="0.2"/>
<circle cx="-37" cy="7" r="0.2" fill="blue" stroke="none" stroke-width="0.2"/>
<circle cx="-73" cy="-72" r="0.2" fill="blue" stroke="none" stroke-width="0.2"/>
<circle cx="63" cy="-28" r="0.2" fill="blue" stroke="none" stroke-width="0.2"/>
<circle cx="-82" cy="38" r="0.2" fill="blue" stroke="none" stroke-width="0.2"/>
<circle cx="43" cy="52" r="0.2" fill="blue" stroke="none" stroke-width="0.2"/>
<circle cx="85" cy="-90" r="0.2" fill="blue" stroke="none" stroke-width="0.2"/>
<circle cx="37" cy="38" r="0.2" fill="blue" stroke="none" stroke-width="0.2"/>
<circle cx="-58" cy="76" r="0.2" fill="blue" stroke="none" stroke-width="0.2"/>
<circle cx="53" cy="30" r="0.2" fill="blue" stroke="none" stroke-width="0.2"/>
<circle cx="44" cy="-45" r="0.2" fill="blue" stroke="none" stroke-width="0.2"/>
<circle cx="6" cy="56" r="0.2" fill="blue" stroke="none" stroke-width="0.2"/>
<circle cx="33" cy="-97" r="0.2" fill="blue" stroke="none" stroke-width="0.2"/>
<circle cx="-13" cy="-31" r="0.2" fill="blue" stroke="none" stroke-width="0.2"/>
<circle cx="-69" cy="-26" r="0.2" fill="blue" stroke="none" stroke-width="0.2"/>
<circle cx="-64" cy="41" r="0.2" fill="blue" stroke="none" stroke-width="0.2"/>
<circle cx="-6" cy="-23" r="0.2" fill="blue" stroke="none" stroke-width="0.2"/>
<circle cx="81" cy="73" r="0.2" fill="blue" stroke="none" stroke-width="0.2"/>
<circle cx="-4" cy="-66" r="0.2" fill="blue" stroke="none" stroke-width="0.2"/>
<circle cx="-21" cy="-40" r="0.2" fill="blue" stroke="none" stroke-width="0.2"/>
<circle cx="76" cy="-23" r="0.2" fill="blue" stroke="none" stroke-width="0.2"/>
<circle cx="-72" cy="89" r="0.2" fill="blue" stroke="none" stroke-width="0.2"/>
<circle cx="-9" cy="65" r="0.2" fill="blue" stroke="none" stroke-width="0.2"/>
<circle cx="47" cy="-11" r="0.2" fill="blue" stroke="none" stroke-width="0.2"/>
<circle cx="-97" cy="78" r="0.2" fill="blue" stroke="none" stroke-width="0.2"/>
<circle cx="-35" cy="-72" r="0.2" fill="blue" stroke="none" stroke-width="0.2"/>
<circle cx="-35" cy="-71" r="0.2" fill="blue" stroke="none" stroke-width="0.2"/>
<circle cx="-3" cy="-54" r="0.2" fill="blue" stroke="none" stroke-width="0.2"/>
<circle cx="-34" cy="31" r="0.2" fill="blue" stroke="none" stroke-width="0.2"/>
<circle cx="43" cy="-71" r="0.2" fill="blue" stroke="none" stroke-width="0.2"/>
<circle cx="36" cy="33" r="0.2" fill="blue" stroke="none" stroke-width="0.2"/>
<circle cx="-94" cy="82" r="0.2" fill="blue" stroke="none" stroke-width="0.2"/>
<circle cx="-81" cy="-50" r="0.2" fill="blue" stroke="none" stroke-width="0.2"/>
<circle cx="-71" cy="-71" r="0.2" fill="blue" stroke="none" stroke-width="0.2"/>
<circle cx="34" cy="-40" r="0.2" fill="blue" stroke="none" stroke-width="0.2"/>
<circle cx="30" cy="-31" r="0.2" fill="blue" stroke="none" stroke-width="0.2"/>
<circle cx="-18" cy="-31" r="0.2" fill="blue" stroke="none" stroke-width="0.2"/>
<circle cx="-9" cy="31" r="0.2" fill="blue" stroke="none" stroke-width="0.2"/>
<circle cx="71" cy="-80" r="0.2" fill="blue" stroke="none" stroke-width="0.2"/>
<circle cx="-39" cy="46" r="0.2" fill="blue" stroke="none" stroke-width="0.2"/>
<circle cx="53" cy="-26" r="0.2" fill="blue" stroke="none" stroke-width="0.2"/>
<circle cx="-29" cy="-44" r="0.2" fill="blue" stroke="none" stroke-width="0.2"/>
<circle cx="-78" cy="-13" r="0.2" fill="blue" stroke="none" stroke-width="0.2"/>
<circle cx="-59" cy="8" r="0.2" fill="blue" stroke="none" stroke-width="0.2"/>
<circle cx="-90" cy="32" r="0.2" fill="blue" stroke="none" stroke-width="0.2"/>
<circle cx="37" cy="-49" r="0.2" fill="blue" stroke="none" stroke-width="0.2"/>
<circle cx="44" cy="39" r="0.2" fill="blue" stroke="none" stroke-width="0.2"/>
<circle cx="-44" cy="97" r="0.2" fill="blue" stroke="none" stroke-width="0.2"/>
<circle cx="15" cy="-46" r="0.2" fill="blue" stroke="none" stroke-width="0.2"/>
<circle cx="-96" cy="-4" r="0.2" fill="blue" stroke="none" stroke-width="0.2"/>
<circle cx="-34" cy="-88" r="0.2" fill="blue" stroke="none" stroke-width="0.2"/>
<circle cx="13" cy="-60" r="0.2" fill="blue" stroke="none" stroke-width="0.2"/>
<circle cx="-6" cy="-42" r="0.2" fill="blue" stroke="none" stroke-width="0.2"/>
<circle cx="14" cy="17" r="0.2" fill="blue" stroke="none" stroke-width="0.2"/>
<circle cx="21" cy="-90" r="0.2" fill="blue" stroke="none" stroke-width="0.2"/>
<circle cx="61" cy="46" r="0.2" fill="blue" stroke="none" stroke-width="0.2"/>
<circle cx="-22" cy="62" r="0.2" fill="blue" stroke="none" stroke-width="0.2"/>
<circle cx="56" cy="4" r="0.2" fill="blue" stroke="none" stroke-width="0.2"/>
<circle cx="-70" cy="2" r="0.2" fill="blue" stroke="none" stroke-width="0.2"/>
<circle cx="12" cy="-54" r="0.2" fill="blue" stroke="none" stroke-width="0.2"/>
<circle cx="35" cy="-30" r="0.2" fill="blue" stroke="none" stroke-width="0.2"/>
<circle cx="57" cy="65" r="0.2" fill="blue" stroke="none" stroke-width="0.2"/>
<circle cx="-10" cy="-52" r="0.2" fill="blue" stroke="none" stroke-width="0.2"/>
<circle cx="-81" cy="48" r="0.2" fill="blue" stroke="none" stroke-width="0.2"/>
<circle cx="-12" cy="-55" r="0.2" fill="blue" stroke="none" stroke-width="0.2"/>
<circle cx="-44" cy="-93" r="0.2" fill="blue" stroke="none" stroke-width="0.2"/>
<circle cx="-17" cy="82" r="0.2" fill="blue" stroke="none" stroke-width="0.2"/>
<circle cx="-94" cy="-66" r="0.2" fill="blue" stroke="none" stroke-width="0.2"/>
<circle cx="99" cy="58" r="0.2" fill="blue" stroke="none" stroke-width="0.2"/>
<circle cx="87" cy="-99" r="0.2" fill="blue" stroke="none" stroke-width="0.2"/>
<circle cx="65" cy="37" r="0.2" fill="blue" stroke="none" stroke-width="0.2"/>
<circle cx="23" cy="87" r="0.2" fill="blue" stroke="none" stroke-width="0.2"/>
<circle cx="-34" cy="-18" r="0.2" fill="blue" stroke="none" stroke-width="0.2"/>
<circle cx="-99" cy="-80" r="0.2" fill="blue" stroke="none" stroke-width="0.2"/>
<circle cx="29" cy="-6" r="0.2" fill="blue" stroke="none" stroke-width="0.2"/>
<circle cx="-47" cy="-32" r="0.2" fill="blue" stroke="none" stroke-width="0.2"/>
<circle cx="4" cy="6" r="0.2" fill="blue" stroke="none" stroke-width="0.2"/>
<circle cx="-86" cy="-48" r="0.2" fill="blue" stroke="none" stroke-width="0.2"/>
<circle cx="-76" cy="50" r="0.2" fill="blue" stroke="none" stroke-width="0.2"/>
<circle cx="61" cy="-78" r="0.2" fill="blue" stroke="none" stroke-width="0.2"/>
<circle cx="-45" cy="-82" r="0.2" fill="blue" stroke="none" stroke-width="0.2"/>
<circle cx="-31" cy="-56" r="0.2" fill="blue" stroke="none" stroke-width="0.2"/>
<circle cx="-94" cy="96" r="0.2" fill="blue" stroke="none" stroke-width="0.2"/>
<circle cx="44" cy="58" r="0.2" fill="blue" stroke="none" stroke-width="0.2"/>
<circle cx="55" cy="-53" r="0.2" fill="blue" stroke="none" stroke-width="0.2"/>
<circle cx="69" cy="17" r="0.2" fill="blue" stroke="none" stroke-width="0.2"/>
<circle cx="37" cy="10" r="0.2" fill="blue" stroke="none" stroke-width="0.2"/>
<circle cx="99" cy="-54" r="0.2" fill="blue" stroke="none" stroke-width="0.2"/>
<circle cx="-92" cy="-50" r="0.2" fill="blue" stroke="none" stroke-width="0.2"/>
<circle cx="94" cy="68" r="0.2" fill="blue" stroke="none" stroke-width="0.2"/>
<circle cx="-82" cy="-81" r="0.2" fill="blue" stroke="none" stroke-width="0.2"/>
<circle cx="30" cy="36" r="0.2" fill="blue" stroke="none" stroke-width="0.2"/>
<circle cx="-83" cy="31" r="0.2" fill="blue" stroke="none" stroke-width="0.2"/>
<circle cx="-91" cy="24" r="0.2" fill="blue" stroke="none" stroke-width="0.2"/>
<circle cx="-56" cy="-81" r="0.2" fill="blue" stroke="none" stroke-width="0.2"/>
<circle cx="-68" cy="-33" r="0.2" fill="blue" stroke="none" stroke-width="0.2"/>
<circle cx="7" cy="8" r="0.2" fill="blue" stroke="none" stroke-width="0.2"/>
<circle cx="-44" cy="69" r="0.2" fill="blue" stroke="none" stroke-width="0.2"/>
<circle cx="-48" cy="-42" r="0.2" fill="blue" stroke="none" stroke-width="0.2"/>
<circle cx="81" cy="61" r="0.2" fill="blue" stroke="none" stroke-width="0.2"/>
<circle cx="-63" cy="67" r="0.2" fill="blue" stroke="none" stroke-width="0.2"/>
<circle cx="100" cy="-79" r="0.2" fill="blue" stroke="none" stroke-width="0.2"/>
<circle cx="-7" cy="-28" r="0.2" fill="blue" stroke="none" stroke-width="0.2"/>
<circle cx="-34" cy="51" r="0.2" fill="blue" stroke="none" stroke-width="0.2"/>
<circle cx="49" cy="0" r="0.2" fill="blue" stroke="none" stroke-width="0.2"/>
<circle cx="-83" cy="-92" r="0.2" fill="blue" stroke="none" stroke-width="0.2"/>
<circle cx="-64" cy="-13" r="0.2" fill="blue" stroke="none" stroke-width="0.2"/>
<circle cx="-92" cy="-85" r="0.2" fill="blue" stroke="none" stroke-width="0.2"/>
<circle cx="28" cy="-3" r="0.2" fill="blue" stroke="none" stroke-width="0.2"/>
<circle cx="-20" cy="-3" r="0.2" fill="blue" stroke="none" stroke-width="0.2"/>
<circle cx="-20" cy="-6" r="0.2" fill="blue" stroke="none" stroke-width="0.2"/>
<circle cx="-92" cy="-33" r="0.2" fill="blue" stroke="none" stroke-width="0.2"/>
<circle cx="-74" cy="34" r="0.2" fill="blue" stroke="none" stroke-width="0.2"/>
<circle cx="57" cy="51" r="0.2" fill="blue" stroke="none" stroke-width="0.2"/>
<circle cx="-15" cy="-41" r="0.2" fill="blue" stroke="none" stroke-width="0.2"/>
<circle cx="-38" cy="39" r="0.2" fill="blue" stroke="none" stroke-width="0.2"/>
<circle cx="-94" cy="70" r="0.2" fill="blue" stroke="none" stroke-width="0.2"/>
<circle cx="-82" cy="-79" r="0.2" fill="blue" stroke="none" stroke-width="0.2"/>
<circle cx="78" cy="-7" r="0.2" fill="blue" stroke="none" stroke-width="0.2"/>
<circle cx="-78" cy="27" r="0.2" fill="blue" stroke="none" stroke-width="0.2"/>
<circle cx="97" cy="80" r="0.2" fill="blue" stroke="none" stroke-width="0.2"/>
<circle cx="23" cy="-55" r="0.2" fill="blue" stroke="none" stroke-width="0.2"/>
<circle cx="-90" cy="43" r="0.2" fill="blue" stroke="none" stroke-width="0.2"/>
<circle cx="20" cy="34" r="0.2" fill="blue" stroke="none" stroke-width="0.2"/>
<circle cx="-37" cy="-73" r="0.2" fill="blue" stroke="none" stroke-width="0.2"/>
<circle cx="20" cy="32" r="0.2" fill="blue" stroke="none" stroke-width="0.2"/>
<circle cx="-41" cy="68" r="0.2" fill="blue" stroke="none" stroke-width="0.2"/>
<circle cx="-27" cy="-83" r="0.2" fill="blue" stroke="none" stroke-width="0.2"/>
<circle cx="-20" cy="-26" r="0.2" fill="blue" stroke="none" stroke-width="0.2"/>
<circle cx="28" cy="38" r="0.2" fill="blue" stroke="none" stroke-width="0.2"/>
<circle cx="-39" cy="95" r="0.2" fill="blue" stroke="none" stroke-width="0.2"/>
<circle cx="-17" cy="-54" r="0.2" fill="blue" stroke="none" stroke-width="0.2"/>
<circle cx="21" cy="72" r="0.2" fill="blue" stroke="none" stroke-width="0.2"/>
<circle cx="34" cy="71" r="0.2" fill="blue" stroke="none" stroke-width="0.2"/>
<circle cx="64" cy="60" r="0.2" fill="blue" stroke="none" stroke-width="0.2"/>
<circle cx="29" cy="67" r="0.2" fill="blue" stroke="none" stroke-width="0.2"/>
<circle cx="-62" cy="-71" r="0.2" fill="blue" stroke="none" stroke-width="0.2"/>
<circle cx="13" cy="-16" r="0.2" fill="blue" stroke="none" stroke-width="0.2"/>
<circle cx="-92" cy="-67" r="0.2" fill="blue" stroke="none" stroke-width="0.2"/>
<circle cx="-48" cy="-10" r="0.2" fill="blue" stroke="none" stroke-width="0.2"/>
<circle cx="-93" cy="81" r="0.2" fill="blue" stroke="none" stroke-width="0.2"/>
<circle cx="82" cy="-83" r="0.2" fill="blue" stroke="none" stroke-width="0.2"/>
<circle cx="-28" cy="-57" r="0.2" fill="blue" stroke="none" stroke-width="0.2"/>
<circle cx="25" cy="72" r="0.2" fill="blue" stroke="none" stroke-width="0.2"/>
<circle cx="8" cy="43" r="0.2" fill="blue" stroke="none" stroke-width="0.2"/>
<circle cx="38" cy="82" r="0.2" fill="blue" stroke="none" stroke-width="0.2"/>

    </svg>
