
    <svg version="1.1"
        viewBox="-95.4, -99.4, 195.8, 198.8"
        xmlns="http://www.w3.org/2000/svg">

        <rect x="-95.4" y="-99.4" width="100%" height="100%" style="fill:white; stroke-width:0.1; stroke: black" />

<circle cx="0" cy="0" r="0.30000000000000004" fill="red" stroke="none" stroke-width="0.2"/>
<circle cx="-41" cy="-63" r="0.2" fill="blue" stroke="none" stroke-width="0.2"/>
<circle cx="68" cy="43" r="0.2" fill="blue" stroke="none" stroke-width="0.2"/>
<circle cx="56" cy="-92" r="0.2" fill="blue" stroke="none" stroke-width="0.2"/>
<circle cx="-75" cy="-83" r="0.2" fill="blue" stroke="none" stroke-width="0.2"/>
<circle cx="-61" cy="76" r="0.2" fill="blue" stroke="none" stroke-width="0.2"/>
<circle cx="-74" cy="4" r="0.2" fill="blue" stroke="none" stroke-width="0.2"/>
<circle cx="-90" cy="86" r="0.2" fill="blue" stroke="none" stroke-width="0.2"/>
<circle cx="68" cy="-48" r="0.2" fill="blue" stroke="none" stroke-width="0.2"/>
<circle cx="54" cy="98" r="0.2" fill="blue" stroke="none" stroke-width="0.2"/>
<circle cx="10" cy="53" r="0.2" fill="blue" stroke="none" stroke-width="0.2"/>
<circle cx="-11" cy="94" r="0.2" fill="blue" stroke="none" stroke-width="0.2"/>
<circle cx="8" cy="39" r="0.2" fill="blue" stroke="none" stroke-width="0.2"/>
<circle cx="-7" cy="-38" r="0.2" fill="blue" stroke="none" stroke-width="0.2"/>
<circle cx="31" cy="67" r="0.2" fill="blue" stroke="none" stroke-width="0.2"/>
<circle cx="9" cy="55" r="0.2" fill="blue" stroke="none" stroke-width="0.2"/>
<circle cx="21" cy="-92" r="0.2" fill="blue" stroke="none" stroke-width="0.2"/>
<circle cx="-45" cy="68" r="0.2" fill="blue" stroke="none" stroke-width="0.2"/>
<circle cx="39" cy="-17" r="0.2" fill="blue" stroke="none" stroke-width="0.2"/>
<circle cx="72" cy="-39" r="0.2" fill="blue" stroke="none" stroke-width="0.2"/>
<circle cx="-44" cy="-64" r="0.2" fill="blue" stroke="none" stroke-width="0.2"/>
<circle cx="-81" cy="-68" r="0.2" fill="blue" stroke="none" stroke-width="0.2"/>
<circle cx="-26" cy="-57" r="0.2" fill="blue" stroke="none" stroke-width="0.2"/>
<circle cx="-95" cy="74" r="0.2" fill="blue" stroke="none" stroke-width="0.2"/>
<circle cx="77" cy="-96" r="0.2" fill="blue" stroke="none" stroke-width="0.2"/>
<circle cx="59" cy="-20" r="0.2" fill="blue" stroke="none" stroke-width="0.2"/>
<circle cx="-64" cy="1" r="0.2" fill="blue" stroke="none" stroke-width="0.2"/>
<circle cx="-85" cy="-75" r="0.2" fill="blue" stroke="none" stroke-width="0.2"/>
<circle cx="91" cy="-49" r="0.2" fill="blue" stroke="none" stroke-width="0.2"/>
<circle cx="-80" cy="-66" r="0.2" fill="blue" stroke="none" stroke-width="0.2"/>
<circle cx="45" cy="-98" r="0.2" fill="blue" stroke="none" stroke-width="0.2"/>
<circle cx="-10" cy="-76" r="0.2" fill="blue" stroke="none" stroke-width="0.2"/>
<circle cx="82" cy="-92" r="0.2" fill="blue" stroke="none" stroke-width="0.2"/>
<circle cx="-93" cy="70" r="0.2" fill="blue" stroke="none" stroke-width="0.2"/>
<circle cx="25" cy="-18" r="0.2" fill="blue" stroke="none" stroke-width="0.2"/>
<circle cx="-89" cy="-88" r="0.2" fill="blue" stroke="none" stroke-width="0.2"/>
<circle cx="7" cy="80" r="0.2" fill="blue" stroke="none" stroke-width="0.2"/>
<circle cx="-6" cy="52" r="0.2" fill="blue" stroke="none" stroke-width="0.2"/>
<circle cx="58" cy="76" r="0.2" fill="blue" stroke="none" stroke-width="0.2"/>
<circle cx="48" cy="-54" r="0.2" fill="blue" stroke="none" stroke-width="0.2"/>
<circle cx="-20" cy="-19" r="0.2" fill="blue" stroke="none" stroke-width="0.2"/>
<circle cx="79" cy="-80" r="0.2" fill="blue" stroke="none" stroke-width="0.2"/>
<circle cx="-95" cy="-30" r="0.2" fill="blue" stroke="none" stroke-width="0.2"/>
<circle cx="100" cy="-89" r="0.2" fill="blue" stroke="none" stroke-width="0.2"/>
<circle cx="-2" cy="2" r="0.2" fill="blue" stroke="none" stroke-width="0.2"/>
<circle cx="-40" cy="-22" r="0.2" fill="blue" stroke="none" stroke-width="0.2"/>
<circle cx="11" cy="-12" r="0.2" fill="blue" stroke="none" stroke-width="0.2"/>
<circle cx="-25" cy="39" r="0.2" fill="blue" stroke="none" stroke-width="0.2"/>
<circle cx="-81" cy="-90" r="0.2" fill="blue" stroke="none" stroke-width="0.2"/>
<circle cx="70" cy="8" r="0.2" fill="blue" stroke="none" stroke-width="0.2"/>
<circle cx="33" cy="20" r="0.2" fill="blue" stroke="none" stroke-width="0.2"/>
<circle cx="11" cy="20" r="0.2" fill="blue" stroke="none" stroke-width="0.2"/>
<circle cx="18" cy="53" r="0.2" fill="blue" stroke="none" stroke-width="0.2"/>
<circle cx="-68" cy="98" r="0.2" fill="blue" stroke="none" stroke-width="0.2"/>
<circle cx="-49" cy="-86" r="0.2" fill="blue" stroke="none" stroke-width="0.2"/>
<circle cx="9" cy="-88" r="0.2" fill="blue" stroke="none" stroke-width="0.2"/>
<circle cx="62" cy="9" r="0.2" fill="blue" stroke="none" stroke-width="0.2"/>
<circle cx="74" cy="78" r="0.2" fill="blue" stroke="none" stroke-width="0.2"/>
<circle cx="54" cy="-1" r="0.2" fill="blue" stroke="none" stroke-width="0.2"/>
<circle cx="-36" cy="-50" r="0.2" fill="blue" stroke="none" stroke-width="0.2"/>
<circle cx="-29" cy="-18" r="0.2" fill="blue" stroke="none" stroke-width="0.2"/>
<circle cx="74" cy="59" r="0.2" fill="blue" stroke="none" stroke-width="0.2"/>
<circle cx="73" cy="-30" r="0.2" fill="blue" stroke="none" stroke-width="0.2"/>
<circle cx="-38" cy="-18" r="0.2" fill="blue" stroke="none" stroke-width="0.2"/>
<circle cx="-89" cy="-62" r="0.2" fill="blue" stroke="none" stroke-width="0.2"/>
<circle cx="-38" cy="91" r="0.2" fill="blue" stroke="none" stroke-width="0.2"/>
<circle cx="99" cy="-77" r="0.2" fill="blue" stroke="none" stroke-width="0.2"/>
<circle cx="49" cy="-93" r="0.2" fill="blue" stroke="none" stroke-width="0.2"/>
<circle cx="17" cy="48" r="0.2" fill="blue" stroke="none" stroke-width="0.2"/>
<circle cx="52" cy="23" r="0.2" fill="blue" stroke="none" stroke-width="0.2"/>
<circle cx="32" cy="-61" r="0.2" fill="blue" stroke="none" stroke-width="0.2"/>
<circle cx="-93" cy="88" r="0.2" fill="blue" stroke="none" stroke-width="0.2"/>
<circle cx="-59" cy="-84" r="0.2" fill="blue" stroke="none" stroke-width="0.2"/>
<circle cx="95" cy="-1" r="0.2" fill="blue" stroke="none" stroke-width="0.2"/>
<circle cx="-49" cy="77" r="0.2" fill="blue" stroke="none" stroke-width="0.2"/>
<circle cx="40" cy="84" r="0.2" fill="blue" stroke="none" stroke-width="0.2"/>
<circle cx="64" cy="-99" r="0.2" fill="blue" stroke="none" stroke-width="0.2"/>
<circle cx="28" cy="-57" r="0.2" fill="blue" stroke="none" stroke-width="0.2"/>
<circle cx="37" cy="-69" r="0.2" fill="blue" stroke="none" stroke-width="0.2"/>
<circle cx="-75" cy="-72" r="0.2" fill="blue" stroke="none" stroke-width="0.2"/>
<circle cx="-89" cy="-94" r="0.2" fill="blue" stroke="none" stroke-width="0.2"/>
<circle cx="95" cy="22" r="0.2" fill="blue" stroke="none" stroke-width="0.2"/>
<circle cx="33" cy="-72" r="0.2" fill="blue" stroke="none" stroke-width="0.2"/>
<circle cx="10" cy="77" r="0.2" fill="blue" stroke="none" stroke-width="0.2"/>
<circle cx="-84" cy="87" r="0.2" fill="blue" stroke="none" stroke-width="0.2"/>
<circle cx="-67" cy="-45" r="0.2" fill="blue" stroke="none" stroke-width="0.2"/>
<circle cx="4" cy="-45" r="0.2" fill="blue" stroke="none" stroke-width="0.2"/>
<circle cx="27" cy="-39" r="0.2" fill="blue" stroke="none" stroke-width="0.2"/>
<circle cx="30" cy="-89" r="0.2" fill="blue" stroke="none" stroke-width="0.2"/>
<circle cx="55" cy="-92" r="0.2" fill="blue" stroke="none" stroke-width="0.2"/>
<circle cx="4" cy="83" r="0.2" fill="blue" stroke="none" stroke-width="0.2"/>
<circle cx="52" cy="28" r="0.2" fill="blue" stroke="none" stroke-width="0.2"/>
<circle cx="39" cy="40" r="0.2" fill="blue" stroke="none" stroke-width="0.2"/>
<circle cx="59" cy="-2" r="0.2" fill="blue" stroke="none" stroke-width="0.2"/>
<circle cx="82" cy="99" r="0.2" fill="blue" stroke="none" stroke-width="0.2"/>
<circle cx="66" cy="60" r="0.2" fill="blue" stroke="none" stroke-width="0.2"/>
<circle cx="1" cy="-93" r="0.2" fill="blue" stroke="none" stroke-width="0.2"/>
<circle cx="-48" cy="12" r="0.2" fill="blue" stroke="none" stroke-width="0.2"/>
<circle cx="-26" cy="9" r="0.2" fill="blue" stroke="none" stroke-width="0.2"/>
<circle cx="-83" cy="-49" r="0.2" fill="blue" stroke="none" stroke-width="0.2"/>
<circle cx="39" cy="-86" r="0.2" fill="blue" stroke="none" stroke-width="0.2"/>

    </svg>
