
    <svg version="1.1"
        width="195.8" height="198.8"
        xmlns="http://www.w3.org/2000/svg">

        <rect width="100%" height="100%" style="fill:white; stroke-width:0.1; stroke: black" />

<circle cx="54.4" cy="36.4" r="0.2" fill="blue" stroke="none" stroke-width="0.2"/>
<circle cx="163.4" cy="142.4" r="0.2" fill="blue" stroke="none" stroke-width="0.2"/>
<circle cx="151.4" cy="7.4" r="0.2" fill="blue" stroke="none" stroke-width="0.2"/>
<circle cx="20.4" cy="16.4" r="0.2" fill="blue" stroke="none" stroke-width="0.2"/>
<circle cx="34.4" cy="175.4" r="0.2" fill="blue" stroke="none" stroke-width="0.2"/>
<circle cx="21.4" cy="103.4" r="0.2" fill="blue" stroke="none" stroke-width="0.2"/>
<circle cx="5.4" cy="185.4" r="0.2" fill="blue" stroke="none" stroke-width="0.2"/>
<circle cx="163.4" cy="51.4" r="0.2" fill="blue" stroke="none" stroke-width="0.2"/>
<circle cx="149.4" cy="197.4" r="0.2" fill="blue" stroke="none" stroke-width="0.2"/>
<circle cx="105.4" cy="152.4" r="0.2" fill="blue" stroke="none" stroke-width="0.2"/>
<circle cx="84.4" cy="193.4" r="0.2" fill="blue" stroke="none" stroke-width="0.2"/>
<circle cx="103.4" cy="138.4" r="0.2" fill="blue" stroke="none" stroke-width="0.2"/>
<circle cx="88.4" cy="61.4" r="0.2" fill="blue" stroke="none" stroke-width="0.2"/>
<circle cx="126.4" cy="166.4" r="0.2" fill="blue" stroke="none" stroke-width="0.2"/>
<circle cx="104.4" cy="154.4" r="0.2" fill="blue" stroke="none" stroke-width="0.2"/>
<circle cx="116.4" cy="7.4" r="0.2" fill="blue" stroke="none" stroke-width="0.2"/>
<circle cx="50.4" cy="167.4" r="0.2" fill="blue" stroke="none" stroke-width="0.2"/>
<circle cx="134.4" cy="82.4" r="0.2" fill="blue" stroke="none" stroke-width="0.2"/>
<circle cx="167.4" cy="60.4" r="0.2" fill="blue" stroke="none" stroke-width="0.2"/>
<circle cx="51.4" cy="35.4" r="0.2" fill="blue" stroke="none" stroke-width="0.2"/>
<circle cx="14.4" cy="31.4" r="0.2" fill="blue" stroke="none" stroke-width="0.2"/>
<circle cx="69.4" cy="42.4" r="0.2" fill="blue" stroke="none" stroke-width="0.2"/>
<circle cx="0.4" cy="173.4" r="0.2" fill="blue" stroke="none" stroke-width="0.2"/>
<circle cx="172.4" cy="3.4" r="0.2" fill="blue" stroke="none" stroke-width="0.2"/>
<circle cx="154.4" cy="79.4" r="0.2" fill="blue" stroke="none" stroke-width="0.2"/>
<circle cx="31.4" cy="100.4" r="0.2" fill="blue" stroke="none" stroke-width="0.2"/>
<circle cx="10.4" cy="24.4" r="0.2" fill="blue" stroke="none" stroke-width="0.2"/>
<circle cx="186.4" cy="50.4" r="0.2" fill="blue" stroke="none" stroke-width="0.2"/>
<circle cx="15.4" cy="33.4" r="0.2" fill="blue" stroke="none" stroke-width="0.2"/>
<circle cx="140.4" cy="1.4" r="0.2" fill="blue" stroke="none" stroke-width="0.2"/>
<circle cx="85.4" cy="23.4" r="0.2" fill="blue" stroke="none" stroke-width="0.2"/>
<circle cx="177.4" cy="7.4" r="0.2" fill="blue" stroke="none" stroke-width="0.2"/>
<circle cx="2.4" cy="169.4" r="0.2" fill="blue" stroke="none" stroke-width="0.2"/>
<circle cx="120.4" cy="81.4" r="0.2" fill="blue" stroke="none" stroke-width="0.2"/>
<circle cx="6.4" cy="11.4" r="0.2" fill="blue" stroke="none" stroke-width="0.2"/>
<circle cx="102.4" cy="179.4" r="0.2" fill="blue" stroke="none" stroke-width="0.2"/>
<circle cx="89.4" cy="151.4" r="0.2" fill="blue" stroke="none" stroke-width="0.2"/>
<circle cx="153.4" cy="175.4" r="0.2" fill="blue" stroke="none" stroke-width="0.2"/>
<circle cx="143.4" cy="45.4" r="0.2" fill="blue" stroke="none" stroke-width="0.2"/>
<circle cx="75.4" cy="80.4" r="0.2" fill="blue" stroke="none" stroke-width="0.2"/>
<circle cx="174.4" cy="19.4" r="0.2" fill="blue" stroke="none" stroke-width="0.2"/>
<circle cx="0.4" cy="69.4" r="0.2" fill="blue" stroke="none" stroke-width="0.2"/>
<circle cx="195.4" cy="10.4" r="0.2" fill="blue" stroke="none" stroke-width="0.2"/>
<circle cx="93.4" cy="101.4" r="0.2" fill="blue" stroke="none" stroke-width="0.2"/>
<circle cx="55.4" cy="77.4" r="0.2" fill="blue" stroke="none" stroke-width="0.2"/>
<circle cx="106.4" cy="87.4" r="0.2" fill="blue" stroke="none" stroke-width="0.2"/>
<circle cx="70.4" cy="138.4" r="0.2" fill="blue" stroke="none" stroke-width="0.2"/>
<circle cx="14.4" cy="9.4" r="0.2" fill="blue" stroke="none" stroke-width="0.2"/>
<circle cx="165.4" cy="107.4" r="0.2" fill="blue" stroke="none" stroke-width="0.2"/>
<circle cx="128.4" cy="119.4" r="0.2" fill="blue" stroke="none" stroke-width="0.2"/>
<circle cx="106.4" cy="119.4" r="0.2" fill="blue" stroke="none" stroke-width="0.2"/>
<circle cx="113.4" cy="152.4" r="0.2" fill="blue" stroke="none" stroke-width="0.2"/>
<circle cx="27.4" cy="197.4" r="0.2" fill="blue" stroke="none" stroke-width="0.2"/>
<circle cx="46.4" cy="13.4" r="0.2" fill="blue" stroke="none" stroke-width="0.2"/>
<circle cx="104.4" cy="11.4" r="0.2" fill="blue" stroke="none" stroke-width="0.2"/>
<circle cx="157.4" cy="108.4" r="0.2" fill="blue" stroke="none" stroke-width="0.2"/>
<circle cx="169.4" cy="177.4" r="0.2" fill="blue" stroke="none" stroke-width="0.2"/>
<circle cx="149.4" cy="98.4" r="0.2" fill="blue" stroke="none" stroke-width="0.2"/>
<circle cx="59.4" cy="49.4" r="0.2" fill="blue" stroke="none" stroke-width="0.2"/>
<circle cx="66.4" cy="81.4" r="0.2" fill="blue" stroke="none" stroke-width="0.2"/>
<circle cx="169.4" cy="158.4" r="0.2" fill="blue" stroke="none" stroke-width="0.2"/>
<circle cx="168.4" cy="69.4" r="0.2" fill="blue" stroke="none" stroke-width="0.2"/>
<circle cx="57.4" cy="81.4" r="0.2" fill="blue" stroke="none" stroke-width="0.2"/>
<circle cx="6.4" cy="37.4" r="0.2" fill="blue" stroke="none" stroke-width="0.2"/>
<circle cx="57.4" cy="190.4" r="0.2" fill="blue" stroke="none" stroke-width="0.2"/>
<circle cx="194.4" cy="22.4" r="0.2" fill="blue" stroke="none" stroke-width="0.2"/>
<circle cx="144.4" cy="6.4" r="0.2" fill="blue" stroke="none" stroke-width="0.2"/>
<circle cx="112.4" cy="147.4" r="0.2" fill="blue" stroke="none" stroke-width="0.2"/>
<circle cx="147.4" cy="122.4" r="0.2" fill="blue" stroke="none" stroke-width="0.2"/>
<circle cx="127.4" cy="38.4" r="0.2" fill="blue" stroke="none" stroke-width="0.2"/>
<circle cx="2.4" cy="187.4" r="0.2" fill="blue" stroke="none" stroke-width="0.2"/>
<circle cx="36.4" cy="15.4" r="0.2" fill="blue" stroke="none" stroke-width="0.2"/>
<circle cx="190.4" cy="98.4" r="0.2" fill="blue" stroke="none" stroke-width="0.2"/>
<circle cx="46.4" cy="176.4" r="0.2" fill="blue" stroke="none" stroke-width="0.2"/>
<circle cx="135.4" cy="183.4" r="0.2" fill="blue" stroke="none" stroke-width="0.2"/>
<circle cx="159.4" cy="0.4" r="0.2" fill="blue" stroke="none" stroke-width="0.2"/>
<circle cx="123.4" cy="42.4" r="0.2" fill="blue" stroke="none" stroke-width="0.2"/>
<circle cx="132.4" cy="30.4" r="0.2" fill="blue" stroke="none" stroke-width="0.2"/>
<circle cx="20.4" cy="27.4" r="0.2" fill="blue" stroke="none" stroke-width="0.2"/>
<circle cx="6.4" cy="5.4" r="0.2" fill="blue" stroke="none" stroke-width="0.2"/>
<circle cx="190.4" cy="121.4" r="0.2" fill="blue" stroke="none" stroke-width="0.2"/>
<circle cx="128.4" cy="27.4" r="0.2" fill="blue" stroke="none" stroke-width="0.2"/>
<circle cx="105.4" cy="176.4" r="0.2" fill="blue" stroke="none" stroke-width="0.2"/>
<circle cx="11.4" cy="186.4" r="0.2" fill="blue" stroke="none" stroke-width="0.2"/>
<circle cx="28.4" cy="54.4" r="0.2" fill="blue" stroke="none" stroke-width="0.2"/>
<circle cx="99.4" cy="54.4" r="0.2" fill="blue" stroke="none" stroke-width="0.2"/>
<circle cx="122.4" cy="60.4" r="0.2" fill="blue" stroke="none" stroke-width="0.2"/>
<circle cx="125.4" cy="10.4" r="0.2" fill="blue" stroke="none" stroke-width="0.2"/>
<circle cx="150.4" cy="7.4" r="0.2" fill="blue" stroke="none" stroke-width="0.2"/>
<circle cx="99.4" cy="182.4" r="0.2" fill="blue" stroke="none" stroke-width="0.2"/>
<circle cx="147.4" cy="127.4" r="0.2" fill="blue" stroke="none" stroke-width="0.2"/>
<circle cx="134.4" cy="139.4" r="0.2" fill="blue" stroke="none" stroke-width="0.2"/>
<circle cx="154.4" cy="97.4" r="0.2" fill="blue" stroke="none" stroke-width="0.2"/>
<circle cx="177.4" cy="198.4" r="0.2" fill="blue" stroke="none" stroke-width="0.2"/>
<circle cx="161.4" cy="159.4" r="0.2" fill="blue" stroke="none" stroke-width="0.2"/>
<circle cx="96.4" cy="6.4" r="0.2" fill="blue" stroke="none" stroke-width="0.2"/>
<circle cx="47.4" cy="111.4" r="0.2" fill="blue" stroke="none" stroke-width="0.2"/>
<circle cx="69.4" cy="108.4" r="0.2" fill="blue" stroke="none" stroke-width="0.2"/>
<circle cx="12.4" cy="50.4" r="0.2" fill="blue" stroke="none" stroke-width="0.2"/>
<circle cx="134.4" cy="13.4" r="0.2" fill="blue" stroke="none" stroke-width="0.2"/>

    </svg>
