
    <svg version="1.1"
        width="3960.924" height="3996.924"
        xmlns="http://www.w3.org/2000/svg">

        <rect width="100%" height="100%" style="fill:white; stroke-width:0.1; stroke: black" />

<circle cx="2828.962" cy="1128.962" r="3.981" fill="blue" stroke="none" stroke-width="0.2"/>
<circle cx="1688.962" cy="1674.962" r="3.981" fill="blue" stroke="none" stroke-width="0.2"/>
<circle cx="1305.962" cy="3396.962" r="3.981" fill="blue" stroke="none" stroke-width="0.2"/>
<circle cx="976.962" cy="689.962" r="3.981" fill="blue" stroke="none" stroke-width="0.2"/>
<circle cx="223.962" cy="1035.962" r="3.981" fill="blue" stroke="none" stroke-width="0.2"/>
<circle cx="3149.962" cy="612.962" r="3.981" fill="blue" stroke="none" stroke-width="0.2"/>
<circle cx="2612.962" cy="1958.962" r="3.981" fill="blue" stroke="none" stroke-width="0.2"/>
<circle cx="519.962" cy="2501.962" r="3.981" fill="blue" stroke="none" stroke-width="0.2"/>
<circle cx="2987.962" cy="208.962" r="3.981" fill="blue" stroke="none" stroke-width="0.2"/>
<circle cx="1043.962" cy="720.962" r="3.981" fill="blue" stroke="none" stroke-width="0.2"/>
<circle cx="87.962" cy="2295.962" r="3.981" fill="blue" stroke="none" stroke-width="0.2"/>
<circle cx="1826.962" cy="1891.962" r="3.981" fill="blue" stroke="none" stroke-width="0.2"/>
<circle cx="278.962" cy="2494.962" r="3.981" fill="blue" stroke="none" stroke-width="0.2"/>
<circle cx="3529.962" cy="3334.962" r="3.981" fill="blue" stroke="none" stroke-width="0.2"/>
<circle cx="293.962" cy="1221.962" r="3.981" fill="blue" stroke="none" stroke-width="0.2"/>
<circle cx="1368.962" cy="166.962" r="3.981" fill="blue" stroke="none" stroke-width="0.2"/>
<circle cx="1122.962" cy="2095.962" r="3.981" fill="blue" stroke="none" stroke-width="0.2"/>
<circle cx="109.962" cy="3170.962" r="3.981" fill="blue" stroke="none" stroke-width="0.2"/>
<circle cx="3952.962" cy="1598.962" r="3.981" fill="blue" stroke="none" stroke-width="0.2"/>
<circle cx="1527.962" cy="3377.962" r="3.981" fill="blue" stroke="none" stroke-width="0.2"/>
<circle cx="533.962" cy="397.962" r="3.981" fill="blue" stroke="none" stroke-width="0.2"/>
<circle cx="3293.962" cy="1643.962" r="3.981" fill="blue" stroke="none" stroke-width="0.2"/>
<circle cx="706.962" cy="1008.962" r="3.981" fill="blue" stroke="none" stroke-width="0.2"/>
<circle cx="3921.962" cy="2656.962" r="3.981" fill="blue" stroke="none" stroke-width="0.2"/>
<circle cx="2821.962" cy="2508.962" r="3.981" fill="blue" stroke="none" stroke-width="0.2"/>
<circle cx="2972.962" cy="7.962" r="3.981" fill="blue" stroke="none" stroke-width="0.2"/>
<circle cx="2454.962" cy="2656.962" r="3.981" fill="blue" stroke="none" stroke-width="0.2"/>
<circle cx="3417.962" cy="3984.962" r="3.981" fill="blue" stroke="none" stroke-width="0.2"/>
<circle cx="2740.962" cy="2165.962" r="3.981" fill="blue" stroke="none" stroke-width="0.2"/>
<circle cx="807.962" cy="3124.962" r="3.981" fill="blue" stroke="none" stroke-width="0.2"/>
<circle cx="3923.962" cy="2799.962" r="3.981" fill="blue" stroke="none" stroke-width="0.2"/>
<circle cx="2232.962" cy="367.962" r="3.981" fill="blue" stroke="none" stroke-width="0.2"/>
<circle cx="1912.962" cy="2263.962" r="3.981" fill="blue" stroke="none" stroke-width="0.2"/>
<circle cx="207.962" cy="2112.962" r="3.981" fill="blue" stroke="none" stroke-width="0.2"/>
<circle cx="48.962" cy="3707.962" r="3.981" fill="blue" stroke="none" stroke-width="0.2"/>
<circle cx="1217.962" cy="1785.962" r="3.981" fill="blue" stroke="none" stroke-width="0.2"/>
<circle cx="2307.962" cy="2346.962" r="3.981" fill="blue" stroke="none" stroke-width="0.2"/>
<circle cx="15.962" cy="2536.962" r="3.981" fill="blue" stroke="none" stroke-width="0.2"/>
<circle cx="436.962" cy="2392.962" r="3.981" fill="blue" stroke="none" stroke-width="0.2"/>
<circle cx="3876.962" cy="1164.962" r="3.981" fill="blue" stroke="none" stroke-width="0.2"/>
<circle cx="887.962" cy="2877.962" r="3.981" fill="blue" stroke="none" stroke-width="0.2"/>
<circle cx="1326.962" cy="1378.962" r="3.981" fill="blue" stroke="none" stroke-width="0.2"/>
<circle cx="3458.962" cy="390.962" r="3.981" fill="blue" stroke="none" stroke-width="0.2"/>
<circle cx="3390.962" cy="1734.962" r="3.981" fill="blue" stroke="none" stroke-width="0.2"/>
<circle cx="1483.962" cy="3258.962" r="3.981" fill="blue" stroke="none" stroke-width="0.2"/>
<circle cx="2804.962" cy="2817.962" r="3.981" fill="blue" stroke="none" stroke-width="0.2"/>
<circle cx="3560.962" cy="250.962" r="3.981" fill="blue" stroke="none" stroke-width="0.2"/>
<circle cx="707.962" cy="249.962" r="3.981" fill="blue" stroke="none" stroke-width="0.2"/>
<circle cx="3292.962" cy="2140.962" r="3.981" fill="blue" stroke="none" stroke-width="0.2"/>
<circle cx="1481.962" cy="3409.962" r="3.981" fill="blue" stroke="none" stroke-width="0.2"/>
<circle cx="3129.962" cy="1704.962" r="3.981" fill="blue" stroke="none" stroke-width="0.2"/>
<circle cx="1659.962" cy="259.962" r="3.981" fill="blue" stroke="none" stroke-width="0.2"/>
<circle cx="3298.962" cy="2625.962" r="3.981" fill="blue" stroke="none" stroke-width="0.2"/>
<circle cx="3011.962" cy="1879.962" r="3.981" fill="blue" stroke="none" stroke-width="0.2"/>
<circle cx="2178.962" cy="3657.962" r="3.981" fill="blue" stroke="none" stroke-width="0.2"/>
<circle cx="1320.962" cy="1028.962" r="3.981" fill="blue" stroke="none" stroke-width="0.2"/>
<circle cx="1934.962" cy="1456.962" r="3.981" fill="blue" stroke="none" stroke-width="0.2"/>
<circle cx="664.962" cy="3988.962" r="3.981" fill="blue" stroke="none" stroke-width="0.2"/>
<circle cx="3215.962" cy="3807.962" r="3.981" fill="blue" stroke="none" stroke-width="0.2"/>
<circle cx="760.962" cy="295.962" r="3.981" fill="blue" stroke="none" stroke-width="0.2"/>
<circle cx="3715.962" cy="2604.962" r="3.981" fill="blue" stroke="none" stroke-width="0.2"/>
<circle cx="1374.962" cy="3637.962" r="3.981" fill="blue" stroke="none" stroke-width="0.2"/>
<circle cx="451.962" cy="8.962" r="3.981" fill="blue" stroke="none" stroke-width="0.2"/>
<circle cx="3807.962" cy="1376.962" r="3.981" fill="blue" stroke="none" stroke-width="0.2"/>
<circle cx="577.962" cy="1078.962" r="3.981" fill="blue" stroke="none" stroke-width="0.2"/>
<circle cx="17.962" cy="1844.962" r="3.981" fill="blue" stroke="none" stroke-width="0.2"/>
<circle cx="1967.962" cy="3357.962" r="3.981" fill="blue" stroke="none" stroke-width="0.2"/>
<circle cx="1388.962" cy="42.962" r="3.981" fill="blue" stroke="none" stroke-width="0.2"/>
<circle cx="2169.962" cy="201.962" r="3.981" fill="blue" stroke="none" stroke-width="0.2"/>
<circle cx="2967.962" cy="1996.962" r="3.981" fill="blue" stroke="none" stroke-width="0.2"/>
<circle cx="598.962" cy="3193.962" r="3.981" fill="blue" stroke="none" stroke-width="0.2"/>
<circle cx="3332.962" cy="2203.962" r="3.981" fill="blue" stroke="none" stroke-width="0.2"/>
<circle cx="3388.962" cy="3050.962" r="3.981" fill="blue" stroke="none" stroke-width="0.2"/>
<circle cx="7.962" cy="1471.962" r="3.981" fill="blue" stroke="none" stroke-width="0.2"/>
<circle cx="1838.962" cy="2891.962" r="3.981" fill="blue" stroke="none" stroke-width="0.2"/>
<circle cx="1396.962" cy="3032.962" r="3.981" fill="blue" stroke="none" stroke-width="0.2"/>
<circle cx="3689.962" cy="3062.962" r="3.981" fill="blue" stroke="none" stroke-width="0.2"/>
<circle cx="248.962" cy="2982.962" r="3.981" fill="blue" stroke="none" stroke-width="0.2"/>
<circle cx="1566.962" cy="1400.962" r="3.981" fill="blue" stroke="none" stroke-width="0.2"/>
<circle cx="2649.962" cy="1793.962" r="3.981" fill="blue" stroke="none" stroke-width="0.2"/>
<circle cx="3444.962" cy="313.962" r="3.981" fill="blue" stroke="none" stroke-width="0.2"/>
<circle cx="1915.962" cy="1029.962" r="3.981" fill="blue" stroke="none" stroke-width="0.2"/>
<circle cx="303.962" cy="690.962" r="3.981" fill="blue" stroke="none" stroke-width="0.2"/>
<circle cx="3579.962" cy="3160.962" r="3.981" fill="blue" stroke="none" stroke-width="0.2"/>
<circle cx="1871.962" cy="1437.962" r="3.981" fill="blue" stroke="none" stroke-width="0.2"/>
<circle cx="3084.962" cy="227.962" r="3.981" fill="blue" stroke="none" stroke-width="0.2"/>
<circle cx="3555.962" cy="2108.962" r="3.981" fill="blue" stroke="none" stroke-width="0.2"/>
<circle cx="696.962" cy="3661.962" r="3.981" fill="blue" stroke="none" stroke-width="0.2"/>
<circle cx="2383.962" cy="228.962" r="3.981" fill="blue" stroke="none" stroke-width="0.2"/>
<circle cx="2560.962" cy="461.962" r="3.981" fill="blue" stroke="none" stroke-width="0.2"/>
<circle cx="1123.962" cy="880.962" r="3.981" fill="blue" stroke="none" stroke-width="0.2"/>
<circle cx="3682.962" cy="975.962" r="3.981" fill="blue" stroke="none" stroke-width="0.2"/>
<circle cx="1516.962" cy="778.962" r="3.981" fill="blue" stroke="none" stroke-width="0.2"/>
<circle cx="3035.962" cy="1230.962" r="3.981" fill="blue" stroke="none" stroke-width="0.2"/>
<circle cx="3884.962" cy="3449.962" r="3.981" fill="blue" stroke="none" stroke-width="0.2"/>
<circle cx="1192.962" cy="1034.962" r="3.981" fill="blue" stroke="none" stroke-width="0.2"/>
<circle cx="735.962" cy="922.962" r="3.981" fill="blue" stroke="none" stroke-width="0.2"/>
<circle cx="732.962" cy="1206.962" r="3.981" fill="blue" stroke="none" stroke-width="0.2"/>
<circle cx="3217.962" cy="2269.962" r="3.981" fill="blue" stroke="none" stroke-width="0.2"/>
<circle cx="2303.962" cy="2672.962" r="3.981" fill="blue" stroke="none" stroke-width="0.2"/>

    </svg>
