
    <svg version="1.1"
        viewBox="-1.4, -140.4, 96.8, 156.8"
        xmlns="http://www.w3.org/2000/svg">

        <rect x="-1.4" y="-140.4" width="100%" height="100%" style="fill:white; stroke-width:0.1; stroke: black" />

<circle cx="0" cy="0" r="0.30000000000000004" fill="red" stroke="none" stroke-width="0.2"/>
<circle cx="0" cy="1" r="0.2" fill="blue" stroke="none" stroke-width="0.2"/>
<circle cx="0" cy="1" r="0.2" fill="blue" stroke="none" stroke-width="0.2"/>
<circle cx="-1" cy="2" r="0.2" fill="blue" stroke="none" stroke-width="0.2"/>
<circle cx="-1" cy="4" r="0.2" fill="blue" stroke="none" stroke-width="0.2"/>
<circle cx="0" cy="7" r="0.2" fill="blue" stroke="none" stroke-width="0.2"/>
<circle cx="1" cy="10" r="0.2" fill="blue" stroke="none" stroke-width="0.2"/>
<circle cx="3" cy="12" r="0.2" fill="blue" stroke="none" stroke-width="0.2"/>
<circle cx="5" cy="13" r="0.2" fill="blue" stroke="none" stroke-width="0.2"/>
<circle cx="7" cy="14" r="0.2" fill="blue" stroke="none" stroke-width="0.2"/>
<circle cx="8" cy="14" r="0.2" fill="blue" stroke="none" stroke-width="0.2"/>
<circle cx="8" cy="13" r="0.2" fill="blue" stroke="none" stroke-width="0.2"/>
<circle cx="9" cy="13" r="0.2" fill="blue" stroke="none" stroke-width="0.2"/>
<circle cx="10" cy="14" r="0.2" fill="blue" stroke="none" stroke-width="0.2"/>
<circle cx="11" cy="15" r="0.2" fill="blue" stroke="none" stroke-width="0.2"/>
<circle cx="12" cy="15" r="0.2" fill="blue" stroke="none" stroke-width="0.2"/>
<circle cx="14" cy="16" r="0.2" fill="blue" stroke="none" stroke-width="0.2"/>
<circle cx="17" cy="16" r="0.2" fill="blue" stroke="none" stroke-width="0.2"/>
<circle cx="20" cy="15" r="0.2" fill="blue" stroke="none" stroke-width="0.2"/>
<circle cx="22" cy="15" r="0.2" fill="blue" stroke="none" stroke-width="0.2"/>
<circle cx="23" cy="14" r="0.2" fill="blue" stroke="none" stroke-width="0.2"/>
<circle cx="25" cy="12" r="0.2" fill="blue" stroke="none" stroke-width="0.2"/>
<circle cx="27" cy="10" r="0.2" fill="blue" stroke="none" stroke-width="0.2"/>
<circle cx="29" cy="8" r="0.2" fill="blue" stroke="none" stroke-width="0.2"/>
<circle cx="32" cy="6" r="0.2" fill="blue" stroke="none" stroke-width="0.2"/>
<circle cx="35" cy="4" r="0.2" fill="blue" stroke="none" stroke-width="0.2"/>
<circle cx="37" cy="2" r="0.2" fill="blue" stroke="none" stroke-width="0.2"/>
<circle cx="40" cy="-1" r="0.2" fill="blue" stroke="none" stroke-width="0.2"/>
<circle cx="44" cy="-4" r="0.2" fill="blue" stroke="none" stroke-width="0.2"/>
<circle cx="49" cy="-8" r="0.2" fill="blue" stroke="none" stroke-width="0.2"/>
<circle cx="53" cy="-11" r="0.2" fill="blue" stroke="none" stroke-width="0.2"/>
<circle cx="58" cy="-14" r="0.2" fill="blue" stroke="none" stroke-width="0.2"/>
<circle cx="63" cy="-18" r="0.2" fill="blue" stroke="none" stroke-width="0.2"/>
<circle cx="68" cy="-22" r="0.2" fill="blue" stroke="none" stroke-width="0.2"/>
<circle cx="72" cy="-26" r="0.2" fill="blue" stroke="none" stroke-width="0.2"/>
<circle cx="77" cy="-29" r="0.2" fill="blue" stroke="none" stroke-width="0.2"/>
<circle cx="81" cy="-33" r="0.2" fill="blue" stroke="none" stroke-width="0.2"/>
<circle cx="85" cy="-37" r="0.2" fill="blue" stroke="none" stroke-width="0.2"/>
<circle cx="88" cy="-42" r="0.2" fill="blue" stroke="none" stroke-width="0.2"/>
<circle cx="90" cy="-48" r="0.2" fill="blue" stroke="none" stroke-width="0.2"/>
<circle cx="92" cy="-55" r="0.2" fill="blue" stroke="none" stroke-width="0.2"/>
<circle cx="94" cy="-61" r="0.2" fill="blue" stroke="none" stroke-width="0.2"/>
<circle cx="95" cy="-68" r="0.2" fill="blue" stroke="none" stroke-width="0.2"/>
<circle cx="95" cy="-76" r="0.2" fill="blue" stroke="none" stroke-width="0.2"/>
<circle cx="94" cy="-84" r="0.2" fill="blue" stroke="none" stroke-width="0.2"/>
<circle cx="93" cy="-93" r="0.2" fill="blue" stroke="none" stroke-width="0.2"/>
<circle cx="92" cy="-102" r="0.2" fill="blue" stroke="none" stroke-width="0.2"/>
<circle cx="92" cy="-112" r="0.2" fill="blue" stroke="none" stroke-width="0.2"/>
<circle cx="92" cy="-122" r="0.2" fill="blue" stroke="none" stroke-width="0.2"/>
<circle cx="93" cy="-131" r="0.2" fill="blue" stroke="none" stroke-width="0.2"/>
<circle cx="94" cy="-140" r="0.2" fill="blue" stroke="none" stroke-width="0.2"/>
<line x1="0" y1="0" x2="0" y2="1" stroke="black" stroke-width="0.1" />
<circle cx="0" cy="1" r="0.1" fill="green" stroke="none" stroke-width="0.2"/>
<line x1="0" y1="1" x2="-1" y2="2" stroke="black" stroke-width="0.1" />
<circle cx="-1" cy="2" r="0.1" fill="green" stroke="none" stroke-width="0.2"/>
<line x1="-1" y1="2" x2="-1" y2="4" stroke="black" stroke-width="0.1" />
<circle cx="-1" cy="4" r="0.1" fill="green" stroke="none" stroke-width="0.2"/>
<line x1="-1" y1="4" x2="0" y2="7" stroke="black" stroke-width="0.1" />
<circle cx="0" cy="7" r="0.1" fill="green" stroke="none" stroke-width="0.2"/>
<line x1="0" y1="7" x2="1" y2="10" stroke="black" stroke-width="0.1" />
<circle cx="1" cy="10" r="0.1" fill="green" stroke="none" stroke-width="0.2"/>
<line x1="1" y1="10" x2="3" y2="12" stroke="black" stroke-width="0.1" />
<circle cx="3" cy="12" r="0.1" fill="green" stroke="none" stroke-width="0.2"/>
<line x1="3" y1="12" x2="5" y2="13" stroke="black" stroke-width="0.1" />
<circle cx="5" cy="13" r="0.1" fill="green" stroke="none" stroke-width="0.2"/>
<line x1="5" y1="13" x2="7" y2="14" stroke="black" stroke-width="0.1" />
<circle cx="7" cy="14" r="0.1" fill="green" stroke="none" stroke-width="0.2"/>
<line x1="7" y1="14" x2="8" y2="14" stroke="black" stroke-width="0.1" />
<circle cx="8" cy="14" r="0.1" fill="green" stroke="none" stroke-width="0.2"/>
<line x1="8" y1="14" x2="8" y2="13" stroke="black" stroke-width="0.1" />
<circle cx="8" cy="13" r="0.1" fill="green" stroke="none" stroke-width="0.2"/>
<line x1="8" y1="13" x2="9" y2="13" stroke="black" stroke-width="0.1" />
<circle cx="9" cy="13" r="0.1" fill="green" stroke="none" stroke-width="0.2"/>
<line x1="9" y1="13" x2="10" y2="14" stroke="black" stroke-width="0.1" />
<circle cx="10" cy="14" r="0.1" fill="green" stroke="none" stroke-width="0.2"/>
<line x1="10" y1="14" x2="11" y2="15" stroke="black" stroke-width="0.1" />
<circle cx="11" cy="15" r="0.1" fill="green" stroke="none" stroke-width="0.2"/>
<line x1="11" y1="15" x2="12" y2="15" stroke="black" stroke-width="0.1" />
<circle cx="12" cy="15" r="0.1" fill="green" stroke="none" stroke-width="0.2"/>
<line x1="12" y1="15" x2="14" y2="16" stroke="black" stroke-width="0.1" />
<circle cx="14" cy="16" r="0.1" fill="green" stroke="none" stroke-width="0.2"/>
<line x1="14" y1="16" x2="17" y2="16" stroke="black" stroke-width="0.1" />
<circle cx="17" cy="16" r="0.1" fill="green" stroke="none" stroke-width="0.2"/>
<line x1="17" y1="16" x2="20" y2="15" stroke="black" stroke-width="0.1" />
<circle cx="20" cy="15" r="0.1" fill="green" stroke="none" stroke-width="0.2"/>
<line x1="20" y1="15" x2="22" y2="15" stroke="black" stroke-width="0.1" />
<circle cx="22" cy="15" r="0.1" fill="green" stroke="none" stroke-width="0.2"/>
<line x1="22" y1="15" x2="23" y2="14" stroke="black" stroke-width="0.1" />
<circle cx="23" cy="14" r="0.1" fill="green" stroke="none" stroke-width="0.2"/>
<line x1="23" y1="14" x2="25" y2="12" stroke="black" stroke-width="0.1" />
<circle cx="25" cy="12" r="0.1" fill="green" stroke="none" stroke-width="0.2"/>
<line x1="25" y1="12" x2="27" y2="10" stroke="black" stroke-width="0.1" />
<circle cx="27" cy="10" r="0.1" fill="green" stroke="none" stroke-width="0.2"/>
<line x1="27" y1="10" x2="29" y2="8" stroke="black" stroke-width="0.1" />
<circle cx="29" cy="8" r="0.1" fill="green" stroke="none" stroke-width="0.2"/>
<line x1="29" y1="8" x2="32" y2="6" stroke="black" stroke-width="0.1" />
<circle cx="32" cy="6" r="0.1" fill="green" stroke="none" stroke-width="0.2"/>
<line x1="32" y1="6" x2="35" y2="4" stroke="black" stroke-width="0.1" />
<circle cx="35" cy="4" r="0.1" fill="green" stroke="none" stroke-width="0.2"/>
<line x1="35" y1="4" x2="37" y2="2" stroke="black" stroke-width="0.1" />
<circle cx="37" cy="2" r="0.1" fill="green" stroke="none" stroke-width="0.2"/>
<line x1="37" y1="2" x2="40" y2="-1" stroke="black" stroke-width="0.1" />
<circle cx="40" cy="-1" r="0.1" fill="green" stroke="none" stroke-width="0.2"/>
<line x1="40" y1="-1" x2="44" y2="-4" stroke="black" stroke-width="0.1" />
<circle cx="44" cy="-4" r="0.1" fill="green" stroke="none" stroke-width="0.2"/>
<line x1="44" y1="-4" x2="49" y2="-8" stroke="black" stroke-width="0.1" />
<circle cx="49" cy="-8" r="0.1" fill="green" stroke="none" stroke-width="0.2"/>
<line x1="49" y1="-8" x2="53" y2="-11" stroke="black" stroke-width="0.1" />
<circle cx="53" cy="-11" r="0.1" fill="green" stroke="none" stroke-width="0.2"/>
<line x1="53" y1="-11" x2="58" y2="-14" stroke="black" stroke-width="0.1" />
<circle cx="58" cy="-14" r="0.1" fill="green" stroke="none" stroke-width="0.2"/>
<line x1="58" y1="-14" x2="63" y2="-18" stroke="black" stroke-width="0.1" />
<circle cx="63" cy="-18" r="0.1" fill="green" stroke="none" stroke-width="0.2"/>
<line x1="63" y1="-18" x2="68" y2="-22" stroke="black" stroke-width="0.1" />
<circle cx="68" cy="-22" r="0.1" fill="green" stroke="none" stroke-width="0.2"/>
<line x1="68" y1="-22" x2="72" y2="-26" stroke="black" stroke-width="0.1" />
<circle cx="72" cy="-26" r="0.1" fill="green" stroke="none" stroke-width="0.2"/>
<line x1="72" y1="-26" x2="77" y2="-29" stroke="black" stroke-width="0.1" />
<circle cx="77" cy="-29" r="0.1" fill="green" stroke="none" stroke-width="0.2"/>
<line x1="77" y1="-29" x2="81" y2="-33" stroke="black" stroke-width="0.1" />
<circle cx="81" cy="-33" r="0.1" fill="green" stroke="none" stroke-width="0.2"/>
<line x1="81" y1="-33" x2="85" y2="-37" stroke="black" stroke-width="0.1" />
<circle cx="85" cy="-37" r="0.1" fill="green" stroke="none" stroke-width="0.2"/>
<line x1="85" y1="-37" x2="88" y2="-42" stroke="black" stroke-width="0.1" />
<circle cx="88" cy="-42" r="0.1" fill="green" stroke="none" stroke-width="0.2"/>
<line x1="88" y1="-42" x2="90" y2="-48" stroke="black" stroke-width="0.1" />
<circle cx="90" cy="-48" r="0.1" fill="green" stroke="none" stroke-width="0.2"/>
<line x1="90" y1="-48" x2="92" y2="-55" stroke="black" stroke-width="0.1" />
<circle cx="92" cy="-55" r="0.1" fill="green" stroke="none" stroke-width="0.2"/>
<line x1="92" y1="-55" x2="94" y2="-61" stroke="black" stroke-width="0.1" />
<circle cx="94" cy="-61" r="0.1" fill="green" stroke="none" stroke-width="0.2"/>
<line x1="94" y1="-61" x2="95" y2="-68" stroke="black" stroke-width="0.1" />
<circle cx="95" cy="-68" r="0.1" fill="green" stroke="none" stroke-width="0.2"/>
<line x1="95" y1="-68" x2="95" y2="-76" stroke="black" stroke-width="0.1" />
<circle cx="95" cy="-76" r="0.1" fill="green" stroke="none" stroke-width="0.2"/>
<line x1="95" y1="-76" x2="94" y2="-84" stroke="black" stroke-width="0.1" />
<circle cx="94" cy="-84" r="0.1" fill="green" stroke="none" stroke-width="0.2"/>
<line x1="94" y1="-84" x2="93" y2="-93" stroke="black" stroke-width="0.1" />
<circle cx="93" cy="-93" r="0.1" fill="green" stroke="none" stroke-width="0.2"/>
<line x1="93" y1="-93" x2="92" y2="-102" stroke="black" stroke-width="0.1" />
<circle cx="92" cy="-102" r="0.1" fill="green" stroke="none" stroke-width="0.2"/>
<line x1="92" y1="-102" x2="92" y2="-112" stroke="black" stroke-width="0.1" />
<circle cx="92" cy="-112" r="0.1" fill="green" stroke="none" stroke-width="0.2"/>
<line x1="92" y1="-112" x2="92" y2="-122" stroke="black" stroke-width="0.1" />
<circle cx="92" cy="-122" r="0.1" fill="green" stroke="none" stroke-width="0.2"/>
<line x1="92" y1="-122" x2="93" y2="-131" stroke="black" stroke-width="0.1" />
<circle cx="93" cy="-131" r="0.1" fill="green" stroke="none" stroke-width="0.2"/>
<line x1="93" y1="-131" x2="94" y2="-140" stroke="black" stroke-width="0.1" />
<circle cx="94" cy="-140" r="0.1" fill="green" stroke="none" stroke-width="0.2"/>

    </svg>
