
    <svg version="1.1"
        viewBox="-1.4, -140.4, 96.8, 156.8"
        xmlns="http://www.w3.org/2000/svg">

        <rect x="-1.4" y="-140.4" width="100%" height="100%" style="fill:white; stroke-width:0.1; stroke: black" />

<circle cx="0" cy="0" r="0.30000000000000004" fill="red" stroke="none" stroke-width="0.2"/>
<circle cx="0" cy="1" r="0.2" fill="blue" stroke="none" stroke-width="0.2"/>
<circle cx="0" cy="1" r="0.2" fill="blue" stroke="none" stroke-width="0.2"/>
<circle cx="-1" cy="2" r="0.2" fill="blue" stroke="none" stroke-width="0.2"/>
<circle cx="-1" cy="4" r="0.2" fill="blue" stroke="none" stroke-width="0.2"/>
<circle cx="0" cy="7" r="0.2" fill="blue" stroke="none" stroke-width="0.2"/>
<circle cx="1" cy="10" r="0.2" fill="blue" stroke="none" stroke-width="0.2"/>
<circle cx="3" cy="12" r="0.2" fill="blue" stroke="none" stroke-width="0.2"/>
<circle cx="5" cy="13" r="0.2" fill="blue" stroke="none" stroke-width="0.2"/>
<circle cx="7" cy="14" r="0.2" fill="blue" stroke="none" stroke-width="0.2"/>
<circle cx="8" cy="14" r="0.2" fill="blue" stroke="none" stroke-width="0.2"/>
<circle cx="8" cy="13" r="0.2" fill="blue" stroke="none" stroke-width="0.2"/>
<circle cx="9" cy="13" r="0.2" fill="blue" stroke="none" stroke-width="0.2"/>
<circle cx="10" cy="14" r="0.2" fill="blue" stroke="none" stroke-width="0.2"/>
<circle cx="11" cy="15" r="0.2" fill="blue" stroke="none" stroke-width="0.2"/>
<circle cx="12" cy="15" r="0.2" fill="blue" stroke="none" stroke-width="0.2"/>
<circle cx="14" cy="16" r="0.2" fill="blue" stroke="none" stroke-width="0.2"/>
<circle cx="17" cy="16" r="0.2" fill="blue" stroke="none" stroke-width="0.2"/>
<circle cx="20" cy="15" r="0.2" fill="blue" stroke="none" stroke-width="0.2"/>
<circle cx="22" cy="15" r="0.2" fill="blue" stroke="none" stroke-width="0.2"/>
<circle cx="23" cy="14" r="0.2" fill="blue" stroke="none" stroke-width="0.2"/>
<circle cx="25" cy="12" r="0.2" fill="blue" stroke="none" stroke-width="0.2"/>
<circle cx="27" cy="10" r="0.2" fill="blue" stroke="none" stroke-width="0.2"/>
<circle cx="29" cy="8" r="0.2" fill="blue" stroke="none" stroke-width="0.2"/>
<circle cx="32" cy="6" r="0.2" fill="blue" stroke="none" stroke-width="0.2"/>
<circle cx="35" cy="4" r="0.2" fill="blue" stroke="none" stroke-width="0.2"/>
<circle cx="37" cy="2" r="0.2" fill="blue" stroke="none" stroke-width="0.2"/>
<circle cx="40" cy="-1" r="0.2" fill="blue" stroke="none" stroke-width="0.2"/>
<circle cx="44" cy="-4" r="0.2" fill="blue" stroke="none" stroke-width="0.2"/>
<circle cx="49" cy="-8" r="0.2" fill="blue" stroke="none" stroke-width="0.2"/>
<circle cx="53" cy="-11" r="0.2" fill="blue" stroke="none" stroke-width="0.2"/>
<circle cx="58" cy="-14" r="0.2" fill="blue" stroke="none" stroke-width="0.2"/>
<circle cx="63" cy="-18" r="0.2" fill="blue" stroke="none" stroke-width="0.2"/>
<circle cx="68" cy="-22" r="0.2" fill="blue" stroke="none" stroke-width="0.2"/>
<circle cx="72" cy="-26" r="0.2" fill="blue" stroke="none" stroke-width="0.2"/>
<circle cx="77" cy="-29" r="0.2" fill="blue" stroke="none" stroke-width="0.2"/>
<circle cx="81" cy="-33" r="0.2" fill="blue" stroke="none" stroke-width="0.2"/>
<circle cx="85" cy="-37" r="0.2" fill="blue" stroke="none" stroke-width="0.2"/>
<circle cx="88" cy="-42" r="0.2" fill="blue" stroke="none" stroke-width="0.2"/>
<circle cx="90" cy="-48" r="0.2" fill="blue" stroke="none" stroke-width="0.2"/>
<circle cx="92" cy="-55" r="0.2" fill="blue" stroke="none" stroke-width="0.2"/>
<circle cx="94" cy="-61" r="0.2" fill="blue" stroke="none" stroke-width="0.2"/>
<circle cx="95" cy="-68" r="0.2" fill="blue" stroke="none" stroke-width="0.2"/>
<circle cx="95" cy="-76" r="0.2" fill="blue" stroke="none" stroke-width="0.2"/>
<circle cx="94" cy="-84" r="0.2" fill="blue" stroke="none" stroke-width="0.2"/>
<circle cx="93" cy="-93" r="0.2" fill="blue" stroke="none" stroke-width="0.2"/>
<circle cx="92" cy="-102" r="0.2" fill="blue" stroke="none" stroke-width="0.2"/>
<circle cx="92" cy="-112" r="0.2" fill="blue" stroke="none" stroke-width="0.2"/>
<circle cx="92" cy="-122" r="0.2" fill="blue" stroke="none" stroke-width="0.2"/>
<circle cx="93" cy="-131" r="0.2" fill="blue" stroke="none" stroke-width="0.2"/>
<circle cx="94" cy="-140" r="0.2" fill="blue" stroke="none" stroke-width="0.2"/>

    </svg>
