
    <svg version="1.1"
        width="96.8" height="156.8"
        xmlns="http://www.w3.org/2000/svg">

        <rect width="100%" height="100%" style="fill:white; stroke-width:0.1; stroke: black" />

<circle cx="1.4" cy="141.4" r="0.2" fill="blue" stroke="none" stroke-width="0.2"/>
<circle cx="1.4" cy="141.4" r="0.2" fill="blue" stroke="none" stroke-width="0.2"/>
<circle cx="0.4" cy="142.4" r="0.2" fill="blue" stroke="none" stroke-width="0.2"/>
<circle cx="0.4" cy="144.4" r="0.2" fill="blue" stroke="none" stroke-width="0.2"/>
<circle cx="1.4" cy="147.4" r="0.2" fill="blue" stroke="none" stroke-width="0.2"/>
<circle cx="2.4" cy="150.4" r="0.2" fill="blue" stroke="none" stroke-width="0.2"/>
<circle cx="4.4" cy="152.4" r="0.2" fill="blue" stroke="none" stroke-width="0.2"/>
<circle cx="6.4" cy="153.4" r="0.2" fill="blue" stroke="none" stroke-width="0.2"/>
<circle cx="8.4" cy="154.4" r="0.2" fill="blue" stroke="none" stroke-width="0.2"/>
<circle cx="9.4" cy="154.4" r="0.2" fill="blue" stroke="none" stroke-width="0.2"/>
<circle cx="9.4" cy="153.4" r="0.2" fill="blue" stroke="none" stroke-width="0.2"/>
<circle cx="10.4" cy="153.4" r="0.2" fill="blue" stroke="none" stroke-width="0.2"/>
<circle cx="11.4" cy="154.4" r="0.2" fill="blue" stroke="none" stroke-width="0.2"/>
<circle cx="12.4" cy="155.4" r="0.2" fill="blue" stroke="none" stroke-width="0.2"/>
<circle cx="13.4" cy="155.4" r="0.2" fill="blue" stroke="none" stroke-width="0.2"/>
<circle cx="15.4" cy="156.4" r="0.2" fill="blue" stroke="none" stroke-width="0.2"/>
<circle cx="18.4" cy="156.4" r="0.2" fill="blue" stroke="none" stroke-width="0.2"/>
<circle cx="21.4" cy="155.4" r="0.2" fill="blue" stroke="none" stroke-width="0.2"/>
<circle cx="23.4" cy="155.4" r="0.2" fill="blue" stroke="none" stroke-width="0.2"/>
<circle cx="24.4" cy="154.4" r="0.2" fill="blue" stroke="none" stroke-width="0.2"/>
<circle cx="26.4" cy="152.4" r="0.2" fill="blue" stroke="none" stroke-width="0.2"/>
<circle cx="28.4" cy="150.4" r="0.2" fill="blue" stroke="none" stroke-width="0.2"/>
<circle cx="30.4" cy="148.4" r="0.2" fill="blue" stroke="none" stroke-width="0.2"/>
<circle cx="33.4" cy="146.4" r="0.2" fill="blue" stroke="none" stroke-width="0.2"/>
<circle cx="36.4" cy="144.4" r="0.2" fill="blue" stroke="none" stroke-width="0.2"/>
<circle cx="38.4" cy="142.4" r="0.2" fill="blue" stroke="none" stroke-width="0.2"/>
<circle cx="41.4" cy="139.4" r="0.2" fill="blue" stroke="none" stroke-width="0.2"/>
<circle cx="45.4" cy="136.4" r="0.2" fill="blue" stroke="none" stroke-width="0.2"/>
<circle cx="50.4" cy="132.4" r="0.2" fill="blue" stroke="none" stroke-width="0.2"/>
<circle cx="54.4" cy="129.4" r="0.2" fill="blue" stroke="none" stroke-width="0.2"/>
<circle cx="59.4" cy="126.4" r="0.2" fill="blue" stroke="none" stroke-width="0.2"/>
<circle cx="64.4" cy="122.4" r="0.2" fill="blue" stroke="none" stroke-width="0.2"/>
<circle cx="69.4" cy="118.4" r="0.2" fill="blue" stroke="none" stroke-width="0.2"/>
<circle cx="73.4" cy="114.4" r="0.2" fill="blue" stroke="none" stroke-width="0.2"/>
<circle cx="78.4" cy="111.4" r="0.2" fill="blue" stroke="none" stroke-width="0.2"/>
<circle cx="82.4" cy="107.4" r="0.2" fill="blue" stroke="none" stroke-width="0.2"/>
<circle cx="86.4" cy="103.4" r="0.2" fill="blue" stroke="none" stroke-width="0.2"/>
<circle cx="89.4" cy="98.4" r="0.2" fill="blue" stroke="none" stroke-width="0.2"/>
<circle cx="91.4" cy="92.4" r="0.2" fill="blue" stroke="none" stroke-width="0.2"/>
<circle cx="93.4" cy="85.4" r="0.2" fill="blue" stroke="none" stroke-width="0.2"/>
<circle cx="95.4" cy="79.4" r="0.2" fill="blue" stroke="none" stroke-width="0.2"/>
<circle cx="96.4" cy="72.4" r="0.2" fill="blue" stroke="none" stroke-width="0.2"/>
<circle cx="96.4" cy="64.4" r="0.2" fill="blue" stroke="none" stroke-width="0.2"/>
<circle cx="95.4" cy="56.4" r="0.2" fill="blue" stroke="none" stroke-width="0.2"/>
<circle cx="94.4" cy="47.4" r="0.2" fill="blue" stroke="none" stroke-width="0.2"/>
<circle cx="93.4" cy="38.4" r="0.2" fill="blue" stroke="none" stroke-width="0.2"/>
<circle cx="93.4" cy="28.4" r="0.2" fill="blue" stroke="none" stroke-width="0.2"/>
<circle cx="93.4" cy="18.4" r="0.2" fill="blue" stroke="none" stroke-width="0.2"/>
<circle cx="94.4" cy="9.4" r="0.2" fill="blue" stroke="none" stroke-width="0.2"/>
<circle cx="95.4" cy="0.4" r="0.2" fill="blue" stroke="none" stroke-width="0.2"/>

    </svg>
