
    <svg version="1.1"
        viewBox="-1.4, -0.4, 6.8, 16.8"
        xmlns="http://www.w3.org/2000/svg">

        <rect x="-1.4" y="-0.4" width="100%" height="100%" style="fill:white; stroke-width:0.1; stroke: black" />

<circle cx="0" cy="0" r="0.30000000000000004" fill="red" stroke="none" stroke-width="0.2"/>
<circle cx="-1" cy="1" r="0.2" fill="blue" stroke="none" stroke-width="0.2"/>
<circle cx="1" cy="8" r="0.2" fill="blue" stroke="none" stroke-width="0.2"/>
<circle cx="4" cy="15" r="0.2" fill="blue" stroke="none" stroke-width="0.2"/>
<circle cx="3" cy="14" r="0.2" fill="blue" stroke="none" stroke-width="0.2"/>
<circle cx="3" cy="13" r="0.2" fill="blue" stroke="none" stroke-width="0.2"/>
<circle cx="-1" cy="3" r="0.2" fill="blue" stroke="none" stroke-width="0.2"/>
<circle cx="-1" cy="0" r="0.2" fill="blue" stroke="none" stroke-width="0.2"/>
<circle cx="2" cy="11" r="0.2" fill="blue" stroke="none" stroke-width="0.2"/>
<circle cx="0" cy="5" r="0.2" fill="blue" stroke="none" stroke-width="0.2"/>
<circle cx="5" cy="16" r="0.2" fill="blue" stroke="none" stroke-width="0.2"/>
<line x1="0" y1="0" x2="-1" y2="0" stroke="black" stroke-width="0.1" />
<circle cx="-1" cy="0" r="0.1" fill="green" stroke="none" stroke-width="0.2"/>
<line x1="-1" y1="0" x2="-1" y2="1" stroke="black" stroke-width="0.1" />
<circle cx="-1" cy="1" r="0.1" fill="green" stroke="none" stroke-width="0.2"/>
<line x1="-1" y1="1" x2="-1" y2="3" stroke="black" stroke-width="0.1" />
<circle cx="-1" cy="3" r="0.1" fill="green" stroke="none" stroke-width="0.2"/>
<line x1="-1" y1="3" x2="0" y2="5" stroke="black" stroke-width="0.1" />
<circle cx="0" cy="5" r="0.1" fill="green" stroke="none" stroke-width="0.2"/>
<line x1="0" y1="5" x2="1" y2="8" stroke="black" stroke-width="0.1" />
<circle cx="1" cy="8" r="0.1" fill="green" stroke="none" stroke-width="0.2"/>
<line x1="1" y1="8" x2="2" y2="11" stroke="black" stroke-width="0.1" />
<circle cx="2" cy="11" r="0.1" fill="green" stroke="none" stroke-width="0.2"/>
<line x1="2" y1="11" x2="3" y2="13" stroke="black" stroke-width="0.1" />
<circle cx="3" cy="13" r="0.1" fill="green" stroke="none" stroke-width="0.2"/>
<line x1="3" y1="13" x2="3" y2="14" stroke="black" stroke-width="0.1" />
<circle cx="3" cy="14" r="0.1" fill="green" stroke="none" stroke-width="0.2"/>
<line x1="3" y1="14" x2="4" y2="15" stroke="black" stroke-width="0.1" />
<circle cx="4" cy="15" r="0.1" fill="green" stroke="none" stroke-width="0.2"/>
<line x1="4" y1="15" x2="5" y2="16" stroke="black" stroke-width="0.1" />
<circle cx="5" cy="16" r="0.1" fill="green" stroke="none" stroke-width="0.2"/>

    </svg>
