
    <svg version="1.1"
        viewBox="-199.4, -179.4, 199.8, 179.8"
        xmlns="http://www.w3.org/2000/svg">

        <rect x="-199.4" y="-179.4" width="100%" height="100%" style="fill:white; stroke-width:0.1; stroke: black" />

<circle cx="0" cy="0" r="0.30000000000000004" fill="red" stroke="none" stroke-width="0.2"/>
<circle cx="-124" cy="-159" r="0.2" fill="blue" stroke="none" stroke-width="0.2"/>
<circle cx="-35" cy="-92" r="0.2" fill="blue" stroke="none" stroke-width="0.2"/>
<circle cx="-168" cy="-175" r="0.2" fill="blue" stroke="none" stroke-width="0.2"/>
<circle cx="-198" cy="-173" r="0.2" fill="blue" stroke="none" stroke-width="0.2"/>
<circle cx="-199" cy="-171" r="0.2" fill="blue" stroke="none" stroke-width="0.2"/>
<circle cx="-45" cy="-102" r="0.2" fill="blue" stroke="none" stroke-width="0.2"/>
<circle cx="-158" cy="-167" r="0.2" fill="blue" stroke="none" stroke-width="0.2"/>
<circle cx="-195" cy="-174" r="0.2" fill="blue" stroke="none" stroke-width="0.2"/>
<circle cx="-4" cy="-25" r="0.2" fill="blue" stroke="none" stroke-width="0.2"/>
<circle cx="-190" cy="-177" r="0.2" fill="blue" stroke="none" stroke-width="0.2"/>
<circle cx="-184" cy="-167" r="0.2" fill="blue" stroke="none" stroke-width="0.2"/>
<circle cx="-75" cy="-130" r="0.2" fill="blue" stroke="none" stroke-width="0.2"/>
<circle cx="-141" cy="-168" r="0.2" fill="blue" stroke="none" stroke-width="0.2"/>
<circle cx="-102" cy="-145" r="0.2" fill="blue" stroke="none" stroke-width="0.2"/>
<circle cx="-175" cy="-172" r="0.2" fill="blue" stroke="none" stroke-width="0.2"/>
<circle cx="-15" cy="-60" r="0.2" fill="blue" stroke="none" stroke-width="0.2"/>
<circle cx="-1" cy="-5" r="0.2" fill="blue" stroke="none" stroke-width="0.2"/>
<circle cx="-149" cy="-168" r="0.2" fill="blue" stroke="none" stroke-width="0.2"/>
<circle cx="-188" cy="-169" r="0.2" fill="blue" stroke="none" stroke-width="0.2"/>
<circle cx="-181" cy="-167" r="0.2" fill="blue" stroke="none" stroke-width="0.2"/>
<circle cx="-199" cy="-169" r="0.2" fill="blue" stroke="none" stroke-width="0.2"/>
<circle cx="-151" cy="-167" r="0.2" fill="blue" stroke="none" stroke-width="0.2"/>
<circle cx="-78" cy="-138" r="0.2" fill="blue" stroke="none" stroke-width="0.2"/>
<circle cx="-173" cy="-173" r="0.2" fill="blue" stroke="none" stroke-width="0.2"/>
<circle cx="-181" cy="-179" r="0.2" fill="blue" stroke="none" stroke-width="0.2"/>
<circle cx="-156" cy="-166" r="0.2" fill="blue" stroke="none" stroke-width="0.2"/>
<circle cx="-73" cy="-127" r="0.2" fill="blue" stroke="none" stroke-width="0.2"/>
<circle cx="-76" cy="-134" r="0.2" fill="blue" stroke="none" stroke-width="0.2"/>
<circle cx="-7" cy="-34" r="0.2" fill="blue" stroke="none" stroke-width="0.2"/>
<circle cx="-172" cy="-177" r="0.2" fill="blue" stroke="none" stroke-width="0.2"/>
<circle cx="-64" cy="-119" r="0.2" fill="blue" stroke="none" stroke-width="0.2"/>
<circle cx="-30" cy="-89" r="0.2" fill="blue" stroke="none" stroke-width="0.2"/>
<circle cx="-85" cy="-143" r="0.2" fill="blue" stroke="none" stroke-width="0.2"/>
<circle cx="-13" cy="-54" r="0.2" fill="blue" stroke="none" stroke-width="0.2"/>
<circle cx="-18" cy="-73" r="0.2" fill="blue" stroke="none" stroke-width="0.2"/>
<circle cx="-198" cy="-168" r="0.2" fill="blue" stroke="none" stroke-width="0.2"/>
<circle cx="0" cy="-3" r="0.2" fill="blue" stroke="none" stroke-width="0.2"/>
<circle cx="-115" cy="-151" r="0.2" fill="blue" stroke="none" stroke-width="0.2"/>
<circle cx="-52" cy="-109" r="0.2" fill="blue" stroke="none" stroke-width="0.2"/>
<circle cx="-170" cy="-172" r="0.2" fill="blue" stroke="none" stroke-width="0.2"/>
<circle cx="-172" cy="-172" r="0.2" fill="blue" stroke="none" stroke-width="0.2"/>
<circle cx="-197" cy="-174" r="0.2" fill="blue" stroke="none" stroke-width="0.2"/>
<circle cx="-167" cy="-172" r="0.2" fill="blue" stroke="none" stroke-width="0.2"/>
<circle cx="-188" cy="-178" r="0.2" fill="blue" stroke="none" stroke-width="0.2"/>
<circle cx="0" cy="-1" r="0.2" fill="blue" stroke="none" stroke-width="0.2"/>
<circle cx="-186" cy="-168" r="0.2" fill="blue" stroke="none" stroke-width="0.2"/>
<circle cx="-179" cy="-168" r="0.2" fill="blue" stroke="none" stroke-width="0.2"/>
<circle cx="-71" cy="-124" r="0.2" fill="blue" stroke="none" stroke-width="0.2"/>
<circle cx="-2" cy="-10" r="0.2" fill="blue" stroke="none" stroke-width="0.2"/>
<circle cx="-165" cy="-173" r="0.2" fill="blue" stroke="none" stroke-width="0.2"/>
<circle cx="-42" cy="-99" r="0.2" fill="blue" stroke="none" stroke-width="0.2"/>
<circle cx="-160" cy="-168" r="0.2" fill="blue" stroke="none" stroke-width="0.2"/>
<circle cx="-3" cy="-21" r="0.2" fill="blue" stroke="none" stroke-width="0.2"/>
<circle cx="-173" cy="-174" r="0.2" fill="blue" stroke="none" stroke-width="0.2"/>
<circle cx="-178" cy="-169" r="0.2" fill="blue" stroke="none" stroke-width="0.2"/>
<circle cx="-177" cy="-178" r="0.2" fill="blue" stroke="none" stroke-width="0.2"/>
<circle cx="-144" cy="-168" r="0.2" fill="blue" stroke="none" stroke-width="0.2"/>
<circle cx="-81" cy="-141" r="0.2" fill="blue" stroke="none" stroke-width="0.2"/>
<circle cx="-10" cy="-49" r="0.2" fill="blue" stroke="none" stroke-width="0.2"/>
<circle cx="-185" cy="-179" r="0.2" fill="blue" stroke="none" stroke-width="0.2"/>
<circle cx="-94" cy="-144" r="0.2" fill="blue" stroke="none" stroke-width="0.2"/>
<circle cx="-197" cy="-168" r="0.2" fill="blue" stroke="none" stroke-width="0.2"/>
<circle cx="-193" cy="-169" r="0.2" fill="blue" stroke="none" stroke-width="0.2"/>
<circle cx="-56" cy="-112" r="0.2" fill="blue" stroke="none" stroke-width="0.2"/>
<circle cx="-39" cy="-96" r="0.2" fill="blue" stroke="none" stroke-width="0.2"/>
<circle cx="-133" cy="-165" r="0.2" fill="blue" stroke="none" stroke-width="0.2"/>
<circle cx="-194" cy="-174" r="0.2" fill="blue" stroke="none" stroke-width="0.2"/>
<circle cx="-68" cy="-122" r="0.2" fill="blue" stroke="none" stroke-width="0.2"/>
<circle cx="-1" cy="-7" r="0.2" fill="blue" stroke="none" stroke-width="0.2"/>
<circle cx="-195" cy="-168" r="0.2" fill="blue" stroke="none" stroke-width="0.2"/>
<circle cx="-23" cy="-82" r="0.2" fill="blue" stroke="none" stroke-width="0.2"/>
<circle cx="-8" cy="-43" r="0.2" fill="blue" stroke="none" stroke-width="0.2"/>
<circle cx="-111" cy="-148" r="0.2" fill="blue" stroke="none" stroke-width="0.2"/>
<circle cx="-163" cy="-170" r="0.2" fill="blue" stroke="none" stroke-width="0.2"/>
<circle cx="-194" cy="-175" r="0.2" fill="blue" stroke="none" stroke-width="0.2"/>
<circle cx="-173" cy="-174" r="0.2" fill="blue" stroke="none" stroke-width="0.2"/>
<circle cx="-106" cy="-146" r="0.2" fill="blue" stroke="none" stroke-width="0.2"/>
<circle cx="-120" cy="-155" r="0.2" fill="blue" stroke="none" stroke-width="0.2"/>
<circle cx="-98" cy="-145" r="0.2" fill="blue" stroke="none" stroke-width="0.2"/>
<circle cx="-175" cy="-173" r="0.2" fill="blue" stroke="none" stroke-width="0.2"/>
<circle cx="-21" cy="-78" r="0.2" fill="blue" stroke="none" stroke-width="0.2"/>
<circle cx="-60" cy="-116" r="0.2" fill="blue" stroke="none" stroke-width="0.2"/>
<circle cx="-146" cy="-168" r="0.2" fill="blue" stroke="none" stroke-width="0.2"/>
<circle cx="-193" cy="-176" r="0.2" fill="blue" stroke="none" stroke-width="0.2"/>
<circle cx="-174" cy="-174" r="0.2" fill="blue" stroke="none" stroke-width="0.2"/>
<circle cx="-2" cy="-13" r="0.2" fill="blue" stroke="none" stroke-width="0.2"/>
<circle cx="-7" cy="-38" r="0.2" fill="blue" stroke="none" stroke-width="0.2"/>
<circle cx="-137" cy="-167" r="0.2" fill="blue" stroke="none" stroke-width="0.2"/>
<circle cx="-176" cy="-170" r="0.2" fill="blue" stroke="none" stroke-width="0.2"/>
<circle cx="-193" cy="-175" r="0.2" fill="blue" stroke="none" stroke-width="0.2"/>
<circle cx="-191" cy="-169" r="0.2" fill="blue" stroke="none" stroke-width="0.2"/>
<circle cx="-192" cy="-176" r="0.2" fill="blue" stroke="none" stroke-width="0.2"/>
<circle cx="-16" cy="-67" r="0.2" fill="blue" stroke="none" stroke-width="0.2"/>
<circle cx="-48" cy="-106" r="0.2" fill="blue" stroke="none" stroke-width="0.2"/>
<circle cx="-6" cy="-29" r="0.2" fill="blue" stroke="none" stroke-width="0.2"/>
<circle cx="-3" cy="-17" r="0.2" fill="blue" stroke="none" stroke-width="0.2"/>
<circle cx="-128" cy="-162" r="0.2" fill="blue" stroke="none" stroke-width="0.2"/>
<circle cx="-26" cy="-86" r="0.2" fill="blue" stroke="none" stroke-width="0.2"/>
<circle cx="-90" cy="-144" r="0.2" fill="blue" stroke="none" stroke-width="0.2"/>
<circle cx="-154" cy="-166" r="0.2" fill="blue" stroke="none" stroke-width="0.2"/>

    </svg>
