
    <svg version="1.1"
        viewBox="-199.4, -179.4, 199.8, 179.8"
        xmlns="http://www.w3.org/2000/svg">

        <rect x="-199.4" y="-179.4" width="100%" height="100%" style="fill:white; stroke-width:0.1; stroke: black" />

<circle cx="0" cy="0" r="0.30000000000000004" fill="red" stroke="none" stroke-width="0.2"/>
<circle cx="-124" cy="-159" r="0.2" fill="blue" stroke="none" stroke-width="0.2"/>
<circle cx="-35" cy="-92" r="0.2" fill="blue" stroke="none" stroke-width="0.2"/>
<circle cx="-168" cy="-175" r="0.2" fill="blue" stroke="none" stroke-width="0.2"/>
<circle cx="-198" cy="-173" r="0.2" fill="blue" stroke="none" stroke-width="0.2"/>
<circle cx="-199" cy="-171" r="0.2" fill="blue" stroke="none" stroke-width="0.2"/>
<circle cx="-45" cy="-102" r="0.2" fill="blue" stroke="none" stroke-width="0.2"/>
<circle cx="-158" cy="-167" r="0.2" fill="blue" stroke="none" stroke-width="0.2"/>
<circle cx="-195" cy="-174" r="0.2" fill="blue" stroke="none" stroke-width="0.2"/>
<circle cx="-4" cy="-25" r="0.2" fill="blue" stroke="none" stroke-width="0.2"/>
<circle cx="-190" cy="-177" r="0.2" fill="blue" stroke="none" stroke-width="0.2"/>
<circle cx="-184" cy="-167" r="0.2" fill="blue" stroke="none" stroke-width="0.2"/>
<circle cx="-75" cy="-130" r="0.2" fill="blue" stroke="none" stroke-width="0.2"/>
<circle cx="-141" cy="-168" r="0.2" fill="blue" stroke="none" stroke-width="0.2"/>
<circle cx="-102" cy="-145" r="0.2" fill="blue" stroke="none" stroke-width="0.2"/>
<circle cx="-175" cy="-172" r="0.2" fill="blue" stroke="none" stroke-width="0.2"/>
<circle cx="-15" cy="-60" r="0.2" fill="blue" stroke="none" stroke-width="0.2"/>
<circle cx="-1" cy="-5" r="0.2" fill="blue" stroke="none" stroke-width="0.2"/>
<circle cx="-149" cy="-168" r="0.2" fill="blue" stroke="none" stroke-width="0.2"/>
<circle cx="-188" cy="-169" r="0.2" fill="blue" stroke="none" stroke-width="0.2"/>
<circle cx="-181" cy="-167" r="0.2" fill="blue" stroke="none" stroke-width="0.2"/>
<circle cx="-199" cy="-169" r="0.2" fill="blue" stroke="none" stroke-width="0.2"/>
<circle cx="-151" cy="-167" r="0.2" fill="blue" stroke="none" stroke-width="0.2"/>
<circle cx="-78" cy="-138" r="0.2" fill="blue" stroke="none" stroke-width="0.2"/>
<circle cx="-173" cy="-173" r="0.2" fill="blue" stroke="none" stroke-width="0.2"/>
<circle cx="-181" cy="-179" r="0.2" fill="blue" stroke="none" stroke-width="0.2"/>
<circle cx="-156" cy="-166" r="0.2" fill="blue" stroke="none" stroke-width="0.2"/>
<circle cx="-73" cy="-127" r="0.2" fill="blue" stroke="none" stroke-width="0.2"/>
<circle cx="-76" cy="-134" r="0.2" fill="blue" stroke="none" stroke-width="0.2"/>
<circle cx="-7" cy="-34" r="0.2" fill="blue" stroke="none" stroke-width="0.2"/>
<circle cx="-172" cy="-177" r="0.2" fill="blue" stroke="none" stroke-width="0.2"/>
<circle cx="-64" cy="-119" r="0.2" fill="blue" stroke="none" stroke-width="0.2"/>
<circle cx="-30" cy="-89" r="0.2" fill="blue" stroke="none" stroke-width="0.2"/>
<circle cx="-85" cy="-143" r="0.2" fill="blue" stroke="none" stroke-width="0.2"/>
<circle cx="-13" cy="-54" r="0.2" fill="blue" stroke="none" stroke-width="0.2"/>
<circle cx="-18" cy="-73" r="0.2" fill="blue" stroke="none" stroke-width="0.2"/>
<circle cx="-198" cy="-168" r="0.2" fill="blue" stroke="none" stroke-width="0.2"/>
<circle cx="0" cy="-3" r="0.2" fill="blue" stroke="none" stroke-width="0.2"/>
<circle cx="-115" cy="-151" r="0.2" fill="blue" stroke="none" stroke-width="0.2"/>
<circle cx="-52" cy="-109" r="0.2" fill="blue" stroke="none" stroke-width="0.2"/>
<circle cx="-170" cy="-172" r="0.2" fill="blue" stroke="none" stroke-width="0.2"/>
<circle cx="-172" cy="-172" r="0.2" fill="blue" stroke="none" stroke-width="0.2"/>
<circle cx="-197" cy="-174" r="0.2" fill="blue" stroke="none" stroke-width="0.2"/>
<circle cx="-167" cy="-172" r="0.2" fill="blue" stroke="none" stroke-width="0.2"/>
<circle cx="-188" cy="-178" r="0.2" fill="blue" stroke="none" stroke-width="0.2"/>
<circle cx="0" cy="-1" r="0.2" fill="blue" stroke="none" stroke-width="0.2"/>
<circle cx="-186" cy="-168" r="0.2" fill="blue" stroke="none" stroke-width="0.2"/>
<circle cx="-179" cy="-168" r="0.2" fill="blue" stroke="none" stroke-width="0.2"/>
<circle cx="-71" cy="-124" r="0.2" fill="blue" stroke="none" stroke-width="0.2"/>
<circle cx="-2" cy="-10" r="0.2" fill="blue" stroke="none" stroke-width="0.2"/>
<circle cx="-165" cy="-173" r="0.2" fill="blue" stroke="none" stroke-width="0.2"/>
<circle cx="-42" cy="-99" r="0.2" fill="blue" stroke="none" stroke-width="0.2"/>
<circle cx="-160" cy="-168" r="0.2" fill="blue" stroke="none" stroke-width="0.2"/>
<circle cx="-3" cy="-21" r="0.2" fill="blue" stroke="none" stroke-width="0.2"/>
<circle cx="-173" cy="-174" r="0.2" fill="blue" stroke="none" stroke-width="0.2"/>
<circle cx="-178" cy="-169" r="0.2" fill="blue" stroke="none" stroke-width="0.2"/>
<circle cx="-177" cy="-178" r="0.2" fill="blue" stroke="none" stroke-width="0.2"/>
<circle cx="-144" cy="-168" r="0.2" fill="blue" stroke="none" stroke-width="0.2"/>
<circle cx="-81" cy="-141" r="0.2" fill="blue" stroke="none" stroke-width="0.2"/>
<circle cx="-10" cy="-49" r="0.2" fill="blue" stroke="none" stroke-width="0.2"/>
<circle cx="-185" cy="-179" r="0.2" fill="blue" stroke="none" stroke-width="0.2"/>
<circle cx="-94" cy="-144" r="0.2" fill="blue" stroke="none" stroke-width="0.2"/>
<circle cx="-197" cy="-168" r="0.2" fill="blue" stroke="none" stroke-width="0.2"/>
<circle cx="-193" cy="-169" r="0.2" fill="blue" stroke="none" stroke-width="0.2"/>
<circle cx="-56" cy="-112" r="0.2" fill="blue" stroke="none" stroke-width="0.2"/>
<circle cx="-39" cy="-96" r="0.2" fill="blue" stroke="none" stroke-width="0.2"/>
<circle cx="-133" cy="-165" r="0.2" fill="blue" stroke="none" stroke-width="0.2"/>
<circle cx="-194" cy="-174" r="0.2" fill="blue" stroke="none" stroke-width="0.2"/>
<circle cx="-68" cy="-122" r="0.2" fill="blue" stroke="none" stroke-width="0.2"/>
<circle cx="-1" cy="-7" r="0.2" fill="blue" stroke="none" stroke-width="0.2"/>
<circle cx="-195" cy="-168" r="0.2" fill="blue" stroke="none" stroke-width="0.2"/>
<circle cx="-23" cy="-82" r="0.2" fill="blue" stroke="none" stroke-width="0.2"/>
<circle cx="-8" cy="-43" r="0.2" fill="blue" stroke="none" stroke-width="0.2"/>
<circle cx="-111" cy="-148" r="0.2" fill="blue" stroke="none" stroke-width="0.2"/>
<circle cx="-163" cy="-170" r="0.2" fill="blue" stroke="none" stroke-width="0.2"/>
<circle cx="-194" cy="-175" r="0.2" fill="blue" stroke="none" stroke-width="0.2"/>
<circle cx="-173" cy="-174" r="0.2" fill="blue" stroke="none" stroke-width="0.2"/>
<circle cx="-106" cy="-146" r="0.2" fill="blue" stroke="none" stroke-width="0.2"/>
<circle cx="-120" cy="-155" r="0.2" fill="blue" stroke="none" stroke-width="0.2"/>
<circle cx="-98" cy="-145" r="0.2" fill="blue" stroke="none" stroke-width="0.2"/>
<circle cx="-175" cy="-173" r="0.2" fill="blue" stroke="none" stroke-width="0.2"/>
<circle cx="-21" cy="-78" r="0.2" fill="blue" stroke="none" stroke-width="0.2"/>
<circle cx="-60" cy="-116" r="0.2" fill="blue" stroke="none" stroke-width="0.2"/>
<circle cx="-146" cy="-168" r="0.2" fill="blue" stroke="none" stroke-width="0.2"/>
<circle cx="-193" cy="-176" r="0.2" fill="blue" stroke="none" stroke-width="0.2"/>
<circle cx="-174" cy="-174" r="0.2" fill="blue" stroke="none" stroke-width="0.2"/>
<circle cx="-2" cy="-13" r="0.2" fill="blue" stroke="none" stroke-width="0.2"/>
<circle cx="-7" cy="-38" r="0.2" fill="blue" stroke="none" stroke-width="0.2"/>
<circle cx="-137" cy="-167" r="0.2" fill="blue" stroke="none" stroke-width="0.2"/>
<circle cx="-176" cy="-170" r="0.2" fill="blue" stroke="none" stroke-width="0.2"/>
<circle cx="-193" cy="-175" r="0.2" fill="blue" stroke="none" stroke-width="0.2"/>
<circle cx="-191" cy="-169" r="0.2" fill="blue" stroke="none" stroke-width="0.2"/>
<circle cx="-192" cy="-176" r="0.2" fill="blue" stroke="none" stroke-width="0.2"/>
<circle cx="-16" cy="-67" r="0.2" fill="blue" stroke="none" stroke-width="0.2"/>
<circle cx="-48" cy="-106" r="0.2" fill="blue" stroke="none" stroke-width="0.2"/>
<circle cx="-6" cy="-29" r="0.2" fill="blue" stroke="none" stroke-width="0.2"/>
<circle cx="-3" cy="-17" r="0.2" fill="blue" stroke="none" stroke-width="0.2"/>
<circle cx="-128" cy="-162" r="0.2" fill="blue" stroke="none" stroke-width="0.2"/>
<circle cx="-26" cy="-86" r="0.2" fill="blue" stroke="none" stroke-width="0.2"/>
<circle cx="-90" cy="-144" r="0.2" fill="blue" stroke="none" stroke-width="0.2"/>
<circle cx="-154" cy="-166" r="0.2" fill="blue" stroke="none" stroke-width="0.2"/>
<line x1="0" y1="0" x2="0" y2="-1" stroke="black" stroke-width="0.1" />
<circle cx="0" cy="-1" r="0.1" fill="green" stroke="none" stroke-width="0.2"/>
<line x1="0" y1="-1" x2="0" y2="-3" stroke="black" stroke-width="0.1" />
<circle cx="0" cy="-3" r="0.1" fill="green" stroke="none" stroke-width="0.2"/>
<line x1="0" y1="-3" x2="-1" y2="-5" stroke="black" stroke-width="0.1" />
<circle cx="-1" cy="-5" r="0.1" fill="green" stroke="none" stroke-width="0.2"/>
<line x1="-1" y1="-5" x2="-1" y2="-7" stroke="black" stroke-width="0.1" />
<circle cx="-1" cy="-7" r="0.1" fill="green" stroke="none" stroke-width="0.2"/>
<line x1="-1" y1="-7" x2="-2" y2="-10" stroke="black" stroke-width="0.1" />
<circle cx="-2" cy="-10" r="0.1" fill="green" stroke="none" stroke-width="0.2"/>
<line x1="-2" y1="-10" x2="-2" y2="-13" stroke="black" stroke-width="0.1" />
<circle cx="-2" cy="-13" r="0.1" fill="green" stroke="none" stroke-width="0.2"/>
<line x1="-2" y1="-13" x2="-3" y2="-17" stroke="black" stroke-width="0.1" />
<circle cx="-3" cy="-17" r="0.1" fill="green" stroke="none" stroke-width="0.2"/>
<line x1="-3" y1="-17" x2="-3" y2="-21" stroke="black" stroke-width="0.1" />
<circle cx="-3" cy="-21" r="0.1" fill="green" stroke="none" stroke-width="0.2"/>
<line x1="-3" y1="-21" x2="-4" y2="-25" stroke="black" stroke-width="0.1" />
<circle cx="-4" cy="-25" r="0.1" fill="green" stroke="none" stroke-width="0.2"/>
<line x1="-4" y1="-25" x2="-6" y2="-29" stroke="black" stroke-width="0.1" />
<circle cx="-6" cy="-29" r="0.1" fill="green" stroke="none" stroke-width="0.2"/>
<line x1="-6" y1="-29" x2="-7" y2="-34" stroke="black" stroke-width="0.1" />
<circle cx="-7" cy="-34" r="0.1" fill="green" stroke="none" stroke-width="0.2"/>
<line x1="-7" y1="-34" x2="-7" y2="-38" stroke="black" stroke-width="0.1" />
<circle cx="-7" cy="-38" r="0.1" fill="green" stroke="none" stroke-width="0.2"/>
<line x1="-7" y1="-38" x2="-8" y2="-43" stroke="black" stroke-width="0.1" />
<circle cx="-8" cy="-43" r="0.1" fill="green" stroke="none" stroke-width="0.2"/>
<line x1="-8" y1="-43" x2="-10" y2="-49" stroke="black" stroke-width="0.1" />
<circle cx="-10" cy="-49" r="0.1" fill="green" stroke="none" stroke-width="0.2"/>
<line x1="-10" y1="-49" x2="-13" y2="-54" stroke="black" stroke-width="0.1" />
<circle cx="-13" cy="-54" r="0.1" fill="green" stroke="none" stroke-width="0.2"/>
<line x1="-13" y1="-54" x2="-15" y2="-60" stroke="black" stroke-width="0.1" />
<circle cx="-15" cy="-60" r="0.1" fill="green" stroke="none" stroke-width="0.2"/>
<line x1="-15" y1="-60" x2="-16" y2="-67" stroke="black" stroke-width="0.1" />
<circle cx="-16" cy="-67" r="0.1" fill="green" stroke="none" stroke-width="0.2"/>
<line x1="-16" y1="-67" x2="-18" y2="-73" stroke="black" stroke-width="0.1" />
<circle cx="-18" cy="-73" r="0.1" fill="green" stroke="none" stroke-width="0.2"/>
<line x1="-18" y1="-73" x2="-21" y2="-78" stroke="black" stroke-width="0.1" />
<circle cx="-21" cy="-78" r="0.1" fill="green" stroke="none" stroke-width="0.2"/>
<line x1="-21" y1="-78" x2="-23" y2="-82" stroke="black" stroke-width="0.1" />
<circle cx="-23" cy="-82" r="0.1" fill="green" stroke="none" stroke-width="0.2"/>
<line x1="-23" y1="-82" x2="-26" y2="-86" stroke="black" stroke-width="0.1" />
<circle cx="-26" cy="-86" r="0.1" fill="green" stroke="none" stroke-width="0.2"/>
<line x1="-26" y1="-86" x2="-30" y2="-89" stroke="black" stroke-width="0.1" />
<circle cx="-30" cy="-89" r="0.1" fill="green" stroke="none" stroke-width="0.2"/>
<line x1="-30" y1="-89" x2="-35" y2="-92" stroke="black" stroke-width="0.1" />
<circle cx="-35" cy="-92" r="0.1" fill="green" stroke="none" stroke-width="0.2"/>
<line x1="-35" y1="-92" x2="-39" y2="-96" stroke="black" stroke-width="0.1" />
<circle cx="-39" cy="-96" r="0.1" fill="green" stroke="none" stroke-width="0.2"/>
<line x1="-39" y1="-96" x2="-42" y2="-99" stroke="black" stroke-width="0.1" />
<circle cx="-42" cy="-99" r="0.1" fill="green" stroke="none" stroke-width="0.2"/>
<line x1="-42" y1="-99" x2="-45" y2="-102" stroke="black" stroke-width="0.1" />
<circle cx="-45" cy="-102" r="0.1" fill="green" stroke="none" stroke-width="0.2"/>
<line x1="-45" y1="-102" x2="-48" y2="-106" stroke="black" stroke-width="0.1" />
<circle cx="-48" cy="-106" r="0.1" fill="green" stroke="none" stroke-width="0.2"/>
<line x1="-48" y1="-106" x2="-52" y2="-109" stroke="black" stroke-width="0.1" />
<circle cx="-52" cy="-109" r="0.1" fill="green" stroke="none" stroke-width="0.2"/>
<line x1="-52" y1="-109" x2="-56" y2="-112" stroke="black" stroke-width="0.1" />
<circle cx="-56" cy="-112" r="0.1" fill="green" stroke="none" stroke-width="0.2"/>
<line x1="-56" y1="-112" x2="-60" y2="-116" stroke="black" stroke-width="0.1" />
<circle cx="-60" cy="-116" r="0.1" fill="green" stroke="none" stroke-width="0.2"/>
<line x1="-60" y1="-116" x2="-64" y2="-119" stroke="black" stroke-width="0.1" />
<circle cx="-64" cy="-119" r="0.1" fill="green" stroke="none" stroke-width="0.2"/>
<line x1="-64" y1="-119" x2="-68" y2="-122" stroke="black" stroke-width="0.1" />
<circle cx="-68" cy="-122" r="0.1" fill="green" stroke="none" stroke-width="0.2"/>
<line x1="-68" y1="-122" x2="-71" y2="-124" stroke="black" stroke-width="0.1" />
<circle cx="-71" cy="-124" r="0.1" fill="green" stroke="none" stroke-width="0.2"/>
<line x1="-71" y1="-124" x2="-73" y2="-127" stroke="black" stroke-width="0.1" />
<circle cx="-73" cy="-127" r="0.1" fill="green" stroke="none" stroke-width="0.2"/>
<line x1="-73" y1="-127" x2="-75" y2="-130" stroke="black" stroke-width="0.1" />
<circle cx="-75" cy="-130" r="0.1" fill="green" stroke="none" stroke-width="0.2"/>
<line x1="-75" y1="-130" x2="-76" y2="-134" stroke="black" stroke-width="0.1" />
<circle cx="-76" cy="-134" r="0.1" fill="green" stroke="none" stroke-width="0.2"/>
<line x1="-76" y1="-134" x2="-78" y2="-138" stroke="black" stroke-width="0.1" />
<circle cx="-78" cy="-138" r="0.1" fill="green" stroke="none" stroke-width="0.2"/>
<line x1="-78" y1="-138" x2="-81" y2="-141" stroke="black" stroke-width="0.1" />
<circle cx="-81" cy="-141" r="0.1" fill="green" stroke="none" stroke-width="0.2"/>
<line x1="-81" y1="-141" x2="-85" y2="-143" stroke="black" stroke-width="0.1" />
<circle cx="-85" cy="-143" r="0.1" fill="green" stroke="none" stroke-width="0.2"/>
<line x1="-85" y1="-143" x2="-90" y2="-144" stroke="black" stroke-width="0.1" />
<circle cx="-90" cy="-144" r="0.1" fill="green" stroke="none" stroke-width="0.2"/>
<line x1="-90" y1="-144" x2="-94" y2="-144" stroke="black" stroke-width="0.1" />
<circle cx="-94" cy="-144" r="0.1" fill="green" stroke="none" stroke-width="0.2"/>
<line x1="-94" y1="-144" x2="-98" y2="-145" stroke="black" stroke-width="0.1" />
<circle cx="-98" cy="-145" r="0.1" fill="green" stroke="none" stroke-width="0.2"/>
<line x1="-98" y1="-145" x2="-102" y2="-145" stroke="black" stroke-width="0.1" />
<circle cx="-102" cy="-145" r="0.1" fill="green" stroke="none" stroke-width="0.2"/>
<line x1="-102" y1="-145" x2="-106" y2="-146" stroke="black" stroke-width="0.1" />
<circle cx="-106" cy="-146" r="0.1" fill="green" stroke="none" stroke-width="0.2"/>
<line x1="-106" y1="-146" x2="-111" y2="-148" stroke="black" stroke-width="0.1" />
<circle cx="-111" cy="-148" r="0.1" fill="green" stroke="none" stroke-width="0.2"/>
<line x1="-111" y1="-148" x2="-115" y2="-151" stroke="black" stroke-width="0.1" />
<circle cx="-115" cy="-151" r="0.1" fill="green" stroke="none" stroke-width="0.2"/>
<line x1="-115" y1="-151" x2="-120" y2="-155" stroke="black" stroke-width="0.1" />
<circle cx="-120" cy="-155" r="0.1" fill="green" stroke="none" stroke-width="0.2"/>
<line x1="-120" y1="-155" x2="-124" y2="-159" stroke="black" stroke-width="0.1" />
<circle cx="-124" cy="-159" r="0.1" fill="green" stroke="none" stroke-width="0.2"/>
<line x1="-124" y1="-159" x2="-128" y2="-162" stroke="black" stroke-width="0.1" />
<circle cx="-128" cy="-162" r="0.1" fill="green" stroke="none" stroke-width="0.2"/>
<line x1="-128" y1="-162" x2="-133" y2="-165" stroke="black" stroke-width="0.1" />
<circle cx="-133" cy="-165" r="0.1" fill="green" stroke="none" stroke-width="0.2"/>
<line x1="-133" y1="-165" x2="-137" y2="-167" stroke="black" stroke-width="0.1" />
<circle cx="-137" cy="-167" r="0.1" fill="green" stroke="none" stroke-width="0.2"/>
<line x1="-137" y1="-167" x2="-141" y2="-168" stroke="black" stroke-width="0.1" />
<circle cx="-141" cy="-168" r="0.1" fill="green" stroke="none" stroke-width="0.2"/>
<line x1="-141" y1="-168" x2="-144" y2="-168" stroke="black" stroke-width="0.1" />
<circle cx="-144" cy="-168" r="0.1" fill="green" stroke="none" stroke-width="0.2"/>
<line x1="-144" y1="-168" x2="-146" y2="-168" stroke="black" stroke-width="0.1" />
<circle cx="-146" cy="-168" r="0.1" fill="green" stroke="none" stroke-width="0.2"/>
<line x1="-146" y1="-168" x2="-149" y2="-168" stroke="black" stroke-width="0.1" />
<circle cx="-149" cy="-168" r="0.1" fill="green" stroke="none" stroke-width="0.2"/>
<line x1="-149" y1="-168" x2="-151" y2="-167" stroke="black" stroke-width="0.1" />
<circle cx="-151" cy="-167" r="0.1" fill="green" stroke="none" stroke-width="0.2"/>
<line x1="-151" y1="-167" x2="-154" y2="-166" stroke="black" stroke-width="0.1" />
<circle cx="-154" cy="-166" r="0.1" fill="green" stroke="none" stroke-width="0.2"/>
<line x1="-154" y1="-166" x2="-156" y2="-166" stroke="black" stroke-width="0.1" />
<circle cx="-156" cy="-166" r="0.1" fill="green" stroke="none" stroke-width="0.2"/>
<line x1="-156" y1="-166" x2="-158" y2="-167" stroke="black" stroke-width="0.1" />
<circle cx="-158" cy="-167" r="0.1" fill="green" stroke="none" stroke-width="0.2"/>
<line x1="-158" y1="-167" x2="-160" y2="-168" stroke="black" stroke-width="0.1" />
<circle cx="-160" cy="-168" r="0.1" fill="green" stroke="none" stroke-width="0.2"/>
<line x1="-160" y1="-168" x2="-163" y2="-170" stroke="black" stroke-width="0.1" />
<circle cx="-163" cy="-170" r="0.1" fill="green" stroke="none" stroke-width="0.2"/>
<line x1="-163" y1="-170" x2="-165" y2="-173" stroke="black" stroke-width="0.1" />
<circle cx="-165" cy="-173" r="0.1" fill="green" stroke="none" stroke-width="0.2"/>
<line x1="-165" y1="-173" x2="-168" y2="-175" stroke="black" stroke-width="0.1" />
<circle cx="-168" cy="-175" r="0.1" fill="green" stroke="none" stroke-width="0.2"/>
<line x1="-168" y1="-175" x2="-172" y2="-177" stroke="black" stroke-width="0.1" />
<circle cx="-172" cy="-177" r="0.1" fill="green" stroke="none" stroke-width="0.2"/>
<line x1="-172" y1="-177" x2="-177" y2="-178" stroke="black" stroke-width="0.1" />
<circle cx="-177" cy="-178" r="0.1" fill="green" stroke="none" stroke-width="0.2"/>
<line x1="-177" y1="-178" x2="-181" y2="-179" stroke="black" stroke-width="0.1" />
<circle cx="-181" cy="-179" r="0.1" fill="green" stroke="none" stroke-width="0.2"/>
<line x1="-181" y1="-179" x2="-185" y2="-179" stroke="black" stroke-width="0.1" />
<circle cx="-185" cy="-179" r="0.1" fill="green" stroke="none" stroke-width="0.2"/>
<line x1="-185" y1="-179" x2="-188" y2="-178" stroke="black" stroke-width="0.1" />
<circle cx="-188" cy="-178" r="0.1" fill="green" stroke="none" stroke-width="0.2"/>
<line x1="-188" y1="-178" x2="-190" y2="-177" stroke="black" stroke-width="0.1" />
<circle cx="-190" cy="-177" r="0.1" fill="green" stroke="none" stroke-width="0.2"/>
<line x1="-190" y1="-177" x2="-192" y2="-176" stroke="black" stroke-width="0.1" />
<circle cx="-192" cy="-176" r="0.1" fill="green" stroke="none" stroke-width="0.2"/>
<line x1="-192" y1="-176" x2="-193" y2="-176" stroke="black" stroke-width="0.1" />
<circle cx="-193" cy="-176" r="0.1" fill="green" stroke="none" stroke-width="0.2"/>
<line x1="-193" y1="-176" x2="-193" y2="-175" stroke="black" stroke-width="0.1" />
<circle cx="-193" cy="-175" r="0.1" fill="green" stroke="none" stroke-width="0.2"/>
<line x1="-193" y1="-175" x2="-194" y2="-175" stroke="black" stroke-width="0.1" />
<circle cx="-194" cy="-175" r="0.1" fill="green" stroke="none" stroke-width="0.2"/>
<line x1="-194" y1="-175" x2="-194" y2="-174" stroke="black" stroke-width="0.1" />
<circle cx="-194" cy="-174" r="0.1" fill="green" stroke="none" stroke-width="0.2"/>
<line x1="-194" y1="-174" x2="-195" y2="-174" stroke="black" stroke-width="0.1" />
<circle cx="-195" cy="-174" r="0.1" fill="green" stroke="none" stroke-width="0.2"/>
<line x1="-195" y1="-174" x2="-197" y2="-174" stroke="black" stroke-width="0.1" />
<circle cx="-197" cy="-174" r="0.1" fill="green" stroke="none" stroke-width="0.2"/>
<line x1="-197" y1="-174" x2="-198" y2="-173" stroke="black" stroke-width="0.1" />
<circle cx="-198" cy="-173" r="0.1" fill="green" stroke="none" stroke-width="0.2"/>
<line x1="-198" y1="-173" x2="-199" y2="-171" stroke="black" stroke-width="0.1" />
<circle cx="-199" cy="-171" r="0.1" fill="green" stroke="none" stroke-width="0.2"/>
<line x1="-199" y1="-171" x2="-199" y2="-169" stroke="black" stroke-width="0.1" />
<circle cx="-199" cy="-169" r="0.1" fill="green" stroke="none" stroke-width="0.2"/>
<line x1="-199" y1="-169" x2="-198" y2="-168" stroke="black" stroke-width="0.1" />
<circle cx="-198" cy="-168" r="0.1" fill="green" stroke="none" stroke-width="0.2"/>
<line x1="-198" y1="-168" x2="-197" y2="-168" stroke="black" stroke-width="0.1" />
<circle cx="-197" cy="-168" r="0.1" fill="green" stroke="none" stroke-width="0.2"/>
<line x1="-197" y1="-168" x2="-195" y2="-168" stroke="black" stroke-width="0.1" />
<circle cx="-195" cy="-168" r="0.1" fill="green" stroke="none" stroke-width="0.2"/>
<line x1="-195" y1="-168" x2="-193" y2="-169" stroke="black" stroke-width="0.1" />
<circle cx="-193" cy="-169" r="0.1" fill="green" stroke="none" stroke-width="0.2"/>
<line x1="-193" y1="-169" x2="-191" y2="-169" stroke="black" stroke-width="0.1" />
<circle cx="-191" cy="-169" r="0.1" fill="green" stroke="none" stroke-width="0.2"/>
<line x1="-191" y1="-169" x2="-188" y2="-169" stroke="black" stroke-width="0.1" />
<circle cx="-188" cy="-169" r="0.1" fill="green" stroke="none" stroke-width="0.2"/>
<line x1="-188" y1="-169" x2="-186" y2="-168" stroke="black" stroke-width="0.1" />
<circle cx="-186" cy="-168" r="0.1" fill="green" stroke="none" stroke-width="0.2"/>
<line x1="-186" y1="-168" x2="-184" y2="-167" stroke="black" stroke-width="0.1" />
<circle cx="-184" cy="-167" r="0.1" fill="green" stroke="none" stroke-width="0.2"/>
<line x1="-184" y1="-167" x2="-181" y2="-167" stroke="black" stroke-width="0.1" />
<circle cx="-181" cy="-167" r="0.1" fill="green" stroke="none" stroke-width="0.2"/>
<line x1="-181" y1="-167" x2="-179" y2="-168" stroke="black" stroke-width="0.1" />
<circle cx="-179" cy="-168" r="0.1" fill="green" stroke="none" stroke-width="0.2"/>
<line x1="-179" y1="-168" x2="-178" y2="-169" stroke="black" stroke-width="0.1" />
<circle cx="-178" cy="-169" r="0.1" fill="green" stroke="none" stroke-width="0.2"/>
<line x1="-178" y1="-169" x2="-176" y2="-170" stroke="black" stroke-width="0.1" />
<circle cx="-176" cy="-170" r="0.1" fill="green" stroke="none" stroke-width="0.2"/>
<line x1="-176" y1="-170" x2="-175" y2="-172" stroke="black" stroke-width="0.1" />
<circle cx="-175" cy="-172" r="0.1" fill="green" stroke="none" stroke-width="0.2"/>
<line x1="-175" y1="-172" x2="-175" y2="-173" stroke="black" stroke-width="0.1" />
<circle cx="-175" cy="-173" r="0.1" fill="green" stroke="none" stroke-width="0.2"/>
<line x1="-175" y1="-173" x2="-174" y2="-174" stroke="black" stroke-width="0.1" />
<circle cx="-174" cy="-174" r="0.1" fill="green" stroke="none" stroke-width="0.2"/>
<line x1="-174" y1="-174" x2="-173" y2="-174" stroke="black" stroke-width="0.1" />
<circle cx="-173" cy="-174" r="0.1" fill="green" stroke="none" stroke-width="0.2"/>
<line x1="-173" y1="-174" x2="-173" y2="-173" stroke="black" stroke-width="0.1" />
<circle cx="-173" cy="-173" r="0.1" fill="green" stroke="none" stroke-width="0.2"/>
<line x1="-173" y1="-173" x2="-172" y2="-172" stroke="black" stroke-width="0.1" />
<circle cx="-172" cy="-172" r="0.1" fill="green" stroke="none" stroke-width="0.2"/>
<line x1="-172" y1="-172" x2="-170" y2="-172" stroke="black" stroke-width="0.1" />
<circle cx="-170" cy="-172" r="0.1" fill="green" stroke="none" stroke-width="0.2"/>
<line x1="-170" y1="-172" x2="-167" y2="-172" stroke="black" stroke-width="0.1" />
<circle cx="-167" cy="-172" r="0.1" fill="green" stroke="none" stroke-width="0.2"/>

    </svg>
