
    <svg version="1.1"
        width="199.8" height="178.8"
        xmlns="http://www.w3.org/2000/svg">

        <rect width="100%" height="100%" style="fill:white; stroke-width:0.1; stroke: black" />

<circle cx="75.4" cy="20.4" r="0.2" fill="blue" stroke="none" stroke-width="0.2"/>
<circle cx="164.4" cy="87.4" r="0.2" fill="blue" stroke="none" stroke-width="0.2"/>
<circle cx="31.4" cy="4.4" r="0.2" fill="blue" stroke="none" stroke-width="0.2"/>
<circle cx="1.4" cy="6.4" r="0.2" fill="blue" stroke="none" stroke-width="0.2"/>
<circle cx="0.4" cy="8.4" r="0.2" fill="blue" stroke="none" stroke-width="0.2"/>
<circle cx="154.4" cy="77.4" r="0.2" fill="blue" stroke="none" stroke-width="0.2"/>
<circle cx="41.4" cy="12.4" r="0.2" fill="blue" stroke="none" stroke-width="0.2"/>
<circle cx="4.4" cy="5.4" r="0.2" fill="blue" stroke="none" stroke-width="0.2"/>
<circle cx="195.4" cy="154.4" r="0.2" fill="blue" stroke="none" stroke-width="0.2"/>
<circle cx="9.4" cy="2.4" r="0.2" fill="blue" stroke="none" stroke-width="0.2"/>
<circle cx="15.4" cy="12.4" r="0.2" fill="blue" stroke="none" stroke-width="0.2"/>
<circle cx="124.4" cy="49.4" r="0.2" fill="blue" stroke="none" stroke-width="0.2"/>
<circle cx="58.4" cy="11.4" r="0.2" fill="blue" stroke="none" stroke-width="0.2"/>
<circle cx="97.4" cy="34.4" r="0.2" fill="blue" stroke="none" stroke-width="0.2"/>
<circle cx="24.4" cy="7.4" r="0.2" fill="blue" stroke="none" stroke-width="0.2"/>
<circle cx="184.4" cy="119.4" r="0.2" fill="blue" stroke="none" stroke-width="0.2"/>
<circle cx="198.4" cy="174.4" r="0.2" fill="blue" stroke="none" stroke-width="0.2"/>
<circle cx="50.4" cy="11.4" r="0.2" fill="blue" stroke="none" stroke-width="0.2"/>
<circle cx="11.4" cy="10.4" r="0.2" fill="blue" stroke="none" stroke-width="0.2"/>
<circle cx="18.4" cy="12.4" r="0.2" fill="blue" stroke="none" stroke-width="0.2"/>
<circle cx="0.4" cy="10.4" r="0.2" fill="blue" stroke="none" stroke-width="0.2"/>
<circle cx="48.4" cy="12.4" r="0.2" fill="blue" stroke="none" stroke-width="0.2"/>
<circle cx="121.4" cy="41.4" r="0.2" fill="blue" stroke="none" stroke-width="0.2"/>
<circle cx="26.4" cy="6.4" r="0.2" fill="blue" stroke="none" stroke-width="0.2"/>
<circle cx="18.4" cy="0.4" r="0.2" fill="blue" stroke="none" stroke-width="0.2"/>
<circle cx="43.4" cy="13.4" r="0.2" fill="blue" stroke="none" stroke-width="0.2"/>
<circle cx="126.4" cy="52.4" r="0.2" fill="blue" stroke="none" stroke-width="0.2"/>
<circle cx="123.4" cy="45.4" r="0.2" fill="blue" stroke="none" stroke-width="0.2"/>
<circle cx="192.4" cy="145.4" r="0.2" fill="blue" stroke="none" stroke-width="0.2"/>
<circle cx="27.4" cy="2.4" r="0.2" fill="blue" stroke="none" stroke-width="0.2"/>
<circle cx="135.4" cy="60.4" r="0.2" fill="blue" stroke="none" stroke-width="0.2"/>
<circle cx="169.4" cy="90.4" r="0.2" fill="blue" stroke="none" stroke-width="0.2"/>
<circle cx="114.4" cy="36.4" r="0.2" fill="blue" stroke="none" stroke-width="0.2"/>
<circle cx="186.4" cy="125.4" r="0.2" fill="blue" stroke="none" stroke-width="0.2"/>
<circle cx="181.4" cy="106.4" r="0.2" fill="blue" stroke="none" stroke-width="0.2"/>
<circle cx="1.4" cy="11.4" r="0.2" fill="blue" stroke="none" stroke-width="0.2"/>
<circle cx="199.4" cy="176.4" r="0.2" fill="blue" stroke="none" stroke-width="0.2"/>
<circle cx="84.4" cy="28.4" r="0.2" fill="blue" stroke="none" stroke-width="0.2"/>
<circle cx="147.4" cy="70.4" r="0.2" fill="blue" stroke="none" stroke-width="0.2"/>
<circle cx="29.4" cy="7.4" r="0.2" fill="blue" stroke="none" stroke-width="0.2"/>
<circle cx="27.4" cy="7.4" r="0.2" fill="blue" stroke="none" stroke-width="0.2"/>
<circle cx="2.4" cy="5.4" r="0.2" fill="blue" stroke="none" stroke-width="0.2"/>
<circle cx="32.4" cy="7.4" r="0.2" fill="blue" stroke="none" stroke-width="0.2"/>
<circle cx="11.4" cy="1.4" r="0.2" fill="blue" stroke="none" stroke-width="0.2"/>
<circle cx="199.4" cy="178.4" r="0.2" fill="blue" stroke="none" stroke-width="0.2"/>
<circle cx="13.4" cy="11.4" r="0.2" fill="blue" stroke="none" stroke-width="0.2"/>
<circle cx="20.4" cy="11.4" r="0.2" fill="blue" stroke="none" stroke-width="0.2"/>
<circle cx="128.4" cy="55.4" r="0.2" fill="blue" stroke="none" stroke-width="0.2"/>
<circle cx="197.4" cy="169.4" r="0.2" fill="blue" stroke="none" stroke-width="0.2"/>
<circle cx="34.4" cy="6.4" r="0.2" fill="blue" stroke="none" stroke-width="0.2"/>
<circle cx="157.4" cy="80.4" r="0.2" fill="blue" stroke="none" stroke-width="0.2"/>
<circle cx="39.4" cy="11.4" r="0.2" fill="blue" stroke="none" stroke-width="0.2"/>
<circle cx="196.4" cy="158.4" r="0.2" fill="blue" stroke="none" stroke-width="0.2"/>
<circle cx="26.4" cy="5.4" r="0.2" fill="blue" stroke="none" stroke-width="0.2"/>
<circle cx="21.4" cy="10.4" r="0.2" fill="blue" stroke="none" stroke-width="0.2"/>
<circle cx="22.4" cy="1.4" r="0.2" fill="blue" stroke="none" stroke-width="0.2"/>
<circle cx="55.4" cy="11.4" r="0.2" fill="blue" stroke="none" stroke-width="0.2"/>
<circle cx="118.4" cy="38.4" r="0.2" fill="blue" stroke="none" stroke-width="0.2"/>
<circle cx="189.4" cy="130.4" r="0.2" fill="blue" stroke="none" stroke-width="0.2"/>
<circle cx="14.4" cy="0.4" r="0.2" fill="blue" stroke="none" stroke-width="0.2"/>
<circle cx="105.4" cy="35.4" r="0.2" fill="blue" stroke="none" stroke-width="0.2"/>
<circle cx="2.4" cy="11.4" r="0.2" fill="blue" stroke="none" stroke-width="0.2"/>
<circle cx="6.4" cy="10.4" r="0.2" fill="blue" stroke="none" stroke-width="0.2"/>
<circle cx="143.4" cy="67.4" r="0.2" fill="blue" stroke="none" stroke-width="0.2"/>
<circle cx="160.4" cy="83.4" r="0.2" fill="blue" stroke="none" stroke-width="0.2"/>
<circle cx="66.4" cy="14.4" r="0.2" fill="blue" stroke="none" stroke-width="0.2"/>
<circle cx="5.4" cy="5.4" r="0.2" fill="blue" stroke="none" stroke-width="0.2"/>
<circle cx="131.4" cy="57.4" r="0.2" fill="blue" stroke="none" stroke-width="0.2"/>
<circle cx="198.4" cy="172.4" r="0.2" fill="blue" stroke="none" stroke-width="0.2"/>
<circle cx="4.4" cy="11.4" r="0.2" fill="blue" stroke="none" stroke-width="0.2"/>
<circle cx="176.4" cy="97.4" r="0.2" fill="blue" stroke="none" stroke-width="0.2"/>
<circle cx="191.4" cy="136.4" r="0.2" fill="blue" stroke="none" stroke-width="0.2"/>
<circle cx="88.4" cy="31.4" r="0.2" fill="blue" stroke="none" stroke-width="0.2"/>
<circle cx="36.4" cy="9.4" r="0.2" fill="blue" stroke="none" stroke-width="0.2"/>
<circle cx="5.4" cy="4.4" r="0.2" fill="blue" stroke="none" stroke-width="0.2"/>
<circle cx="26.4" cy="5.4" r="0.2" fill="blue" stroke="none" stroke-width="0.2"/>
<circle cx="93.4" cy="33.4" r="0.2" fill="blue" stroke="none" stroke-width="0.2"/>
<circle cx="79.4" cy="24.4" r="0.2" fill="blue" stroke="none" stroke-width="0.2"/>
<circle cx="101.4" cy="34.4" r="0.2" fill="blue" stroke="none" stroke-width="0.2"/>
<circle cx="24.4" cy="6.4" r="0.2" fill="blue" stroke="none" stroke-width="0.2"/>
<circle cx="178.4" cy="101.4" r="0.2" fill="blue" stroke="none" stroke-width="0.2"/>
<circle cx="139.4" cy="63.4" r="0.2" fill="blue" stroke="none" stroke-width="0.2"/>
<circle cx="53.4" cy="11.4" r="0.2" fill="blue" stroke="none" stroke-width="0.2"/>
<circle cx="6.4" cy="3.4" r="0.2" fill="blue" stroke="none" stroke-width="0.2"/>
<circle cx="25.4" cy="5.4" r="0.2" fill="blue" stroke="none" stroke-width="0.2"/>
<circle cx="197.4" cy="166.4" r="0.2" fill="blue" stroke="none" stroke-width="0.2"/>
<circle cx="192.4" cy="141.4" r="0.2" fill="blue" stroke="none" stroke-width="0.2"/>
<circle cx="62.4" cy="12.4" r="0.2" fill="blue" stroke="none" stroke-width="0.2"/>
<circle cx="23.4" cy="9.4" r="0.2" fill="blue" stroke="none" stroke-width="0.2"/>
<circle cx="6.4" cy="4.4" r="0.2" fill="blue" stroke="none" stroke-width="0.2"/>
<circle cx="8.4" cy="10.4" r="0.2" fill="blue" stroke="none" stroke-width="0.2"/>
<circle cx="7.4" cy="3.4" r="0.2" fill="blue" stroke="none" stroke-width="0.2"/>
<circle cx="183.4" cy="112.4" r="0.2" fill="blue" stroke="none" stroke-width="0.2"/>
<circle cx="151.4" cy="73.4" r="0.2" fill="blue" stroke="none" stroke-width="0.2"/>
<circle cx="193.4" cy="150.4" r="0.2" fill="blue" stroke="none" stroke-width="0.2"/>
<circle cx="196.4" cy="162.4" r="0.2" fill="blue" stroke="none" stroke-width="0.2"/>
<circle cx="71.4" cy="17.4" r="0.2" fill="blue" stroke="none" stroke-width="0.2"/>
<circle cx="173.4" cy="93.4" r="0.2" fill="blue" stroke="none" stroke-width="0.2"/>
<circle cx="109.4" cy="35.4" r="0.2" fill="blue" stroke="none" stroke-width="0.2"/>
<circle cx="45.4" cy="13.4" r="0.2" fill="blue" stroke="none" stroke-width="0.2"/>

    </svg>
