
    <svg version="1.1"
        width="235.94" height="164.94"
        xmlns="http://www.w3.org/2000/svg">

        <rect width="100%" height="100%" style="fill:white; stroke-width:0.1; stroke: black" />

<circle cx="11.47" cy="0.47" r="0.235" fill="blue" stroke="none" stroke-width="0.2"/>
<circle cx="9.47" cy="2.4699999999999998" r="0.235" fill="blue" stroke="none" stroke-width="0.2"/>
<circle cx="7.47" cy="3.4699999999999998" r="0.235" fill="blue" stroke="none" stroke-width="0.2"/>
<circle cx="6.47" cy="4.47" r="0.235" fill="blue" stroke="none" stroke-width="0.2"/>
<circle cx="5.47" cy="4.47" r="0.235" fill="blue" stroke="none" stroke-width="0.2"/>
<circle cx="4.47" cy="5.47" r="0.235" fill="blue" stroke="none" stroke-width="0.2"/>
<circle cx="4.47" cy="5.47" r="0.235" fill="blue" stroke="none" stroke-width="0.2"/>
<circle cx="3.4699999999999998" cy="6.47" r="0.235" fill="blue" stroke="none" stroke-width="0.2"/>
<circle cx="1.47" cy="7.47" r="0.235" fill="blue" stroke="none" stroke-width="0.2"/>
<circle cx="0.47" cy="9.47" r="0.235" fill="blue" stroke="none" stroke-width="0.2"/>
<circle cx="0.47" cy="12.47" r="0.235" fill="blue" stroke="none" stroke-width="0.2"/>
<circle cx="0.47" cy="15.47" r="0.235" fill="blue" stroke="none" stroke-width="0.2"/>
<circle cx="1.47" cy="17.47" r="0.235" fill="blue" stroke="none" stroke-width="0.2"/>
<circle cx="2.4699999999999998" cy="20.47" r="0.235" fill="blue" stroke="none" stroke-width="0.2"/>
<circle cx="2.4699999999999998" cy="23.47" r="0.235" fill="blue" stroke="none" stroke-width="0.2"/>
<circle cx="3.4699999999999998" cy="26.47" r="0.235" fill="blue" stroke="none" stroke-width="0.2"/>
<circle cx="4.47" cy="28.47" r="0.235" fill="blue" stroke="none" stroke-width="0.2"/>
<circle cx="4.47" cy="31.47" r="0.235" fill="blue" stroke="none" stroke-width="0.2"/>
<circle cx="5.47" cy="35.47" r="0.235" fill="blue" stroke="none" stroke-width="0.2"/>
<circle cx="7.47" cy="39.47" r="0.235" fill="blue" stroke="none" stroke-width="0.2"/>
<circle cx="9.47" cy="44.47" r="0.235" fill="blue" stroke="none" stroke-width="0.2"/>
<circle cx="11.47" cy="48.47" r="0.235" fill="blue" stroke="none" stroke-width="0.2"/>
<circle cx="14.47" cy="52.47" r="0.235" fill="blue" stroke="none" stroke-width="0.2"/>
<circle cx="17.47" cy="55.47" r="0.235" fill="blue" stroke="none" stroke-width="0.2"/>
<circle cx="21.47" cy="57.47" r="0.235" fill="blue" stroke="none" stroke-width="0.2"/>
<circle cx="24.47" cy="60.47" r="0.235" fill="blue" stroke="none" stroke-width="0.2"/>
<circle cx="26.47" cy="62.47" r="0.235" fill="blue" stroke="none" stroke-width="0.2"/>
<circle cx="27.47" cy="64.47" r="0.235" fill="blue" stroke="none" stroke-width="0.2"/>
<circle cx="28.47" cy="65.47" r="0.235" fill="blue" stroke="none" stroke-width="0.2"/>
<circle cx="30.47" cy="65.47" r="0.235" fill="blue" stroke="none" stroke-width="0.2"/>
<circle cx="32.47" cy="66.47" r="0.235" fill="blue" stroke="none" stroke-width="0.2"/>
<circle cx="33.47" cy="66.47" r="0.235" fill="blue" stroke="none" stroke-width="0.2"/>
<circle cx="34.47" cy="65.47" r="0.235" fill="blue" stroke="none" stroke-width="0.2"/>
<circle cx="36.47" cy="65.47" r="0.235" fill="blue" stroke="none" stroke-width="0.2"/>
<circle cx="37.47" cy="64.47" r="0.235" fill="blue" stroke="none" stroke-width="0.2"/>
<circle cx="39.47" cy="62.47" r="0.235" fill="blue" stroke="none" stroke-width="0.2"/>
<circle cx="42.47" cy="61.47" r="0.235" fill="blue" stroke="none" stroke-width="0.2"/>
<circle cx="46.47" cy="61.47" r="0.235" fill="blue" stroke="none" stroke-width="0.2"/>
<circle cx="51.47" cy="62.47" r="0.235" fill="blue" stroke="none" stroke-width="0.2"/>
<circle cx="55.47" cy="62.47" r="0.235" fill="blue" stroke="none" stroke-width="0.2"/>
<circle cx="58.47" cy="62.47" r="0.235" fill="blue" stroke="none" stroke-width="0.2"/>
<circle cx="62.47" cy="62.47" r="0.235" fill="blue" stroke="none" stroke-width="0.2"/>
<circle cx="67.47" cy="61.47" r="0.235" fill="blue" stroke="none" stroke-width="0.2"/>
<circle cx="73.47" cy="61.47" r="0.235" fill="blue" stroke="none" stroke-width="0.2"/>
<circle cx="78.47" cy="61.47" r="0.235" fill="blue" stroke="none" stroke-width="0.2"/>
<circle cx="84.47" cy="60.47" r="0.235" fill="blue" stroke="none" stroke-width="0.2"/>
<circle cx="90.47" cy="60.47" r="0.235" fill="blue" stroke="none" stroke-width="0.2"/>
<circle cx="97.47" cy="60.47" r="0.235" fill="blue" stroke="none" stroke-width="0.2"/>
<circle cx="103.47" cy="60.47" r="0.235" fill="blue" stroke="none" stroke-width="0.2"/>
<circle cx="109.47" cy="59.47" r="0.235" fill="blue" stroke="none" stroke-width="0.2"/>
<circle cx="116.47" cy="58.47" r="0.235" fill="blue" stroke="none" stroke-width="0.2"/>
<circle cx="122.47" cy="58.47" r="0.235" fill="blue" stroke="none" stroke-width="0.2"/>
<circle cx="127.47" cy="57.47" r="0.235" fill="blue" stroke="none" stroke-width="0.2"/>
<circle cx="132.47" cy="57.47" r="0.235" fill="blue" stroke="none" stroke-width="0.2"/>
<circle cx="137.47" cy="57.47" r="0.235" fill="blue" stroke="none" stroke-width="0.2"/>
<circle cx="143.47" cy="58.47" r="0.235" fill="blue" stroke="none" stroke-width="0.2"/>
<circle cx="149.47" cy="58.47" r="0.235" fill="blue" stroke="none" stroke-width="0.2"/>
<circle cx="154.47" cy="57.47" r="0.235" fill="blue" stroke="none" stroke-width="0.2"/>
<circle cx="158.47" cy="57.47" r="0.235" fill="blue" stroke="none" stroke-width="0.2"/>
<circle cx="162.47" cy="57.47" r="0.235" fill="blue" stroke="none" stroke-width="0.2"/>
<circle cx="166.47" cy="56.47" r="0.235" fill="blue" stroke="none" stroke-width="0.2"/>
<circle cx="171.47" cy="56.47" r="0.235" fill="blue" stroke="none" stroke-width="0.2"/>
<circle cx="175.47" cy="55.47" r="0.235" fill="blue" stroke="none" stroke-width="0.2"/>
<circle cx="178.47" cy="53.47" r="0.235" fill="blue" stroke="none" stroke-width="0.2"/>
<circle cx="180.47" cy="52.47" r="0.235" fill="blue" stroke="none" stroke-width="0.2"/>
<circle cx="183.47" cy="51.47" r="0.235" fill="blue" stroke="none" stroke-width="0.2"/>
<circle cx="186.47" cy="49.47" r="0.235" fill="blue" stroke="none" stroke-width="0.2"/>
<circle cx="188.47" cy="46.47" r="0.235" fill="blue" stroke="none" stroke-width="0.2"/>
<circle cx="190.47" cy="43.47" r="0.235" fill="blue" stroke="none" stroke-width="0.2"/>
<circle cx="192.47" cy="41.47" r="0.235" fill="blue" stroke="none" stroke-width="0.2"/>
<circle cx="195.47" cy="40.47" r="0.235" fill="blue" stroke="none" stroke-width="0.2"/>
<circle cx="196.47" cy="41.47" r="0.235" fill="blue" stroke="none" stroke-width="0.2"/>
<circle cx="196.47" cy="42.47" r="0.235" fill="blue" stroke="none" stroke-width="0.2"/>
<circle cx="196.47" cy="42.47" r="0.235" fill="blue" stroke="none" stroke-width="0.2"/>
<circle cx="196.47" cy="42.47" r="0.235" fill="blue" stroke="none" stroke-width="0.2"/>
<circle cx="196.47" cy="43.47" r="0.235" fill="blue" stroke="none" stroke-width="0.2"/>
<circle cx="195.47" cy="45.47" r="0.235" fill="blue" stroke="none" stroke-width="0.2"/>
<circle cx="193.47" cy="46.47" r="0.235" fill="blue" stroke="none" stroke-width="0.2"/>
<circle cx="191.47" cy="48.47" r="0.235" fill="blue" stroke="none" stroke-width="0.2"/>
<circle cx="190.47" cy="49.47" r="0.235" fill="blue" stroke="none" stroke-width="0.2"/>
<circle cx="189.47" cy="49.47" r="0.235" fill="blue" stroke="none" stroke-width="0.2"/>
<circle cx="189.47" cy="50.47" r="0.235" fill="blue" stroke="none" stroke-width="0.2"/>
<circle cx="188.47" cy="51.47" r="0.235" fill="blue" stroke="none" stroke-width="0.2"/>
<circle cx="186.47" cy="51.47" r="0.235" fill="blue" stroke="none" stroke-width="0.2"/>
<circle cx="185.47" cy="52.47" r="0.235" fill="blue" stroke="none" stroke-width="0.2"/>
<circle cx="184.47" cy="53.47" r="0.235" fill="blue" stroke="none" stroke-width="0.2"/>
<circle cx="184.47" cy="55.47" r="0.235" fill="blue" stroke="none" stroke-width="0.2"/>
<circle cx="185.47" cy="57.47" r="0.235" fill="blue" stroke="none" stroke-width="0.2"/>
<circle cx="187.47" cy="59.47" r="0.235" fill="blue" stroke="none" stroke-width="0.2"/>
<circle cx="188.47" cy="61.47" r="0.235" fill="blue" stroke="none" stroke-width="0.2"/>
<circle cx="190.47" cy="62.47" r="0.235" fill="blue" stroke="none" stroke-width="0.2"/>
<circle cx="193.47" cy="62.47" r="0.235" fill="blue" stroke="none" stroke-width="0.2"/>
<circle cx="196.47" cy="63.47" r="0.235" fill="blue" stroke="none" stroke-width="0.2"/>
<circle cx="198.47" cy="64.47" r="0.235" fill="blue" stroke="none" stroke-width="0.2"/>
<circle cx="201.47" cy="66.47" r="0.235" fill="blue" stroke="none" stroke-width="0.2"/>
<circle cx="204.47" cy="68.47" r="0.235" fill="blue" stroke="none" stroke-width="0.2"/>
<circle cx="208.47" cy="70.47" r="0.235" fill="blue" stroke="none" stroke-width="0.2"/>
<circle cx="215.47" cy="73.47" r="0.235" fill="blue" stroke="none" stroke-width="0.2"/>
<circle cx="219.47" cy="75.47" r="0.235" fill="blue" stroke="none" stroke-width="0.2"/>
<circle cx="222.47" cy="78.47" r="0.235" fill="blue" stroke="none" stroke-width="0.2"/>
<circle cx="224.47" cy="82.47" r="0.235" fill="blue" stroke="none" stroke-width="0.2"/>
<circle cx="225.47" cy="86.47" r="0.235" fill="blue" stroke="none" stroke-width="0.2"/>
<circle cx="226.47" cy="91.47" r="0.235" fill="blue" stroke="none" stroke-width="0.2"/>
<circle cx="228.47" cy="95.47" r="0.235" fill="blue" stroke="none" stroke-width="0.2"/>
<circle cx="230.47" cy="100.47" r="0.235" fill="blue" stroke="none" stroke-width="0.2"/>
<circle cx="231.47" cy="106.47" r="0.235" fill="blue" stroke="none" stroke-width="0.2"/>
<circle cx="231.47" cy="112.47" r="0.235" fill="blue" stroke="none" stroke-width="0.2"/>
<circle cx="231.47" cy="118.47" r="0.235" fill="blue" stroke="none" stroke-width="0.2"/>
<circle cx="230.47" cy="124.47" r="0.235" fill="blue" stroke="none" stroke-width="0.2"/>
<circle cx="230.47" cy="130.47" r="0.235" fill="blue" stroke="none" stroke-width="0.2"/>
<circle cx="231.47" cy="137.47" r="0.235" fill="blue" stroke="none" stroke-width="0.2"/>
<circle cx="233.47" cy="143.47" r="0.235" fill="blue" stroke="none" stroke-width="0.2"/>
<circle cx="234.47" cy="148.47" r="0.235" fill="blue" stroke="none" stroke-width="0.2"/>
<circle cx="235.47" cy="153.47" r="0.235" fill="blue" stroke="none" stroke-width="0.2"/>
<circle cx="235.47" cy="159.47" r="0.235" fill="blue" stroke="none" stroke-width="0.2"/>
<circle cx="234.47" cy="164.47" r="0.235" fill="blue" stroke="none" stroke-width="0.2"/>

    </svg>
