
    <svg version="1.1"
        viewBox="-14.47, -0.47, 235.94, 166.94"
        xmlns="http://www.w3.org/2000/svg">

        <rect x="-14.47" y="-0.47" width="100%" height="100%" style="fill:white; stroke-width:0.1; stroke: black" />

<circle cx="0" cy="0" r="0.3525" fill="red" stroke="none" stroke-width="0.2"/>
<circle cx="-3" cy="2" r="0.235" fill="blue" stroke="none" stroke-width="0.2"/>
<circle cx="-5" cy="4" r="0.235" fill="blue" stroke="none" stroke-width="0.2"/>
<circle cx="-7" cy="5" r="0.235" fill="blue" stroke="none" stroke-width="0.2"/>
<circle cx="-8" cy="6" r="0.235" fill="blue" stroke="none" stroke-width="0.2"/>
<circle cx="-9" cy="6" r="0.235" fill="blue" stroke="none" stroke-width="0.2"/>
<circle cx="-10" cy="7" r="0.235" fill="blue" stroke="none" stroke-width="0.2"/>
<circle cx="-10" cy="7" r="0.235" fill="blue" stroke="none" stroke-width="0.2"/>
<circle cx="-11" cy="8" r="0.235" fill="blue" stroke="none" stroke-width="0.2"/>
<circle cx="-13" cy="9" r="0.235" fill="blue" stroke="none" stroke-width="0.2"/>
<circle cx="-14" cy="11" r="0.235" fill="blue" stroke="none" stroke-width="0.2"/>
<circle cx="-14" cy="14" r="0.235" fill="blue" stroke="none" stroke-width="0.2"/>
<circle cx="-14" cy="17" r="0.235" fill="blue" stroke="none" stroke-width="0.2"/>
<circle cx="-13" cy="19" r="0.235" fill="blue" stroke="none" stroke-width="0.2"/>
<circle cx="-12" cy="22" r="0.235" fill="blue" stroke="none" stroke-width="0.2"/>
<circle cx="-12" cy="25" r="0.235" fill="blue" stroke="none" stroke-width="0.2"/>
<circle cx="-11" cy="28" r="0.235" fill="blue" stroke="none" stroke-width="0.2"/>
<circle cx="-10" cy="30" r="0.235" fill="blue" stroke="none" stroke-width="0.2"/>
<circle cx="-10" cy="33" r="0.235" fill="blue" stroke="none" stroke-width="0.2"/>
<circle cx="-9" cy="37" r="0.235" fill="blue" stroke="none" stroke-width="0.2"/>
<circle cx="-7" cy="41" r="0.235" fill="blue" stroke="none" stroke-width="0.2"/>
<circle cx="-5" cy="46" r="0.235" fill="blue" stroke="none" stroke-width="0.2"/>
<circle cx="-3" cy="50" r="0.235" fill="blue" stroke="none" stroke-width="0.2"/>
<circle cx="0" cy="54" r="0.235" fill="blue" stroke="none" stroke-width="0.2"/>
<circle cx="3" cy="57" r="0.235" fill="blue" stroke="none" stroke-width="0.2"/>
<circle cx="7" cy="59" r="0.235" fill="blue" stroke="none" stroke-width="0.2"/>
<circle cx="10" cy="62" r="0.235" fill="blue" stroke="none" stroke-width="0.2"/>
<circle cx="12" cy="64" r="0.235" fill="blue" stroke="none" stroke-width="0.2"/>
<circle cx="13" cy="66" r="0.235" fill="blue" stroke="none" stroke-width="0.2"/>
<circle cx="14" cy="67" r="0.235" fill="blue" stroke="none" stroke-width="0.2"/>
<circle cx="16" cy="67" r="0.235" fill="blue" stroke="none" stroke-width="0.2"/>
<circle cx="18" cy="68" r="0.235" fill="blue" stroke="none" stroke-width="0.2"/>
<circle cx="19" cy="68" r="0.235" fill="blue" stroke="none" stroke-width="0.2"/>
<circle cx="20" cy="67" r="0.235" fill="blue" stroke="none" stroke-width="0.2"/>
<circle cx="22" cy="67" r="0.235" fill="blue" stroke="none" stroke-width="0.2"/>
<circle cx="23" cy="66" r="0.235" fill="blue" stroke="none" stroke-width="0.2"/>
<circle cx="25" cy="64" r="0.235" fill="blue" stroke="none" stroke-width="0.2"/>
<circle cx="28" cy="63" r="0.235" fill="blue" stroke="none" stroke-width="0.2"/>
<circle cx="32" cy="63" r="0.235" fill="blue" stroke="none" stroke-width="0.2"/>
<circle cx="37" cy="64" r="0.235" fill="blue" stroke="none" stroke-width="0.2"/>
<circle cx="41" cy="64" r="0.235" fill="blue" stroke="none" stroke-width="0.2"/>
<circle cx="44" cy="64" r="0.235" fill="blue" stroke="none" stroke-width="0.2"/>
<circle cx="48" cy="64" r="0.235" fill="blue" stroke="none" stroke-width="0.2"/>
<circle cx="53" cy="63" r="0.235" fill="blue" stroke="none" stroke-width="0.2"/>
<circle cx="59" cy="63" r="0.235" fill="blue" stroke="none" stroke-width="0.2"/>
<circle cx="64" cy="63" r="0.235" fill="blue" stroke="none" stroke-width="0.2"/>
<circle cx="70" cy="62" r="0.235" fill="blue" stroke="none" stroke-width="0.2"/>
<circle cx="76" cy="62" r="0.235" fill="blue" stroke="none" stroke-width="0.2"/>
<circle cx="83" cy="62" r="0.235" fill="blue" stroke="none" stroke-width="0.2"/>
<circle cx="89" cy="62" r="0.235" fill="blue" stroke="none" stroke-width="0.2"/>
<circle cx="95" cy="61" r="0.235" fill="blue" stroke="none" stroke-width="0.2"/>
<circle cx="102" cy="60" r="0.235" fill="blue" stroke="none" stroke-width="0.2"/>
<circle cx="108" cy="60" r="0.235" fill="blue" stroke="none" stroke-width="0.2"/>
<circle cx="113" cy="59" r="0.235" fill="blue" stroke="none" stroke-width="0.2"/>
<circle cx="118" cy="59" r="0.235" fill="blue" stroke="none" stroke-width="0.2"/>
<circle cx="123" cy="59" r="0.235" fill="blue" stroke="none" stroke-width="0.2"/>
<circle cx="129" cy="60" r="0.235" fill="blue" stroke="none" stroke-width="0.2"/>
<circle cx="135" cy="60" r="0.235" fill="blue" stroke="none" stroke-width="0.2"/>
<circle cx="140" cy="59" r="0.235" fill="blue" stroke="none" stroke-width="0.2"/>
<circle cx="144" cy="59" r="0.235" fill="blue" stroke="none" stroke-width="0.2"/>
<circle cx="148" cy="59" r="0.235" fill="blue" stroke="none" stroke-width="0.2"/>
<circle cx="152" cy="58" r="0.235" fill="blue" stroke="none" stroke-width="0.2"/>
<circle cx="157" cy="58" r="0.235" fill="blue" stroke="none" stroke-width="0.2"/>
<circle cx="161" cy="57" r="0.235" fill="blue" stroke="none" stroke-width="0.2"/>
<circle cx="164" cy="55" r="0.235" fill="blue" stroke="none" stroke-width="0.2"/>
<circle cx="166" cy="54" r="0.235" fill="blue" stroke="none" stroke-width="0.2"/>
<circle cx="169" cy="53" r="0.235" fill="blue" stroke="none" stroke-width="0.2"/>
<circle cx="172" cy="51" r="0.235" fill="blue" stroke="none" stroke-width="0.2"/>
<circle cx="174" cy="48" r="0.235" fill="blue" stroke="none" stroke-width="0.2"/>
<circle cx="176" cy="45" r="0.235" fill="blue" stroke="none" stroke-width="0.2"/>
<circle cx="178" cy="43" r="0.235" fill="blue" stroke="none" stroke-width="0.2"/>
<circle cx="181" cy="42" r="0.235" fill="blue" stroke="none" stroke-width="0.2"/>
<circle cx="182" cy="43" r="0.235" fill="blue" stroke="none" stroke-width="0.2"/>
<circle cx="182" cy="44" r="0.235" fill="blue" stroke="none" stroke-width="0.2"/>
<circle cx="182" cy="44" r="0.235" fill="blue" stroke="none" stroke-width="0.2"/>
<circle cx="182" cy="44" r="0.235" fill="blue" stroke="none" stroke-width="0.2"/>
<circle cx="182" cy="45" r="0.235" fill="blue" stroke="none" stroke-width="0.2"/>
<circle cx="181" cy="47" r="0.235" fill="blue" stroke="none" stroke-width="0.2"/>
<circle cx="179" cy="48" r="0.235" fill="blue" stroke="none" stroke-width="0.2"/>
<circle cx="177" cy="50" r="0.235" fill="blue" stroke="none" stroke-width="0.2"/>
<circle cx="176" cy="51" r="0.235" fill="blue" stroke="none" stroke-width="0.2"/>
<circle cx="175" cy="51" r="0.235" fill="blue" stroke="none" stroke-width="0.2"/>
<circle cx="175" cy="52" r="0.235" fill="blue" stroke="none" stroke-width="0.2"/>
<circle cx="174" cy="53" r="0.235" fill="blue" stroke="none" stroke-width="0.2"/>
<circle cx="172" cy="53" r="0.235" fill="blue" stroke="none" stroke-width="0.2"/>
<circle cx="171" cy="54" r="0.235" fill="blue" stroke="none" stroke-width="0.2"/>
<circle cx="170" cy="55" r="0.235" fill="blue" stroke="none" stroke-width="0.2"/>
<circle cx="170" cy="57" r="0.235" fill="blue" stroke="none" stroke-width="0.2"/>
<circle cx="171" cy="59" r="0.235" fill="blue" stroke="none" stroke-width="0.2"/>
<circle cx="173" cy="61" r="0.235" fill="blue" stroke="none" stroke-width="0.2"/>
<circle cx="174" cy="63" r="0.235" fill="blue" stroke="none" stroke-width="0.2"/>
<circle cx="176" cy="64" r="0.235" fill="blue" stroke="none" stroke-width="0.2"/>
<circle cx="179" cy="64" r="0.235" fill="blue" stroke="none" stroke-width="0.2"/>
<circle cx="182" cy="65" r="0.235" fill="blue" stroke="none" stroke-width="0.2"/>
<circle cx="184" cy="66" r="0.235" fill="blue" stroke="none" stroke-width="0.2"/>
<circle cx="187" cy="68" r="0.235" fill="blue" stroke="none" stroke-width="0.2"/>
<circle cx="190" cy="70" r="0.235" fill="blue" stroke="none" stroke-width="0.2"/>
<circle cx="194" cy="72" r="0.235" fill="blue" stroke="none" stroke-width="0.2"/>
<circle cx="201" cy="75" r="0.235" fill="blue" stroke="none" stroke-width="0.2"/>
<circle cx="205" cy="77" r="0.235" fill="blue" stroke="none" stroke-width="0.2"/>
<circle cx="208" cy="80" r="0.235" fill="blue" stroke="none" stroke-width="0.2"/>
<circle cx="210" cy="84" r="0.235" fill="blue" stroke="none" stroke-width="0.2"/>
<circle cx="211" cy="88" r="0.235" fill="blue" stroke="none" stroke-width="0.2"/>
<circle cx="212" cy="93" r="0.235" fill="blue" stroke="none" stroke-width="0.2"/>
<circle cx="214" cy="97" r="0.235" fill="blue" stroke="none" stroke-width="0.2"/>
<circle cx="216" cy="102" r="0.235" fill="blue" stroke="none" stroke-width="0.2"/>
<circle cx="217" cy="108" r="0.235" fill="blue" stroke="none" stroke-width="0.2"/>
<circle cx="217" cy="114" r="0.235" fill="blue" stroke="none" stroke-width="0.2"/>
<circle cx="217" cy="120" r="0.235" fill="blue" stroke="none" stroke-width="0.2"/>
<circle cx="216" cy="126" r="0.235" fill="blue" stroke="none" stroke-width="0.2"/>
<circle cx="216" cy="132" r="0.235" fill="blue" stroke="none" stroke-width="0.2"/>
<circle cx="217" cy="139" r="0.235" fill="blue" stroke="none" stroke-width="0.2"/>
<circle cx="219" cy="145" r="0.235" fill="blue" stroke="none" stroke-width="0.2"/>
<circle cx="220" cy="150" r="0.235" fill="blue" stroke="none" stroke-width="0.2"/>
<circle cx="221" cy="155" r="0.235" fill="blue" stroke="none" stroke-width="0.2"/>
<circle cx="221" cy="161" r="0.235" fill="blue" stroke="none" stroke-width="0.2"/>
<circle cx="220" cy="166" r="0.235" fill="blue" stroke="none" stroke-width="0.2"/>

    </svg>
