
    <svg version="1.1"
        viewBox="-14.47, -0.47, 235.94, 166.94"
        xmlns="http://www.w3.org/2000/svg">

        <rect x="-14.47" y="-0.47" width="100%" height="100%" style="fill:white; stroke-width:0.1; stroke: black" />

<circle cx="0" cy="0" r="0.3525" fill="red" stroke="none" stroke-width="0.2"/>
<circle cx="-3" cy="2" r="0.235" fill="blue" stroke="none" stroke-width="0.2"/>
<circle cx="-5" cy="4" r="0.235" fill="blue" stroke="none" stroke-width="0.2"/>
<circle cx="-7" cy="5" r="0.235" fill="blue" stroke="none" stroke-width="0.2"/>
<circle cx="-8" cy="6" r="0.235" fill="blue" stroke="none" stroke-width="0.2"/>
<circle cx="-9" cy="6" r="0.235" fill="blue" stroke="none" stroke-width="0.2"/>
<circle cx="-10" cy="7" r="0.235" fill="blue" stroke="none" stroke-width="0.2"/>
<circle cx="-10" cy="7" r="0.235" fill="blue" stroke="none" stroke-width="0.2"/>
<circle cx="-11" cy="8" r="0.235" fill="blue" stroke="none" stroke-width="0.2"/>
<circle cx="-13" cy="9" r="0.235" fill="blue" stroke="none" stroke-width="0.2"/>
<circle cx="-14" cy="11" r="0.235" fill="blue" stroke="none" stroke-width="0.2"/>
<circle cx="-14" cy="14" r="0.235" fill="blue" stroke="none" stroke-width="0.2"/>
<circle cx="-14" cy="17" r="0.235" fill="blue" stroke="none" stroke-width="0.2"/>
<circle cx="-13" cy="19" r="0.235" fill="blue" stroke="none" stroke-width="0.2"/>
<circle cx="-12" cy="22" r="0.235" fill="blue" stroke="none" stroke-width="0.2"/>
<circle cx="-12" cy="25" r="0.235" fill="blue" stroke="none" stroke-width="0.2"/>
<circle cx="-11" cy="28" r="0.235" fill="blue" stroke="none" stroke-width="0.2"/>
<circle cx="-10" cy="30" r="0.235" fill="blue" stroke="none" stroke-width="0.2"/>
<circle cx="-10" cy="33" r="0.235" fill="blue" stroke="none" stroke-width="0.2"/>
<circle cx="-9" cy="37" r="0.235" fill="blue" stroke="none" stroke-width="0.2"/>
<circle cx="-7" cy="41" r="0.235" fill="blue" stroke="none" stroke-width="0.2"/>
<circle cx="-5" cy="46" r="0.235" fill="blue" stroke="none" stroke-width="0.2"/>
<circle cx="-3" cy="50" r="0.235" fill="blue" stroke="none" stroke-width="0.2"/>
<circle cx="0" cy="54" r="0.235" fill="blue" stroke="none" stroke-width="0.2"/>
<circle cx="3" cy="57" r="0.235" fill="blue" stroke="none" stroke-width="0.2"/>
<circle cx="7" cy="59" r="0.235" fill="blue" stroke="none" stroke-width="0.2"/>
<circle cx="10" cy="62" r="0.235" fill="blue" stroke="none" stroke-width="0.2"/>
<circle cx="12" cy="64" r="0.235" fill="blue" stroke="none" stroke-width="0.2"/>
<circle cx="13" cy="66" r="0.235" fill="blue" stroke="none" stroke-width="0.2"/>
<circle cx="14" cy="67" r="0.235" fill="blue" stroke="none" stroke-width="0.2"/>
<circle cx="16" cy="67" r="0.235" fill="blue" stroke="none" stroke-width="0.2"/>
<circle cx="18" cy="68" r="0.235" fill="blue" stroke="none" stroke-width="0.2"/>
<circle cx="19" cy="68" r="0.235" fill="blue" stroke="none" stroke-width="0.2"/>
<circle cx="20" cy="67" r="0.235" fill="blue" stroke="none" stroke-width="0.2"/>
<circle cx="22" cy="67" r="0.235" fill="blue" stroke="none" stroke-width="0.2"/>
<circle cx="23" cy="66" r="0.235" fill="blue" stroke="none" stroke-width="0.2"/>
<circle cx="25" cy="64" r="0.235" fill="blue" stroke="none" stroke-width="0.2"/>
<circle cx="28" cy="63" r="0.235" fill="blue" stroke="none" stroke-width="0.2"/>
<circle cx="32" cy="63" r="0.235" fill="blue" stroke="none" stroke-width="0.2"/>
<circle cx="37" cy="64" r="0.235" fill="blue" stroke="none" stroke-width="0.2"/>
<circle cx="41" cy="64" r="0.235" fill="blue" stroke="none" stroke-width="0.2"/>
<circle cx="44" cy="64" r="0.235" fill="blue" stroke="none" stroke-width="0.2"/>
<circle cx="48" cy="64" r="0.235" fill="blue" stroke="none" stroke-width="0.2"/>
<circle cx="53" cy="63" r="0.235" fill="blue" stroke="none" stroke-width="0.2"/>
<circle cx="59" cy="63" r="0.235" fill="blue" stroke="none" stroke-width="0.2"/>
<circle cx="64" cy="63" r="0.235" fill="blue" stroke="none" stroke-width="0.2"/>
<circle cx="70" cy="62" r="0.235" fill="blue" stroke="none" stroke-width="0.2"/>
<circle cx="76" cy="62" r="0.235" fill="blue" stroke="none" stroke-width="0.2"/>
<circle cx="83" cy="62" r="0.235" fill="blue" stroke="none" stroke-width="0.2"/>
<circle cx="89" cy="62" r="0.235" fill="blue" stroke="none" stroke-width="0.2"/>
<circle cx="95" cy="61" r="0.235" fill="blue" stroke="none" stroke-width="0.2"/>
<circle cx="102" cy="60" r="0.235" fill="blue" stroke="none" stroke-width="0.2"/>
<circle cx="108" cy="60" r="0.235" fill="blue" stroke="none" stroke-width="0.2"/>
<circle cx="113" cy="59" r="0.235" fill="blue" stroke="none" stroke-width="0.2"/>
<circle cx="118" cy="59" r="0.235" fill="blue" stroke="none" stroke-width="0.2"/>
<circle cx="123" cy="59" r="0.235" fill="blue" stroke="none" stroke-width="0.2"/>
<circle cx="129" cy="60" r="0.235" fill="blue" stroke="none" stroke-width="0.2"/>
<circle cx="135" cy="60" r="0.235" fill="blue" stroke="none" stroke-width="0.2"/>
<circle cx="140" cy="59" r="0.235" fill="blue" stroke="none" stroke-width="0.2"/>
<circle cx="144" cy="59" r="0.235" fill="blue" stroke="none" stroke-width="0.2"/>
<circle cx="148" cy="59" r="0.235" fill="blue" stroke="none" stroke-width="0.2"/>
<circle cx="152" cy="58" r="0.235" fill="blue" stroke="none" stroke-width="0.2"/>
<circle cx="157" cy="58" r="0.235" fill="blue" stroke="none" stroke-width="0.2"/>
<circle cx="161" cy="57" r="0.235" fill="blue" stroke="none" stroke-width="0.2"/>
<circle cx="164" cy="55" r="0.235" fill="blue" stroke="none" stroke-width="0.2"/>
<circle cx="166" cy="54" r="0.235" fill="blue" stroke="none" stroke-width="0.2"/>
<circle cx="169" cy="53" r="0.235" fill="blue" stroke="none" stroke-width="0.2"/>
<circle cx="172" cy="51" r="0.235" fill="blue" stroke="none" stroke-width="0.2"/>
<circle cx="174" cy="48" r="0.235" fill="blue" stroke="none" stroke-width="0.2"/>
<circle cx="176" cy="45" r="0.235" fill="blue" stroke="none" stroke-width="0.2"/>
<circle cx="178" cy="43" r="0.235" fill="blue" stroke="none" stroke-width="0.2"/>
<circle cx="181" cy="42" r="0.235" fill="blue" stroke="none" stroke-width="0.2"/>
<circle cx="182" cy="43" r="0.235" fill="blue" stroke="none" stroke-width="0.2"/>
<circle cx="182" cy="44" r="0.235" fill="blue" stroke="none" stroke-width="0.2"/>
<circle cx="182" cy="44" r="0.235" fill="blue" stroke="none" stroke-width="0.2"/>
<circle cx="182" cy="44" r="0.235" fill="blue" stroke="none" stroke-width="0.2"/>
<circle cx="182" cy="45" r="0.235" fill="blue" stroke="none" stroke-width="0.2"/>
<circle cx="181" cy="47" r="0.235" fill="blue" stroke="none" stroke-width="0.2"/>
<circle cx="179" cy="48" r="0.235" fill="blue" stroke="none" stroke-width="0.2"/>
<circle cx="177" cy="50" r="0.235" fill="blue" stroke="none" stroke-width="0.2"/>
<circle cx="176" cy="51" r="0.235" fill="blue" stroke="none" stroke-width="0.2"/>
<circle cx="175" cy="51" r="0.235" fill="blue" stroke="none" stroke-width="0.2"/>
<circle cx="175" cy="52" r="0.235" fill="blue" stroke="none" stroke-width="0.2"/>
<circle cx="174" cy="53" r="0.235" fill="blue" stroke="none" stroke-width="0.2"/>
<circle cx="172" cy="53" r="0.235" fill="blue" stroke="none" stroke-width="0.2"/>
<circle cx="171" cy="54" r="0.235" fill="blue" stroke="none" stroke-width="0.2"/>
<circle cx="170" cy="55" r="0.235" fill="blue" stroke="none" stroke-width="0.2"/>
<circle cx="170" cy="57" r="0.235" fill="blue" stroke="none" stroke-width="0.2"/>
<circle cx="171" cy="59" r="0.235" fill="blue" stroke="none" stroke-width="0.2"/>
<circle cx="173" cy="61" r="0.235" fill="blue" stroke="none" stroke-width="0.2"/>
<circle cx="174" cy="63" r="0.235" fill="blue" stroke="none" stroke-width="0.2"/>
<circle cx="176" cy="64" r="0.235" fill="blue" stroke="none" stroke-width="0.2"/>
<circle cx="179" cy="64" r="0.235" fill="blue" stroke="none" stroke-width="0.2"/>
<circle cx="182" cy="65" r="0.235" fill="blue" stroke="none" stroke-width="0.2"/>
<circle cx="184" cy="66" r="0.235" fill="blue" stroke="none" stroke-width="0.2"/>
<circle cx="187" cy="68" r="0.235" fill="blue" stroke="none" stroke-width="0.2"/>
<circle cx="190" cy="70" r="0.235" fill="blue" stroke="none" stroke-width="0.2"/>
<circle cx="194" cy="72" r="0.235" fill="blue" stroke="none" stroke-width="0.2"/>
<circle cx="201" cy="75" r="0.235" fill="blue" stroke="none" stroke-width="0.2"/>
<circle cx="205" cy="77" r="0.235" fill="blue" stroke="none" stroke-width="0.2"/>
<circle cx="208" cy="80" r="0.235" fill="blue" stroke="none" stroke-width="0.2"/>
<circle cx="210" cy="84" r="0.235" fill="blue" stroke="none" stroke-width="0.2"/>
<circle cx="211" cy="88" r="0.235" fill="blue" stroke="none" stroke-width="0.2"/>
<circle cx="212" cy="93" r="0.235" fill="blue" stroke="none" stroke-width="0.2"/>
<circle cx="214" cy="97" r="0.235" fill="blue" stroke="none" stroke-width="0.2"/>
<circle cx="216" cy="102" r="0.235" fill="blue" stroke="none" stroke-width="0.2"/>
<circle cx="217" cy="108" r="0.235" fill="blue" stroke="none" stroke-width="0.2"/>
<circle cx="217" cy="114" r="0.235" fill="blue" stroke="none" stroke-width="0.2"/>
<circle cx="217" cy="120" r="0.235" fill="blue" stroke="none" stroke-width="0.2"/>
<circle cx="216" cy="126" r="0.235" fill="blue" stroke="none" stroke-width="0.2"/>
<circle cx="216" cy="132" r="0.235" fill="blue" stroke="none" stroke-width="0.2"/>
<circle cx="217" cy="139" r="0.235" fill="blue" stroke="none" stroke-width="0.2"/>
<circle cx="219" cy="145" r="0.235" fill="blue" stroke="none" stroke-width="0.2"/>
<circle cx="220" cy="150" r="0.235" fill="blue" stroke="none" stroke-width="0.2"/>
<circle cx="221" cy="155" r="0.235" fill="blue" stroke="none" stroke-width="0.2"/>
<circle cx="221" cy="161" r="0.235" fill="blue" stroke="none" stroke-width="0.2"/>
<circle cx="220" cy="166" r="0.235" fill="blue" stroke="none" stroke-width="0.2"/>
<line x1="0" y1="0" x2="-1" y2="1" stroke="black" stroke-width="0.1" />
<circle cx="-1" cy="1" r="0.1175" fill="green" stroke="none" stroke-width="0.2"/>
<line x1="-1" y1="1" x2="-3" y2="2" stroke="black" stroke-width="0.1" />
<circle cx="-3" cy="2" r="0.1175" fill="green" stroke="none" stroke-width="0.2"/>
<line x1="-3" y1="2" x2="-5" y2="4" stroke="black" stroke-width="0.1" />
<circle cx="-5" cy="4" r="0.1175" fill="green" stroke="none" stroke-width="0.2"/>
<line x1="-5" y1="4" x2="-7" y2="5" stroke="black" stroke-width="0.1" />
<circle cx="-7" cy="5" r="0.1175" fill="green" stroke="none" stroke-width="0.2"/>
<line x1="-7" y1="5" x2="-8" y2="6" stroke="black" stroke-width="0.1" />
<circle cx="-8" cy="6" r="0.1175" fill="green" stroke="none" stroke-width="0.2"/>
<line x1="-8" y1="6" x2="-9" y2="6" stroke="black" stroke-width="0.1" />
<circle cx="-9" cy="6" r="0.1175" fill="green" stroke="none" stroke-width="0.2"/>
<line x1="-9" y1="6" x2="-10" y2="7" stroke="black" stroke-width="0.1" />
<circle cx="-10" cy="7" r="0.1175" fill="green" stroke="none" stroke-width="0.2"/>
<line x1="-10" y1="7" x2="-10" y2="7" stroke="black" stroke-width="0.1" />
<circle cx="-10" cy="7" r="0.1175" fill="green" stroke="none" stroke-width="0.2"/>
<line x1="-10" y1="7" x2="-11" y2="8" stroke="black" stroke-width="0.1" />
<circle cx="-11" cy="8" r="0.1175" fill="green" stroke="none" stroke-width="0.2"/>
<line x1="-11" y1="8" x2="-13" y2="9" stroke="black" stroke-width="0.1" />
<circle cx="-13" cy="9" r="0.1175" fill="green" stroke="none" stroke-width="0.2"/>
<line x1="-13" y1="9" x2="-14" y2="11" stroke="black" stroke-width="0.1" />
<circle cx="-14" cy="11" r="0.1175" fill="green" stroke="none" stroke-width="0.2"/>
<line x1="-14" y1="11" x2="-14" y2="14" stroke="black" stroke-width="0.1" />
<circle cx="-14" cy="14" r="0.1175" fill="green" stroke="none" stroke-width="0.2"/>
<line x1="-14" y1="14" x2="-14" y2="17" stroke="black" stroke-width="0.1" />
<circle cx="-14" cy="17" r="0.1175" fill="green" stroke="none" stroke-width="0.2"/>
<line x1="-14" y1="17" x2="-13" y2="19" stroke="black" stroke-width="0.1" />
<circle cx="-13" cy="19" r="0.1175" fill="green" stroke="none" stroke-width="0.2"/>
<line x1="-13" y1="19" x2="-12" y2="22" stroke="black" stroke-width="0.1" />
<circle cx="-12" cy="22" r="0.1175" fill="green" stroke="none" stroke-width="0.2"/>
<line x1="-12" y1="22" x2="-12" y2="25" stroke="black" stroke-width="0.1" />
<circle cx="-12" cy="25" r="0.1175" fill="green" stroke="none" stroke-width="0.2"/>
<line x1="-12" y1="25" x2="-11" y2="28" stroke="black" stroke-width="0.1" />
<circle cx="-11" cy="28" r="0.1175" fill="green" stroke="none" stroke-width="0.2"/>
<line x1="-11" y1="28" x2="-10" y2="30" stroke="black" stroke-width="0.1" />
<circle cx="-10" cy="30" r="0.1175" fill="green" stroke="none" stroke-width="0.2"/>
<line x1="-10" y1="30" x2="-10" y2="33" stroke="black" stroke-width="0.1" />
<circle cx="-10" cy="33" r="0.1175" fill="green" stroke="none" stroke-width="0.2"/>
<line x1="-10" y1="33" x2="-9" y2="37" stroke="black" stroke-width="0.1" />
<circle cx="-9" cy="37" r="0.1175" fill="green" stroke="none" stroke-width="0.2"/>
<line x1="-9" y1="37" x2="-7" y2="41" stroke="black" stroke-width="0.1" />
<circle cx="-7" cy="41" r="0.1175" fill="green" stroke="none" stroke-width="0.2"/>
<line x1="-7" y1="41" x2="-5" y2="46" stroke="black" stroke-width="0.1" />
<circle cx="-5" cy="46" r="0.1175" fill="green" stroke="none" stroke-width="0.2"/>
<line x1="-5" y1="46" x2="-3" y2="50" stroke="black" stroke-width="0.1" />
<circle cx="-3" cy="50" r="0.1175" fill="green" stroke="none" stroke-width="0.2"/>
<line x1="-3" y1="50" x2="0" y2="54" stroke="black" stroke-width="0.1" />
<circle cx="0" cy="54" r="0.1175" fill="green" stroke="none" stroke-width="0.2"/>
<line x1="0" y1="54" x2="3" y2="57" stroke="black" stroke-width="0.1" />
<circle cx="3" cy="57" r="0.1175" fill="green" stroke="none" stroke-width="0.2"/>
<line x1="3" y1="57" x2="7" y2="59" stroke="black" stroke-width="0.1" />
<circle cx="7" cy="59" r="0.1175" fill="green" stroke="none" stroke-width="0.2"/>
<line x1="7" y1="59" x2="10" y2="62" stroke="black" stroke-width="0.1" />
<circle cx="10" cy="62" r="0.1175" fill="green" stroke="none" stroke-width="0.2"/>
<line x1="10" y1="62" x2="12" y2="64" stroke="black" stroke-width="0.1" />
<circle cx="12" cy="64" r="0.1175" fill="green" stroke="none" stroke-width="0.2"/>
<line x1="12" y1="64" x2="13" y2="66" stroke="black" stroke-width="0.1" />
<circle cx="13" cy="66" r="0.1175" fill="green" stroke="none" stroke-width="0.2"/>
<line x1="13" y1="66" x2="14" y2="67" stroke="black" stroke-width="0.1" />
<circle cx="14" cy="67" r="0.1175" fill="green" stroke="none" stroke-width="0.2"/>
<line x1="14" y1="67" x2="16" y2="67" stroke="black" stroke-width="0.1" />
<circle cx="16" cy="67" r="0.1175" fill="green" stroke="none" stroke-width="0.2"/>
<line x1="16" y1="67" x2="18" y2="68" stroke="black" stroke-width="0.1" />
<circle cx="18" cy="68" r="0.1175" fill="green" stroke="none" stroke-width="0.2"/>
<line x1="18" y1="68" x2="19" y2="68" stroke="black" stroke-width="0.1" />
<circle cx="19" cy="68" r="0.1175" fill="green" stroke="none" stroke-width="0.2"/>
<line x1="19" y1="68" x2="20" y2="67" stroke="black" stroke-width="0.1" />
<circle cx="20" cy="67" r="0.1175" fill="green" stroke="none" stroke-width="0.2"/>
<line x1="20" y1="67" x2="22" y2="67" stroke="black" stroke-width="0.1" />
<circle cx="22" cy="67" r="0.1175" fill="green" stroke="none" stroke-width="0.2"/>
<line x1="22" y1="67" x2="23" y2="66" stroke="black" stroke-width="0.1" />
<circle cx="23" cy="66" r="0.1175" fill="green" stroke="none" stroke-width="0.2"/>
<line x1="23" y1="66" x2="25" y2="64" stroke="black" stroke-width="0.1" />
<circle cx="25" cy="64" r="0.1175" fill="green" stroke="none" stroke-width="0.2"/>
<line x1="25" y1="64" x2="28" y2="63" stroke="black" stroke-width="0.1" />
<circle cx="28" cy="63" r="0.1175" fill="green" stroke="none" stroke-width="0.2"/>
<line x1="28" y1="63" x2="32" y2="63" stroke="black" stroke-width="0.1" />
<circle cx="32" cy="63" r="0.1175" fill="green" stroke="none" stroke-width="0.2"/>
<line x1="32" y1="63" x2="37" y2="64" stroke="black" stroke-width="0.1" />
<circle cx="37" cy="64" r="0.1175" fill="green" stroke="none" stroke-width="0.2"/>
<line x1="37" y1="64" x2="41" y2="64" stroke="black" stroke-width="0.1" />
<circle cx="41" cy="64" r="0.1175" fill="green" stroke="none" stroke-width="0.2"/>
<line x1="41" y1="64" x2="44" y2="64" stroke="black" stroke-width="0.1" />
<circle cx="44" cy="64" r="0.1175" fill="green" stroke="none" stroke-width="0.2"/>
<line x1="44" y1="64" x2="48" y2="64" stroke="black" stroke-width="0.1" />
<circle cx="48" cy="64" r="0.1175" fill="green" stroke="none" stroke-width="0.2"/>
<line x1="48" y1="64" x2="53" y2="63" stroke="black" stroke-width="0.1" />
<circle cx="53" cy="63" r="0.1175" fill="green" stroke="none" stroke-width="0.2"/>
<line x1="53" y1="63" x2="59" y2="63" stroke="black" stroke-width="0.1" />
<circle cx="59" cy="63" r="0.1175" fill="green" stroke="none" stroke-width="0.2"/>
<line x1="59" y1="63" x2="64" y2="63" stroke="black" stroke-width="0.1" />
<circle cx="64" cy="63" r="0.1175" fill="green" stroke="none" stroke-width="0.2"/>
<line x1="64" y1="63" x2="70" y2="62" stroke="black" stroke-width="0.1" />
<circle cx="70" cy="62" r="0.1175" fill="green" stroke="none" stroke-width="0.2"/>
<line x1="70" y1="62" x2="76" y2="62" stroke="black" stroke-width="0.1" />
<circle cx="76" cy="62" r="0.1175" fill="green" stroke="none" stroke-width="0.2"/>
<line x1="76" y1="62" x2="83" y2="62" stroke="black" stroke-width="0.1" />
<circle cx="83" cy="62" r="0.1175" fill="green" stroke="none" stroke-width="0.2"/>
<line x1="83" y1="62" x2="89" y2="62" stroke="black" stroke-width="0.1" />
<circle cx="89" cy="62" r="0.1175" fill="green" stroke="none" stroke-width="0.2"/>
<line x1="89" y1="62" x2="95" y2="61" stroke="black" stroke-width="0.1" />
<circle cx="95" cy="61" r="0.1175" fill="green" stroke="none" stroke-width="0.2"/>
<line x1="95" y1="61" x2="102" y2="60" stroke="black" stroke-width="0.1" />
<circle cx="102" cy="60" r="0.1175" fill="green" stroke="none" stroke-width="0.2"/>
<line x1="102" y1="60" x2="108" y2="60" stroke="black" stroke-width="0.1" />
<circle cx="108" cy="60" r="0.1175" fill="green" stroke="none" stroke-width="0.2"/>
<line x1="108" y1="60" x2="113" y2="59" stroke="black" stroke-width="0.1" />
<circle cx="113" cy="59" r="0.1175" fill="green" stroke="none" stroke-width="0.2"/>
<line x1="113" y1="59" x2="118" y2="59" stroke="black" stroke-width="0.1" />
<circle cx="118" cy="59" r="0.1175" fill="green" stroke="none" stroke-width="0.2"/>
<line x1="118" y1="59" x2="123" y2="59" stroke="black" stroke-width="0.1" />
<circle cx="123" cy="59" r="0.1175" fill="green" stroke="none" stroke-width="0.2"/>
<line x1="123" y1="59" x2="129" y2="60" stroke="black" stroke-width="0.1" />
<circle cx="129" cy="60" r="0.1175" fill="green" stroke="none" stroke-width="0.2"/>
<line x1="129" y1="60" x2="135" y2="60" stroke="black" stroke-width="0.1" />
<circle cx="135" cy="60" r="0.1175" fill="green" stroke="none" stroke-width="0.2"/>
<line x1="135" y1="60" x2="140" y2="59" stroke="black" stroke-width="0.1" />
<circle cx="140" cy="59" r="0.1175" fill="green" stroke="none" stroke-width="0.2"/>
<line x1="140" y1="59" x2="144" y2="59" stroke="black" stroke-width="0.1" />
<circle cx="144" cy="59" r="0.1175" fill="green" stroke="none" stroke-width="0.2"/>
<line x1="144" y1="59" x2="148" y2="59" stroke="black" stroke-width="0.1" />
<circle cx="148" cy="59" r="0.1175" fill="green" stroke="none" stroke-width="0.2"/>
<line x1="148" y1="59" x2="152" y2="58" stroke="black" stroke-width="0.1" />
<circle cx="152" cy="58" r="0.1175" fill="green" stroke="none" stroke-width="0.2"/>
<line x1="152" y1="58" x2="157" y2="58" stroke="black" stroke-width="0.1" />
<circle cx="157" cy="58" r="0.1175" fill="green" stroke="none" stroke-width="0.2"/>
<line x1="157" y1="58" x2="161" y2="57" stroke="black" stroke-width="0.1" />
<circle cx="161" cy="57" r="0.1175" fill="green" stroke="none" stroke-width="0.2"/>
<line x1="161" y1="57" x2="164" y2="55" stroke="black" stroke-width="0.1" />
<circle cx="164" cy="55" r="0.1175" fill="green" stroke="none" stroke-width="0.2"/>
<line x1="164" y1="55" x2="166" y2="54" stroke="black" stroke-width="0.1" />
<circle cx="166" cy="54" r="0.1175" fill="green" stroke="none" stroke-width="0.2"/>
<line x1="166" y1="54" x2="169" y2="53" stroke="black" stroke-width="0.1" />
<circle cx="169" cy="53" r="0.1175" fill="green" stroke="none" stroke-width="0.2"/>
<line x1="169" y1="53" x2="171" y2="53" stroke="black" stroke-width="0.1" />
<circle cx="171" cy="53" r="0.1175" fill="green" stroke="none" stroke-width="0.2"/>
<line x1="171" y1="53" x2="172" y2="54" stroke="black" stroke-width="0.1" />
<circle cx="172" cy="54" r="0.1175" fill="green" stroke="none" stroke-width="0.2"/>
<line x1="172" y1="54" x2="172" y2="54" stroke="black" stroke-width="0.1" />
<circle cx="172" cy="54" r="0.1175" fill="green" stroke="none" stroke-width="0.2"/>
<line x1="172" y1="54" x2="171" y2="54" stroke="black" stroke-width="0.1" />
<circle cx="171" cy="54" r="0.1175" fill="green" stroke="none" stroke-width="0.2"/>
<line x1="171" y1="54" x2="171" y2="53" stroke="black" stroke-width="0.1" />
<circle cx="171" cy="53" r="0.1175" fill="green" stroke="none" stroke-width="0.2"/>
<line x1="171" y1="53" x2="172" y2="53" stroke="black" stroke-width="0.1" />
<circle cx="172" cy="53" r="0.1175" fill="green" stroke="none" stroke-width="0.2"/>
<line x1="172" y1="53" x2="172" y2="52" stroke="black" stroke-width="0.1" />
<circle cx="172" cy="52" r="0.1175" fill="green" stroke="none" stroke-width="0.2"/>
<line x1="172" y1="52" x2="172" y2="51" stroke="black" stroke-width="0.1" />
<circle cx="172" cy="51" r="0.1175" fill="green" stroke="none" stroke-width="0.2"/>
<line x1="172" y1="51" x2="173" y2="51" stroke="black" stroke-width="0.1" />
<circle cx="173" cy="51" r="0.1175" fill="green" stroke="none" stroke-width="0.2"/>
<line x1="173" y1="51" x2="174" y2="52" stroke="black" stroke-width="0.1" />
<circle cx="174" cy="52" r="0.1175" fill="green" stroke="none" stroke-width="0.2"/>
<line x1="174" y1="52" x2="174" y2="53" stroke="black" stroke-width="0.1" />
<circle cx="174" cy="53" r="0.1175" fill="green" stroke="none" stroke-width="0.2"/>
<line x1="174" y1="53" x2="175" y2="53" stroke="black" stroke-width="0.1" />
<circle cx="175" cy="53" r="0.1175" fill="green" stroke="none" stroke-width="0.2"/>
<line x1="175" y1="53" x2="175" y2="52" stroke="black" stroke-width="0.1" />
<circle cx="175" cy="52" r="0.1175" fill="green" stroke="none" stroke-width="0.2"/>
<line x1="175" y1="52" x2="175" y2="51" stroke="black" stroke-width="0.1" />
<circle cx="175" cy="51" r="0.1175" fill="green" stroke="none" stroke-width="0.2"/>
<line x1="175" y1="51" x2="176" y2="51" stroke="black" stroke-width="0.1" />
<circle cx="176" cy="51" r="0.1175" fill="green" stroke="none" stroke-width="0.2"/>
<line x1="176" y1="51" x2="177" y2="50" stroke="black" stroke-width="0.1" />
<circle cx="177" cy="50" r="0.1175" fill="green" stroke="none" stroke-width="0.2"/>
<line x1="177" y1="50" x2="179" y2="48" stroke="black" stroke-width="0.1" />
<circle cx="179" cy="48" r="0.1175" fill="green" stroke="none" stroke-width="0.2"/>
<line x1="179" y1="48" x2="181" y2="47" stroke="black" stroke-width="0.1" />
<circle cx="181" cy="47" r="0.1175" fill="green" stroke="none" stroke-width="0.2"/>
<line x1="181" y1="47" x2="182" y2="45" stroke="black" stroke-width="0.1" />
<circle cx="182" cy="45" r="0.1175" fill="green" stroke="none" stroke-width="0.2"/>
<line x1="182" y1="45" x2="182" y2="44" stroke="black" stroke-width="0.1" />
<circle cx="182" cy="44" r="0.1175" fill="green" stroke="none" stroke-width="0.2"/>
<line x1="182" y1="44" x2="182" y2="44" stroke="black" stroke-width="0.1" />
<circle cx="182" cy="44" r="0.1175" fill="green" stroke="none" stroke-width="0.2"/>
<line x1="182" y1="44" x2="182" y2="44" stroke="black" stroke-width="0.1" />
<circle cx="182" cy="44" r="0.1175" fill="green" stroke="none" stroke-width="0.2"/>
<line x1="182" y1="44" x2="182" y2="43" stroke="black" stroke-width="0.1" />
<circle cx="182" cy="43" r="0.1175" fill="green" stroke="none" stroke-width="0.2"/>
<line x1="182" y1="43" x2="181" y2="42" stroke="black" stroke-width="0.1" />
<circle cx="181" cy="42" r="0.1175" fill="green" stroke="none" stroke-width="0.2"/>
<line x1="181" y1="42" x2="179" y2="42" stroke="black" stroke-width="0.1" />
<circle cx="179" cy="42" r="0.1175" fill="green" stroke="none" stroke-width="0.2"/>
<line x1="179" y1="42" x2="178" y2="43" stroke="black" stroke-width="0.1" />
<circle cx="178" cy="43" r="0.1175" fill="green" stroke="none" stroke-width="0.2"/>
<line x1="178" y1="43" x2="176" y2="45" stroke="black" stroke-width="0.1" />
<circle cx="176" cy="45" r="0.1175" fill="green" stroke="none" stroke-width="0.2"/>
<line x1="176" y1="45" x2="174" y2="48" stroke="black" stroke-width="0.1" />
<circle cx="174" cy="48" r="0.1175" fill="green" stroke="none" stroke-width="0.2"/>
<line x1="174" y1="48" x2="172" y2="51" stroke="black" stroke-width="0.1" />
<circle cx="172" cy="51" r="0.1175" fill="green" stroke="none" stroke-width="0.2"/>
<line x1="172" y1="51" x2="170" y2="55" stroke="black" stroke-width="0.1" />
<circle cx="170" cy="55" r="0.1175" fill="green" stroke="none" stroke-width="0.2"/>
<line x1="170" y1="55" x2="169" y2="58" stroke="black" stroke-width="0.1" />
<circle cx="169" cy="58" r="0.1175" fill="green" stroke="none" stroke-width="0.2"/>
<line x1="169" y1="58" x2="169" y2="60" stroke="black" stroke-width="0.1" />
<circle cx="169" cy="60" r="0.1175" fill="green" stroke="none" stroke-width="0.2"/>
<line x1="169" y1="60" x2="170" y2="61" stroke="black" stroke-width="0.1" />
<circle cx="170" cy="61" r="0.1175" fill="green" stroke="none" stroke-width="0.2"/>
<line x1="170" y1="61" x2="170" y2="61" stroke="black" stroke-width="0.1" />
<circle cx="170" cy="61" r="0.1175" fill="green" stroke="none" stroke-width="0.2"/>
<line x1="170" y1="61" x2="170" y2="60" stroke="black" stroke-width="0.1" />
<circle cx="170" cy="60" r="0.1175" fill="green" stroke="none" stroke-width="0.2"/>
<line x1="170" y1="60" x2="170" y2="58" stroke="black" stroke-width="0.1" />
<circle cx="170" cy="58" r="0.1175" fill="green" stroke="none" stroke-width="0.2"/>
<line x1="170" y1="58" x2="170" y2="57" stroke="black" stroke-width="0.1" />
<circle cx="170" cy="57" r="0.1175" fill="green" stroke="none" stroke-width="0.2"/>
<line x1="170" y1="57" x2="171" y2="57" stroke="black" stroke-width="0.1" />
<circle cx="171" cy="57" r="0.1175" fill="green" stroke="none" stroke-width="0.2"/>
<line x1="171" y1="57" x2="171" y2="58" stroke="black" stroke-width="0.1" />
<circle cx="171" cy="58" r="0.1175" fill="green" stroke="none" stroke-width="0.2"/>
<line x1="171" y1="58" x2="171" y2="59" stroke="black" stroke-width="0.1" />
<circle cx="171" cy="59" r="0.1175" fill="green" stroke="none" stroke-width="0.2"/>
<line x1="171" y1="59" x2="172" y2="60" stroke="black" stroke-width="0.1" />
<circle cx="172" cy="60" r="0.1175" fill="green" stroke="none" stroke-width="0.2"/>
<line x1="172" y1="60" x2="173" y2="61" stroke="black" stroke-width="0.1" />
<circle cx="173" cy="61" r="0.1175" fill="green" stroke="none" stroke-width="0.2"/>
<line x1="173" y1="61" x2="174" y2="63" stroke="black" stroke-width="0.1" />
<circle cx="174" cy="63" r="0.1175" fill="green" stroke="none" stroke-width="0.2"/>
<line x1="174" y1="63" x2="176" y2="64" stroke="black" stroke-width="0.1" />
<circle cx="176" cy="64" r="0.1175" fill="green" stroke="none" stroke-width="0.2"/>
<line x1="176" y1="64" x2="179" y2="64" stroke="black" stroke-width="0.1" />
<circle cx="179" cy="64" r="0.1175" fill="green" stroke="none" stroke-width="0.2"/>
<line x1="179" y1="64" x2="182" y2="65" stroke="black" stroke-width="0.1" />
<circle cx="182" cy="65" r="0.1175" fill="green" stroke="none" stroke-width="0.2"/>
<line x1="182" y1="65" x2="184" y2="66" stroke="black" stroke-width="0.1" />
<circle cx="184" cy="66" r="0.1175" fill="green" stroke="none" stroke-width="0.2"/>
<line x1="184" y1="66" x2="187" y2="68" stroke="black" stroke-width="0.1" />
<circle cx="187" cy="68" r="0.1175" fill="green" stroke="none" stroke-width="0.2"/>
<line x1="187" y1="68" x2="190" y2="70" stroke="black" stroke-width="0.1" />
<circle cx="190" cy="70" r="0.1175" fill="green" stroke="none" stroke-width="0.2"/>
<line x1="190" y1="70" x2="194" y2="72" stroke="black" stroke-width="0.1" />
<circle cx="194" cy="72" r="0.1175" fill="green" stroke="none" stroke-width="0.2"/>
<line x1="194" y1="72" x2="197" y2="73" stroke="black" stroke-width="0.1" />
<circle cx="197" cy="73" r="0.1175" fill="green" stroke="none" stroke-width="0.2"/>
<line x1="197" y1="73" x2="201" y2="75" stroke="black" stroke-width="0.1" />
<circle cx="201" cy="75" r="0.1175" fill="green" stroke="none" stroke-width="0.2"/>
<line x1="201" y1="75" x2="205" y2="77" stroke="black" stroke-width="0.1" />
<circle cx="205" cy="77" r="0.1175" fill="green" stroke="none" stroke-width="0.2"/>
<line x1="205" y1="77" x2="208" y2="80" stroke="black" stroke-width="0.1" />
<circle cx="208" cy="80" r="0.1175" fill="green" stroke="none" stroke-width="0.2"/>
<line x1="208" y1="80" x2="210" y2="84" stroke="black" stroke-width="0.1" />
<circle cx="210" cy="84" r="0.1175" fill="green" stroke="none" stroke-width="0.2"/>
<line x1="210" y1="84" x2="211" y2="88" stroke="black" stroke-width="0.1" />
<circle cx="211" cy="88" r="0.1175" fill="green" stroke="none" stroke-width="0.2"/>
<line x1="211" y1="88" x2="212" y2="93" stroke="black" stroke-width="0.1" />
<circle cx="212" cy="93" r="0.1175" fill="green" stroke="none" stroke-width="0.2"/>
<line x1="212" y1="93" x2="214" y2="97" stroke="black" stroke-width="0.1" />
<circle cx="214" cy="97" r="0.1175" fill="green" stroke="none" stroke-width="0.2"/>
<line x1="214" y1="97" x2="216" y2="102" stroke="black" stroke-width="0.1" />
<circle cx="216" cy="102" r="0.1175" fill="green" stroke="none" stroke-width="0.2"/>
<line x1="216" y1="102" x2="217" y2="108" stroke="black" stroke-width="0.1" />
<circle cx="217" cy="108" r="0.1175" fill="green" stroke="none" stroke-width="0.2"/>
<line x1="217" y1="108" x2="217" y2="114" stroke="black" stroke-width="0.1" />
<circle cx="217" cy="114" r="0.1175" fill="green" stroke="none" stroke-width="0.2"/>
<line x1="217" y1="114" x2="217" y2="120" stroke="black" stroke-width="0.1" />
<circle cx="217" cy="120" r="0.1175" fill="green" stroke="none" stroke-width="0.2"/>
<line x1="217" y1="120" x2="216" y2="126" stroke="black" stroke-width="0.1" />
<circle cx="216" cy="126" r="0.1175" fill="green" stroke="none" stroke-width="0.2"/>
<line x1="216" y1="126" x2="216" y2="132" stroke="black" stroke-width="0.1" />
<circle cx="216" cy="132" r="0.1175" fill="green" stroke="none" stroke-width="0.2"/>
<line x1="216" y1="132" x2="217" y2="139" stroke="black" stroke-width="0.1" />
<circle cx="217" cy="139" r="0.1175" fill="green" stroke="none" stroke-width="0.2"/>
<line x1="217" y1="139" x2="219" y2="145" stroke="black" stroke-width="0.1" />
<circle cx="219" cy="145" r="0.1175" fill="green" stroke="none" stroke-width="0.2"/>
<line x1="219" y1="145" x2="220" y2="150" stroke="black" stroke-width="0.1" />
<circle cx="220" cy="150" r="0.1175" fill="green" stroke="none" stroke-width="0.2"/>
<line x1="220" y1="150" x2="221" y2="155" stroke="black" stroke-width="0.1" />
<circle cx="221" cy="155" r="0.1175" fill="green" stroke="none" stroke-width="0.2"/>
<line x1="221" y1="155" x2="221" y2="161" stroke="black" stroke-width="0.1" />
<circle cx="221" cy="161" r="0.1175" fill="green" stroke="none" stroke-width="0.2"/>
<line x1="221" y1="161" x2="220" y2="166" stroke="black" stroke-width="0.1" />
<circle cx="220" cy="166" r="0.1175" fill="green" stroke="none" stroke-width="0.2"/>

    </svg>
