
    <svg version="1.1"
        viewBox="-168.76, -0.76, 185.52, 381.52"
        xmlns="http://www.w3.org/2000/svg">

        <rect x="-168.76" y="-0.76" width="100%" height="100%" style="fill:white; stroke-width:0.1; stroke: black" />

<circle cx="0" cy="0" r="0.5700000000000001" fill="red" stroke="none" stroke-width="0.2"/>
<circle cx="-9" cy="53" r="0.38" fill="blue" stroke="none" stroke-width="0.2"/>
<circle cx="-25" cy="84" r="0.38" fill="blue" stroke="none" stroke-width="0.2"/>
<circle cx="-1" cy="42" r="0.38" fill="blue" stroke="none" stroke-width="0.2"/>
<circle cx="-11" cy="218" r="0.38" fill="blue" stroke="none" stroke-width="0.2"/>
<circle cx="1" cy="38" r="0.38" fill="blue" stroke="none" stroke-width="0.2"/>
<circle cx="-23" cy="236" r="0.38" fill="blue" stroke="none" stroke-width="0.2"/>
<circle cx="-19" cy="69" r="0.38" fill="blue" stroke="none" stroke-width="0.2"/>
<circle cx="-132" cy="366" r="0.38" fill="blue" stroke="none" stroke-width="0.2"/>
<circle cx="8" cy="20" r="0.38" fill="blue" stroke="none" stroke-width="0.2"/>
<circle cx="-15" cy="193" r="0.38" fill="blue" stroke="none" stroke-width="0.2"/>
<circle cx="-29" cy="133" r="0.38" fill="blue" stroke="none" stroke-width="0.2"/>
<circle cx="-121" cy="350" r="0.38" fill="blue" stroke="none" stroke-width="0.2"/>
<circle cx="-35" cy="246" r="0.38" fill="blue" stroke="none" stroke-width="0.2"/>
<circle cx="-92" cy="287" r="0.38" fill="blue" stroke="none" stroke-width="0.2"/>
<circle cx="16" cy="10" r="0.38" fill="blue" stroke="none" stroke-width="0.2"/>
<circle cx="-83" cy="272" r="0.38" fill="blue" stroke="none" stroke-width="0.2"/>
<circle cx="-119" cy="344" r="0.38" fill="blue" stroke="none" stroke-width="0.2"/>
<circle cx="13" cy="14" r="0.38" fill="blue" stroke="none" stroke-width="0.2"/>
<circle cx="-17" cy="189" r="0.38" fill="blue" stroke="none" stroke-width="0.2"/>
<circle cx="-28" cy="106" r="0.38" fill="blue" stroke="none" stroke-width="0.2"/>
<circle cx="4" cy="3" r="0.38" fill="blue" stroke="none" stroke-width="0.2"/>
<circle cx="-27" cy="101" r="0.38" fill="blue" stroke="none" stroke-width="0.2"/>
<circle cx="-105" cy="318" r="0.38" fill="blue" stroke="none" stroke-width="0.2"/>
<circle cx="-11" cy="222" r="0.38" fill="blue" stroke="none" stroke-width="0.2"/>
<circle cx="-31" cy="244" r="0.38" fill="blue" stroke="none" stroke-width="0.2"/>
<circle cx="-20" cy="79" r="0.38" fill="blue" stroke="none" stroke-width="0.2"/>
<circle cx="-152" cy="368" r="0.38" fill="blue" stroke="none" stroke-width="0.2"/>
<circle cx="-24" cy="82" r="0.38" fill="blue" stroke="none" stroke-width="0.2"/>
<circle cx="15" cy="8" r="0.38" fill="blue" stroke="none" stroke-width="0.2"/>
<circle cx="-162" cy="371" r="0.38" fill="blue" stroke="none" stroke-width="0.2"/>
<circle cx="7" cy="4" r="0.38" fill="blue" stroke="none" stroke-width="0.2"/>
<circle cx="-114" cy="333" r="0.38" fill="blue" stroke="none" stroke-width="0.2"/>
<circle cx="13" cy="6" r="0.38" fill="blue" stroke="none" stroke-width="0.2"/>
<circle cx="-20" cy="66" r="0.38" fill="blue" stroke="none" stroke-width="0.2"/>
<circle cx="9" cy="18" r="0.38" fill="blue" stroke="none" stroke-width="0.2"/>
<circle cx="-141" cy="369" r="0.38" fill="blue" stroke="none" stroke-width="0.2"/>
<circle cx="-28" cy="118" r="0.38" fill="blue" stroke="none" stroke-width="0.2"/>
<circle cx="-28" cy="128" r="0.38" fill="blue" stroke="none" stroke-width="0.2"/>
<circle cx="10" cy="4" r="0.38" fill="blue" stroke="none" stroke-width="0.2"/>
<circle cx="-26" cy="91" r="0.38" fill="blue" stroke="none" stroke-width="0.2"/>
<circle cx="-20" cy="60" r="0.38" fill="blue" stroke="none" stroke-width="0.2"/>
<circle cx="-67" cy="258" r="0.38" fill="blue" stroke="none" stroke-width="0.2"/>
<circle cx="-24" cy="171" r="0.38" fill="blue" stroke="none" stroke-width="0.2"/>
<circle cx="-28" cy="242" r="0.38" fill="blue" stroke="none" stroke-width="0.2"/>
<circle cx="-167" cy="376" r="0.38" fill="blue" stroke="none" stroke-width="0.2"/>
<circle cx="-20" cy="234" r="0.38" fill="blue" stroke="none" stroke-width="0.2"/>
<circle cx="-11" cy="207" r="0.38" fill="blue" stroke="none" stroke-width="0.2"/>
<circle cx="-168" cy="378" r="0.38" fill="blue" stroke="none" stroke-width="0.2"/>
<circle cx="-117" cy="339" r="0.38" fill="blue" stroke="none" stroke-width="0.2"/>
<circle cx="-155" cy="368" r="0.38" fill="blue" stroke="none" stroke-width="0.2"/>
<circle cx="-17" cy="231" r="0.38" fill="blue" stroke="none" stroke-width="0.2"/>
<circle cx="-165" cy="374" r="0.38" fill="blue" stroke="none" stroke-width="0.2"/>
<circle cx="-12" cy="202" r="0.38" fill="blue" stroke="none" stroke-width="0.2"/>
<circle cx="-51" cy="251" r="0.38" fill="blue" stroke="none" stroke-width="0.2"/>
<circle cx="-17" cy="55" r="0.38" fill="blue" stroke="none" stroke-width="0.2"/>
<circle cx="-4" cy="48" r="0.38" fill="blue" stroke="none" stroke-width="0.2"/>
<circle cx="-168" cy="380" r="0.38" fill="blue" stroke="none" stroke-width="0.2"/>
<circle cx="-25" cy="238" r="0.38" fill="blue" stroke="none" stroke-width="0.2"/>
<circle cx="-19" cy="57" r="0.38" fill="blue" stroke="none" stroke-width="0.2"/>
<circle cx="-20" cy="63" r="0.38" fill="blue" stroke="none" stroke-width="0.2"/>
<circle cx="-25" cy="163" r="0.38" fill="blue" stroke="none" stroke-width="0.2"/>
<circle cx="-13" cy="197" r="0.38" fill="blue" stroke="none" stroke-width="0.2"/>
<circle cx="15" cy="12" r="0.38" fill="blue" stroke="none" stroke-width="0.2"/>
<circle cx="-18" cy="71" r="0.38" fill="blue" stroke="none" stroke-width="0.2"/>
<circle cx="-62" cy="255" r="0.38" fill="blue" stroke="none" stroke-width="0.2"/>
<circle cx="11" cy="15" r="0.38" fill="blue" stroke="none" stroke-width="0.2"/>
<circle cx="5" cy="27" r="0.38" fill="blue" stroke="none" stroke-width="0.2"/>
<circle cx="-19" cy="76" r="0.38" fill="blue" stroke="none" stroke-width="0.2"/>
<circle cx="-26" cy="240" r="0.38" fill="blue" stroke="none" stroke-width="0.2"/>
<circle cx="-6" cy="50" r="0.38" fill="blue" stroke="none" stroke-width="0.2"/>
<circle cx="16" cy="9" r="0.38" fill="blue" stroke="none" stroke-width="0.2"/>
<circle cx="-157" cy="368" r="0.38" fill="blue" stroke="none" stroke-width="0.2"/>
<circle cx="-110" cy="326" r="0.38" fill="blue" stroke="none" stroke-width="0.2"/>
<circle cx="12" cy="5" r="0.38" fill="blue" stroke="none" stroke-width="0.2"/>
<circle cx="-97" cy="301" r="0.38" fill="blue" stroke="none" stroke-width="0.2"/>
<circle cx="7" cy="23" r="0.38" fill="blue" stroke="none" stroke-width="0.2"/>
<circle cx="-19" cy="184" r="0.38" fill="blue" stroke="none" stroke-width="0.2"/>
<circle cx="-56" cy="253" r="0.38" fill="blue" stroke="none" stroke-width="0.2"/>
<circle cx="-45" cy="249" r="0.38" fill="blue" stroke="none" stroke-width="0.2"/>
<circle cx="-11" cy="225" r="0.38" fill="blue" stroke="none" stroke-width="0.2"/>
<circle cx="-22" cy="81" r="0.38" fill="blue" stroke="none" stroke-width="0.2"/>
<circle cx="-40" cy="248" r="0.38" fill="blue" stroke="none" stroke-width="0.2"/>
<circle cx="-145" cy="369" r="0.38" fill="blue" stroke="none" stroke-width="0.2"/>
<circle cx="-76" cy="265" r="0.38" fill="blue" stroke="none" stroke-width="0.2"/>
<circle cx="4" cy="31" r="0.38" fill="blue" stroke="none" stroke-width="0.2"/>

    </svg>
