
    <svg version="1.1"
        viewBox="-168.76, -0.76, 185.52, 381.52"
        xmlns="http://www.w3.org/2000/svg">

        <rect x="-168.76" y="-0.76" width="100%" height="100%" style="fill:white; stroke-width:0.1; stroke: black" />

<circle cx="0" cy="0" r="0.5700000000000001" fill="red" stroke="none" stroke-width="0.2"/>
<circle cx="-9" cy="53" r="0.38" fill="blue" stroke="none" stroke-width="0.2"/>
<circle cx="-25" cy="84" r="0.38" fill="blue" stroke="none" stroke-width="0.2"/>
<circle cx="-1" cy="42" r="0.38" fill="blue" stroke="none" stroke-width="0.2"/>
<circle cx="-11" cy="218" r="0.38" fill="blue" stroke="none" stroke-width="0.2"/>
<circle cx="1" cy="38" r="0.38" fill="blue" stroke="none" stroke-width="0.2"/>
<circle cx="-23" cy="236" r="0.38" fill="blue" stroke="none" stroke-width="0.2"/>
<circle cx="-19" cy="69" r="0.38" fill="blue" stroke="none" stroke-width="0.2"/>
<circle cx="-132" cy="366" r="0.38" fill="blue" stroke="none" stroke-width="0.2"/>
<circle cx="8" cy="20" r="0.38" fill="blue" stroke="none" stroke-width="0.2"/>
<circle cx="-15" cy="193" r="0.38" fill="blue" stroke="none" stroke-width="0.2"/>
<circle cx="-29" cy="133" r="0.38" fill="blue" stroke="none" stroke-width="0.2"/>
<circle cx="-121" cy="350" r="0.38" fill="blue" stroke="none" stroke-width="0.2"/>
<circle cx="-35" cy="246" r="0.38" fill="blue" stroke="none" stroke-width="0.2"/>
<circle cx="-92" cy="287" r="0.38" fill="blue" stroke="none" stroke-width="0.2"/>
<circle cx="16" cy="10" r="0.38" fill="blue" stroke="none" stroke-width="0.2"/>
<circle cx="-83" cy="272" r="0.38" fill="blue" stroke="none" stroke-width="0.2"/>
<circle cx="-119" cy="344" r="0.38" fill="blue" stroke="none" stroke-width="0.2"/>
<circle cx="13" cy="14" r="0.38" fill="blue" stroke="none" stroke-width="0.2"/>
<circle cx="-17" cy="189" r="0.38" fill="blue" stroke="none" stroke-width="0.2"/>
<circle cx="-28" cy="106" r="0.38" fill="blue" stroke="none" stroke-width="0.2"/>
<circle cx="4" cy="3" r="0.38" fill="blue" stroke="none" stroke-width="0.2"/>
<circle cx="-27" cy="101" r="0.38" fill="blue" stroke="none" stroke-width="0.2"/>
<circle cx="-105" cy="318" r="0.38" fill="blue" stroke="none" stroke-width="0.2"/>
<circle cx="-11" cy="222" r="0.38" fill="blue" stroke="none" stroke-width="0.2"/>
<circle cx="-31" cy="244" r="0.38" fill="blue" stroke="none" stroke-width="0.2"/>
<circle cx="-20" cy="79" r="0.38" fill="blue" stroke="none" stroke-width="0.2"/>
<circle cx="-152" cy="368" r="0.38" fill="blue" stroke="none" stroke-width="0.2"/>
<circle cx="-24" cy="82" r="0.38" fill="blue" stroke="none" stroke-width="0.2"/>
<circle cx="15" cy="8" r="0.38" fill="blue" stroke="none" stroke-width="0.2"/>
<circle cx="-162" cy="371" r="0.38" fill="blue" stroke="none" stroke-width="0.2"/>
<circle cx="7" cy="4" r="0.38" fill="blue" stroke="none" stroke-width="0.2"/>
<circle cx="-114" cy="333" r="0.38" fill="blue" stroke="none" stroke-width="0.2"/>
<circle cx="13" cy="6" r="0.38" fill="blue" stroke="none" stroke-width="0.2"/>
<circle cx="-20" cy="66" r="0.38" fill="blue" stroke="none" stroke-width="0.2"/>
<circle cx="9" cy="18" r="0.38" fill="blue" stroke="none" stroke-width="0.2"/>
<circle cx="-141" cy="369" r="0.38" fill="blue" stroke="none" stroke-width="0.2"/>
<circle cx="-28" cy="118" r="0.38" fill="blue" stroke="none" stroke-width="0.2"/>
<circle cx="-28" cy="128" r="0.38" fill="blue" stroke="none" stroke-width="0.2"/>
<circle cx="10" cy="4" r="0.38" fill="blue" stroke="none" stroke-width="0.2"/>
<circle cx="-26" cy="91" r="0.38" fill="blue" stroke="none" stroke-width="0.2"/>
<circle cx="-20" cy="60" r="0.38" fill="blue" stroke="none" stroke-width="0.2"/>
<circle cx="-67" cy="258" r="0.38" fill="blue" stroke="none" stroke-width="0.2"/>
<circle cx="-24" cy="171" r="0.38" fill="blue" stroke="none" stroke-width="0.2"/>
<circle cx="-28" cy="242" r="0.38" fill="blue" stroke="none" stroke-width="0.2"/>
<circle cx="-167" cy="376" r="0.38" fill="blue" stroke="none" stroke-width="0.2"/>
<circle cx="-20" cy="234" r="0.38" fill="blue" stroke="none" stroke-width="0.2"/>
<circle cx="-11" cy="207" r="0.38" fill="blue" stroke="none" stroke-width="0.2"/>
<circle cx="-168" cy="378" r="0.38" fill="blue" stroke="none" stroke-width="0.2"/>
<circle cx="-117" cy="339" r="0.38" fill="blue" stroke="none" stroke-width="0.2"/>
<circle cx="-155" cy="368" r="0.38" fill="blue" stroke="none" stroke-width="0.2"/>
<circle cx="-17" cy="231" r="0.38" fill="blue" stroke="none" stroke-width="0.2"/>
<circle cx="-165" cy="374" r="0.38" fill="blue" stroke="none" stroke-width="0.2"/>
<circle cx="-12" cy="202" r="0.38" fill="blue" stroke="none" stroke-width="0.2"/>
<circle cx="-51" cy="251" r="0.38" fill="blue" stroke="none" stroke-width="0.2"/>
<circle cx="-17" cy="55" r="0.38" fill="blue" stroke="none" stroke-width="0.2"/>
<circle cx="-4" cy="48" r="0.38" fill="blue" stroke="none" stroke-width="0.2"/>
<circle cx="-168" cy="380" r="0.38" fill="blue" stroke="none" stroke-width="0.2"/>
<circle cx="-25" cy="238" r="0.38" fill="blue" stroke="none" stroke-width="0.2"/>
<circle cx="-19" cy="57" r="0.38" fill="blue" stroke="none" stroke-width="0.2"/>
<circle cx="-20" cy="63" r="0.38" fill="blue" stroke="none" stroke-width="0.2"/>
<circle cx="-25" cy="163" r="0.38" fill="blue" stroke="none" stroke-width="0.2"/>
<circle cx="-13" cy="197" r="0.38" fill="blue" stroke="none" stroke-width="0.2"/>
<circle cx="15" cy="12" r="0.38" fill="blue" stroke="none" stroke-width="0.2"/>
<circle cx="-18" cy="71" r="0.38" fill="blue" stroke="none" stroke-width="0.2"/>
<circle cx="-62" cy="255" r="0.38" fill="blue" stroke="none" stroke-width="0.2"/>
<circle cx="11" cy="15" r="0.38" fill="blue" stroke="none" stroke-width="0.2"/>
<circle cx="5" cy="27" r="0.38" fill="blue" stroke="none" stroke-width="0.2"/>
<circle cx="-19" cy="76" r="0.38" fill="blue" stroke="none" stroke-width="0.2"/>
<circle cx="-26" cy="240" r="0.38" fill="blue" stroke="none" stroke-width="0.2"/>
<circle cx="-6" cy="50" r="0.38" fill="blue" stroke="none" stroke-width="0.2"/>
<circle cx="16" cy="9" r="0.38" fill="blue" stroke="none" stroke-width="0.2"/>
<circle cx="-157" cy="368" r="0.38" fill="blue" stroke="none" stroke-width="0.2"/>
<circle cx="-110" cy="326" r="0.38" fill="blue" stroke="none" stroke-width="0.2"/>
<circle cx="12" cy="5" r="0.38" fill="blue" stroke="none" stroke-width="0.2"/>
<circle cx="-97" cy="301" r="0.38" fill="blue" stroke="none" stroke-width="0.2"/>
<circle cx="7" cy="23" r="0.38" fill="blue" stroke="none" stroke-width="0.2"/>
<circle cx="-19" cy="184" r="0.38" fill="blue" stroke="none" stroke-width="0.2"/>
<circle cx="-56" cy="253" r="0.38" fill="blue" stroke="none" stroke-width="0.2"/>
<circle cx="-45" cy="249" r="0.38" fill="blue" stroke="none" stroke-width="0.2"/>
<circle cx="-11" cy="225" r="0.38" fill="blue" stroke="none" stroke-width="0.2"/>
<circle cx="-22" cy="81" r="0.38" fill="blue" stroke="none" stroke-width="0.2"/>
<circle cx="-40" cy="248" r="0.38" fill="blue" stroke="none" stroke-width="0.2"/>
<circle cx="-145" cy="369" r="0.38" fill="blue" stroke="none" stroke-width="0.2"/>
<circle cx="-76" cy="265" r="0.38" fill="blue" stroke="none" stroke-width="0.2"/>
<circle cx="4" cy="31" r="0.38" fill="blue" stroke="none" stroke-width="0.2"/>
<line x1="0" y1="0" x2="1" y2="0" stroke="black" stroke-width="0.1" />
<circle cx="1" cy="0" r="0.19" fill="green" stroke="none" stroke-width="0.2"/>
<line x1="1" y1="0" x2="2" y2="1" stroke="black" stroke-width="0.1" />
<circle cx="2" cy="1" r="0.19" fill="green" stroke="none" stroke-width="0.2"/>
<line x1="2" y1="1" x2="4" y2="3" stroke="black" stroke-width="0.1" />
<circle cx="4" cy="3" r="0.19" fill="green" stroke="none" stroke-width="0.2"/>
<line x1="4" y1="3" x2="7" y2="4" stroke="black" stroke-width="0.1" />
<circle cx="7" cy="4" r="0.19" fill="green" stroke="none" stroke-width="0.2"/>
<line x1="7" y1="4" x2="10" y2="4" stroke="black" stroke-width="0.1" />
<circle cx="10" cy="4" r="0.19" fill="green" stroke="none" stroke-width="0.2"/>
<line x1="10" y1="4" x2="12" y2="5" stroke="black" stroke-width="0.1" />
<circle cx="12" cy="5" r="0.19" fill="green" stroke="none" stroke-width="0.2"/>
<line x1="12" y1="5" x2="13" y2="6" stroke="black" stroke-width="0.1" />
<circle cx="13" cy="6" r="0.19" fill="green" stroke="none" stroke-width="0.2"/>
<line x1="13" y1="6" x2="15" y2="8" stroke="black" stroke-width="0.1" />
<circle cx="15" cy="8" r="0.19" fill="green" stroke="none" stroke-width="0.2"/>
<line x1="15" y1="8" x2="16" y2="9" stroke="black" stroke-width="0.1" />
<circle cx="16" cy="9" r="0.19" fill="green" stroke="none" stroke-width="0.2"/>
<line x1="16" y1="9" x2="16" y2="10" stroke="black" stroke-width="0.1" />
<circle cx="16" cy="10" r="0.19" fill="green" stroke="none" stroke-width="0.2"/>
<line x1="16" y1="10" x2="15" y2="12" stroke="black" stroke-width="0.1" />
<circle cx="15" cy="12" r="0.19" fill="green" stroke="none" stroke-width="0.2"/>
<line x1="15" y1="12" x2="13" y2="14" stroke="black" stroke-width="0.1" />
<circle cx="13" cy="14" r="0.19" fill="green" stroke="none" stroke-width="0.2"/>
<line x1="13" y1="14" x2="11" y2="15" stroke="black" stroke-width="0.1" />
<circle cx="11" cy="15" r="0.19" fill="green" stroke="none" stroke-width="0.2"/>
<line x1="11" y1="15" x2="10" y2="16" stroke="black" stroke-width="0.1" />
<circle cx="10" cy="16" r="0.19" fill="green" stroke="none" stroke-width="0.2"/>
<line x1="10" y1="16" x2="9" y2="18" stroke="black" stroke-width="0.1" />
<circle cx="9" cy="18" r="0.19" fill="green" stroke="none" stroke-width="0.2"/>
<line x1="9" y1="18" x2="8" y2="20" stroke="black" stroke-width="0.1" />
<circle cx="8" cy="20" r="0.19" fill="green" stroke="none" stroke-width="0.2"/>
<line x1="8" y1="20" x2="7" y2="23" stroke="black" stroke-width="0.1" />
<circle cx="7" cy="23" r="0.19" fill="green" stroke="none" stroke-width="0.2"/>
<line x1="7" y1="23" x2="5" y2="27" stroke="black" stroke-width="0.1" />
<circle cx="5" cy="27" r="0.19" fill="green" stroke="none" stroke-width="0.2"/>
<line x1="5" y1="27" x2="4" y2="31" stroke="black" stroke-width="0.1" />
<circle cx="4" cy="31" r="0.19" fill="green" stroke="none" stroke-width="0.2"/>
<line x1="4" y1="31" x2="2" y2="34" stroke="black" stroke-width="0.1" />
<circle cx="2" cy="34" r="0.19" fill="green" stroke="none" stroke-width="0.2"/>
<line x1="2" y1="34" x2="1" y2="38" stroke="black" stroke-width="0.1" />
<circle cx="1" cy="38" r="0.19" fill="green" stroke="none" stroke-width="0.2"/>
<line x1="1" y1="38" x2="-1" y2="42" stroke="black" stroke-width="0.1" />
<circle cx="-1" cy="42" r="0.19" fill="green" stroke="none" stroke-width="0.2"/>
<line x1="-1" y1="42" x2="-3" y2="45" stroke="black" stroke-width="0.1" />
<circle cx="-3" cy="45" r="0.19" fill="green" stroke="none" stroke-width="0.2"/>
<line x1="-3" y1="45" x2="-4" y2="48" stroke="black" stroke-width="0.1" />
<circle cx="-4" cy="48" r="0.19" fill="green" stroke="none" stroke-width="0.2"/>
<line x1="-4" y1="48" x2="-6" y2="50" stroke="black" stroke-width="0.1" />
<circle cx="-6" cy="50" r="0.19" fill="green" stroke="none" stroke-width="0.2"/>
<line x1="-6" y1="50" x2="-9" y2="53" stroke="black" stroke-width="0.1" />
<circle cx="-9" cy="53" r="0.19" fill="green" stroke="none" stroke-width="0.2"/>
<line x1="-9" y1="53" x2="-12" y2="55" stroke="black" stroke-width="0.1" />
<circle cx="-12" cy="55" r="0.19" fill="green" stroke="none" stroke-width="0.2"/>
<line x1="-12" y1="55" x2="-14" y2="56" stroke="black" stroke-width="0.1" />
<circle cx="-14" cy="56" r="0.19" fill="green" stroke="none" stroke-width="0.2"/>
<line x1="-14" y1="56" x2="-16" y2="56" stroke="black" stroke-width="0.1" />
<circle cx="-16" cy="56" r="0.19" fill="green" stroke="none" stroke-width="0.2"/>
<line x1="-16" y1="56" x2="-17" y2="55" stroke="black" stroke-width="0.1" />
<circle cx="-17" cy="55" r="0.19" fill="green" stroke="none" stroke-width="0.2"/>
<line x1="-17" y1="55" x2="-18" y2="55" stroke="black" stroke-width="0.1" />
<circle cx="-18" cy="55" r="0.19" fill="green" stroke="none" stroke-width="0.2"/>
<line x1="-18" y1="55" x2="-19" y2="56" stroke="black" stroke-width="0.1" />
<circle cx="-19" cy="56" r="0.19" fill="green" stroke="none" stroke-width="0.2"/>
<line x1="-19" y1="56" x2="-19" y2="57" stroke="black" stroke-width="0.1" />
<circle cx="-19" cy="57" r="0.19" fill="green" stroke="none" stroke-width="0.2"/>
<line x1="-19" y1="57" x2="-20" y2="59" stroke="black" stroke-width="0.1" />
<circle cx="-20" cy="59" r="0.19" fill="green" stroke="none" stroke-width="0.2"/>
<line x1="-20" y1="59" x2="-20" y2="60" stroke="black" stroke-width="0.1" />
<circle cx="-20" cy="60" r="0.19" fill="green" stroke="none" stroke-width="0.2"/>
<line x1="-20" y1="60" x2="-20" y2="62" stroke="black" stroke-width="0.1" />
<circle cx="-20" cy="62" r="0.19" fill="green" stroke="none" stroke-width="0.2"/>
<line x1="-20" y1="62" x2="-20" y2="63" stroke="black" stroke-width="0.1" />
<circle cx="-20" cy="63" r="0.19" fill="green" stroke="none" stroke-width="0.2"/>
<line x1="-20" y1="63" x2="-20" y2="65" stroke="black" stroke-width="0.1" />
<circle cx="-20" cy="65" r="0.19" fill="green" stroke="none" stroke-width="0.2"/>
<line x1="-20" y1="65" x2="-20" y2="66" stroke="black" stroke-width="0.1" />
<circle cx="-20" cy="66" r="0.19" fill="green" stroke="none" stroke-width="0.2"/>
<line x1="-20" y1="66" x2="-19" y2="68" stroke="black" stroke-width="0.1" />
<circle cx="-19" cy="68" r="0.19" fill="green" stroke="none" stroke-width="0.2"/>
<line x1="-19" y1="68" x2="-19" y2="69" stroke="black" stroke-width="0.1" />
<circle cx="-19" cy="69" r="0.19" fill="green" stroke="none" stroke-width="0.2"/>
<line x1="-19" y1="69" x2="-18" y2="71" stroke="black" stroke-width="0.1" />
<circle cx="-18" cy="71" r="0.19" fill="green" stroke="none" stroke-width="0.2"/>
<line x1="-18" y1="71" x2="-18" y2="74" stroke="black" stroke-width="0.1" />
<circle cx="-18" cy="74" r="0.19" fill="green" stroke="none" stroke-width="0.2"/>
<line x1="-18" y1="74" x2="-19" y2="76" stroke="black" stroke-width="0.1" />
<circle cx="-19" cy="76" r="0.19" fill="green" stroke="none" stroke-width="0.2"/>
<line x1="-19" y1="76" x2="-20" y2="79" stroke="black" stroke-width="0.1" />
<circle cx="-20" cy="79" r="0.19" fill="green" stroke="none" stroke-width="0.2"/>
<line x1="-20" y1="79" x2="-22" y2="81" stroke="black" stroke-width="0.1" />
<circle cx="-22" cy="81" r="0.19" fill="green" stroke="none" stroke-width="0.2"/>
<line x1="-22" y1="81" x2="-24" y2="82" stroke="black" stroke-width="0.1" />
<circle cx="-24" cy="82" r="0.19" fill="green" stroke="none" stroke-width="0.2"/>
<line x1="-24" y1="82" x2="-25" y2="84" stroke="black" stroke-width="0.1" />
<circle cx="-25" cy="84" r="0.19" fill="green" stroke="none" stroke-width="0.2"/>
<line x1="-25" y1="84" x2="-26" y2="87" stroke="black" stroke-width="0.1" />
<circle cx="-26" cy="87" r="0.19" fill="green" stroke="none" stroke-width="0.2"/>
<line x1="-26" y1="87" x2="-26" y2="91" stroke="black" stroke-width="0.1" />
<circle cx="-26" cy="91" r="0.19" fill="green" stroke="none" stroke-width="0.2"/>
<line x1="-26" y1="91" x2="-27" y2="96" stroke="black" stroke-width="0.1" />
<circle cx="-27" cy="96" r="0.19" fill="green" stroke="none" stroke-width="0.2"/>
<line x1="-27" y1="96" x2="-27" y2="101" stroke="black" stroke-width="0.1" />
<circle cx="-27" cy="101" r="0.19" fill="green" stroke="none" stroke-width="0.2"/>
<line x1="-27" y1="101" x2="-28" y2="106" stroke="black" stroke-width="0.1" />
<circle cx="-28" cy="106" r="0.19" fill="green" stroke="none" stroke-width="0.2"/>
<line x1="-28" y1="106" x2="-28" y2="112" stroke="black" stroke-width="0.1" />
<circle cx="-28" cy="112" r="0.19" fill="green" stroke="none" stroke-width="0.2"/>
<line x1="-28" y1="112" x2="-28" y2="118" stroke="black" stroke-width="0.1" />
<circle cx="-28" cy="118" r="0.19" fill="green" stroke="none" stroke-width="0.2"/>
<line x1="-28" y1="118" x2="-28" y2="123" stroke="black" stroke-width="0.1" />
<circle cx="-28" cy="123" r="0.19" fill="green" stroke="none" stroke-width="0.2"/>
<line x1="-28" y1="123" x2="-28" y2="128" stroke="black" stroke-width="0.1" />
<circle cx="-28" cy="128" r="0.19" fill="green" stroke="none" stroke-width="0.2"/>
<line x1="-28" y1="128" x2="-29" y2="133" stroke="black" stroke-width="0.1" />
<circle cx="-29" cy="133" r="0.19" fill="green" stroke="none" stroke-width="0.2"/>
<line x1="-29" y1="133" x2="-29" y2="139" stroke="black" stroke-width="0.1" />
<circle cx="-29" cy="139" r="0.19" fill="green" stroke="none" stroke-width="0.2"/>
<line x1="-29" y1="139" x2="-28" y2="146" stroke="black" stroke-width="0.1" />
<circle cx="-28" cy="146" r="0.19" fill="green" stroke="none" stroke-width="0.2"/>
<line x1="-28" y1="146" x2="-26" y2="154" stroke="black" stroke-width="0.1" />
<circle cx="-26" cy="154" r="0.19" fill="green" stroke="none" stroke-width="0.2"/>
<line x1="-26" y1="154" x2="-25" y2="163" stroke="black" stroke-width="0.1" />
<circle cx="-25" cy="163" r="0.19" fill="green" stroke="none" stroke-width="0.2"/>
<line x1="-25" y1="163" x2="-24" y2="171" stroke="black" stroke-width="0.1" />
<circle cx="-24" cy="171" r="0.19" fill="green" stroke="none" stroke-width="0.2"/>
<line x1="-24" y1="171" x2="-22" y2="178" stroke="black" stroke-width="0.1" />
<circle cx="-22" cy="178" r="0.19" fill="green" stroke="none" stroke-width="0.2"/>
<line x1="-22" y1="178" x2="-19" y2="184" stroke="black" stroke-width="0.1" />
<circle cx="-19" cy="184" r="0.19" fill="green" stroke="none" stroke-width="0.2"/>
<line x1="-19" y1="184" x2="-17" y2="189" stroke="black" stroke-width="0.1" />
<circle cx="-17" cy="189" r="0.19" fill="green" stroke="none" stroke-width="0.2"/>
<line x1="-17" y1="189" x2="-15" y2="193" stroke="black" stroke-width="0.1" />
<circle cx="-15" cy="193" r="0.19" fill="green" stroke="none" stroke-width="0.2"/>
<line x1="-15" y1="193" x2="-13" y2="197" stroke="black" stroke-width="0.1" />
<circle cx="-13" cy="197" r="0.19" fill="green" stroke="none" stroke-width="0.2"/>
<line x1="-13" y1="197" x2="-12" y2="202" stroke="black" stroke-width="0.1" />
<circle cx="-12" cy="202" r="0.19" fill="green" stroke="none" stroke-width="0.2"/>
<line x1="-12" y1="202" x2="-11" y2="207" stroke="black" stroke-width="0.1" />
<circle cx="-11" cy="207" r="0.19" fill="green" stroke="none" stroke-width="0.2"/>
<line x1="-11" y1="207" x2="-11" y2="213" stroke="black" stroke-width="0.1" />
<circle cx="-11" cy="213" r="0.19" fill="green" stroke="none" stroke-width="0.2"/>
<line x1="-11" y1="213" x2="-11" y2="218" stroke="black" stroke-width="0.1" />
<circle cx="-11" cy="218" r="0.19" fill="green" stroke="none" stroke-width="0.2"/>
<line x1="-11" y1="218" x2="-11" y2="222" stroke="black" stroke-width="0.1" />
<circle cx="-11" cy="222" r="0.19" fill="green" stroke="none" stroke-width="0.2"/>
<line x1="-11" y1="222" x2="-11" y2="225" stroke="black" stroke-width="0.1" />
<circle cx="-11" cy="225" r="0.19" fill="green" stroke="none" stroke-width="0.2"/>
<line x1="-11" y1="225" x2="-12" y2="227" stroke="black" stroke-width="0.1" />
<circle cx="-12" cy="227" r="0.19" fill="green" stroke="none" stroke-width="0.2"/>
<line x1="-12" y1="227" x2="-14" y2="229" stroke="black" stroke-width="0.1" />
<circle cx="-14" cy="229" r="0.19" fill="green" stroke="none" stroke-width="0.2"/>
<line x1="-14" y1="229" x2="-17" y2="231" stroke="black" stroke-width="0.1" />
<circle cx="-17" cy="231" r="0.19" fill="green" stroke="none" stroke-width="0.2"/>
<line x1="-17" y1="231" x2="-20" y2="234" stroke="black" stroke-width="0.1" />
<circle cx="-20" cy="234" r="0.19" fill="green" stroke="none" stroke-width="0.2"/>
<line x1="-20" y1="234" x2="-23" y2="236" stroke="black" stroke-width="0.1" />
<circle cx="-23" cy="236" r="0.19" fill="green" stroke="none" stroke-width="0.2"/>
<line x1="-23" y1="236" x2="-25" y2="238" stroke="black" stroke-width="0.1" />
<circle cx="-25" cy="238" r="0.19" fill="green" stroke="none" stroke-width="0.2"/>
<line x1="-25" y1="238" x2="-26" y2="240" stroke="black" stroke-width="0.1" />
<circle cx="-26" cy="240" r="0.19" fill="green" stroke="none" stroke-width="0.2"/>
<line x1="-26" y1="240" x2="-28" y2="242" stroke="black" stroke-width="0.1" />
<circle cx="-28" cy="242" r="0.19" fill="green" stroke="none" stroke-width="0.2"/>
<line x1="-28" y1="242" x2="-31" y2="244" stroke="black" stroke-width="0.1" />
<circle cx="-31" cy="244" r="0.19" fill="green" stroke="none" stroke-width="0.2"/>
<line x1="-31" y1="244" x2="-35" y2="246" stroke="black" stroke-width="0.1" />
<circle cx="-35" cy="246" r="0.19" fill="green" stroke="none" stroke-width="0.2"/>
<line x1="-35" y1="246" x2="-40" y2="248" stroke="black" stroke-width="0.1" />
<circle cx="-40" cy="248" r="0.19" fill="green" stroke="none" stroke-width="0.2"/>
<line x1="-40" y1="248" x2="-45" y2="249" stroke="black" stroke-width="0.1" />
<circle cx="-45" cy="249" r="0.19" fill="green" stroke="none" stroke-width="0.2"/>
<line x1="-45" y1="249" x2="-51" y2="251" stroke="black" stroke-width="0.1" />
<circle cx="-51" cy="251" r="0.19" fill="green" stroke="none" stroke-width="0.2"/>
<line x1="-51" y1="251" x2="-56" y2="253" stroke="black" stroke-width="0.1" />
<circle cx="-56" cy="253" r="0.19" fill="green" stroke="none" stroke-width="0.2"/>
<line x1="-56" y1="253" x2="-62" y2="255" stroke="black" stroke-width="0.1" />
<circle cx="-62" cy="255" r="0.19" fill="green" stroke="none" stroke-width="0.2"/>
<line x1="-62" y1="255" x2="-67" y2="258" stroke="black" stroke-width="0.1" />
<circle cx="-67" cy="258" r="0.19" fill="green" stroke="none" stroke-width="0.2"/>
<line x1="-67" y1="258" x2="-72" y2="261" stroke="black" stroke-width="0.1" />
<circle cx="-72" cy="261" r="0.19" fill="green" stroke="none" stroke-width="0.2"/>
<line x1="-72" y1="261" x2="-76" y2="265" stroke="black" stroke-width="0.1" />
<circle cx="-76" cy="265" r="0.19" fill="green" stroke="none" stroke-width="0.2"/>
<line x1="-76" y1="265" x2="-80" y2="268" stroke="black" stroke-width="0.1" />
<circle cx="-80" cy="268" r="0.19" fill="green" stroke="none" stroke-width="0.2"/>
<line x1="-80" y1="268" x2="-83" y2="272" stroke="black" stroke-width="0.1" />
<circle cx="-83" cy="272" r="0.19" fill="green" stroke="none" stroke-width="0.2"/>
<line x1="-83" y1="272" x2="-87" y2="276" stroke="black" stroke-width="0.1" />
<circle cx="-87" cy="276" r="0.19" fill="green" stroke="none" stroke-width="0.2"/>
<line x1="-87" y1="276" x2="-90" y2="281" stroke="black" stroke-width="0.1" />
<circle cx="-90" cy="281" r="0.19" fill="green" stroke="none" stroke-width="0.2"/>
<line x1="-90" y1="281" x2="-92" y2="287" stroke="black" stroke-width="0.1" />
<circle cx="-92" cy="287" r="0.19" fill="green" stroke="none" stroke-width="0.2"/>
<line x1="-92" y1="287" x2="-95" y2="294" stroke="black" stroke-width="0.1" />
<circle cx="-95" cy="294" r="0.19" fill="green" stroke="none" stroke-width="0.2"/>
<line x1="-95" y1="294" x2="-97" y2="301" stroke="black" stroke-width="0.1" />
<circle cx="-97" cy="301" r="0.19" fill="green" stroke="none" stroke-width="0.2"/>
<line x1="-97" y1="301" x2="-100" y2="307" stroke="black" stroke-width="0.1" />
<circle cx="-100" cy="307" r="0.19" fill="green" stroke="none" stroke-width="0.2"/>
<line x1="-100" y1="307" x2="-103" y2="312" stroke="black" stroke-width="0.1" />
<circle cx="-103" cy="312" r="0.19" fill="green" stroke="none" stroke-width="0.2"/>
<line x1="-103" y1="312" x2="-105" y2="318" stroke="black" stroke-width="0.1" />
<circle cx="-105" cy="318" r="0.19" fill="green" stroke="none" stroke-width="0.2"/>
<line x1="-105" y1="318" x2="-108" y2="325" stroke="black" stroke-width="0.1" />
<circle cx="-108" cy="325" r="0.19" fill="green" stroke="none" stroke-width="0.2"/>
<line x1="-108" y1="325" x2="-110" y2="331" stroke="black" stroke-width="0.1" />
<circle cx="-110" cy="331" r="0.19" fill="green" stroke="none" stroke-width="0.2"/>
<line x1="-110" y1="331" x2="-111" y2="336" stroke="black" stroke-width="0.1" />
<circle cx="-111" cy="336" r="0.19" fill="green" stroke="none" stroke-width="0.2"/>
<line x1="-111" y1="336" x2="-111" y2="340" stroke="black" stroke-width="0.1" />
<circle cx="-111" cy="340" r="0.19" fill="green" stroke="none" stroke-width="0.2"/>
<line x1="-111" y1="340" x2="-110" y2="343" stroke="black" stroke-width="0.1" />
<circle cx="-110" cy="343" r="0.19" fill="green" stroke="none" stroke-width="0.2"/>
<line x1="-110" y1="343" x2="-110" y2="345" stroke="black" stroke-width="0.1" />
<circle cx="-110" cy="345" r="0.19" fill="green" stroke="none" stroke-width="0.2"/>
<line x1="-110" y1="345" x2="-110" y2="346" stroke="black" stroke-width="0.1" />
<circle cx="-110" cy="346" r="0.19" fill="green" stroke="none" stroke-width="0.2"/>
<line x1="-110" y1="346" x2="-110" y2="346" stroke="black" stroke-width="0.1" />
<circle cx="-110" cy="346" r="0.19" fill="green" stroke="none" stroke-width="0.2"/>
<line x1="-110" y1="346" x2="-110" y2="345" stroke="black" stroke-width="0.1" />
<circle cx="-110" cy="345" r="0.19" fill="green" stroke="none" stroke-width="0.2"/>
<line x1="-110" y1="345" x2="-110" y2="343" stroke="black" stroke-width="0.1" />
<circle cx="-110" cy="343" r="0.19" fill="green" stroke="none" stroke-width="0.2"/>
<line x1="-110" y1="343" x2="-110" y2="340" stroke="black" stroke-width="0.1" />
<circle cx="-110" cy="340" r="0.19" fill="green" stroke="none" stroke-width="0.2"/>
<line x1="-110" y1="340" x2="-110" y2="336" stroke="black" stroke-width="0.1" />
<circle cx="-110" cy="336" r="0.19" fill="green" stroke="none" stroke-width="0.2"/>
<line x1="-110" y1="336" x2="-110" y2="331" stroke="black" stroke-width="0.1" />
<circle cx="-110" cy="331" r="0.19" fill="green" stroke="none" stroke-width="0.2"/>
<line x1="-110" y1="331" x2="-110" y2="326" stroke="black" stroke-width="0.1" />
<circle cx="-110" cy="326" r="0.19" fill="green" stroke="none" stroke-width="0.2"/>
<line x1="-110" y1="326" x2="-111" y2="322" stroke="black" stroke-width="0.1" />
<circle cx="-111" cy="322" r="0.19" fill="green" stroke="none" stroke-width="0.2"/>
<line x1="-111" y1="322" x2="-113" y2="319" stroke="black" stroke-width="0.1" />
<circle cx="-113" cy="319" r="0.19" fill="green" stroke="none" stroke-width="0.2"/>
<line x1="-113" y1="319" x2="-114" y2="317" stroke="black" stroke-width="0.1" />
<circle cx="-114" cy="317" r="0.19" fill="green" stroke="none" stroke-width="0.2"/>
<line x1="-114" y1="317" x2="-114" y2="316" stroke="black" stroke-width="0.1" />
<circle cx="-114" cy="316" r="0.19" fill="green" stroke="none" stroke-width="0.2"/>
<line x1="-114" y1="316" x2="-114" y2="316" stroke="black" stroke-width="0.1" />
<circle cx="-114" cy="316" r="0.19" fill="green" stroke="none" stroke-width="0.2"/>
<line x1="-114" y1="316" x2="-114" y2="317" stroke="black" stroke-width="0.1" />
<circle cx="-114" cy="317" r="0.19" fill="green" stroke="none" stroke-width="0.2"/>
<line x1="-114" y1="317" x2="-114" y2="319" stroke="black" stroke-width="0.1" />
<circle cx="-114" cy="319" r="0.19" fill="green" stroke="none" stroke-width="0.2"/>
<line x1="-114" y1="319" x2="-114" y2="322" stroke="black" stroke-width="0.1" />
<circle cx="-114" cy="322" r="0.19" fill="green" stroke="none" stroke-width="0.2"/>
<line x1="-114" y1="322" x2="-114" y2="326" stroke="black" stroke-width="0.1" />
<circle cx="-114" cy="326" r="0.19" fill="green" stroke="none" stroke-width="0.2"/>
<line x1="-114" y1="326" x2="-114" y2="331" stroke="black" stroke-width="0.1" />
<circle cx="-114" cy="331" r="0.19" fill="green" stroke="none" stroke-width="0.2"/>
<line x1="-114" y1="331" x2="-114" y2="335" stroke="black" stroke-width="0.1" />
<circle cx="-114" cy="335" r="0.19" fill="green" stroke="none" stroke-width="0.2"/>
<line x1="-114" y1="335" x2="-114" y2="338" stroke="black" stroke-width="0.1" />
<circle cx="-114" cy="338" r="0.19" fill="green" stroke="none" stroke-width="0.2"/>
<line x1="-114" y1="338" x2="-114" y2="340" stroke="black" stroke-width="0.1" />
<circle cx="-114" cy="340" r="0.19" fill="green" stroke="none" stroke-width="0.2"/>
<line x1="-114" y1="340" x2="-114" y2="341" stroke="black" stroke-width="0.1" />
<circle cx="-114" cy="341" r="0.19" fill="green" stroke="none" stroke-width="0.2"/>
<line x1="-114" y1="341" x2="-114" y2="341" stroke="black" stroke-width="0.1" />
<circle cx="-114" cy="341" r="0.19" fill="green" stroke="none" stroke-width="0.2"/>
<line x1="-114" y1="341" x2="-114" y2="340" stroke="black" stroke-width="0.1" />
<circle cx="-114" cy="340" r="0.19" fill="green" stroke="none" stroke-width="0.2"/>
<line x1="-114" y1="340" x2="-114" y2="338" stroke="black" stroke-width="0.1" />
<circle cx="-114" cy="338" r="0.19" fill="green" stroke="none" stroke-width="0.2"/>
<line x1="-114" y1="338" x2="-114" y2="335" stroke="black" stroke-width="0.1" />
<circle cx="-114" cy="335" r="0.19" fill="green" stroke="none" stroke-width="0.2"/>
<line x1="-114" y1="335" x2="-114" y2="333" stroke="black" stroke-width="0.1" />
<circle cx="-114" cy="333" r="0.19" fill="green" stroke="none" stroke-width="0.2"/>
<line x1="-114" y1="333" x2="-115" y2="332" stroke="black" stroke-width="0.1" />
<circle cx="-115" cy="332" r="0.19" fill="green" stroke="none" stroke-width="0.2"/>
<line x1="-115" y1="332" x2="-117" y2="332" stroke="black" stroke-width="0.1" />
<circle cx="-117" cy="332" r="0.19" fill="green" stroke="none" stroke-width="0.2"/>
<line x1="-117" y1="332" x2="-118" y2="333" stroke="black" stroke-width="0.1" />
<circle cx="-118" cy="333" r="0.19" fill="green" stroke="none" stroke-width="0.2"/>
<line x1="-118" y1="333" x2="-118" y2="334" stroke="black" stroke-width="0.1" />
<circle cx="-118" cy="334" r="0.19" fill="green" stroke="none" stroke-width="0.2"/>
<line x1="-118" y1="334" x2="-118" y2="336" stroke="black" stroke-width="0.1" />
<circle cx="-118" cy="336" r="0.19" fill="green" stroke="none" stroke-width="0.2"/>
<line x1="-118" y1="336" x2="-117" y2="339" stroke="black" stroke-width="0.1" />
<circle cx="-117" cy="339" r="0.19" fill="green" stroke="none" stroke-width="0.2"/>
<line x1="-117" y1="339" x2="-117" y2="341" stroke="black" stroke-width="0.1" />
<circle cx="-117" cy="341" r="0.19" fill="green" stroke="none" stroke-width="0.2"/>
<line x1="-117" y1="341" x2="-118" y2="342" stroke="black" stroke-width="0.1" />
<circle cx="-118" cy="342" r="0.19" fill="green" stroke="none" stroke-width="0.2"/>
<line x1="-118" y1="342" x2="-119" y2="344" stroke="black" stroke-width="0.1" />
<circle cx="-119" cy="344" r="0.19" fill="green" stroke="none" stroke-width="0.2"/>
<line x1="-119" y1="344" x2="-120" y2="347" stroke="black" stroke-width="0.1" />
<circle cx="-120" cy="347" r="0.19" fill="green" stroke="none" stroke-width="0.2"/>
<line x1="-120" y1="347" x2="-121" y2="350" stroke="black" stroke-width="0.1" />
<circle cx="-121" cy="350" r="0.19" fill="green" stroke="none" stroke-width="0.2"/>
<line x1="-121" y1="350" x2="-123" y2="353" stroke="black" stroke-width="0.1" />
<circle cx="-123" cy="353" r="0.19" fill="green" stroke="none" stroke-width="0.2"/>
<line x1="-123" y1="353" x2="-126" y2="357" stroke="black" stroke-width="0.1" />
<circle cx="-126" cy="357" r="0.19" fill="green" stroke="none" stroke-width="0.2"/>
<line x1="-126" y1="357" x2="-129" y2="361" stroke="black" stroke-width="0.1" />
<circle cx="-129" cy="361" r="0.19" fill="green" stroke="none" stroke-width="0.2"/>
<line x1="-129" y1="361" x2="-132" y2="366" stroke="black" stroke-width="0.1" />
<circle cx="-132" cy="366" r="0.19" fill="green" stroke="none" stroke-width="0.2"/>
<line x1="-132" y1="366" x2="-136" y2="370" stroke="black" stroke-width="0.1" />
<circle cx="-136" cy="370" r="0.19" fill="green" stroke="none" stroke-width="0.2"/>
<line x1="-136" y1="370" x2="-141" y2="373" stroke="black" stroke-width="0.1" />
<circle cx="-141" cy="373" r="0.19" fill="green" stroke="none" stroke-width="0.2"/>
<line x1="-141" y1="373" x2="-145" y2="375" stroke="black" stroke-width="0.1" />
<circle cx="-145" cy="375" r="0.19" fill="green" stroke="none" stroke-width="0.2"/>
<line x1="-145" y1="375" x2="-148" y2="376" stroke="black" stroke-width="0.1" />
<circle cx="-148" cy="376" r="0.19" fill="green" stroke="none" stroke-width="0.2"/>
<line x1="-148" y1="376" x2="-150" y2="376" stroke="black" stroke-width="0.1" />
<circle cx="-150" cy="376" r="0.19" fill="green" stroke="none" stroke-width="0.2"/>
<line x1="-150" y1="376" x2="-151" y2="375" stroke="black" stroke-width="0.1" />
<circle cx="-151" cy="375" r="0.19" fill="green" stroke="none" stroke-width="0.2"/>
<line x1="-151" y1="375" x2="-151" y2="373" stroke="black" stroke-width="0.1" />
<circle cx="-151" cy="373" r="0.19" fill="green" stroke="none" stroke-width="0.2"/>
<line x1="-151" y1="373" x2="-150" y2="370" stroke="black" stroke-width="0.1" />
<circle cx="-150" cy="370" r="0.19" fill="green" stroke="none" stroke-width="0.2"/>
<line x1="-150" y1="370" x2="-148" y2="368" stroke="black" stroke-width="0.1" />
<circle cx="-148" cy="368" r="0.19" fill="green" stroke="none" stroke-width="0.2"/>
<line x1="-148" y1="368" x2="-145" y2="367" stroke="black" stroke-width="0.1" />
<circle cx="-145" cy="367" r="0.19" fill="green" stroke="none" stroke-width="0.2"/>
<line x1="-145" y1="367" x2="-141" y2="367" stroke="black" stroke-width="0.1" />
<circle cx="-141" cy="367" r="0.19" fill="green" stroke="none" stroke-width="0.2"/>
<line x1="-141" y1="367" x2="-138" y2="368" stroke="black" stroke-width="0.1" />
<circle cx="-138" cy="368" r="0.19" fill="green" stroke="none" stroke-width="0.2"/>
<line x1="-138" y1="368" x2="-136" y2="369" stroke="black" stroke-width="0.1" />
<circle cx="-136" cy="369" r="0.19" fill="green" stroke="none" stroke-width="0.2"/>
<line x1="-136" y1="369" x2="-135" y2="369" stroke="black" stroke-width="0.1" />
<circle cx="-135" cy="369" r="0.19" fill="green" stroke="none" stroke-width="0.2"/>
<line x1="-135" y1="369" x2="-135" y2="369" stroke="black" stroke-width="0.1" />
<circle cx="-135" cy="369" r="0.19" fill="green" stroke="none" stroke-width="0.2"/>
<line x1="-135" y1="369" x2="-136" y2="369" stroke="black" stroke-width="0.1" />
<circle cx="-136" cy="369" r="0.19" fill="green" stroke="none" stroke-width="0.2"/>
<line x1="-136" y1="369" x2="-138" y2="369" stroke="black" stroke-width="0.1" />
<circle cx="-138" cy="369" r="0.19" fill="green" stroke="none" stroke-width="0.2"/>
<line x1="-138" y1="369" x2="-141" y2="369" stroke="black" stroke-width="0.1" />
<circle cx="-141" cy="369" r="0.19" fill="green" stroke="none" stroke-width="0.2"/>
<line x1="-141" y1="369" x2="-145" y2="369" stroke="black" stroke-width="0.1" />
<circle cx="-145" cy="369" r="0.19" fill="green" stroke="none" stroke-width="0.2"/>
<line x1="-145" y1="369" x2="-149" y2="368" stroke="black" stroke-width="0.1" />
<circle cx="-149" cy="368" r="0.19" fill="green" stroke="none" stroke-width="0.2"/>
<line x1="-149" y1="368" x2="-152" y2="368" stroke="black" stroke-width="0.1" />
<circle cx="-152" cy="368" r="0.19" fill="green" stroke="none" stroke-width="0.2"/>
<line x1="-152" y1="368" x2="-155" y2="368" stroke="black" stroke-width="0.1" />
<circle cx="-155" cy="368" r="0.19" fill="green" stroke="none" stroke-width="0.2"/>
<line x1="-155" y1="368" x2="-157" y2="368" stroke="black" stroke-width="0.1" />
<circle cx="-157" cy="368" r="0.19" fill="green" stroke="none" stroke-width="0.2"/>
<line x1="-157" y1="368" x2="-160" y2="369" stroke="black" stroke-width="0.1" />
<circle cx="-160" cy="369" r="0.19" fill="green" stroke="none" stroke-width="0.2"/>
<line x1="-160" y1="369" x2="-162" y2="371" stroke="black" stroke-width="0.1" />
<circle cx="-162" cy="371" r="0.19" fill="green" stroke="none" stroke-width="0.2"/>
<line x1="-162" y1="371" x2="-165" y2="374" stroke="black" stroke-width="0.1" />
<circle cx="-165" cy="374" r="0.19" fill="green" stroke="none" stroke-width="0.2"/>
<line x1="-165" y1="374" x2="-167" y2="376" stroke="black" stroke-width="0.1" />
<circle cx="-167" cy="376" r="0.19" fill="green" stroke="none" stroke-width="0.2"/>
<line x1="-167" y1="376" x2="-168" y2="378" stroke="black" stroke-width="0.1" />
<circle cx="-168" cy="378" r="0.19" fill="green" stroke="none" stroke-width="0.2"/>
<line x1="-168" y1="378" x2="-168" y2="380" stroke="black" stroke-width="0.1" />
<circle cx="-168" cy="380" r="0.19" fill="green" stroke="none" stroke-width="0.2"/>

    </svg>
