
    <svg version="1.1"
        width="185.508" height="378.508"
        xmlns="http://www.w3.org/2000/svg">

        <rect width="100%" height="100%" style="fill:white; stroke-width:0.1; stroke: black" />

<circle cx="159.754" cy="50.754" r="0.377" fill="blue" stroke="none" stroke-width="0.2"/>
<circle cx="143.754" cy="81.754" r="0.377" fill="blue" stroke="none" stroke-width="0.2"/>
<circle cx="167.754" cy="39.754" r="0.377" fill="blue" stroke="none" stroke-width="0.2"/>
<circle cx="157.754" cy="215.754" r="0.377" fill="blue" stroke="none" stroke-width="0.2"/>
<circle cx="169.754" cy="35.754" r="0.377" fill="blue" stroke="none" stroke-width="0.2"/>
<circle cx="145.754" cy="233.754" r="0.377" fill="blue" stroke="none" stroke-width="0.2"/>
<circle cx="149.754" cy="66.754" r="0.377" fill="blue" stroke="none" stroke-width="0.2"/>
<circle cx="36.754" cy="363.754" r="0.377" fill="blue" stroke="none" stroke-width="0.2"/>
<circle cx="176.754" cy="17.754" r="0.377" fill="blue" stroke="none" stroke-width="0.2"/>
<circle cx="153.754" cy="190.754" r="0.377" fill="blue" stroke="none" stroke-width="0.2"/>
<circle cx="139.754" cy="130.754" r="0.377" fill="blue" stroke="none" stroke-width="0.2"/>
<circle cx="47.754" cy="347.754" r="0.377" fill="blue" stroke="none" stroke-width="0.2"/>
<circle cx="133.754" cy="243.754" r="0.377" fill="blue" stroke="none" stroke-width="0.2"/>
<circle cx="76.754" cy="284.754" r="0.377" fill="blue" stroke="none" stroke-width="0.2"/>
<circle cx="184.754" cy="7.754" r="0.377" fill="blue" stroke="none" stroke-width="0.2"/>
<circle cx="85.754" cy="269.754" r="0.377" fill="blue" stroke="none" stroke-width="0.2"/>
<circle cx="49.754" cy="341.754" r="0.377" fill="blue" stroke="none" stroke-width="0.2"/>
<circle cx="181.754" cy="11.754" r="0.377" fill="blue" stroke="none" stroke-width="0.2"/>
<circle cx="151.754" cy="186.754" r="0.377" fill="blue" stroke="none" stroke-width="0.2"/>
<circle cx="140.754" cy="103.754" r="0.377" fill="blue" stroke="none" stroke-width="0.2"/>
<circle cx="172.754" cy="0.754" r="0.377" fill="blue" stroke="none" stroke-width="0.2"/>
<circle cx="141.754" cy="98.754" r="0.377" fill="blue" stroke="none" stroke-width="0.2"/>
<circle cx="63.754" cy="315.754" r="0.377" fill="blue" stroke="none" stroke-width="0.2"/>
<circle cx="157.754" cy="219.754" r="0.377" fill="blue" stroke="none" stroke-width="0.2"/>
<circle cx="137.754" cy="241.754" r="0.377" fill="blue" stroke="none" stroke-width="0.2"/>
<circle cx="148.754" cy="76.754" r="0.377" fill="blue" stroke="none" stroke-width="0.2"/>
<circle cx="16.754" cy="365.754" r="0.377" fill="blue" stroke="none" stroke-width="0.2"/>
<circle cx="144.754" cy="79.754" r="0.377" fill="blue" stroke="none" stroke-width="0.2"/>
<circle cx="183.754" cy="5.754" r="0.377" fill="blue" stroke="none" stroke-width="0.2"/>
<circle cx="6.754" cy="368.754" r="0.377" fill="blue" stroke="none" stroke-width="0.2"/>
<circle cx="175.754" cy="1.754" r="0.377" fill="blue" stroke="none" stroke-width="0.2"/>
<circle cx="54.754" cy="330.754" r="0.377" fill="blue" stroke="none" stroke-width="0.2"/>
<circle cx="181.754" cy="3.754" r="0.377" fill="blue" stroke="none" stroke-width="0.2"/>
<circle cx="148.754" cy="63.754" r="0.377" fill="blue" stroke="none" stroke-width="0.2"/>
<circle cx="177.754" cy="15.754" r="0.377" fill="blue" stroke="none" stroke-width="0.2"/>
<circle cx="27.754" cy="366.754" r="0.377" fill="blue" stroke="none" stroke-width="0.2"/>
<circle cx="140.754" cy="115.754" r="0.377" fill="blue" stroke="none" stroke-width="0.2"/>
<circle cx="140.754" cy="125.754" r="0.377" fill="blue" stroke="none" stroke-width="0.2"/>
<circle cx="178.754" cy="1.754" r="0.377" fill="blue" stroke="none" stroke-width="0.2"/>
<circle cx="142.754" cy="88.754" r="0.377" fill="blue" stroke="none" stroke-width="0.2"/>
<circle cx="148.754" cy="57.754" r="0.377" fill="blue" stroke="none" stroke-width="0.2"/>
<circle cx="101.754" cy="255.754" r="0.377" fill="blue" stroke="none" stroke-width="0.2"/>
<circle cx="144.754" cy="168.754" r="0.377" fill="blue" stroke="none" stroke-width="0.2"/>
<circle cx="140.754" cy="239.754" r="0.377" fill="blue" stroke="none" stroke-width="0.2"/>
<circle cx="1.754" cy="373.754" r="0.377" fill="blue" stroke="none" stroke-width="0.2"/>
<circle cx="148.754" cy="231.754" r="0.377" fill="blue" stroke="none" stroke-width="0.2"/>
<circle cx="157.754" cy="204.754" r="0.377" fill="blue" stroke="none" stroke-width="0.2"/>
<circle cx="0.754" cy="375.754" r="0.377" fill="blue" stroke="none" stroke-width="0.2"/>
<circle cx="51.754" cy="336.754" r="0.377" fill="blue" stroke="none" stroke-width="0.2"/>
<circle cx="13.754" cy="365.754" r="0.377" fill="blue" stroke="none" stroke-width="0.2"/>
<circle cx="151.754" cy="228.754" r="0.377" fill="blue" stroke="none" stroke-width="0.2"/>
<circle cx="3.754" cy="371.754" r="0.377" fill="blue" stroke="none" stroke-width="0.2"/>
<circle cx="156.754" cy="199.754" r="0.377" fill="blue" stroke="none" stroke-width="0.2"/>
<circle cx="117.754" cy="248.754" r="0.377" fill="blue" stroke="none" stroke-width="0.2"/>
<circle cx="151.754" cy="52.754" r="0.377" fill="blue" stroke="none" stroke-width="0.2"/>
<circle cx="164.754" cy="45.754" r="0.377" fill="blue" stroke="none" stroke-width="0.2"/>
<circle cx="0.754" cy="377.754" r="0.377" fill="blue" stroke="none" stroke-width="0.2"/>
<circle cx="143.754" cy="235.754" r="0.377" fill="blue" stroke="none" stroke-width="0.2"/>
<circle cx="149.754" cy="54.754" r="0.377" fill="blue" stroke="none" stroke-width="0.2"/>
<circle cx="148.754" cy="60.754" r="0.377" fill="blue" stroke="none" stroke-width="0.2"/>
<circle cx="143.754" cy="160.754" r="0.377" fill="blue" stroke="none" stroke-width="0.2"/>
<circle cx="155.754" cy="194.754" r="0.377" fill="blue" stroke="none" stroke-width="0.2"/>
<circle cx="183.754" cy="9.754" r="0.377" fill="blue" stroke="none" stroke-width="0.2"/>
<circle cx="150.754" cy="68.754" r="0.377" fill="blue" stroke="none" stroke-width="0.2"/>
<circle cx="106.754" cy="252.754" r="0.377" fill="blue" stroke="none" stroke-width="0.2"/>
<circle cx="179.754" cy="12.754" r="0.377" fill="blue" stroke="none" stroke-width="0.2"/>
<circle cx="173.754" cy="24.754" r="0.377" fill="blue" stroke="none" stroke-width="0.2"/>
<circle cx="149.754" cy="73.754" r="0.377" fill="blue" stroke="none" stroke-width="0.2"/>
<circle cx="142.754" cy="237.754" r="0.377" fill="blue" stroke="none" stroke-width="0.2"/>
<circle cx="162.754" cy="47.754" r="0.377" fill="blue" stroke="none" stroke-width="0.2"/>
<circle cx="184.754" cy="6.754" r="0.377" fill="blue" stroke="none" stroke-width="0.2"/>
<circle cx="11.754" cy="365.754" r="0.377" fill="blue" stroke="none" stroke-width="0.2"/>
<circle cx="58.754" cy="323.754" r="0.377" fill="blue" stroke="none" stroke-width="0.2"/>
<circle cx="180.754" cy="2.754" r="0.377" fill="blue" stroke="none" stroke-width="0.2"/>
<circle cx="71.754" cy="298.754" r="0.377" fill="blue" stroke="none" stroke-width="0.2"/>
<circle cx="175.754" cy="20.754" r="0.377" fill="blue" stroke="none" stroke-width="0.2"/>
<circle cx="149.754" cy="181.754" r="0.377" fill="blue" stroke="none" stroke-width="0.2"/>
<circle cx="112.754" cy="250.754" r="0.377" fill="blue" stroke="none" stroke-width="0.2"/>
<circle cx="123.754" cy="246.754" r="0.377" fill="blue" stroke="none" stroke-width="0.2"/>
<circle cx="157.754" cy="222.754" r="0.377" fill="blue" stroke="none" stroke-width="0.2"/>
<circle cx="146.754" cy="78.754" r="0.377" fill="blue" stroke="none" stroke-width="0.2"/>
<circle cx="128.754" cy="245.754" r="0.377" fill="blue" stroke="none" stroke-width="0.2"/>
<circle cx="23.754" cy="366.754" r="0.377" fill="blue" stroke="none" stroke-width="0.2"/>
<circle cx="92.754" cy="262.754" r="0.377" fill="blue" stroke="none" stroke-width="0.2"/>
<circle cx="172.754" cy="28.754" r="0.377" fill="blue" stroke="none" stroke-width="0.2"/>

    </svg>
