
    <svg version="1.1"
        width="134.8" height="88.8"
        xmlns="http://www.w3.org/2000/svg">

        <rect width="100%" height="100%" style="fill:white; stroke-width:0.1; stroke: black" />

<circle cx="93.4" cy="88.4" r="0.2" fill="blue" stroke="none" stroke-width="0.2"/>
<circle cx="90.4" cy="86.4" r="0.2" fill="blue" stroke="none" stroke-width="0.2"/>
<circle cx="88.4" cy="82.4" r="0.2" fill="blue" stroke="none" stroke-width="0.2"/>
<circle cx="87.4" cy="79.4" r="0.2" fill="blue" stroke="none" stroke-width="0.2"/>
<circle cx="84.4" cy="77.4" r="0.2" fill="blue" stroke="none" stroke-width="0.2"/>
<circle cx="83.4" cy="76.4" r="0.2" fill="blue" stroke="none" stroke-width="0.2"/>
<circle cx="82.4" cy="73.4" r="0.2" fill="blue" stroke="none" stroke-width="0.2"/>
<circle cx="79.4" cy="68.4" r="0.2" fill="blue" stroke="none" stroke-width="0.2"/>
<circle cx="77.4" cy="65.4" r="0.2" fill="blue" stroke="none" stroke-width="0.2"/>
<circle cx="77.4" cy="60.4" r="0.2" fill="blue" stroke="none" stroke-width="0.2"/>
<circle cx="79.4" cy="56.4" r="0.2" fill="blue" stroke="none" stroke-width="0.2"/>
<circle cx="83.4" cy="52.4" r="0.2" fill="blue" stroke="none" stroke-width="0.2"/>
<circle cx="89.4" cy="46.4" r="0.2" fill="blue" stroke="none" stroke-width="0.2"/>
<circle cx="96.4" cy="42.4" r="0.2" fill="blue" stroke="none" stroke-width="0.2"/>
<circle cx="102.4" cy="38.4" r="0.2" fill="blue" stroke="none" stroke-width="0.2"/>
<circle cx="110.4" cy="36.4" r="0.2" fill="blue" stroke="none" stroke-width="0.2"/>
<circle cx="116.4" cy="34.4" r="0.2" fill="blue" stroke="none" stroke-width="0.2"/>
<circle cx="120.4" cy="33.4" r="0.2" fill="blue" stroke="none" stroke-width="0.2"/>
<circle cx="125.4" cy="31.4" r="0.2" fill="blue" stroke="none" stroke-width="0.2"/>
<circle cx="129.4" cy="27.4" r="0.2" fill="blue" stroke="none" stroke-width="0.2"/>
<circle cx="131.4" cy="21.4" r="0.2" fill="blue" stroke="none" stroke-width="0.2"/>
<circle cx="132.4" cy="17.4" r="0.2" fill="blue" stroke="none" stroke-width="0.2"/>
<circle cx="134.4" cy="15.4" r="0.2" fill="blue" stroke="none" stroke-width="0.2"/>
<circle cx="134.4" cy="15.4" r="0.2" fill="blue" stroke="none" stroke-width="0.2"/>
<circle cx="132.4" cy="13.4" r="0.2" fill="blue" stroke="none" stroke-width="0.2"/>
<circle cx="129.4" cy="13.4" r="0.2" fill="blue" stroke="none" stroke-width="0.2"/>
<circle cx="125.4" cy="11.4" r="0.2" fill="blue" stroke="none" stroke-width="0.2"/>
<circle cx="123.4" cy="7.4" r="0.2" fill="blue" stroke="none" stroke-width="0.2"/>
<circle cx="121.4" cy="3.4" r="0.2" fill="blue" stroke="none" stroke-width="0.2"/>
<circle cx="117.4" cy="1.4" r="0.2" fill="blue" stroke="none" stroke-width="0.2"/>
<circle cx="113.4" cy="0.4" r="0.2" fill="blue" stroke="none" stroke-width="0.2"/>
<circle cx="108.4" cy="1.4" r="0.2" fill="blue" stroke="none" stroke-width="0.2"/>
<circle cx="102.4" cy="3.4" r="0.2" fill="blue" stroke="none" stroke-width="0.2"/>
<circle cx="95.4" cy="6.4" r="0.2" fill="blue" stroke="none" stroke-width="0.2"/>
<circle cx="90.4" cy="10.4" r="0.2" fill="blue" stroke="none" stroke-width="0.2"/>
<circle cx="83.4" cy="13.4" r="0.2" fill="blue" stroke="none" stroke-width="0.2"/>
<circle cx="74.4" cy="15.4" r="0.2" fill="blue" stroke="none" stroke-width="0.2"/>
<circle cx="65.4" cy="18.4" r="0.2" fill="blue" stroke="none" stroke-width="0.2"/>
<circle cx="58.4" cy="20.4" r="0.2" fill="blue" stroke="none" stroke-width="0.2"/>
<circle cx="49.4" cy="22.4" r="0.2" fill="blue" stroke="none" stroke-width="0.2"/>
<circle cx="40.4" cy="25.4" r="0.2" fill="blue" stroke="none" stroke-width="0.2"/>
<circle cx="33.4" cy="29.4" r="0.2" fill="blue" stroke="none" stroke-width="0.2"/>
<circle cx="28.4" cy="33.4" r="0.2" fill="blue" stroke="none" stroke-width="0.2"/>
<circle cx="21.4" cy="36.4" r="0.2" fill="blue" stroke="none" stroke-width="0.2"/>
<circle cx="16.4" cy="39.4" r="0.2" fill="blue" stroke="none" stroke-width="0.2"/>
<circle cx="13.4" cy="43.4" r="0.2" fill="blue" stroke="none" stroke-width="0.2"/>
<circle cx="11.4" cy="46.4" r="0.2" fill="blue" stroke="none" stroke-width="0.2"/>
<circle cx="8.4" cy="47.4" r="0.2" fill="blue" stroke="none" stroke-width="0.2"/>
<circle cx="3.4" cy="50.4" r="0.2" fill="blue" stroke="none" stroke-width="0.2"/>
<circle cx="0.4" cy="53.4" r="0.2" fill="blue" stroke="none" stroke-width="0.2"/>

    </svg>
