
    <svg version="1.1"
        viewBox="-94.4, -88.4, 134.8, 88.8"
        xmlns="http://www.w3.org/2000/svg">

        <rect x="-94.4" y="-88.4" width="100%" height="100%" style="fill:white; stroke-width:0.1; stroke: black" />

<circle cx="0" cy="0" r="0.30000000000000004" fill="red" stroke="none" stroke-width="0.2"/>
<circle cx="-1" cy="0" r="0.2" fill="blue" stroke="none" stroke-width="0.2"/>
<circle cx="-4" cy="-2" r="0.2" fill="blue" stroke="none" stroke-width="0.2"/>
<circle cx="-6" cy="-6" r="0.2" fill="blue" stroke="none" stroke-width="0.2"/>
<circle cx="-7" cy="-9" r="0.2" fill="blue" stroke="none" stroke-width="0.2"/>
<circle cx="-10" cy="-11" r="0.2" fill="blue" stroke="none" stroke-width="0.2"/>
<circle cx="-11" cy="-12" r="0.2" fill="blue" stroke="none" stroke-width="0.2"/>
<circle cx="-12" cy="-15" r="0.2" fill="blue" stroke="none" stroke-width="0.2"/>
<circle cx="-15" cy="-20" r="0.2" fill="blue" stroke="none" stroke-width="0.2"/>
<circle cx="-17" cy="-23" r="0.2" fill="blue" stroke="none" stroke-width="0.2"/>
<circle cx="-17" cy="-28" r="0.2" fill="blue" stroke="none" stroke-width="0.2"/>
<circle cx="-15" cy="-32" r="0.2" fill="blue" stroke="none" stroke-width="0.2"/>
<circle cx="-11" cy="-36" r="0.2" fill="blue" stroke="none" stroke-width="0.2"/>
<circle cx="-5" cy="-42" r="0.2" fill="blue" stroke="none" stroke-width="0.2"/>
<circle cx="2" cy="-46" r="0.2" fill="blue" stroke="none" stroke-width="0.2"/>
<circle cx="8" cy="-50" r="0.2" fill="blue" stroke="none" stroke-width="0.2"/>
<circle cx="16" cy="-52" r="0.2" fill="blue" stroke="none" stroke-width="0.2"/>
<circle cx="22" cy="-54" r="0.2" fill="blue" stroke="none" stroke-width="0.2"/>
<circle cx="26" cy="-55" r="0.2" fill="blue" stroke="none" stroke-width="0.2"/>
<circle cx="31" cy="-57" r="0.2" fill="blue" stroke="none" stroke-width="0.2"/>
<circle cx="35" cy="-61" r="0.2" fill="blue" stroke="none" stroke-width="0.2"/>
<circle cx="37" cy="-67" r="0.2" fill="blue" stroke="none" stroke-width="0.2"/>
<circle cx="38" cy="-71" r="0.2" fill="blue" stroke="none" stroke-width="0.2"/>
<circle cx="40" cy="-73" r="0.2" fill="blue" stroke="none" stroke-width="0.2"/>
<circle cx="40" cy="-73" r="0.2" fill="blue" stroke="none" stroke-width="0.2"/>
<circle cx="38" cy="-75" r="0.2" fill="blue" stroke="none" stroke-width="0.2"/>
<circle cx="35" cy="-75" r="0.2" fill="blue" stroke="none" stroke-width="0.2"/>
<circle cx="31" cy="-77" r="0.2" fill="blue" stroke="none" stroke-width="0.2"/>
<circle cx="29" cy="-81" r="0.2" fill="blue" stroke="none" stroke-width="0.2"/>
<circle cx="27" cy="-85" r="0.2" fill="blue" stroke="none" stroke-width="0.2"/>
<circle cx="23" cy="-87" r="0.2" fill="blue" stroke="none" stroke-width="0.2"/>
<circle cx="19" cy="-88" r="0.2" fill="blue" stroke="none" stroke-width="0.2"/>
<circle cx="14" cy="-87" r="0.2" fill="blue" stroke="none" stroke-width="0.2"/>
<circle cx="8" cy="-85" r="0.2" fill="blue" stroke="none" stroke-width="0.2"/>
<circle cx="1" cy="-82" r="0.2" fill="blue" stroke="none" stroke-width="0.2"/>
<circle cx="-4" cy="-78" r="0.2" fill="blue" stroke="none" stroke-width="0.2"/>
<circle cx="-11" cy="-75" r="0.2" fill="blue" stroke="none" stroke-width="0.2"/>
<circle cx="-20" cy="-73" r="0.2" fill="blue" stroke="none" stroke-width="0.2"/>
<circle cx="-29" cy="-70" r="0.2" fill="blue" stroke="none" stroke-width="0.2"/>
<circle cx="-36" cy="-68" r="0.2" fill="blue" stroke="none" stroke-width="0.2"/>
<circle cx="-45" cy="-66" r="0.2" fill="blue" stroke="none" stroke-width="0.2"/>
<circle cx="-54" cy="-63" r="0.2" fill="blue" stroke="none" stroke-width="0.2"/>
<circle cx="-61" cy="-59" r="0.2" fill="blue" stroke="none" stroke-width="0.2"/>
<circle cx="-66" cy="-55" r="0.2" fill="blue" stroke="none" stroke-width="0.2"/>
<circle cx="-73" cy="-52" r="0.2" fill="blue" stroke="none" stroke-width="0.2"/>
<circle cx="-78" cy="-49" r="0.2" fill="blue" stroke="none" stroke-width="0.2"/>
<circle cx="-81" cy="-45" r="0.2" fill="blue" stroke="none" stroke-width="0.2"/>
<circle cx="-83" cy="-42" r="0.2" fill="blue" stroke="none" stroke-width="0.2"/>
<circle cx="-86" cy="-41" r="0.2" fill="blue" stroke="none" stroke-width="0.2"/>
<circle cx="-91" cy="-38" r="0.2" fill="blue" stroke="none" stroke-width="0.2"/>
<circle cx="-94" cy="-35" r="0.2" fill="blue" stroke="none" stroke-width="0.2"/>

    </svg>
