
    <svg version="1.1"
        viewBox="-94.4, -88.4, 134.8, 88.8"
        xmlns="http://www.w3.org/2000/svg">

        <rect x="-94.4" y="-88.4" width="100%" height="100%" style="fill:white; stroke-width:0.1; stroke: black" />

<circle cx="0" cy="0" r="0.30000000000000004" fill="red" stroke="none" stroke-width="0.2"/>
<circle cx="-1" cy="0" r="0.2" fill="blue" stroke="none" stroke-width="0.2"/>
<circle cx="-4" cy="-2" r="0.2" fill="blue" stroke="none" stroke-width="0.2"/>
<circle cx="-6" cy="-6" r="0.2" fill="blue" stroke="none" stroke-width="0.2"/>
<circle cx="-7" cy="-9" r="0.2" fill="blue" stroke="none" stroke-width="0.2"/>
<circle cx="-10" cy="-11" r="0.2" fill="blue" stroke="none" stroke-width="0.2"/>
<circle cx="-11" cy="-12" r="0.2" fill="blue" stroke="none" stroke-width="0.2"/>
<circle cx="-12" cy="-15" r="0.2" fill="blue" stroke="none" stroke-width="0.2"/>
<circle cx="-15" cy="-20" r="0.2" fill="blue" stroke="none" stroke-width="0.2"/>
<circle cx="-17" cy="-23" r="0.2" fill="blue" stroke="none" stroke-width="0.2"/>
<circle cx="-17" cy="-28" r="0.2" fill="blue" stroke="none" stroke-width="0.2"/>
<circle cx="-15" cy="-32" r="0.2" fill="blue" stroke="none" stroke-width="0.2"/>
<circle cx="-11" cy="-36" r="0.2" fill="blue" stroke="none" stroke-width="0.2"/>
<circle cx="-5" cy="-42" r="0.2" fill="blue" stroke="none" stroke-width="0.2"/>
<circle cx="2" cy="-46" r="0.2" fill="blue" stroke="none" stroke-width="0.2"/>
<circle cx="8" cy="-50" r="0.2" fill="blue" stroke="none" stroke-width="0.2"/>
<circle cx="16" cy="-52" r="0.2" fill="blue" stroke="none" stroke-width="0.2"/>
<circle cx="22" cy="-54" r="0.2" fill="blue" stroke="none" stroke-width="0.2"/>
<circle cx="26" cy="-55" r="0.2" fill="blue" stroke="none" stroke-width="0.2"/>
<circle cx="31" cy="-57" r="0.2" fill="blue" stroke="none" stroke-width="0.2"/>
<circle cx="35" cy="-61" r="0.2" fill="blue" stroke="none" stroke-width="0.2"/>
<circle cx="37" cy="-67" r="0.2" fill="blue" stroke="none" stroke-width="0.2"/>
<circle cx="38" cy="-71" r="0.2" fill="blue" stroke="none" stroke-width="0.2"/>
<circle cx="40" cy="-73" r="0.2" fill="blue" stroke="none" stroke-width="0.2"/>
<circle cx="40" cy="-73" r="0.2" fill="blue" stroke="none" stroke-width="0.2"/>
<circle cx="38" cy="-75" r="0.2" fill="blue" stroke="none" stroke-width="0.2"/>
<circle cx="35" cy="-75" r="0.2" fill="blue" stroke="none" stroke-width="0.2"/>
<circle cx="31" cy="-77" r="0.2" fill="blue" stroke="none" stroke-width="0.2"/>
<circle cx="29" cy="-81" r="0.2" fill="blue" stroke="none" stroke-width="0.2"/>
<circle cx="27" cy="-85" r="0.2" fill="blue" stroke="none" stroke-width="0.2"/>
<circle cx="23" cy="-87" r="0.2" fill="blue" stroke="none" stroke-width="0.2"/>
<circle cx="19" cy="-88" r="0.2" fill="blue" stroke="none" stroke-width="0.2"/>
<circle cx="14" cy="-87" r="0.2" fill="blue" stroke="none" stroke-width="0.2"/>
<circle cx="8" cy="-85" r="0.2" fill="blue" stroke="none" stroke-width="0.2"/>
<circle cx="1" cy="-82" r="0.2" fill="blue" stroke="none" stroke-width="0.2"/>
<circle cx="-4" cy="-78" r="0.2" fill="blue" stroke="none" stroke-width="0.2"/>
<circle cx="-11" cy="-75" r="0.2" fill="blue" stroke="none" stroke-width="0.2"/>
<circle cx="-20" cy="-73" r="0.2" fill="blue" stroke="none" stroke-width="0.2"/>
<circle cx="-29" cy="-70" r="0.2" fill="blue" stroke="none" stroke-width="0.2"/>
<circle cx="-36" cy="-68" r="0.2" fill="blue" stroke="none" stroke-width="0.2"/>
<circle cx="-45" cy="-66" r="0.2" fill="blue" stroke="none" stroke-width="0.2"/>
<circle cx="-54" cy="-63" r="0.2" fill="blue" stroke="none" stroke-width="0.2"/>
<circle cx="-61" cy="-59" r="0.2" fill="blue" stroke="none" stroke-width="0.2"/>
<circle cx="-66" cy="-55" r="0.2" fill="blue" stroke="none" stroke-width="0.2"/>
<circle cx="-73" cy="-52" r="0.2" fill="blue" stroke="none" stroke-width="0.2"/>
<circle cx="-78" cy="-49" r="0.2" fill="blue" stroke="none" stroke-width="0.2"/>
<circle cx="-81" cy="-45" r="0.2" fill="blue" stroke="none" stroke-width="0.2"/>
<circle cx="-83" cy="-42" r="0.2" fill="blue" stroke="none" stroke-width="0.2"/>
<circle cx="-86" cy="-41" r="0.2" fill="blue" stroke="none" stroke-width="0.2"/>
<circle cx="-91" cy="-38" r="0.2" fill="blue" stroke="none" stroke-width="0.2"/>
<circle cx="-94" cy="-35" r="0.2" fill="blue" stroke="none" stroke-width="0.2"/>
<line x1="0" y1="0" x2="-1" y2="0" stroke="black" stroke-width="0.1" />
<circle cx="-1" cy="0" r="0.1" fill="green" stroke="none" stroke-width="0.2"/>
<line x1="-1" y1="0" x2="-3" y2="-1" stroke="black" stroke-width="0.1" />
<circle cx="-3" cy="-1" r="0.1" fill="green" stroke="none" stroke-width="0.2"/>
<line x1="-3" y1="-1" x2="-4" y2="-2" stroke="black" stroke-width="0.1" />
<circle cx="-4" cy="-2" r="0.1" fill="green" stroke="none" stroke-width="0.2"/>
<line x1="-4" y1="-2" x2="-6" y2="-4" stroke="black" stroke-width="0.1" />
<circle cx="-6" cy="-4" r="0.1" fill="green" stroke="none" stroke-width="0.2"/>
<line x1="-6" y1="-4" x2="-7" y2="-6" stroke="black" stroke-width="0.1" />
<circle cx="-7" cy="-6" r="0.1" fill="green" stroke="none" stroke-width="0.2"/>
<line x1="-7" y1="-6" x2="-7" y2="-7" stroke="black" stroke-width="0.1" />
<circle cx="-7" cy="-7" r="0.1" fill="green" stroke="none" stroke-width="0.2"/>
<line x1="-7" y1="-7" x2="-6" y2="-7" stroke="black" stroke-width="0.1" />
<circle cx="-6" cy="-7" r="0.1" fill="green" stroke="none" stroke-width="0.2"/>
<line x1="-6" y1="-7" x2="-6" y2="-6" stroke="black" stroke-width="0.1" />
<circle cx="-6" cy="-6" r="0.1" fill="green" stroke="none" stroke-width="0.2"/>
<line x1="-6" y1="-6" x2="-7" y2="-6" stroke="black" stroke-width="0.1" />
<circle cx="-7" cy="-6" r="0.1" fill="green" stroke="none" stroke-width="0.2"/>
<line x1="-7" y1="-6" x2="-7" y2="-7" stroke="black" stroke-width="0.1" />
<circle cx="-7" cy="-7" r="0.1" fill="green" stroke="none" stroke-width="0.2"/>
<line x1="-7" y1="-7" x2="-7" y2="-9" stroke="black" stroke-width="0.1" />
<circle cx="-7" cy="-9" r="0.1" fill="green" stroke="none" stroke-width="0.2"/>
<line x1="-7" y1="-9" x2="-8" y2="-11" stroke="black" stroke-width="0.1" />
<circle cx="-8" cy="-11" r="0.1" fill="green" stroke="none" stroke-width="0.2"/>
<line x1="-8" y1="-11" x2="-10" y2="-12" stroke="black" stroke-width="0.1" />
<circle cx="-10" cy="-12" r="0.1" fill="green" stroke="none" stroke-width="0.2"/>
<line x1="-10" y1="-12" x2="-11" y2="-12" stroke="black" stroke-width="0.1" />
<circle cx="-11" cy="-12" r="0.1" fill="green" stroke="none" stroke-width="0.2"/>
<line x1="-11" y1="-12" x2="-11" y2="-11" stroke="black" stroke-width="0.1" />
<circle cx="-11" cy="-11" r="0.1" fill="green" stroke="none" stroke-width="0.2"/>
<line x1="-11" y1="-11" x2="-10" y2="-11" stroke="black" stroke-width="0.1" />
<circle cx="-10" cy="-11" r="0.1" fill="green" stroke="none" stroke-width="0.2"/>
<line x1="-10" y1="-11" x2="-10" y2="-12" stroke="black" stroke-width="0.1" />
<circle cx="-10" cy="-12" r="0.1" fill="green" stroke="none" stroke-width="0.2"/>
<line x1="-10" y1="-12" x2="-11" y2="-12" stroke="black" stroke-width="0.1" />
<circle cx="-11" cy="-12" r="0.1" fill="green" stroke="none" stroke-width="0.2"/>
<line x1="-11" y1="-12" x2="-12" y2="-13" stroke="black" stroke-width="0.1" />
<circle cx="-12" cy="-13" r="0.1" fill="green" stroke="none" stroke-width="0.2"/>
<line x1="-12" y1="-13" x2="-12" y2="-15" stroke="black" stroke-width="0.1" />
<circle cx="-12" cy="-15" r="0.1" fill="green" stroke="none" stroke-width="0.2"/>
<line x1="-12" y1="-15" x2="-13" y2="-18" stroke="black" stroke-width="0.1" />
<circle cx="-13" cy="-18" r="0.1" fill="green" stroke="none" stroke-width="0.2"/>
<line x1="-13" y1="-18" x2="-15" y2="-20" stroke="black" stroke-width="0.1" />
<circle cx="-15" cy="-20" r="0.1" fill="green" stroke="none" stroke-width="0.2"/>
<line x1="-15" y1="-20" x2="-17" y2="-23" stroke="black" stroke-width="0.1" />
<circle cx="-17" cy="-23" r="0.1" fill="green" stroke="none" stroke-width="0.2"/>
<line x1="-17" y1="-23" x2="-18" y2="-27" stroke="black" stroke-width="0.1" />
<circle cx="-18" cy="-27" r="0.1" fill="green" stroke="none" stroke-width="0.2"/>
<line x1="-18" y1="-27" x2="-18" y2="-30" stroke="black" stroke-width="0.1" />
<circle cx="-18" cy="-30" r="0.1" fill="green" stroke="none" stroke-width="0.2"/>
<line x1="-18" y1="-30" x2="-17" y2="-32" stroke="black" stroke-width="0.1" />
<circle cx="-17" cy="-32" r="0.1" fill="green" stroke="none" stroke-width="0.2"/>
<line x1="-17" y1="-32" x2="-17" y2="-33" stroke="black" stroke-width="0.1" />
<circle cx="-17" cy="-33" r="0.1" fill="green" stroke="none" stroke-width="0.2"/>
<line x1="-17" y1="-33" x2="-17" y2="-33" stroke="black" stroke-width="0.1" />
<circle cx="-17" cy="-33" r="0.1" fill="green" stroke="none" stroke-width="0.2"/>
<line x1="-17" y1="-33" x2="-17" y2="-32" stroke="black" stroke-width="0.1" />
<circle cx="-17" cy="-32" r="0.1" fill="green" stroke="none" stroke-width="0.2"/>
<line x1="-17" y1="-32" x2="-17" y2="-30" stroke="black" stroke-width="0.1" />
<circle cx="-17" cy="-30" r="0.1" fill="green" stroke="none" stroke-width="0.2"/>
<line x1="-17" y1="-30" x2="-17" y2="-28" stroke="black" stroke-width="0.1" />
<circle cx="-17" cy="-28" r="0.1" fill="green" stroke="none" stroke-width="0.2"/>
<line x1="-17" y1="-28" x2="-16" y2="-27" stroke="black" stroke-width="0.1" />
<circle cx="-16" cy="-27" r="0.1" fill="green" stroke="none" stroke-width="0.2"/>
<line x1="-16" y1="-27" x2="-15" y2="-27" stroke="black" stroke-width="0.1" />
<circle cx="-15" cy="-27" r="0.1" fill="green" stroke="none" stroke-width="0.2"/>
<line x1="-15" y1="-27" x2="-15" y2="-28" stroke="black" stroke-width="0.1" />
<circle cx="-15" cy="-28" r="0.1" fill="green" stroke="none" stroke-width="0.2"/>
<line x1="-15" y1="-28" x2="-15" y2="-30" stroke="black" stroke-width="0.1" />
<circle cx="-15" cy="-30" r="0.1" fill="green" stroke="none" stroke-width="0.2"/>
<line x1="-15" y1="-30" x2="-15" y2="-32" stroke="black" stroke-width="0.1" />
<circle cx="-15" cy="-32" r="0.1" fill="green" stroke="none" stroke-width="0.2"/>
<line x1="-15" y1="-32" x2="-14" y2="-35" stroke="black" stroke-width="0.1" />
<circle cx="-14" cy="-35" r="0.1" fill="green" stroke="none" stroke-width="0.2"/>
<line x1="-14" y1="-35" x2="-12" y2="-37" stroke="black" stroke-width="0.1" />
<circle cx="-12" cy="-37" r="0.1" fill="green" stroke="none" stroke-width="0.2"/>
<line x1="-12" y1="-37" x2="-11" y2="-38" stroke="black" stroke-width="0.1" />
<circle cx="-11" cy="-38" r="0.1" fill="green" stroke="none" stroke-width="0.2"/>
<line x1="-11" y1="-38" x2="-11" y2="-38" stroke="black" stroke-width="0.1" />
<circle cx="-11" cy="-38" r="0.1" fill="green" stroke="none" stroke-width="0.2"/>
<line x1="-11" y1="-38" x2="-11" y2="-37" stroke="black" stroke-width="0.1" />
<circle cx="-11" cy="-37" r="0.1" fill="green" stroke="none" stroke-width="0.2"/>
<line x1="-11" y1="-37" x2="-11" y2="-36" stroke="black" stroke-width="0.1" />
<circle cx="-11" cy="-36" r="0.1" fill="green" stroke="none" stroke-width="0.2"/>
<line x1="-11" y1="-36" x2="-10" y2="-36" stroke="black" stroke-width="0.1" />
<circle cx="-10" cy="-36" r="0.1" fill="green" stroke="none" stroke-width="0.2"/>
<line x1="-10" y1="-36" x2="-8" y2="-37" stroke="black" stroke-width="0.1" />
<circle cx="-8" cy="-37" r="0.1" fill="green" stroke="none" stroke-width="0.2"/>
<line x1="-8" y1="-37" x2="-5" y2="-39" stroke="black" stroke-width="0.1" />
<circle cx="-5" cy="-39" r="0.1" fill="green" stroke="none" stroke-width="0.2"/>
<line x1="-5" y1="-39" x2="-3" y2="-42" stroke="black" stroke-width="0.1" />
<circle cx="-3" cy="-42" r="0.1" fill="green" stroke="none" stroke-width="0.2"/>
<line x1="-3" y1="-42" x2="-2" y2="-44" stroke="black" stroke-width="0.1" />
<circle cx="-2" cy="-44" r="0.1" fill="green" stroke="none" stroke-width="0.2"/>
<line x1="-2" y1="-44" x2="-2" y2="-45" stroke="black" stroke-width="0.1" />
<circle cx="-2" cy="-45" r="0.1" fill="green" stroke="none" stroke-width="0.2"/>
<line x1="-2" y1="-45" x2="-3" y2="-45" stroke="black" stroke-width="0.1" />
<circle cx="-3" cy="-45" r="0.1" fill="green" stroke="none" stroke-width="0.2"/>
<line x1="-3" y1="-45" x2="-5" y2="-44" stroke="black" stroke-width="0.1" />
<circle cx="-5" cy="-44" r="0.1" fill="green" stroke="none" stroke-width="0.2"/>
<line x1="-5" y1="-44" x2="-6" y2="-42" stroke="black" stroke-width="0.1" />
<circle cx="-6" cy="-42" r="0.1" fill="green" stroke="none" stroke-width="0.2"/>
<line x1="-6" y1="-42" x2="-6" y2="-41" stroke="black" stroke-width="0.1" />
<circle cx="-6" cy="-41" r="0.1" fill="green" stroke="none" stroke-width="0.2"/>
<line x1="-6" y1="-41" x2="-5" y2="-41" stroke="black" stroke-width="0.1" />
<circle cx="-5" cy="-41" r="0.1" fill="green" stroke="none" stroke-width="0.2"/>
<line x1="-5" y1="-41" x2="-5" y2="-42" stroke="black" stroke-width="0.1" />
<circle cx="-5" cy="-42" r="0.1" fill="green" stroke="none" stroke-width="0.2"/>
<line x1="-5" y1="-42" x2="-4" y2="-44" stroke="black" stroke-width="0.1" />
<circle cx="-4" cy="-44" r="0.1" fill="green" stroke="none" stroke-width="0.2"/>
<line x1="-4" y1="-44" x2="-2" y2="-46" stroke="black" stroke-width="0.1" />
<circle cx="-2" cy="-46" r="0.1" fill="green" stroke="none" stroke-width="0.2"/>
<line x1="-2" y1="-46" x2="1" y2="-47" stroke="black" stroke-width="0.1" />
<circle cx="1" cy="-47" r="0.1" fill="green" stroke="none" stroke-width="0.2"/>
<line x1="1" y1="-47" x2="3" y2="-47" stroke="black" stroke-width="0.1" />
<circle cx="3" cy="-47" r="0.1" fill="green" stroke="none" stroke-width="0.2"/>
<line x1="3" y1="-47" x2="4" y2="-46" stroke="black" stroke-width="0.1" />
<circle cx="4" cy="-46" r="0.1" fill="green" stroke="none" stroke-width="0.2"/>
<line x1="4" y1="-46" x2="4" y2="-46" stroke="black" stroke-width="0.1" />
<circle cx="4" cy="-46" r="0.1" fill="green" stroke="none" stroke-width="0.2"/>
<line x1="4" y1="-46" x2="3" y2="-46" stroke="black" stroke-width="0.1" />
<circle cx="3" cy="-46" r="0.1" fill="green" stroke="none" stroke-width="0.2"/>
<line x1="3" y1="-46" x2="2" y2="-46" stroke="black" stroke-width="0.1" />
<circle cx="2" cy="-46" r="0.1" fill="green" stroke="none" stroke-width="0.2"/>
<line x1="2" y1="-46" x2="2" y2="-47" stroke="black" stroke-width="0.1" />
<circle cx="2" cy="-47" r="0.1" fill="green" stroke="none" stroke-width="0.2"/>
<line x1="2" y1="-47" x2="3" y2="-49" stroke="black" stroke-width="0.1" />
<circle cx="3" cy="-49" r="0.1" fill="green" stroke="none" stroke-width="0.2"/>
<line x1="3" y1="-49" x2="5" y2="-50" stroke="black" stroke-width="0.1" />
<circle cx="5" cy="-50" r="0.1" fill="green" stroke="none" stroke-width="0.2"/>
<line x1="5" y1="-50" x2="8" y2="-50" stroke="black" stroke-width="0.1" />
<circle cx="8" cy="-50" r="0.1" fill="green" stroke="none" stroke-width="0.2"/>
<line x1="8" y1="-50" x2="12" y2="-51" stroke="black" stroke-width="0.1" />
<circle cx="12" cy="-51" r="0.1" fill="green" stroke="none" stroke-width="0.2"/>
<line x1="12" y1="-51" x2="16" y2="-52" stroke="black" stroke-width="0.1" />
<circle cx="16" cy="-52" r="0.1" fill="green" stroke="none" stroke-width="0.2"/>
<line x1="16" y1="-52" x2="21" y2="-54" stroke="black" stroke-width="0.1" />
<circle cx="21" cy="-54" r="0.1" fill="green" stroke="none" stroke-width="0.2"/>
<line x1="21" y1="-54" x2="25" y2="-55" stroke="black" stroke-width="0.1" />
<circle cx="25" cy="-55" r="0.1" fill="green" stroke="none" stroke-width="0.2"/>
<line x1="25" y1="-55" x2="28" y2="-55" stroke="black" stroke-width="0.1" />
<circle cx="28" cy="-55" r="0.1" fill="green" stroke="none" stroke-width="0.2"/>
<line x1="28" y1="-55" x2="30" y2="-54" stroke="black" stroke-width="0.1" />
<circle cx="30" cy="-54" r="0.1" fill="green" stroke="none" stroke-width="0.2"/>
<line x1="30" y1="-54" x2="31" y2="-54" stroke="black" stroke-width="0.1" />
<circle cx="31" cy="-54" r="0.1" fill="green" stroke="none" stroke-width="0.2"/>
<line x1="31" y1="-54" x2="31" y2="-54" stroke="black" stroke-width="0.1" />
<circle cx="31" cy="-54" r="0.1" fill="green" stroke="none" stroke-width="0.2"/>
<line x1="31" y1="-54" x2="30" y2="-54" stroke="black" stroke-width="0.1" />
<circle cx="30" cy="-54" r="0.1" fill="green" stroke="none" stroke-width="0.2"/>
<line x1="30" y1="-54" x2="28" y2="-54" stroke="black" stroke-width="0.1" />
<circle cx="28" cy="-54" r="0.1" fill="green" stroke="none" stroke-width="0.2"/>
<line x1="28" y1="-54" x2="25" y2="-54" stroke="black" stroke-width="0.1" />
<circle cx="25" cy="-54" r="0.1" fill="green" stroke="none" stroke-width="0.2"/>
<line x1="25" y1="-54" x2="22" y2="-54" stroke="black" stroke-width="0.1" />
<circle cx="22" cy="-54" r="0.1" fill="green" stroke="none" stroke-width="0.2"/>
<line x1="22" y1="-54" x2="20" y2="-55" stroke="black" stroke-width="0.1" />
<circle cx="20" cy="-55" r="0.1" fill="green" stroke="none" stroke-width="0.2"/>
<line x1="20" y1="-55" x2="19" y2="-55" stroke="black" stroke-width="0.1" />
<circle cx="19" cy="-55" r="0.1" fill="green" stroke="none" stroke-width="0.2"/>
<line x1="19" y1="-55" x2="19" y2="-55" stroke="black" stroke-width="0.1" />
<circle cx="19" cy="-55" r="0.1" fill="green" stroke="none" stroke-width="0.2"/>
<line x1="19" y1="-55" x2="20" y2="-55" stroke="black" stroke-width="0.1" />
<circle cx="20" cy="-55" r="0.1" fill="green" stroke="none" stroke-width="0.2"/>
<line x1="20" y1="-55" x2="22" y2="-55" stroke="black" stroke-width="0.1" />
<circle cx="22" cy="-55" r="0.1" fill="green" stroke="none" stroke-width="0.2"/>
<line x1="22" y1="-55" x2="25" y2="-55" stroke="black" stroke-width="0.1" />
<circle cx="25" cy="-55" r="0.1" fill="green" stroke="none" stroke-width="0.2"/>
<line x1="25" y1="-55" x2="27" y2="-55" stroke="black" stroke-width="0.1" />
<circle cx="27" cy="-55" r="0.1" fill="green" stroke="none" stroke-width="0.2"/>
<line x1="27" y1="-55" x2="28" y2="-55" stroke="black" stroke-width="0.1" />
<circle cx="28" cy="-55" r="0.1" fill="green" stroke="none" stroke-width="0.2"/>
<line x1="28" y1="-55" x2="28" y2="-55" stroke="black" stroke-width="0.1" />
<circle cx="28" cy="-55" r="0.1" fill="green" stroke="none" stroke-width="0.2"/>
<line x1="28" y1="-55" x2="27" y2="-55" stroke="black" stroke-width="0.1" />
<circle cx="27" cy="-55" r="0.1" fill="green" stroke="none" stroke-width="0.2"/>
<line x1="27" y1="-55" x2="26" y2="-55" stroke="black" stroke-width="0.1" />
<circle cx="26" cy="-55" r="0.1" fill="green" stroke="none" stroke-width="0.2"/>
<line x1="26" y1="-55" x2="26" y2="-56" stroke="black" stroke-width="0.1" />
<circle cx="26" cy="-56" r="0.1" fill="green" stroke="none" stroke-width="0.2"/>
<line x1="26" y1="-56" x2="27" y2="-57" stroke="black" stroke-width="0.1" />
<circle cx="27" cy="-57" r="0.1" fill="green" stroke="none" stroke-width="0.2"/>
<line x1="27" y1="-57" x2="29" y2="-57" stroke="black" stroke-width="0.1" />
<circle cx="29" cy="-57" r="0.1" fill="green" stroke="none" stroke-width="0.2"/>
<line x1="29" y1="-57" x2="31" y2="-57" stroke="black" stroke-width="0.1" />
<circle cx="31" cy="-57" r="0.1" fill="green" stroke="none" stroke-width="0.2"/>
<line x1="31" y1="-57" x2="34" y2="-58" stroke="black" stroke-width="0.1" />
<circle cx="34" cy="-58" r="0.1" fill="green" stroke="none" stroke-width="0.2"/>
<line x1="34" y1="-58" x2="36" y2="-60" stroke="black" stroke-width="0.1" />
<circle cx="36" cy="-60" r="0.1" fill="green" stroke="none" stroke-width="0.2"/>
<line x1="36" y1="-60" x2="37" y2="-61" stroke="black" stroke-width="0.1" />
<circle cx="37" cy="-61" r="0.1" fill="green" stroke="none" stroke-width="0.2"/>
<line x1="37" y1="-61" x2="37" y2="-61" stroke="black" stroke-width="0.1" />
<circle cx="37" cy="-61" r="0.1" fill="green" stroke="none" stroke-width="0.2"/>
<line x1="37" y1="-61" x2="36" y2="-61" stroke="black" stroke-width="0.1" />
<circle cx="36" cy="-61" r="0.1" fill="green" stroke="none" stroke-width="0.2"/>
<line x1="36" y1="-61" x2="35" y2="-61" stroke="black" stroke-width="0.1" />
<circle cx="35" cy="-61" r="0.1" fill="green" stroke="none" stroke-width="0.2"/>
<line x1="35" y1="-61" x2="35" y2="-62" stroke="black" stroke-width="0.1" />
<circle cx="35" cy="-62" r="0.1" fill="green" stroke="none" stroke-width="0.2"/>
<line x1="35" y1="-62" x2="36" y2="-64" stroke="black" stroke-width="0.1" />
<circle cx="36" cy="-64" r="0.1" fill="green" stroke="none" stroke-width="0.2"/>
<line x1="36" y1="-64" x2="37" y2="-67" stroke="black" stroke-width="0.1" />
<circle cx="37" cy="-67" r="0.1" fill="green" stroke="none" stroke-width="0.2"/>
<line x1="37" y1="-67" x2="38" y2="-71" stroke="black" stroke-width="0.1" />
<circle cx="38" cy="-71" r="0.1" fill="green" stroke="none" stroke-width="0.2"/>
<line x1="38" y1="-71" x2="40" y2="-74" stroke="black" stroke-width="0.1" />
<circle cx="40" cy="-74" r="0.1" fill="green" stroke="none" stroke-width="0.2"/>
<line x1="40" y1="-74" x2="41" y2="-76" stroke="black" stroke-width="0.1" />
<circle cx="41" cy="-76" r="0.1" fill="green" stroke="none" stroke-width="0.2"/>
<line x1="41" y1="-76" x2="41" y2="-77" stroke="black" stroke-width="0.1" />
<circle cx="41" cy="-77" r="0.1" fill="green" stroke="none" stroke-width="0.2"/>
<line x1="41" y1="-77" x2="40" y2="-77" stroke="black" stroke-width="0.1" />
<circle cx="40" cy="-77" r="0.1" fill="green" stroke="none" stroke-width="0.2"/>
<line x1="40" y1="-77" x2="40" y2="-76" stroke="black" stroke-width="0.1" />
<circle cx="40" cy="-76" r="0.1" fill="green" stroke="none" stroke-width="0.2"/>
<line x1="40" y1="-76" x2="40" y2="-74" stroke="black" stroke-width="0.1" />
<circle cx="40" cy="-74" r="0.1" fill="green" stroke="none" stroke-width="0.2"/>
<line x1="40" y1="-74" x2="40" y2="-73" stroke="black" stroke-width="0.1" />
<circle cx="40" cy="-73" r="0.1" fill="green" stroke="none" stroke-width="0.2"/>
<line x1="40" y1="-73" x2="40" y2="-73" stroke="black" stroke-width="0.1" />
<circle cx="40" cy="-73" r="0.1" fill="green" stroke="none" stroke-width="0.2"/>
<line x1="40" y1="-73" x2="39" y2="-74" stroke="black" stroke-width="0.1" />
<circle cx="39" cy="-74" r="0.1" fill="green" stroke="none" stroke-width="0.2"/>
<line x1="39" y1="-74" x2="38" y2="-75" stroke="black" stroke-width="0.1" />
<circle cx="38" cy="-75" r="0.1" fill="green" stroke="none" stroke-width="0.2"/>
<line x1="38" y1="-75" x2="36" y2="-75" stroke="black" stroke-width="0.1" />
<circle cx="36" cy="-75" r="0.1" fill="green" stroke="none" stroke-width="0.2"/>
<line x1="36" y1="-75" x2="35" y2="-75" stroke="black" stroke-width="0.1" />
<circle cx="35" cy="-75" r="0.1" fill="green" stroke="none" stroke-width="0.2"/>
<line x1="35" y1="-75" x2="33" y2="-76" stroke="black" stroke-width="0.1" />
<circle cx="33" cy="-76" r="0.1" fill="green" stroke="none" stroke-width="0.2"/>
<line x1="33" y1="-76" x2="31" y2="-77" stroke="black" stroke-width="0.1" />
<circle cx="31" cy="-77" r="0.1" fill="green" stroke="none" stroke-width="0.2"/>
<line x1="31" y1="-77" x2="29" y2="-79" stroke="black" stroke-width="0.1" />
<circle cx="29" cy="-79" r="0.1" fill="green" stroke="none" stroke-width="0.2"/>
<line x1="29" y1="-79" x2="28" y2="-81" stroke="black" stroke-width="0.1" />
<circle cx="28" cy="-81" r="0.1" fill="green" stroke="none" stroke-width="0.2"/>
<line x1="28" y1="-81" x2="28" y2="-82" stroke="black" stroke-width="0.1" />
<circle cx="28" cy="-82" r="0.1" fill="green" stroke="none" stroke-width="0.2"/>
<line x1="28" y1="-82" x2="29" y2="-82" stroke="black" stroke-width="0.1" />
<circle cx="29" cy="-82" r="0.1" fill="green" stroke="none" stroke-width="0.2"/>
<line x1="29" y1="-82" x2="29" y2="-81" stroke="black" stroke-width="0.1" />
<circle cx="29" cy="-81" r="0.1" fill="green" stroke="none" stroke-width="0.2"/>
<line x1="29" y1="-81" x2="28" y2="-81" stroke="black" stroke-width="0.1" />
<circle cx="28" cy="-81" r="0.1" fill="green" stroke="none" stroke-width="0.2"/>
<line x1="28" y1="-81" x2="27" y2="-82" stroke="black" stroke-width="0.1" />
<circle cx="27" cy="-82" r="0.1" fill="green" stroke="none" stroke-width="0.2"/>
<line x1="27" y1="-82" x2="27" y2="-84" stroke="black" stroke-width="0.1" />
<circle cx="27" cy="-84" r="0.1" fill="green" stroke="none" stroke-width="0.2"/>
<line x1="27" y1="-84" x2="27" y2="-85" stroke="black" stroke-width="0.1" />
<circle cx="27" cy="-85" r="0.1" fill="green" stroke="none" stroke-width="0.2"/>
<line x1="27" y1="-85" x2="26" y2="-87" stroke="black" stroke-width="0.1" />
<circle cx="26" cy="-87" r="0.1" fill="green" stroke="none" stroke-width="0.2"/>
<line x1="26" y1="-87" x2="24" y2="-88" stroke="black" stroke-width="0.1" />
<circle cx="24" cy="-88" r="0.1" fill="green" stroke="none" stroke-width="0.2"/>
<line x1="24" y1="-88" x2="23" y2="-88" stroke="black" stroke-width="0.1" />
<circle cx="23" cy="-88" r="0.1" fill="green" stroke="none" stroke-width="0.2"/>
<line x1="23" y1="-88" x2="23" y2="-87" stroke="black" stroke-width="0.1" />
<circle cx="23" cy="-87" r="0.1" fill="green" stroke="none" stroke-width="0.2"/>
<line x1="23" y1="-87" x2="22" y2="-87" stroke="black" stroke-width="0.1" />
<circle cx="22" cy="-87" r="0.1" fill="green" stroke="none" stroke-width="0.2"/>
<line x1="22" y1="-87" x2="20" y2="-88" stroke="black" stroke-width="0.1" />
<circle cx="20" cy="-88" r="0.1" fill="green" stroke="none" stroke-width="0.2"/>
<line x1="20" y1="-88" x2="19" y2="-88" stroke="black" stroke-width="0.1" />
<circle cx="19" cy="-88" r="0.1" fill="green" stroke="none" stroke-width="0.2"/>
<line x1="19" y1="-88" x2="17" y2="-87" stroke="black" stroke-width="0.1" />
<circle cx="17" cy="-87" r="0.1" fill="green" stroke="none" stroke-width="0.2"/>
<line x1="17" y1="-87" x2="14" y2="-87" stroke="black" stroke-width="0.1" />
<circle cx="14" cy="-87" r="0.1" fill="green" stroke="none" stroke-width="0.2"/>
<line x1="14" y1="-87" x2="10" y2="-86" stroke="black" stroke-width="0.1" />
<circle cx="10" cy="-86" r="0.1" fill="green" stroke="none" stroke-width="0.2"/>
<line x1="10" y1="-86" x2="7" y2="-85" stroke="black" stroke-width="0.1" />
<circle cx="7" cy="-85" r="0.1" fill="green" stroke="none" stroke-width="0.2"/>
<line x1="7" y1="-85" x2="5" y2="-85" stroke="black" stroke-width="0.1" />
<circle cx="5" cy="-85" r="0.1" fill="green" stroke="none" stroke-width="0.2"/>
<line x1="5" y1="-85" x2="4" y2="-85" stroke="black" stroke-width="0.1" />
<circle cx="4" cy="-85" r="0.1" fill="green" stroke="none" stroke-width="0.2"/>
<line x1="4" y1="-85" x2="4" y2="-85" stroke="black" stroke-width="0.1" />
<circle cx="4" cy="-85" r="0.1" fill="green" stroke="none" stroke-width="0.2"/>
<line x1="4" y1="-85" x2="5" y2="-85" stroke="black" stroke-width="0.1" />
<circle cx="5" cy="-85" r="0.1" fill="green" stroke="none" stroke-width="0.2"/>
<line x1="5" y1="-85" x2="7" y2="-85" stroke="black" stroke-width="0.1" />
<circle cx="7" cy="-85" r="0.1" fill="green" stroke="none" stroke-width="0.2"/>
<line x1="7" y1="-85" x2="8" y2="-85" stroke="black" stroke-width="0.1" />
<circle cx="8" cy="-85" r="0.1" fill="green" stroke="none" stroke-width="0.2"/>
<line x1="8" y1="-85" x2="8" y2="-84" stroke="black" stroke-width="0.1" />
<circle cx="8" cy="-84" r="0.1" fill="green" stroke="none" stroke-width="0.2"/>
<line x1="8" y1="-84" x2="7" y2="-82" stroke="black" stroke-width="0.1" />
<circle cx="7" cy="-82" r="0.1" fill="green" stroke="none" stroke-width="0.2"/>
<line x1="7" y1="-82" x2="5" y2="-81" stroke="black" stroke-width="0.1" />
<circle cx="5" cy="-81" r="0.1" fill="green" stroke="none" stroke-width="0.2"/>
<line x1="5" y1="-81" x2="2" y2="-81" stroke="black" stroke-width="0.1" />
<circle cx="2" cy="-81" r="0.1" fill="green" stroke="none" stroke-width="0.2"/>
<line x1="2" y1="-81" x2="0" y2="-82" stroke="black" stroke-width="0.1" />
<circle cx="0" cy="-82" r="0.1" fill="green" stroke="none" stroke-width="0.2"/>
<line x1="0" y1="-82" x2="-1" y2="-82" stroke="black" stroke-width="0.1" />
<circle cx="-1" cy="-82" r="0.1" fill="green" stroke="none" stroke-width="0.2"/>
<line x1="-1" y1="-82" x2="-1" y2="-82" stroke="black" stroke-width="0.1" />
<circle cx="-1" cy="-82" r="0.1" fill="green" stroke="none" stroke-width="0.2"/>
<line x1="-1" y1="-82" x2="0" y2="-82" stroke="black" stroke-width="0.1" />
<circle cx="0" cy="-82" r="0.1" fill="green" stroke="none" stroke-width="0.2"/>
<line x1="0" y1="-82" x2="1" y2="-82" stroke="black" stroke-width="0.1" />
<circle cx="1" cy="-82" r="0.1" fill="green" stroke="none" stroke-width="0.2"/>
<line x1="1" y1="-82" x2="1" y2="-81" stroke="black" stroke-width="0.1" />
<circle cx="1" cy="-81" r="0.1" fill="green" stroke="none" stroke-width="0.2"/>
<line x1="1" y1="-81" x2="0" y2="-79" stroke="black" stroke-width="0.1" />
<circle cx="0" cy="-79" r="0.1" fill="green" stroke="none" stroke-width="0.2"/>
<line x1="0" y1="-79" x2="-2" y2="-78" stroke="black" stroke-width="0.1" />
<circle cx="-2" cy="-78" r="0.1" fill="green" stroke="none" stroke-width="0.2"/>
<line x1="-2" y1="-78" x2="-4" y2="-78" stroke="black" stroke-width="0.1" />
<circle cx="-4" cy="-78" r="0.1" fill="green" stroke="none" stroke-width="0.2"/>
<line x1="-4" y1="-78" x2="-7" y2="-77" stroke="black" stroke-width="0.1" />
<circle cx="-7" cy="-77" r="0.1" fill="green" stroke="none" stroke-width="0.2"/>
<line x1="-7" y1="-77" x2="-11" y2="-75" stroke="black" stroke-width="0.1" />
<circle cx="-11" cy="-75" r="0.1" fill="green" stroke="none" stroke-width="0.2"/>
<line x1="-11" y1="-75" x2="-16" y2="-73" stroke="black" stroke-width="0.1" />
<circle cx="-16" cy="-73" r="0.1" fill="green" stroke="none" stroke-width="0.2"/>
<line x1="-16" y1="-73" x2="-20" y2="-72" stroke="black" stroke-width="0.1" />
<circle cx="-20" cy="-72" r="0.1" fill="green" stroke="none" stroke-width="0.2"/>
<line x1="-20" y1="-72" x2="-23" y2="-72" stroke="black" stroke-width="0.1" />
<circle cx="-23" cy="-72" r="0.1" fill="green" stroke="none" stroke-width="0.2"/>
<line x1="-23" y1="-72" x2="-25" y2="-73" stroke="black" stroke-width="0.1" />
<circle cx="-25" cy="-73" r="0.1" fill="green" stroke="none" stroke-width="0.2"/>
<line x1="-25" y1="-73" x2="-26" y2="-73" stroke="black" stroke-width="0.1" />
<circle cx="-26" cy="-73" r="0.1" fill="green" stroke="none" stroke-width="0.2"/>
<line x1="-26" y1="-73" x2="-26" y2="-73" stroke="black" stroke-width="0.1" />
<circle cx="-26" cy="-73" r="0.1" fill="green" stroke="none" stroke-width="0.2"/>
<line x1="-26" y1="-73" x2="-25" y2="-73" stroke="black" stroke-width="0.1" />
<circle cx="-25" cy="-73" r="0.1" fill="green" stroke="none" stroke-width="0.2"/>
<line x1="-25" y1="-73" x2="-23" y2="-73" stroke="black" stroke-width="0.1" />
<circle cx="-23" cy="-73" r="0.1" fill="green" stroke="none" stroke-width="0.2"/>
<line x1="-23" y1="-73" x2="-20" y2="-73" stroke="black" stroke-width="0.1" />
<circle cx="-20" cy="-73" r="0.1" fill="green" stroke="none" stroke-width="0.2"/>
<line x1="-20" y1="-73" x2="-18" y2="-72" stroke="black" stroke-width="0.1" />
<circle cx="-18" cy="-72" r="0.1" fill="green" stroke="none" stroke-width="0.2"/>
<line x1="-18" y1="-72" x2="-17" y2="-70" stroke="black" stroke-width="0.1" />
<circle cx="-17" cy="-70" r="0.1" fill="green" stroke="none" stroke-width="0.2"/>
<line x1="-17" y1="-70" x2="-17" y2="-69" stroke="black" stroke-width="0.1" />
<circle cx="-17" cy="-69" r="0.1" fill="green" stroke="none" stroke-width="0.2"/>
<line x1="-17" y1="-69" x2="-18" y2="-69" stroke="black" stroke-width="0.1" />
<circle cx="-18" cy="-69" r="0.1" fill="green" stroke="none" stroke-width="0.2"/>
<line x1="-18" y1="-69" x2="-20" y2="-70" stroke="black" stroke-width="0.1" />
<circle cx="-20" cy="-70" r="0.1" fill="green" stroke="none" stroke-width="0.2"/>
<line x1="-20" y1="-70" x2="-23" y2="-70" stroke="black" stroke-width="0.1" />
<circle cx="-23" cy="-70" r="0.1" fill="green" stroke="none" stroke-width="0.2"/>
<line x1="-23" y1="-70" x2="-27" y2="-70" stroke="black" stroke-width="0.1" />
<circle cx="-27" cy="-70" r="0.1" fill="green" stroke="none" stroke-width="0.2"/>
<line x1="-27" y1="-70" x2="-30" y2="-70" stroke="black" stroke-width="0.1" />
<circle cx="-30" cy="-70" r="0.1" fill="green" stroke="none" stroke-width="0.2"/>
<line x1="-30" y1="-70" x2="-32" y2="-70" stroke="black" stroke-width="0.1" />
<circle cx="-32" cy="-70" r="0.1" fill="green" stroke="none" stroke-width="0.2"/>
<line x1="-32" y1="-70" x2="-33" y2="-70" stroke="black" stroke-width="0.1" />
<circle cx="-33" cy="-70" r="0.1" fill="green" stroke="none" stroke-width="0.2"/>
<line x1="-33" y1="-70" x2="-33" y2="-70" stroke="black" stroke-width="0.1" />
<circle cx="-33" cy="-70" r="0.1" fill="green" stroke="none" stroke-width="0.2"/>
<line x1="-33" y1="-70" x2="-32" y2="-70" stroke="black" stroke-width="0.1" />
<circle cx="-32" cy="-70" r="0.1" fill="green" stroke="none" stroke-width="0.2"/>
<line x1="-32" y1="-70" x2="-30" y2="-70" stroke="black" stroke-width="0.1" />
<circle cx="-30" cy="-70" r="0.1" fill="green" stroke="none" stroke-width="0.2"/>
<line x1="-30" y1="-70" x2="-29" y2="-70" stroke="black" stroke-width="0.1" />
<circle cx="-29" cy="-70" r="0.1" fill="green" stroke="none" stroke-width="0.2"/>
<line x1="-29" y1="-70" x2="-29" y2="-69" stroke="black" stroke-width="0.1" />
<circle cx="-29" cy="-69" r="0.1" fill="green" stroke="none" stroke-width="0.2"/>
<line x1="-29" y1="-69" x2="-30" y2="-68" stroke="black" stroke-width="0.1" />
<circle cx="-30" cy="-68" r="0.1" fill="green" stroke="none" stroke-width="0.2"/>
<line x1="-30" y1="-68" x2="-32" y2="-68" stroke="black" stroke-width="0.1" />
<circle cx="-32" cy="-68" r="0.1" fill="green" stroke="none" stroke-width="0.2"/>
<line x1="-32" y1="-68" x2="-35" y2="-68" stroke="black" stroke-width="0.1" />
<circle cx="-35" cy="-68" r="0.1" fill="green" stroke="none" stroke-width="0.2"/>
<line x1="-35" y1="-68" x2="-37" y2="-68" stroke="black" stroke-width="0.1" />
<circle cx="-37" cy="-68" r="0.1" fill="green" stroke="none" stroke-width="0.2"/>
<line x1="-37" y1="-68" x2="-38" y2="-68" stroke="black" stroke-width="0.1" />
<circle cx="-38" cy="-68" r="0.1" fill="green" stroke="none" stroke-width="0.2"/>
<line x1="-38" y1="-68" x2="-38" y2="-68" stroke="black" stroke-width="0.1" />
<circle cx="-38" cy="-68" r="0.1" fill="green" stroke="none" stroke-width="0.2"/>
<line x1="-38" y1="-68" x2="-37" y2="-68" stroke="black" stroke-width="0.1" />
<circle cx="-37" cy="-68" r="0.1" fill="green" stroke="none" stroke-width="0.2"/>
<line x1="-37" y1="-68" x2="-36" y2="-68" stroke="black" stroke-width="0.1" />
<circle cx="-36" cy="-68" r="0.1" fill="green" stroke="none" stroke-width="0.2"/>
<line x1="-36" y1="-68" x2="-36" y2="-67" stroke="black" stroke-width="0.1" />
<circle cx="-36" cy="-67" r="0.1" fill="green" stroke="none" stroke-width="0.2"/>
<line x1="-36" y1="-67" x2="-37" y2="-66" stroke="black" stroke-width="0.1" />
<circle cx="-37" cy="-66" r="0.1" fill="green" stroke="none" stroke-width="0.2"/>
<line x1="-37" y1="-66" x2="-39" y2="-66" stroke="black" stroke-width="0.1" />
<circle cx="-39" cy="-66" r="0.1" fill="green" stroke="none" stroke-width="0.2"/>
<line x1="-39" y1="-66" x2="-42" y2="-66" stroke="black" stroke-width="0.1" />
<circle cx="-42" cy="-66" r="0.1" fill="green" stroke="none" stroke-width="0.2"/>
<line x1="-42" y1="-66" x2="-45" y2="-66" stroke="black" stroke-width="0.1" />
<circle cx="-45" cy="-66" r="0.1" fill="green" stroke="none" stroke-width="0.2"/>
<line x1="-45" y1="-66" x2="-49" y2="-65" stroke="black" stroke-width="0.1" />
<circle cx="-49" cy="-65" r="0.1" fill="green" stroke="none" stroke-width="0.2"/>
<line x1="-49" y1="-65" x2="-54" y2="-63" stroke="black" stroke-width="0.1" />
<circle cx="-54" cy="-63" r="0.1" fill="green" stroke="none" stroke-width="0.2"/>
<line x1="-54" y1="-63" x2="-60" y2="-60" stroke="black" stroke-width="0.1" />
<circle cx="-60" cy="-60" r="0.1" fill="green" stroke="none" stroke-width="0.2"/>
<line x1="-60" y1="-60" x2="-65" y2="-58" stroke="black" stroke-width="0.1" />
<circle cx="-65" cy="-58" r="0.1" fill="green" stroke="none" stroke-width="0.2"/>
<line x1="-65" y1="-58" x2="-69" y2="-57" stroke="black" stroke-width="0.1" />
<circle cx="-69" cy="-57" r="0.1" fill="green" stroke="none" stroke-width="0.2"/>
<line x1="-69" y1="-57" x2="-72" y2="-57" stroke="black" stroke-width="0.1" />
<circle cx="-72" cy="-57" r="0.1" fill="green" stroke="none" stroke-width="0.2"/>
<line x1="-72" y1="-57" x2="-74" y2="-58" stroke="black" stroke-width="0.1" />
<circle cx="-74" cy="-58" r="0.1" fill="green" stroke="none" stroke-width="0.2"/>
<line x1="-74" y1="-58" x2="-75" y2="-59" stroke="black" stroke-width="0.1" />
<circle cx="-75" cy="-59" r="0.1" fill="green" stroke="none" stroke-width="0.2"/>
<line x1="-75" y1="-59" x2="-75" y2="-59" stroke="black" stroke-width="0.1" />
<circle cx="-75" cy="-59" r="0.1" fill="green" stroke="none" stroke-width="0.2"/>
<line x1="-75" y1="-59" x2="-74" y2="-59" stroke="black" stroke-width="0.1" />
<circle cx="-74" cy="-59" r="0.1" fill="green" stroke="none" stroke-width="0.2"/>
<line x1="-74" y1="-59" x2="-72" y2="-59" stroke="black" stroke-width="0.1" />
<circle cx="-72" cy="-59" r="0.1" fill="green" stroke="none" stroke-width="0.2"/>
<line x1="-72" y1="-59" x2="-69" y2="-59" stroke="black" stroke-width="0.1" />
<circle cx="-69" cy="-59" r="0.1" fill="green" stroke="none" stroke-width="0.2"/>
<line x1="-69" y1="-59" x2="-65" y2="-59" stroke="black" stroke-width="0.1" />
<circle cx="-65" cy="-59" r="0.1" fill="green" stroke="none" stroke-width="0.2"/>
<line x1="-65" y1="-59" x2="-61" y2="-59" stroke="black" stroke-width="0.1" />
<circle cx="-61" cy="-59" r="0.1" fill="green" stroke="none" stroke-width="0.2"/>
<line x1="-61" y1="-59" x2="-58" y2="-58" stroke="black" stroke-width="0.1" />
<circle cx="-58" cy="-58" r="0.1" fill="green" stroke="none" stroke-width="0.2"/>
<line x1="-58" y1="-58" x2="-56" y2="-56" stroke="black" stroke-width="0.1" />
<circle cx="-56" cy="-56" r="0.1" fill="green" stroke="none" stroke-width="0.2"/>
<line x1="-56" y1="-56" x2="-55" y2="-55" stroke="black" stroke-width="0.1" />
<circle cx="-55" cy="-55" r="0.1" fill="green" stroke="none" stroke-width="0.2"/>
<line x1="-55" y1="-55" x2="-55" y2="-55" stroke="black" stroke-width="0.1" />
<circle cx="-55" cy="-55" r="0.1" fill="green" stroke="none" stroke-width="0.2"/>
<line x1="-55" y1="-55" x2="-56" y2="-55" stroke="black" stroke-width="0.1" />
<circle cx="-56" cy="-55" r="0.1" fill="green" stroke="none" stroke-width="0.2"/>
<line x1="-56" y1="-55" x2="-58" y2="-55" stroke="black" stroke-width="0.1" />
<circle cx="-58" cy="-55" r="0.1" fill="green" stroke="none" stroke-width="0.2"/>
<line x1="-58" y1="-55" x2="-61" y2="-55" stroke="black" stroke-width="0.1" />
<circle cx="-61" cy="-55" r="0.1" fill="green" stroke="none" stroke-width="0.2"/>
<line x1="-61" y1="-55" x2="-65" y2="-55" stroke="black" stroke-width="0.1" />
<circle cx="-65" cy="-55" r="0.1" fill="green" stroke="none" stroke-width="0.2"/>
<line x1="-65" y1="-55" x2="-68" y2="-55" stroke="black" stroke-width="0.1" />
<circle cx="-68" cy="-55" r="0.1" fill="green" stroke="none" stroke-width="0.2"/>
<line x1="-68" y1="-55" x2="-70" y2="-55" stroke="black" stroke-width="0.1" />
<circle cx="-70" cy="-55" r="0.1" fill="green" stroke="none" stroke-width="0.2"/>
<line x1="-70" y1="-55" x2="-71" y2="-55" stroke="black" stroke-width="0.1" />
<circle cx="-71" cy="-55" r="0.1" fill="green" stroke="none" stroke-width="0.2"/>
<line x1="-71" y1="-55" x2="-71" y2="-55" stroke="black" stroke-width="0.1" />
<circle cx="-71" cy="-55" r="0.1" fill="green" stroke="none" stroke-width="0.2"/>
<line x1="-71" y1="-55" x2="-70" y2="-55" stroke="black" stroke-width="0.1" />
<circle cx="-70" cy="-55" r="0.1" fill="green" stroke="none" stroke-width="0.2"/>
<line x1="-70" y1="-55" x2="-68" y2="-55" stroke="black" stroke-width="0.1" />
<circle cx="-68" cy="-55" r="0.1" fill="green" stroke="none" stroke-width="0.2"/>
<line x1="-68" y1="-55" x2="-66" y2="-55" stroke="black" stroke-width="0.1" />
<circle cx="-66" cy="-55" r="0.1" fill="green" stroke="none" stroke-width="0.2"/>
<line x1="-66" y1="-55" x2="-65" y2="-54" stroke="black" stroke-width="0.1" />
<circle cx="-65" cy="-54" r="0.1" fill="green" stroke="none" stroke-width="0.2"/>
<line x1="-65" y1="-54" x2="-65" y2="-52" stroke="black" stroke-width="0.1" />
<circle cx="-65" cy="-52" r="0.1" fill="green" stroke="none" stroke-width="0.2"/>
<line x1="-65" y1="-52" x2="-66" y2="-51" stroke="black" stroke-width="0.1" />
<circle cx="-66" cy="-51" r="0.1" fill="green" stroke="none" stroke-width="0.2"/>
<line x1="-66" y1="-51" x2="-68" y2="-51" stroke="black" stroke-width="0.1" />
<circle cx="-68" cy="-51" r="0.1" fill="green" stroke="none" stroke-width="0.2"/>
<line x1="-68" y1="-51" x2="-71" y2="-52" stroke="black" stroke-width="0.1" />
<circle cx="-71" cy="-52" r="0.1" fill="green" stroke="none" stroke-width="0.2"/>
<line x1="-71" y1="-52" x2="-73" y2="-52" stroke="black" stroke-width="0.1" />
<circle cx="-73" cy="-52" r="0.1" fill="green" stroke="none" stroke-width="0.2"/>
<line x1="-73" y1="-52" x2="-76" y2="-51" stroke="black" stroke-width="0.1" />
<circle cx="-76" cy="-51" r="0.1" fill="green" stroke="none" stroke-width="0.2"/>
<line x1="-76" y1="-51" x2="-78" y2="-49" stroke="black" stroke-width="0.1" />
<circle cx="-78" cy="-49" r="0.1" fill="green" stroke="none" stroke-width="0.2"/>
<line x1="-78" y1="-49" x2="-81" y2="-46" stroke="black" stroke-width="0.1" />
<circle cx="-81" cy="-46" r="0.1" fill="green" stroke="none" stroke-width="0.2"/>
<line x1="-81" y1="-46" x2="-83" y2="-44" stroke="black" stroke-width="0.1" />
<circle cx="-83" cy="-44" r="0.1" fill="green" stroke="none" stroke-width="0.2"/>
<line x1="-83" y1="-44" x2="-84" y2="-43" stroke="black" stroke-width="0.1" />
<circle cx="-84" cy="-43" r="0.1" fill="green" stroke="none" stroke-width="0.2"/>
<line x1="-84" y1="-43" x2="-84" y2="-43" stroke="black" stroke-width="0.1" />
<circle cx="-84" cy="-43" r="0.1" fill="green" stroke="none" stroke-width="0.2"/>
<line x1="-84" y1="-43" x2="-83" y2="-44" stroke="black" stroke-width="0.1" />
<circle cx="-83" cy="-44" r="0.1" fill="green" stroke="none" stroke-width="0.2"/>
<line x1="-83" y1="-44" x2="-81" y2="-45" stroke="black" stroke-width="0.1" />
<circle cx="-81" cy="-45" r="0.1" fill="green" stroke="none" stroke-width="0.2"/>
<line x1="-81" y1="-45" x2="-80" y2="-45" stroke="black" stroke-width="0.1" />
<circle cx="-80" cy="-45" r="0.1" fill="green" stroke="none" stroke-width="0.2"/>
<line x1="-80" y1="-45" x2="-80" y2="-44" stroke="black" stroke-width="0.1" />
<circle cx="-80" cy="-44" r="0.1" fill="green" stroke="none" stroke-width="0.2"/>
<line x1="-80" y1="-44" x2="-81" y2="-42" stroke="black" stroke-width="0.1" />
<circle cx="-81" cy="-42" r="0.1" fill="green" stroke="none" stroke-width="0.2"/>
<line x1="-81" y1="-42" x2="-83" y2="-41" stroke="black" stroke-width="0.1" />
<circle cx="-83" cy="-41" r="0.1" fill="green" stroke="none" stroke-width="0.2"/>
<line x1="-83" y1="-41" x2="-84" y2="-41" stroke="black" stroke-width="0.1" />
<circle cx="-84" cy="-41" r="0.1" fill="green" stroke="none" stroke-width="0.2"/>
<line x1="-84" y1="-41" x2="-84" y2="-42" stroke="black" stroke-width="0.1" />
<circle cx="-84" cy="-42" r="0.1" fill="green" stroke="none" stroke-width="0.2"/>
<line x1="-84" y1="-42" x2="-83" y2="-42" stroke="black" stroke-width="0.1" />
<circle cx="-83" cy="-42" r="0.1" fill="green" stroke="none" stroke-width="0.2"/>
<line x1="-83" y1="-42" x2="-83" y2="-41" stroke="black" stroke-width="0.1" />
<circle cx="-83" cy="-41" r="0.1" fill="green" stroke="none" stroke-width="0.2"/>
<line x1="-83" y1="-41" x2="-84" y2="-41" stroke="black" stroke-width="0.1" />
<circle cx="-84" cy="-41" r="0.1" fill="green" stroke="none" stroke-width="0.2"/>
<line x1="-84" y1="-41" x2="-86" y2="-41" stroke="black" stroke-width="0.1" />
<circle cx="-86" cy="-41" r="0.1" fill="green" stroke="none" stroke-width="0.2"/>
<line x1="-86" y1="-41" x2="-89" y2="-40" stroke="black" stroke-width="0.1" />
<circle cx="-89" cy="-40" r="0.1" fill="green" stroke="none" stroke-width="0.2"/>
<line x1="-89" y1="-40" x2="-91" y2="-38" stroke="black" stroke-width="0.1" />
<circle cx="-91" cy="-38" r="0.1" fill="green" stroke="none" stroke-width="0.2"/>
<line x1="-91" y1="-38" x2="-94" y2="-35" stroke="black" stroke-width="0.1" />
<circle cx="-94" cy="-35" r="0.1" fill="green" stroke="none" stroke-width="0.2"/>

    </svg>
