
    <svg version="1.1"
        viewBox="-2.4, -161.4, 175.8, 161.8"
        xmlns="http://www.w3.org/2000/svg">

        <rect x="-2.4" y="-161.4" width="100%" height="100%" style="fill:white; stroke-width:0.1; stroke: black" />

<circle cx="0" cy="0" r="0.30000000000000004" fill="red" stroke="none" stroke-width="0.2"/>
<circle cx="-2" cy="-1" r="0.2" fill="blue" stroke="none" stroke-width="0.2"/>
<circle cx="-2" cy="-2" r="0.2" fill="blue" stroke="none" stroke-width="0.2"/>
<circle cx="1" cy="-4" r="0.2" fill="blue" stroke="none" stroke-width="0.2"/>
<circle cx="1" cy="-5" r="0.2" fill="blue" stroke="none" stroke-width="0.2"/>
<circle cx="2" cy="-8" r="0.2" fill="blue" stroke="none" stroke-width="0.2"/>
<circle cx="4" cy="-11" r="0.2" fill="blue" stroke="none" stroke-width="0.2"/>
<circle cx="6" cy="-17" r="0.2" fill="blue" stroke="none" stroke-width="0.2"/>
<circle cx="6" cy="-20" r="0.2" fill="blue" stroke="none" stroke-width="0.2"/>
<circle cx="11" cy="-25" r="0.2" fill="blue" stroke="none" stroke-width="0.2"/>
<circle cx="12" cy="-29" r="0.2" fill="blue" stroke="none" stroke-width="0.2"/>
<circle cx="18" cy="-34" r="0.2" fill="blue" stroke="none" stroke-width="0.2"/>
<circle cx="21" cy="-38" r="0.2" fill="blue" stroke="none" stroke-width="0.2"/>
<circle cx="29" cy="-44" r="0.2" fill="blue" stroke="none" stroke-width="0.2"/>
<circle cx="35" cy="-48" r="0.2" fill="blue" stroke="none" stroke-width="0.2"/>
<circle cx="41" cy="-53" r="0.2" fill="blue" stroke="none" stroke-width="0.2"/>
<circle cx="48" cy="-57" r="0.2" fill="blue" stroke="none" stroke-width="0.2"/>
<circle cx="55" cy="-60" r="0.2" fill="blue" stroke="none" stroke-width="0.2"/>
<circle cx="59" cy="-63" r="0.2" fill="blue" stroke="none" stroke-width="0.2"/>
<circle cx="63" cy="-65" r="0.2" fill="blue" stroke="none" stroke-width="0.2"/>
<circle cx="70" cy="-68" r="0.2" fill="blue" stroke="none" stroke-width="0.2"/>
<circle cx="74" cy="-68" r="0.2" fill="blue" stroke="none" stroke-width="0.2"/>
<circle cx="79" cy="-69" r="0.2" fill="blue" stroke="none" stroke-width="0.2"/>
<circle cx="85" cy="-70" r="0.2" fill="blue" stroke="none" stroke-width="0.2"/>
<circle cx="87" cy="-73" r="0.2" fill="blue" stroke="none" stroke-width="0.2"/>
<circle cx="90" cy="-74" r="0.2" fill="blue" stroke="none" stroke-width="0.2"/>
<circle cx="94" cy="-78" r="0.2" fill="blue" stroke="none" stroke-width="0.2"/>
<circle cx="96" cy="-80" r="0.2" fill="blue" stroke="none" stroke-width="0.2"/>
<circle cx="97" cy="-84" r="0.2" fill="blue" stroke="none" stroke-width="0.2"/>
<circle cx="100" cy="-88" r="0.2" fill="blue" stroke="none" stroke-width="0.2"/>
<circle cx="103" cy="-94" r="0.2" fill="blue" stroke="none" stroke-width="0.2"/>
<circle cx="105" cy="-96" r="0.2" fill="blue" stroke="none" stroke-width="0.2"/>
<circle cx="107" cy="-102" r="0.2" fill="blue" stroke="none" stroke-width="0.2"/>
<circle cx="109" cy="-105" r="0.2" fill="blue" stroke="none" stroke-width="0.2"/>
<circle cx="112" cy="-111" r="0.2" fill="blue" stroke="none" stroke-width="0.2"/>
<circle cx="114" cy="-113" r="0.2" fill="blue" stroke="none" stroke-width="0.2"/>
<circle cx="116" cy="-117" r="0.2" fill="blue" stroke="none" stroke-width="0.2"/>
<circle cx="118" cy="-121" r="0.2" fill="blue" stroke="none" stroke-width="0.2"/>
<circle cx="122" cy="-125" r="0.2" fill="blue" stroke="none" stroke-width="0.2"/>
<circle cx="126" cy="-128" r="0.2" fill="blue" stroke="none" stroke-width="0.2"/>
<circle cx="129" cy="-133" r="0.2" fill="blue" stroke="none" stroke-width="0.2"/>
<circle cx="133" cy="-136" r="0.2" fill="blue" stroke="none" stroke-width="0.2"/>
<circle cx="137" cy="-140" r="0.2" fill="blue" stroke="none" stroke-width="0.2"/>
<circle cx="141" cy="-144" r="0.2" fill="blue" stroke="none" stroke-width="0.2"/>
<circle cx="143" cy="-147" r="0.2" fill="blue" stroke="none" stroke-width="0.2"/>
<circle cx="149" cy="-152" r="0.2" fill="blue" stroke="none" stroke-width="0.2"/>
<circle cx="153" cy="-154" r="0.2" fill="blue" stroke="none" stroke-width="0.2"/>
<circle cx="156" cy="-156" r="0.2" fill="blue" stroke="none" stroke-width="0.2"/>
<circle cx="161" cy="-158" r="0.2" fill="blue" stroke="none" stroke-width="0.2"/>
<circle cx="165" cy="-160" r="0.2" fill="blue" stroke="none" stroke-width="0.2"/>
<circle cx="173" cy="-161" r="0.2" fill="blue" stroke="none" stroke-width="0.2"/>
<line x1="0" y1="0" x2="-1" y2="-1" stroke="black" stroke-width="0.1" />
<circle cx="-1" cy="-1" r="0.1" fill="green" stroke="none" stroke-width="0.2"/>
<line x1="-1" y1="-1" x2="-2" y2="-1" stroke="black" stroke-width="0.1" />
<circle cx="-2" cy="-1" r="0.1" fill="green" stroke="none" stroke-width="0.2"/>
<line x1="-2" y1="-1" x2="-2" y2="-2" stroke="black" stroke-width="0.1" />
<circle cx="-2" cy="-2" r="0.1" fill="green" stroke="none" stroke-width="0.2"/>
<line x1="-2" y1="-2" x2="-1" y2="-4" stroke="black" stroke-width="0.1" />
<circle cx="-1" cy="-4" r="0.1" fill="green" stroke="none" stroke-width="0.2"/>
<line x1="-1" y1="-4" x2="1" y2="-5" stroke="black" stroke-width="0.1" />
<circle cx="1" cy="-5" r="0.1" fill="green" stroke="none" stroke-width="0.2"/>
<line x1="1" y1="-5" x2="2" y2="-5" stroke="black" stroke-width="0.1" />
<circle cx="2" cy="-5" r="0.1" fill="green" stroke="none" stroke-width="0.2"/>
<line x1="2" y1="-5" x2="2" y2="-4" stroke="black" stroke-width="0.1" />
<circle cx="2" cy="-4" r="0.1" fill="green" stroke="none" stroke-width="0.2"/>
<line x1="2" y1="-4" x2="1" y2="-4" stroke="black" stroke-width="0.1" />
<circle cx="1" cy="-4" r="0.1" fill="green" stroke="none" stroke-width="0.2"/>
<line x1="1" y1="-4" x2="1" y2="-5" stroke="black" stroke-width="0.1" />
<circle cx="1" cy="-5" r="0.1" fill="green" stroke="none" stroke-width="0.2"/>
<line x1="1" y1="-5" x2="2" y2="-7" stroke="black" stroke-width="0.1" />
<circle cx="2" cy="-7" r="0.1" fill="green" stroke="none" stroke-width="0.2"/>
<line x1="2" y1="-7" x2="2" y2="-8" stroke="black" stroke-width="0.1" />
<circle cx="2" cy="-8" r="0.1" fill="green" stroke="none" stroke-width="0.2"/>
<line x1="2" y1="-8" x2="3" y2="-10" stroke="black" stroke-width="0.1" />
<circle cx="3" cy="-10" r="0.1" fill="green" stroke="none" stroke-width="0.2"/>
<line x1="3" y1="-10" x2="4" y2="-11" stroke="black" stroke-width="0.1" />
<circle cx="4" cy="-11" r="0.1" fill="green" stroke="none" stroke-width="0.2"/>
<line x1="4" y1="-11" x2="6" y2="-13" stroke="black" stroke-width="0.1" />
<circle cx="6" cy="-13" r="0.1" fill="green" stroke="none" stroke-width="0.2"/>
<line x1="6" y1="-13" x2="7" y2="-16" stroke="black" stroke-width="0.1" />
<circle cx="7" cy="-16" r="0.1" fill="green" stroke="none" stroke-width="0.2"/>
<line x1="7" y1="-16" x2="7" y2="-18" stroke="black" stroke-width="0.1" />
<circle cx="7" cy="-18" r="0.1" fill="green" stroke="none" stroke-width="0.2"/>
<line x1="7" y1="-18" x2="6" y2="-19" stroke="black" stroke-width="0.1" />
<circle cx="6" cy="-19" r="0.1" fill="green" stroke="none" stroke-width="0.2"/>
<line x1="6" y1="-19" x2="6" y2="-19" stroke="black" stroke-width="0.1" />
<circle cx="6" cy="-19" r="0.1" fill="green" stroke="none" stroke-width="0.2"/>
<line x1="6" y1="-19" x2="6" y2="-18" stroke="black" stroke-width="0.1" />
<circle cx="6" cy="-18" r="0.1" fill="green" stroke="none" stroke-width="0.2"/>
<line x1="6" y1="-18" x2="6" y2="-17" stroke="black" stroke-width="0.1" />
<circle cx="6" cy="-17" r="0.1" fill="green" stroke="none" stroke-width="0.2"/>
<line x1="6" y1="-17" x2="6" y2="-17" stroke="black" stroke-width="0.1" />
<circle cx="6" cy="-17" r="0.1" fill="green" stroke="none" stroke-width="0.2"/>
<line x1="6" y1="-17" x2="6" y2="-18" stroke="black" stroke-width="0.1" />
<circle cx="6" cy="-18" r="0.1" fill="green" stroke="none" stroke-width="0.2"/>
<line x1="6" y1="-18" x2="6" y2="-20" stroke="black" stroke-width="0.1" />
<circle cx="6" cy="-20" r="0.1" fill="green" stroke="none" stroke-width="0.2"/>
<line x1="6" y1="-20" x2="7" y2="-23" stroke="black" stroke-width="0.1" />
<circle cx="7" cy="-23" r="0.1" fill="green" stroke="none" stroke-width="0.2"/>
<line x1="7" y1="-23" x2="9" y2="-25" stroke="black" stroke-width="0.1" />
<circle cx="9" cy="-25" r="0.1" fill="green" stroke="none" stroke-width="0.2"/>
<line x1="9" y1="-25" x2="11" y2="-26" stroke="black" stroke-width="0.1" />
<circle cx="11" cy="-26" r="0.1" fill="green" stroke="none" stroke-width="0.2"/>
<line x1="11" y1="-26" x2="12" y2="-26" stroke="black" stroke-width="0.1" />
<circle cx="12" cy="-26" r="0.1" fill="green" stroke="none" stroke-width="0.2"/>
<line x1="12" y1="-26" x2="12" y2="-25" stroke="black" stroke-width="0.1" />
<circle cx="12" cy="-25" r="0.1" fill="green" stroke="none" stroke-width="0.2"/>
<line x1="12" y1="-25" x2="11" y2="-25" stroke="black" stroke-width="0.1" />
<circle cx="11" cy="-25" r="0.1" fill="green" stroke="none" stroke-width="0.2"/>
<line x1="11" y1="-25" x2="11" y2="-26" stroke="black" stroke-width="0.1" />
<circle cx="11" cy="-26" r="0.1" fill="green" stroke="none" stroke-width="0.2"/>
<line x1="11" y1="-26" x2="12" y2="-28" stroke="black" stroke-width="0.1" />
<circle cx="12" cy="-28" r="0.1" fill="green" stroke="none" stroke-width="0.2"/>
<line x1="12" y1="-28" x2="12" y2="-29" stroke="black" stroke-width="0.1" />
<circle cx="12" cy="-29" r="0.1" fill="green" stroke="none" stroke-width="0.2"/>
<line x1="12" y1="-29" x2="13" y2="-31" stroke="black" stroke-width="0.1" />
<circle cx="13" cy="-31" r="0.1" fill="green" stroke="none" stroke-width="0.2"/>
<line x1="13" y1="-31" x2="15" y2="-34" stroke="black" stroke-width="0.1" />
<circle cx="15" cy="-34" r="0.1" fill="green" stroke="none" stroke-width="0.2"/>
<line x1="15" y1="-34" x2="18" y2="-36" stroke="black" stroke-width="0.1" />
<circle cx="18" cy="-36" r="0.1" fill="green" stroke="none" stroke-width="0.2"/>
<line x1="18" y1="-36" x2="20" y2="-37" stroke="black" stroke-width="0.1" />
<circle cx="20" cy="-37" r="0.1" fill="green" stroke="none" stroke-width="0.2"/>
<line x1="20" y1="-37" x2="21" y2="-37" stroke="black" stroke-width="0.1" />
<circle cx="21" cy="-37" r="0.1" fill="green" stroke="none" stroke-width="0.2"/>
<line x1="21" y1="-37" x2="21" y2="-36" stroke="black" stroke-width="0.1" />
<circle cx="21" cy="-36" r="0.1" fill="green" stroke="none" stroke-width="0.2"/>
<line x1="21" y1="-36" x2="20" y2="-34" stroke="black" stroke-width="0.1" />
<circle cx="20" cy="-34" r="0.1" fill="green" stroke="none" stroke-width="0.2"/>
<line x1="20" y1="-34" x2="18" y2="-33" stroke="black" stroke-width="0.1" />
<circle cx="18" cy="-33" r="0.1" fill="green" stroke="none" stroke-width="0.2"/>
<line x1="18" y1="-33" x2="17" y2="-33" stroke="black" stroke-width="0.1" />
<circle cx="17" cy="-33" r="0.1" fill="green" stroke="none" stroke-width="0.2"/>
<line x1="17" y1="-33" x2="17" y2="-34" stroke="black" stroke-width="0.1" />
<circle cx="17" cy="-34" r="0.1" fill="green" stroke="none" stroke-width="0.2"/>
<line x1="17" y1="-34" x2="18" y2="-34" stroke="black" stroke-width="0.1" />
<circle cx="18" cy="-34" r="0.1" fill="green" stroke="none" stroke-width="0.2"/>
<line x1="18" y1="-34" x2="20" y2="-35" stroke="black" stroke-width="0.1" />
<circle cx="20" cy="-35" r="0.1" fill="green" stroke="none" stroke-width="0.2"/>
<line x1="20" y1="-35" x2="21" y2="-37" stroke="black" stroke-width="0.1" />
<circle cx="21" cy="-37" r="0.1" fill="green" stroke="none" stroke-width="0.2"/>
<line x1="21" y1="-37" x2="21" y2="-38" stroke="black" stroke-width="0.1" />
<circle cx="21" cy="-38" r="0.1" fill="green" stroke="none" stroke-width="0.2"/>
<line x1="21" y1="-38" x2="22" y2="-40" stroke="black" stroke-width="0.1" />
<circle cx="22" cy="-40" r="0.1" fill="green" stroke="none" stroke-width="0.2"/>
<line x1="22" y1="-40" x2="24" y2="-43" stroke="black" stroke-width="0.1" />
<circle cx="24" cy="-43" r="0.1" fill="green" stroke="none" stroke-width="0.2"/>
<line x1="24" y1="-43" x2="27" y2="-45" stroke="black" stroke-width="0.1" />
<circle cx="27" cy="-45" r="0.1" fill="green" stroke="none" stroke-width="0.2"/>
<line x1="27" y1="-45" x2="29" y2="-46" stroke="black" stroke-width="0.1" />
<circle cx="29" cy="-46" r="0.1" fill="green" stroke="none" stroke-width="0.2"/>
<line x1="29" y1="-46" x2="30" y2="-46" stroke="black" stroke-width="0.1" />
<circle cx="30" cy="-46" r="0.1" fill="green" stroke="none" stroke-width="0.2"/>
<line x1="30" y1="-46" x2="30" y2="-45" stroke="black" stroke-width="0.1" />
<circle cx="30" cy="-45" r="0.1" fill="green" stroke="none" stroke-width="0.2"/>
<line x1="30" y1="-45" x2="29" y2="-44" stroke="black" stroke-width="0.1" />
<circle cx="29" cy="-44" r="0.1" fill="green" stroke="none" stroke-width="0.2"/>
<line x1="29" y1="-44" x2="29" y2="-44" stroke="black" stroke-width="0.1" />
<circle cx="29" cy="-44" r="0.1" fill="green" stroke="none" stroke-width="0.2"/>
<line x1="29" y1="-44" x2="30" y2="-45" stroke="black" stroke-width="0.1" />
<circle cx="30" cy="-45" r="0.1" fill="green" stroke="none" stroke-width="0.2"/>
<line x1="30" y1="-45" x2="32" y2="-47" stroke="black" stroke-width="0.1" />
<circle cx="32" cy="-47" r="0.1" fill="green" stroke="none" stroke-width="0.2"/>
<line x1="32" y1="-47" x2="35" y2="-48" stroke="black" stroke-width="0.1" />
<circle cx="35" cy="-48" r="0.1" fill="green" stroke="none" stroke-width="0.2"/>
<line x1="35" y1="-48" x2="39" y2="-50" stroke="black" stroke-width="0.1" />
<circle cx="39" cy="-50" r="0.1" fill="green" stroke="none" stroke-width="0.2"/>
<line x1="39" y1="-50" x2="42" y2="-53" stroke="black" stroke-width="0.1" />
<circle cx="42" cy="-53" r="0.1" fill="green" stroke="none" stroke-width="0.2"/>
<line x1="42" y1="-53" x2="44" y2="-55" stroke="black" stroke-width="0.1" />
<circle cx="44" cy="-55" r="0.1" fill="green" stroke="none" stroke-width="0.2"/>
<line x1="44" y1="-55" x2="45" y2="-56" stroke="black" stroke-width="0.1" />
<circle cx="45" cy="-56" r="0.1" fill="green" stroke="none" stroke-width="0.2"/>
<line x1="45" y1="-56" x2="45" y2="-56" stroke="black" stroke-width="0.1" />
<circle cx="45" cy="-56" r="0.1" fill="green" stroke="none" stroke-width="0.2"/>
<line x1="45" y1="-56" x2="44" y2="-55" stroke="black" stroke-width="0.1" />
<circle cx="44" cy="-55" r="0.1" fill="green" stroke="none" stroke-width="0.2"/>
<line x1="44" y1="-55" x2="42" y2="-53" stroke="black" stroke-width="0.1" />
<circle cx="42" cy="-53" r="0.1" fill="green" stroke="none" stroke-width="0.2"/>
<line x1="42" y1="-53" x2="41" y2="-52" stroke="black" stroke-width="0.1" />
<circle cx="41" cy="-52" r="0.1" fill="green" stroke="none" stroke-width="0.2"/>
<line x1="41" y1="-52" x2="41" y2="-52" stroke="black" stroke-width="0.1" />
<circle cx="41" cy="-52" r="0.1" fill="green" stroke="none" stroke-width="0.2"/>
<line x1="41" y1="-52" x2="41" y2="-53" stroke="black" stroke-width="0.1" />
<circle cx="41" cy="-53" r="0.1" fill="green" stroke="none" stroke-width="0.2"/>
<line x1="41" y1="-53" x2="42" y2="-55" stroke="black" stroke-width="0.1" />
<circle cx="42" cy="-55" r="0.1" fill="green" stroke="none" stroke-width="0.2"/>
<line x1="42" y1="-55" x2="44" y2="-57" stroke="black" stroke-width="0.1" />
<circle cx="44" cy="-57" r="0.1" fill="green" stroke="none" stroke-width="0.2"/>
<line x1="44" y1="-57" x2="47" y2="-58" stroke="black" stroke-width="0.1" />
<circle cx="47" cy="-58" r="0.1" fill="green" stroke="none" stroke-width="0.2"/>
<line x1="47" y1="-58" x2="49" y2="-58" stroke="black" stroke-width="0.1" />
<circle cx="49" cy="-58" r="0.1" fill="green" stroke="none" stroke-width="0.2"/>
<line x1="49" y1="-58" x2="50" y2="-57" stroke="black" stroke-width="0.1" />
<circle cx="50" cy="-57" r="0.1" fill="green" stroke="none" stroke-width="0.2"/>
<line x1="50" y1="-57" x2="50" y2="-57" stroke="black" stroke-width="0.1" />
<circle cx="50" cy="-57" r="0.1" fill="green" stroke="none" stroke-width="0.2"/>
<line x1="50" y1="-57" x2="49" y2="-57" stroke="black" stroke-width="0.1" />
<circle cx="49" cy="-57" r="0.1" fill="green" stroke="none" stroke-width="0.2"/>
<line x1="49" y1="-57" x2="48" y2="-57" stroke="black" stroke-width="0.1" />
<circle cx="48" cy="-57" r="0.1" fill="green" stroke="none" stroke-width="0.2"/>
<line x1="48" y1="-57" x2="48" y2="-58" stroke="black" stroke-width="0.1" />
<circle cx="48" cy="-58" r="0.1" fill="green" stroke="none" stroke-width="0.2"/>
<line x1="48" y1="-58" x2="49" y2="-60" stroke="black" stroke-width="0.1" />
<circle cx="49" cy="-60" r="0.1" fill="green" stroke="none" stroke-width="0.2"/>
<line x1="49" y1="-60" x2="51" y2="-61" stroke="black" stroke-width="0.1" />
<circle cx="51" cy="-61" r="0.1" fill="green" stroke="none" stroke-width="0.2"/>
<line x1="51" y1="-61" x2="54" y2="-61" stroke="black" stroke-width="0.1" />
<circle cx="54" cy="-61" r="0.1" fill="green" stroke="none" stroke-width="0.2"/>
<line x1="54" y1="-61" x2="56" y2="-60" stroke="black" stroke-width="0.1" />
<circle cx="56" cy="-60" r="0.1" fill="green" stroke="none" stroke-width="0.2"/>
<line x1="56" y1="-60" x2="57" y2="-60" stroke="black" stroke-width="0.1" />
<circle cx="57" cy="-60" r="0.1" fill="green" stroke="none" stroke-width="0.2"/>
<line x1="57" y1="-60" x2="57" y2="-60" stroke="black" stroke-width="0.1" />
<circle cx="57" cy="-60" r="0.1" fill="green" stroke="none" stroke-width="0.2"/>
<line x1="57" y1="-60" x2="56" y2="-60" stroke="black" stroke-width="0.1" />
<circle cx="56" cy="-60" r="0.1" fill="green" stroke="none" stroke-width="0.2"/>
<line x1="56" y1="-60" x2="55" y2="-60" stroke="black" stroke-width="0.1" />
<circle cx="55" cy="-60" r="0.1" fill="green" stroke="none" stroke-width="0.2"/>
<line x1="55" y1="-60" x2="55" y2="-61" stroke="black" stroke-width="0.1" />
<circle cx="55" cy="-61" r="0.1" fill="green" stroke="none" stroke-width="0.2"/>
<line x1="55" y1="-61" x2="56" y2="-63" stroke="black" stroke-width="0.1" />
<circle cx="56" cy="-63" r="0.1" fill="green" stroke="none" stroke-width="0.2"/>
<line x1="56" y1="-63" x2="58" y2="-64" stroke="black" stroke-width="0.1" />
<circle cx="58" cy="-64" r="0.1" fill="green" stroke="none" stroke-width="0.2"/>
<line x1="58" y1="-64" x2="59" y2="-64" stroke="black" stroke-width="0.1" />
<circle cx="59" cy="-64" r="0.1" fill="green" stroke="none" stroke-width="0.2"/>
<line x1="59" y1="-64" x2="59" y2="-63" stroke="black" stroke-width="0.1" />
<circle cx="59" cy="-63" r="0.1" fill="green" stroke="none" stroke-width="0.2"/>
<line x1="59" y1="-63" x2="60" y2="-63" stroke="black" stroke-width="0.1" />
<circle cx="60" cy="-63" r="0.1" fill="green" stroke="none" stroke-width="0.2"/>
<line x1="60" y1="-63" x2="62" y2="-64" stroke="black" stroke-width="0.1" />
<circle cx="62" cy="-64" r="0.1" fill="green" stroke="none" stroke-width="0.2"/>
<line x1="62" y1="-64" x2="63" y2="-65" stroke="black" stroke-width="0.1" />
<circle cx="63" cy="-65" r="0.1" fill="green" stroke="none" stroke-width="0.2"/>
<line x1="63" y1="-65" x2="65" y2="-67" stroke="black" stroke-width="0.1" />
<circle cx="65" cy="-67" r="0.1" fill="green" stroke="none" stroke-width="0.2"/>
<line x1="65" y1="-67" x2="68" y2="-68" stroke="black" stroke-width="0.1" />
<circle cx="68" cy="-68" r="0.1" fill="green" stroke="none" stroke-width="0.2"/>
<line x1="68" y1="-68" x2="70" y2="-68" stroke="black" stroke-width="0.1" />
<circle cx="70" cy="-68" r="0.1" fill="green" stroke="none" stroke-width="0.2"/>
<line x1="70" y1="-68" x2="73" y2="-68" stroke="black" stroke-width="0.1" />
<circle cx="73" cy="-68" r="0.1" fill="green" stroke="none" stroke-width="0.2"/>
<line x1="73" y1="-68" x2="75" y2="-68" stroke="black" stroke-width="0.1" />
<circle cx="75" cy="-68" r="0.1" fill="green" stroke="none" stroke-width="0.2"/>
<line x1="75" y1="-68" x2="76" y2="-68" stroke="black" stroke-width="0.1" />
<circle cx="76" cy="-68" r="0.1" fill="green" stroke="none" stroke-width="0.2"/>
<line x1="76" y1="-68" x2="76" y2="-68" stroke="black" stroke-width="0.1" />
<circle cx="76" cy="-68" r="0.1" fill="green" stroke="none" stroke-width="0.2"/>
<line x1="76" y1="-68" x2="75" y2="-68" stroke="black" stroke-width="0.1" />
<circle cx="75" cy="-68" r="0.1" fill="green" stroke="none" stroke-width="0.2"/>
<line x1="75" y1="-68" x2="74" y2="-68" stroke="black" stroke-width="0.1" />
<circle cx="74" cy="-68" r="0.1" fill="green" stroke="none" stroke-width="0.2"/>
<line x1="74" y1="-68" x2="74" y2="-69" stroke="black" stroke-width="0.1" />
<circle cx="74" cy="-69" r="0.1" fill="green" stroke="none" stroke-width="0.2"/>
<line x1="74" y1="-69" x2="75" y2="-69" stroke="black" stroke-width="0.1" />
<circle cx="75" cy="-69" r="0.1" fill="green" stroke="none" stroke-width="0.2"/>
<line x1="75" y1="-69" x2="77" y2="-69" stroke="black" stroke-width="0.1" />
<circle cx="77" cy="-69" r="0.1" fill="green" stroke="none" stroke-width="0.2"/>
<line x1="77" y1="-69" x2="79" y2="-69" stroke="black" stroke-width="0.1" />
<circle cx="79" cy="-69" r="0.1" fill="green" stroke="none" stroke-width="0.2"/>
<line x1="79" y1="-69" x2="82" y2="-70" stroke="black" stroke-width="0.1" />
<circle cx="82" cy="-70" r="0.1" fill="green" stroke="none" stroke-width="0.2"/>
<line x1="82" y1="-70" x2="85" y2="-70" stroke="black" stroke-width="0.1" />
<circle cx="85" cy="-70" r="0.1" fill="green" stroke="none" stroke-width="0.2"/>
<line x1="85" y1="-70" x2="87" y2="-71" stroke="black" stroke-width="0.1" />
<circle cx="87" cy="-71" r="0.1" fill="green" stroke="none" stroke-width="0.2"/>
<line x1="87" y1="-71" x2="88" y2="-73" stroke="black" stroke-width="0.1" />
<circle cx="88" cy="-73" r="0.1" fill="green" stroke="none" stroke-width="0.2"/>
<line x1="88" y1="-73" x2="88" y2="-74" stroke="black" stroke-width="0.1" />
<circle cx="88" cy="-74" r="0.1" fill="green" stroke="none" stroke-width="0.2"/>
<line x1="88" y1="-74" x2="87" y2="-74" stroke="black" stroke-width="0.1" />
<circle cx="87" cy="-74" r="0.1" fill="green" stroke="none" stroke-width="0.2"/>
<line x1="87" y1="-74" x2="87" y2="-73" stroke="black" stroke-width="0.1" />
<circle cx="87" cy="-73" r="0.1" fill="green" stroke="none" stroke-width="0.2"/>
<line x1="87" y1="-73" x2="88" y2="-73" stroke="black" stroke-width="0.1" />
<circle cx="88" cy="-73" r="0.1" fill="green" stroke="none" stroke-width="0.2"/>
<line x1="88" y1="-73" x2="90" y2="-74" stroke="black" stroke-width="0.1" />
<circle cx="90" cy="-74" r="0.1" fill="green" stroke="none" stroke-width="0.2"/>
<line x1="90" y1="-74" x2="93" y2="-76" stroke="black" stroke-width="0.1" />
<circle cx="93" cy="-76" r="0.1" fill="green" stroke="none" stroke-width="0.2"/>
<line x1="93" y1="-76" x2="95" y2="-78" stroke="black" stroke-width="0.1" />
<circle cx="95" cy="-78" r="0.1" fill="green" stroke="none" stroke-width="0.2"/>
<line x1="95" y1="-78" x2="96" y2="-79" stroke="black" stroke-width="0.1" />
<circle cx="96" cy="-79" r="0.1" fill="green" stroke="none" stroke-width="0.2"/>
<line x1="96" y1="-79" x2="96" y2="-79" stroke="black" stroke-width="0.1" />
<circle cx="96" cy="-79" r="0.1" fill="green" stroke="none" stroke-width="0.2"/>
<line x1="96" y1="-79" x2="95" y2="-78" stroke="black" stroke-width="0.1" />
<circle cx="95" cy="-78" r="0.1" fill="green" stroke="none" stroke-width="0.2"/>
<line x1="95" y1="-78" x2="94" y2="-78" stroke="black" stroke-width="0.1" />
<circle cx="94" cy="-78" r="0.1" fill="green" stroke="none" stroke-width="0.2"/>
<line x1="94" y1="-78" x2="94" y2="-79" stroke="black" stroke-width="0.1" />
<circle cx="94" cy="-79" r="0.1" fill="green" stroke="none" stroke-width="0.2"/>
<line x1="94" y1="-79" x2="95" y2="-80" stroke="black" stroke-width="0.1" />
<circle cx="95" cy="-80" r="0.1" fill="green" stroke="none" stroke-width="0.2"/>
<line x1="95" y1="-80" x2="96" y2="-80" stroke="black" stroke-width="0.1" />
<circle cx="96" cy="-80" r="0.1" fill="green" stroke="none" stroke-width="0.2"/>
<line x1="96" y1="-80" x2="97" y2="-81" stroke="black" stroke-width="0.1" />
<circle cx="97" cy="-81" r="0.1" fill="green" stroke="none" stroke-width="0.2"/>
<line x1="97" y1="-81" x2="97" y2="-83" stroke="black" stroke-width="0.1" />
<circle cx="97" cy="-83" r="0.1" fill="green" stroke="none" stroke-width="0.2"/>
<line x1="97" y1="-83" x2="97" y2="-84" stroke="black" stroke-width="0.1" />
<circle cx="97" cy="-84" r="0.1" fill="green" stroke="none" stroke-width="0.2"/>
<line x1="97" y1="-84" x2="98" y2="-86" stroke="black" stroke-width="0.1" />
<circle cx="98" cy="-86" r="0.1" fill="green" stroke="none" stroke-width="0.2"/>
<line x1="98" y1="-86" x2="100" y2="-88" stroke="black" stroke-width="0.1" />
<circle cx="100" cy="-88" r="0.1" fill="green" stroke="none" stroke-width="0.2"/>
<line x1="100" y1="-88" x2="103" y2="-91" stroke="black" stroke-width="0.1" />
<circle cx="103" cy="-91" r="0.1" fill="green" stroke="none" stroke-width="0.2"/>
<line x1="103" y1="-91" x2="105" y2="-94" stroke="black" stroke-width="0.1" />
<circle cx="105" cy="-94" r="0.1" fill="green" stroke="none" stroke-width="0.2"/>
<line x1="105" y1="-94" x2="106" y2="-96" stroke="black" stroke-width="0.1" />
<circle cx="106" cy="-96" r="0.1" fill="green" stroke="none" stroke-width="0.2"/>
<line x1="106" y1="-96" x2="106" y2="-97" stroke="black" stroke-width="0.1" />
<circle cx="106" cy="-97" r="0.1" fill="green" stroke="none" stroke-width="0.2"/>
<line x1="106" y1="-97" x2="105" y2="-97" stroke="black" stroke-width="0.1" />
<circle cx="105" cy="-97" r="0.1" fill="green" stroke="none" stroke-width="0.2"/>
<line x1="105" y1="-97" x2="103" y2="-96" stroke="black" stroke-width="0.1" />
<circle cx="103" cy="-96" r="0.1" fill="green" stroke="none" stroke-width="0.2"/>
<line x1="103" y1="-96" x2="102" y2="-94" stroke="black" stroke-width="0.1" />
<circle cx="102" cy="-94" r="0.1" fill="green" stroke="none" stroke-width="0.2"/>
<line x1="102" y1="-94" x2="102" y2="-93" stroke="black" stroke-width="0.1" />
<circle cx="102" cy="-93" r="0.1" fill="green" stroke="none" stroke-width="0.2"/>
<line x1="102" y1="-93" x2="103" y2="-93" stroke="black" stroke-width="0.1" />
<circle cx="103" cy="-93" r="0.1" fill="green" stroke="none" stroke-width="0.2"/>
<line x1="103" y1="-93" x2="103" y2="-94" stroke="black" stroke-width="0.1" />
<circle cx="103" cy="-94" r="0.1" fill="green" stroke="none" stroke-width="0.2"/>
<line x1="103" y1="-94" x2="104" y2="-96" stroke="black" stroke-width="0.1" />
<circle cx="104" cy="-96" r="0.1" fill="green" stroke="none" stroke-width="0.2"/>
<line x1="104" y1="-96" x2="105" y2="-97" stroke="black" stroke-width="0.1" />
<circle cx="105" cy="-97" r="0.1" fill="green" stroke="none" stroke-width="0.2"/>
<line x1="105" y1="-97" x2="105" y2="-97" stroke="black" stroke-width="0.1" />
<circle cx="105" cy="-97" r="0.1" fill="green" stroke="none" stroke-width="0.2"/>
<line x1="105" y1="-97" x2="105" y2="-96" stroke="black" stroke-width="0.1" />
<circle cx="105" cy="-96" r="0.1" fill="green" stroke="none" stroke-width="0.2"/>
<line x1="105" y1="-96" x2="106" y2="-96" stroke="black" stroke-width="0.1" />
<circle cx="106" cy="-96" r="0.1" fill="green" stroke="none" stroke-width="0.2"/>
<line x1="106" y1="-96" x2="107" y2="-97" stroke="black" stroke-width="0.1" />
<circle cx="107" cy="-97" r="0.1" fill="green" stroke="none" stroke-width="0.2"/>
<line x1="107" y1="-97" x2="107" y2="-99" stroke="black" stroke-width="0.1" />
<circle cx="107" cy="-99" r="0.1" fill="green" stroke="none" stroke-width="0.2"/>
<line x1="107" y1="-99" x2="107" y2="-102" stroke="black" stroke-width="0.1" />
<circle cx="107" cy="-102" r="0.1" fill="green" stroke="none" stroke-width="0.2"/>
<line x1="107" y1="-102" x2="108" y2="-105" stroke="black" stroke-width="0.1" />
<circle cx="108" cy="-105" r="0.1" fill="green" stroke="none" stroke-width="0.2"/>
<line x1="108" y1="-105" x2="109" y2="-107" stroke="black" stroke-width="0.1" />
<circle cx="109" cy="-107" r="0.1" fill="green" stroke="none" stroke-width="0.2"/>
<line x1="109" y1="-107" x2="109" y2="-108" stroke="black" stroke-width="0.1" />
<circle cx="109" cy="-108" r="0.1" fill="green" stroke="none" stroke-width="0.2"/>
<line x1="109" y1="-108" x2="109" y2="-108" stroke="black" stroke-width="0.1" />
<circle cx="109" cy="-108" r="0.1" fill="green" stroke="none" stroke-width="0.2"/>
<line x1="109" y1="-108" x2="109" y2="-107" stroke="black" stroke-width="0.1" />
<circle cx="109" cy="-107" r="0.1" fill="green" stroke="none" stroke-width="0.2"/>
<line x1="109" y1="-107" x2="109" y2="-105" stroke="black" stroke-width="0.1" />
<circle cx="109" cy="-105" r="0.1" fill="green" stroke="none" stroke-width="0.2"/>
<line x1="109" y1="-105" x2="110" y2="-104" stroke="black" stroke-width="0.1" />
<circle cx="110" cy="-104" r="0.1" fill="green" stroke="none" stroke-width="0.2"/>
<line x1="110" y1="-104" x2="112" y2="-104" stroke="black" stroke-width="0.1" />
<circle cx="112" cy="-104" r="0.1" fill="green" stroke="none" stroke-width="0.2"/>
<line x1="112" y1="-104" x2="113" y2="-105" stroke="black" stroke-width="0.1" />
<circle cx="113" cy="-105" r="0.1" fill="green" stroke="none" stroke-width="0.2"/>
<line x1="113" y1="-105" x2="113" y2="-107" stroke="black" stroke-width="0.1" />
<circle cx="113" cy="-107" r="0.1" fill="green" stroke="none" stroke-width="0.2"/>
<line x1="113" y1="-107" x2="112" y2="-110" stroke="black" stroke-width="0.1" />
<circle cx="112" cy="-110" r="0.1" fill="green" stroke="none" stroke-width="0.2"/>
<line x1="112" y1="-110" x2="112" y2="-112" stroke="black" stroke-width="0.1" />
<circle cx="112" cy="-112" r="0.1" fill="green" stroke="none" stroke-width="0.2"/>
<line x1="112" y1="-112" x2="112" y2="-113" stroke="black" stroke-width="0.1" />
<circle cx="112" cy="-113" r="0.1" fill="green" stroke="none" stroke-width="0.2"/>
<line x1="112" y1="-113" x2="112" y2="-113" stroke="black" stroke-width="0.1" />
<circle cx="112" cy="-113" r="0.1" fill="green" stroke="none" stroke-width="0.2"/>
<line x1="112" y1="-113" x2="112" y2="-112" stroke="black" stroke-width="0.1" />
<circle cx="112" cy="-112" r="0.1" fill="green" stroke="none" stroke-width="0.2"/>
<line x1="112" y1="-112" x2="112" y2="-111" stroke="black" stroke-width="0.1" />
<circle cx="112" cy="-111" r="0.1" fill="green" stroke="none" stroke-width="0.2"/>
<line x1="112" y1="-111" x2="113" y2="-111" stroke="black" stroke-width="0.1" />
<circle cx="113" cy="-111" r="0.1" fill="green" stroke="none" stroke-width="0.2"/>
<line x1="113" y1="-111" x2="114" y2="-112" stroke="black" stroke-width="0.1" />
<circle cx="114" cy="-112" r="0.1" fill="green" stroke="none" stroke-width="0.2"/>
<line x1="114" y1="-112" x2="114" y2="-113" stroke="black" stroke-width="0.1" />
<circle cx="114" cy="-113" r="0.1" fill="green" stroke="none" stroke-width="0.2"/>
<line x1="114" y1="-113" x2="115" y2="-115" stroke="black" stroke-width="0.1" />
<circle cx="115" cy="-115" r="0.1" fill="green" stroke="none" stroke-width="0.2"/>
<line x1="115" y1="-115" x2="116" y2="-117" stroke="black" stroke-width="0.1" />
<circle cx="116" cy="-117" r="0.1" fill="green" stroke="none" stroke-width="0.2"/>
<line x1="116" y1="-117" x2="118" y2="-120" stroke="black" stroke-width="0.1" />
<circle cx="118" cy="-120" r="0.1" fill="green" stroke="none" stroke-width="0.2"/>
<line x1="118" y1="-120" x2="119" y2="-122" stroke="black" stroke-width="0.1" />
<circle cx="119" cy="-122" r="0.1" fill="green" stroke="none" stroke-width="0.2"/>
<line x1="119" y1="-122" x2="119" y2="-123" stroke="black" stroke-width="0.1" />
<circle cx="119" cy="-123" r="0.1" fill="green" stroke="none" stroke-width="0.2"/>
<line x1="119" y1="-123" x2="118" y2="-123" stroke="black" stroke-width="0.1" />
<circle cx="118" cy="-123" r="0.1" fill="green" stroke="none" stroke-width="0.2"/>
<line x1="118" y1="-123" x2="118" y2="-122" stroke="black" stroke-width="0.1" />
<circle cx="118" cy="-122" r="0.1" fill="green" stroke="none" stroke-width="0.2"/>
<line x1="118" y1="-122" x2="118" y2="-121" stroke="black" stroke-width="0.1" />
<circle cx="118" cy="-121" r="0.1" fill="green" stroke="none" stroke-width="0.2"/>
<line x1="118" y1="-121" x2="119" y2="-121" stroke="black" stroke-width="0.1" />
<circle cx="119" cy="-121" r="0.1" fill="green" stroke="none" stroke-width="0.2"/>
<line x1="119" y1="-121" x2="121" y2="-122" stroke="black" stroke-width="0.1" />
<circle cx="121" cy="-122" r="0.1" fill="green" stroke="none" stroke-width="0.2"/>
<line x1="121" y1="-122" x2="122" y2="-124" stroke="black" stroke-width="0.1" />
<circle cx="122" cy="-124" r="0.1" fill="green" stroke="none" stroke-width="0.2"/>
<line x1="122" y1="-124" x2="122" y2="-125" stroke="black" stroke-width="0.1" />
<circle cx="122" cy="-125" r="0.1" fill="green" stroke="none" stroke-width="0.2"/>
<line x1="122" y1="-125" x2="123" y2="-127" stroke="black" stroke-width="0.1" />
<circle cx="123" cy="-127" r="0.1" fill="green" stroke="none" stroke-width="0.2"/>
<line x1="123" y1="-127" x2="125" y2="-128" stroke="black" stroke-width="0.1" />
<circle cx="125" cy="-128" r="0.1" fill="green" stroke="none" stroke-width="0.2"/>
<line x1="125" y1="-128" x2="126" y2="-128" stroke="black" stroke-width="0.1" />
<circle cx="126" cy="-128" r="0.1" fill="green" stroke="none" stroke-width="0.2"/>
<line x1="126" y1="-128" x2="128" y2="-129" stroke="black" stroke-width="0.1" />
<circle cx="128" cy="-129" r="0.1" fill="green" stroke="none" stroke-width="0.2"/>
<line x1="128" y1="-129" x2="129" y2="-131" stroke="black" stroke-width="0.1" />
<circle cx="129" cy="-131" r="0.1" fill="green" stroke="none" stroke-width="0.2"/>
<line x1="129" y1="-131" x2="129" y2="-133" stroke="black" stroke-width="0.1" />
<circle cx="129" cy="-133" r="0.1" fill="green" stroke="none" stroke-width="0.2"/>
<line x1="129" y1="-133" x2="130" y2="-136" stroke="black" stroke-width="0.1" />
<circle cx="130" cy="-136" r="0.1" fill="green" stroke="none" stroke-width="0.2"/>
<line x1="130" y1="-136" x2="132" y2="-138" stroke="black" stroke-width="0.1" />
<circle cx="132" cy="-138" r="0.1" fill="green" stroke="none" stroke-width="0.2"/>
<line x1="132" y1="-138" x2="133" y2="-139" stroke="black" stroke-width="0.1" />
<circle cx="133" cy="-139" r="0.1" fill="green" stroke="none" stroke-width="0.2"/>
<line x1="133" y1="-139" x2="133" y2="-139" stroke="black" stroke-width="0.1" />
<circle cx="133" cy="-139" r="0.1" fill="green" stroke="none" stroke-width="0.2"/>
<line x1="133" y1="-139" x2="133" y2="-138" stroke="black" stroke-width="0.1" />
<circle cx="133" cy="-138" r="0.1" fill="green" stroke="none" stroke-width="0.2"/>
<line x1="133" y1="-138" x2="133" y2="-136" stroke="black" stroke-width="0.1" />
<circle cx="133" cy="-136" r="0.1" fill="green" stroke="none" stroke-width="0.2"/>
<line x1="133" y1="-136" x2="134" y2="-135" stroke="black" stroke-width="0.1" />
<circle cx="134" cy="-135" r="0.1" fill="green" stroke="none" stroke-width="0.2"/>
<line x1="134" y1="-135" x2="136" y2="-135" stroke="black" stroke-width="0.1" />
<circle cx="136" cy="-135" r="0.1" fill="green" stroke="none" stroke-width="0.2"/>
<line x1="136" y1="-135" x2="137" y2="-136" stroke="black" stroke-width="0.1" />
<circle cx="137" cy="-136" r="0.1" fill="green" stroke="none" stroke-width="0.2"/>
<line x1="137" y1="-136" x2="137" y2="-138" stroke="black" stroke-width="0.1" />
<circle cx="137" cy="-138" r="0.1" fill="green" stroke="none" stroke-width="0.2"/>
<line x1="137" y1="-138" x2="137" y2="-140" stroke="black" stroke-width="0.1" />
<circle cx="137" cy="-140" r="0.1" fill="green" stroke="none" stroke-width="0.2"/>
<line x1="137" y1="-140" x2="138" y2="-143" stroke="black" stroke-width="0.1" />
<circle cx="138" cy="-143" r="0.1" fill="green" stroke="none" stroke-width="0.2"/>
<line x1="138" y1="-143" x2="140" y2="-145" stroke="black" stroke-width="0.1" />
<circle cx="140" cy="-145" r="0.1" fill="green" stroke="none" stroke-width="0.2"/>
<line x1="140" y1="-145" x2="141" y2="-146" stroke="black" stroke-width="0.1" />
<circle cx="141" cy="-146" r="0.1" fill="green" stroke="none" stroke-width="0.2"/>
<line x1="141" y1="-146" x2="141" y2="-146" stroke="black" stroke-width="0.1" />
<circle cx="141" cy="-146" r="0.1" fill="green" stroke="none" stroke-width="0.2"/>
<line x1="141" y1="-146" x2="141" y2="-145" stroke="black" stroke-width="0.1" />
<circle cx="141" cy="-145" r="0.1" fill="green" stroke="none" stroke-width="0.2"/>
<line x1="141" y1="-145" x2="141" y2="-144" stroke="black" stroke-width="0.1" />
<circle cx="141" cy="-144" r="0.1" fill="green" stroke="none" stroke-width="0.2"/>
<line x1="141" y1="-144" x2="142" y2="-144" stroke="black" stroke-width="0.1" />
<circle cx="142" cy="-144" r="0.1" fill="green" stroke="none" stroke-width="0.2"/>
<line x1="142" y1="-144" x2="143" y2="-145" stroke="black" stroke-width="0.1" />
<circle cx="143" cy="-145" r="0.1" fill="green" stroke="none" stroke-width="0.2"/>
<line x1="143" y1="-145" x2="143" y2="-147" stroke="black" stroke-width="0.1" />
<circle cx="143" cy="-147" r="0.1" fill="green" stroke="none" stroke-width="0.2"/>
<line x1="143" y1="-147" x2="144" y2="-150" stroke="black" stroke-width="0.1" />
<circle cx="144" cy="-150" r="0.1" fill="green" stroke="none" stroke-width="0.2"/>
<line x1="144" y1="-150" x2="146" y2="-152" stroke="black" stroke-width="0.1" />
<circle cx="146" cy="-152" r="0.1" fill="green" stroke="none" stroke-width="0.2"/>
<line x1="146" y1="-152" x2="149" y2="-153" stroke="black" stroke-width="0.1" />
<circle cx="149" cy="-153" r="0.1" fill="green" stroke="none" stroke-width="0.2"/>
<line x1="149" y1="-153" x2="151" y2="-153" stroke="black" stroke-width="0.1" />
<circle cx="151" cy="-153" r="0.1" fill="green" stroke="none" stroke-width="0.2"/>
<line x1="151" y1="-153" x2="152" y2="-152" stroke="black" stroke-width="0.1" />
<circle cx="152" cy="-152" r="0.1" fill="green" stroke="none" stroke-width="0.2"/>
<line x1="152" y1="-152" x2="152" y2="-152" stroke="black" stroke-width="0.1" />
<circle cx="152" cy="-152" r="0.1" fill="green" stroke="none" stroke-width="0.2"/>
<line x1="152" y1="-152" x2="151" y2="-152" stroke="black" stroke-width="0.1" />
<circle cx="151" cy="-152" r="0.1" fill="green" stroke="none" stroke-width="0.2"/>
<line x1="151" y1="-152" x2="149" y2="-152" stroke="black" stroke-width="0.1" />
<circle cx="149" cy="-152" r="0.1" fill="green" stroke="none" stroke-width="0.2"/>
<line x1="149" y1="-152" x2="148" y2="-153" stroke="black" stroke-width="0.1" />
<circle cx="148" cy="-153" r="0.1" fill="green" stroke="none" stroke-width="0.2"/>
<line x1="148" y1="-153" x2="148" y2="-154" stroke="black" stroke-width="0.1" />
<circle cx="148" cy="-154" r="0.1" fill="green" stroke="none" stroke-width="0.2"/>
<line x1="148" y1="-154" x2="149" y2="-154" stroke="black" stroke-width="0.1" />
<circle cx="149" cy="-154" r="0.1" fill="green" stroke="none" stroke-width="0.2"/>
<line x1="149" y1="-154" x2="151" y2="-154" stroke="black" stroke-width="0.1" />
<circle cx="151" cy="-154" r="0.1" fill="green" stroke="none" stroke-width="0.2"/>
<line x1="151" y1="-154" x2="153" y2="-154" stroke="black" stroke-width="0.1" />
<circle cx="153" cy="-154" r="0.1" fill="green" stroke="none" stroke-width="0.2"/>
<line x1="153" y1="-154" x2="156" y2="-155" stroke="black" stroke-width="0.1" />
<circle cx="156" cy="-155" r="0.1" fill="green" stroke="none" stroke-width="0.2"/>
<line x1="156" y1="-155" x2="158" y2="-156" stroke="black" stroke-width="0.1" />
<circle cx="158" cy="-156" r="0.1" fill="green" stroke="none" stroke-width="0.2"/>
<line x1="158" y1="-156" x2="159" y2="-156" stroke="black" stroke-width="0.1" />
<circle cx="159" cy="-156" r="0.1" fill="green" stroke="none" stroke-width="0.2"/>
<line x1="159" y1="-156" x2="159" y2="-156" stroke="black" stroke-width="0.1" />
<circle cx="159" cy="-156" r="0.1" fill="green" stroke="none" stroke-width="0.2"/>
<line x1="159" y1="-156" x2="158" y2="-156" stroke="black" stroke-width="0.1" />
<circle cx="158" cy="-156" r="0.1" fill="green" stroke="none" stroke-width="0.2"/>
<line x1="158" y1="-156" x2="156" y2="-156" stroke="black" stroke-width="0.1" />
<circle cx="156" cy="-156" r="0.1" fill="green" stroke="none" stroke-width="0.2"/>
<line x1="156" y1="-156" x2="155" y2="-157" stroke="black" stroke-width="0.1" />
<circle cx="155" cy="-157" r="0.1" fill="green" stroke="none" stroke-width="0.2"/>
<line x1="155" y1="-157" x2="155" y2="-158" stroke="black" stroke-width="0.1" />
<circle cx="155" cy="-158" r="0.1" fill="green" stroke="none" stroke-width="0.2"/>
<line x1="155" y1="-158" x2="156" y2="-158" stroke="black" stroke-width="0.1" />
<circle cx="156" cy="-158" r="0.1" fill="green" stroke="none" stroke-width="0.2"/>
<line x1="156" y1="-158" x2="158" y2="-158" stroke="black" stroke-width="0.1" />
<circle cx="158" cy="-158" r="0.1" fill="green" stroke="none" stroke-width="0.2"/>
<line x1="158" y1="-158" x2="161" y2="-158" stroke="black" stroke-width="0.1" />
<circle cx="161" cy="-158" r="0.1" fill="green" stroke="none" stroke-width="0.2"/>
<line x1="161" y1="-158" x2="165" y2="-159" stroke="black" stroke-width="0.1" />
<circle cx="165" cy="-159" r="0.1" fill="green" stroke="none" stroke-width="0.2"/>
<line x1="165" y1="-159" x2="168" y2="-160" stroke="black" stroke-width="0.1" />
<circle cx="168" cy="-160" r="0.1" fill="green" stroke="none" stroke-width="0.2"/>
<line x1="168" y1="-160" x2="170" y2="-160" stroke="black" stroke-width="0.1" />
<circle cx="170" cy="-160" r="0.1" fill="green" stroke="none" stroke-width="0.2"/>
<line x1="170" y1="-160" x2="171" y2="-160" stroke="black" stroke-width="0.1" />
<circle cx="171" cy="-160" r="0.1" fill="green" stroke="none" stroke-width="0.2"/>
<line x1="171" y1="-160" x2="171" y2="-160" stroke="black" stroke-width="0.1" />
<circle cx="171" cy="-160" r="0.1" fill="green" stroke="none" stroke-width="0.2"/>
<line x1="171" y1="-160" x2="170" y2="-160" stroke="black" stroke-width="0.1" />
<circle cx="170" cy="-160" r="0.1" fill="green" stroke="none" stroke-width="0.2"/>
<line x1="170" y1="-160" x2="168" y2="-160" stroke="black" stroke-width="0.1" />
<circle cx="168" cy="-160" r="0.1" fill="green" stroke="none" stroke-width="0.2"/>
<line x1="168" y1="-160" x2="165" y2="-160" stroke="black" stroke-width="0.1" />
<circle cx="165" cy="-160" r="0.1" fill="green" stroke="none" stroke-width="0.2"/>
<line x1="165" y1="-160" x2="163" y2="-161" stroke="black" stroke-width="0.1" />
<circle cx="163" cy="-161" r="0.1" fill="green" stroke="none" stroke-width="0.2"/>
<line x1="163" y1="-161" x2="162" y2="-161" stroke="black" stroke-width="0.1" />
<circle cx="162" cy="-161" r="0.1" fill="green" stroke="none" stroke-width="0.2"/>
<line x1="162" y1="-161" x2="162" y2="-161" stroke="black" stroke-width="0.1" />
<circle cx="162" cy="-161" r="0.1" fill="green" stroke="none" stroke-width="0.2"/>
<line x1="162" y1="-161" x2="163" y2="-161" stroke="black" stroke-width="0.1" />
<circle cx="163" cy="-161" r="0.1" fill="green" stroke="none" stroke-width="0.2"/>
<line x1="163" y1="-161" x2="165" y2="-161" stroke="black" stroke-width="0.1" />
<circle cx="165" cy="-161" r="0.1" fill="green" stroke="none" stroke-width="0.2"/>
<line x1="165" y1="-161" x2="168" y2="-161" stroke="black" stroke-width="0.1" />
<circle cx="168" cy="-161" r="0.1" fill="green" stroke="none" stroke-width="0.2"/>
<line x1="168" y1="-161" x2="172" y2="-161" stroke="black" stroke-width="0.1" />
<circle cx="172" cy="-161" r="0.1" fill="green" stroke="none" stroke-width="0.2"/>
<line x1="172" y1="-161" x2="175" y2="-161" stroke="black" stroke-width="0.1" />
<circle cx="175" cy="-161" r="0.1" fill="green" stroke="none" stroke-width="0.2"/>
<line x1="175" y1="-161" x2="177" y2="-161" stroke="black" stroke-width="0.1" />
<circle cx="177" cy="-161" r="0.1" fill="green" stroke="none" stroke-width="0.2"/>
<line x1="177" y1="-161" x2="178" y2="-161" stroke="black" stroke-width="0.1" />
<circle cx="178" cy="-161" r="0.1" fill="green" stroke="none" stroke-width="0.2"/>
<line x1="178" y1="-161" x2="178" y2="-161" stroke="black" stroke-width="0.1" />
<circle cx="178" cy="-161" r="0.1" fill="green" stroke="none" stroke-width="0.2"/>
<line x1="178" y1="-161" x2="177" y2="-161" stroke="black" stroke-width="0.1" />
<circle cx="177" cy="-161" r="0.1" fill="green" stroke="none" stroke-width="0.2"/>
<line x1="177" y1="-161" x2="175" y2="-161" stroke="black" stroke-width="0.1" />
<circle cx="175" cy="-161" r="0.1" fill="green" stroke="none" stroke-width="0.2"/>
<line x1="175" y1="-161" x2="173" y2="-161" stroke="black" stroke-width="0.1" />
<circle cx="173" cy="-161" r="0.1" fill="green" stroke="none" stroke-width="0.2"/>

    </svg>
