
    <svg version="1.1"
        viewBox="-2.4, -161.4, 175.8, 161.8"
        xmlns="http://www.w3.org/2000/svg">

        <rect x="-2.4" y="-161.4" width="100%" height="100%" style="fill:white; stroke-width:0.1; stroke: black" />

<circle cx="0" cy="0" r="0.30000000000000004" fill="red" stroke="none" stroke-width="0.2"/>
<circle cx="-2" cy="-1" r="0.2" fill="blue" stroke="none" stroke-width="0.2"/>
<circle cx="-2" cy="-2" r="0.2" fill="blue" stroke="none" stroke-width="0.2"/>
<circle cx="1" cy="-4" r="0.2" fill="blue" stroke="none" stroke-width="0.2"/>
<circle cx="1" cy="-5" r="0.2" fill="blue" stroke="none" stroke-width="0.2"/>
<circle cx="2" cy="-8" r="0.2" fill="blue" stroke="none" stroke-width="0.2"/>
<circle cx="4" cy="-11" r="0.2" fill="blue" stroke="none" stroke-width="0.2"/>
<circle cx="6" cy="-17" r="0.2" fill="blue" stroke="none" stroke-width="0.2"/>
<circle cx="6" cy="-20" r="0.2" fill="blue" stroke="none" stroke-width="0.2"/>
<circle cx="11" cy="-25" r="0.2" fill="blue" stroke="none" stroke-width="0.2"/>
<circle cx="12" cy="-29" r="0.2" fill="blue" stroke="none" stroke-width="0.2"/>
<circle cx="18" cy="-34" r="0.2" fill="blue" stroke="none" stroke-width="0.2"/>
<circle cx="21" cy="-38" r="0.2" fill="blue" stroke="none" stroke-width="0.2"/>
<circle cx="29" cy="-44" r="0.2" fill="blue" stroke="none" stroke-width="0.2"/>
<circle cx="35" cy="-48" r="0.2" fill="blue" stroke="none" stroke-width="0.2"/>
<circle cx="41" cy="-53" r="0.2" fill="blue" stroke="none" stroke-width="0.2"/>
<circle cx="48" cy="-57" r="0.2" fill="blue" stroke="none" stroke-width="0.2"/>
<circle cx="55" cy="-60" r="0.2" fill="blue" stroke="none" stroke-width="0.2"/>
<circle cx="59" cy="-63" r="0.2" fill="blue" stroke="none" stroke-width="0.2"/>
<circle cx="63" cy="-65" r="0.2" fill="blue" stroke="none" stroke-width="0.2"/>
<circle cx="70" cy="-68" r="0.2" fill="blue" stroke="none" stroke-width="0.2"/>
<circle cx="74" cy="-68" r="0.2" fill="blue" stroke="none" stroke-width="0.2"/>
<circle cx="79" cy="-69" r="0.2" fill="blue" stroke="none" stroke-width="0.2"/>
<circle cx="85" cy="-70" r="0.2" fill="blue" stroke="none" stroke-width="0.2"/>
<circle cx="87" cy="-73" r="0.2" fill="blue" stroke="none" stroke-width="0.2"/>
<circle cx="90" cy="-74" r="0.2" fill="blue" stroke="none" stroke-width="0.2"/>
<circle cx="94" cy="-78" r="0.2" fill="blue" stroke="none" stroke-width="0.2"/>
<circle cx="96" cy="-80" r="0.2" fill="blue" stroke="none" stroke-width="0.2"/>
<circle cx="97" cy="-84" r="0.2" fill="blue" stroke="none" stroke-width="0.2"/>
<circle cx="100" cy="-88" r="0.2" fill="blue" stroke="none" stroke-width="0.2"/>
<circle cx="103" cy="-94" r="0.2" fill="blue" stroke="none" stroke-width="0.2"/>
<circle cx="105" cy="-96" r="0.2" fill="blue" stroke="none" stroke-width="0.2"/>
<circle cx="107" cy="-102" r="0.2" fill="blue" stroke="none" stroke-width="0.2"/>
<circle cx="109" cy="-105" r="0.2" fill="blue" stroke="none" stroke-width="0.2"/>
<circle cx="112" cy="-111" r="0.2" fill="blue" stroke="none" stroke-width="0.2"/>
<circle cx="114" cy="-113" r="0.2" fill="blue" stroke="none" stroke-width="0.2"/>
<circle cx="116" cy="-117" r="0.2" fill="blue" stroke="none" stroke-width="0.2"/>
<circle cx="118" cy="-121" r="0.2" fill="blue" stroke="none" stroke-width="0.2"/>
<circle cx="122" cy="-125" r="0.2" fill="blue" stroke="none" stroke-width="0.2"/>
<circle cx="126" cy="-128" r="0.2" fill="blue" stroke="none" stroke-width="0.2"/>
<circle cx="129" cy="-133" r="0.2" fill="blue" stroke="none" stroke-width="0.2"/>
<circle cx="133" cy="-136" r="0.2" fill="blue" stroke="none" stroke-width="0.2"/>
<circle cx="137" cy="-140" r="0.2" fill="blue" stroke="none" stroke-width="0.2"/>
<circle cx="141" cy="-144" r="0.2" fill="blue" stroke="none" stroke-width="0.2"/>
<circle cx="143" cy="-147" r="0.2" fill="blue" stroke="none" stroke-width="0.2"/>
<circle cx="149" cy="-152" r="0.2" fill="blue" stroke="none" stroke-width="0.2"/>
<circle cx="153" cy="-154" r="0.2" fill="blue" stroke="none" stroke-width="0.2"/>
<circle cx="156" cy="-156" r="0.2" fill="blue" stroke="none" stroke-width="0.2"/>
<circle cx="161" cy="-158" r="0.2" fill="blue" stroke="none" stroke-width="0.2"/>
<circle cx="165" cy="-160" r="0.2" fill="blue" stroke="none" stroke-width="0.2"/>
<circle cx="173" cy="-161" r="0.2" fill="blue" stroke="none" stroke-width="0.2"/>
<line x1="0" y1="0" x2="-1" y2="-1" stroke="black" stroke-width="0.1" />
<circle cx="-1" cy="-1" r="0.1" fill="green" stroke="none" stroke-width="0.2"/>
<line x1="-1" y1="-1" x2="-2" y2="-1" stroke="black" stroke-width="0.1" />
<circle cx="-2" cy="-1" r="0.1" fill="green" stroke="none" stroke-width="0.2"/>
<line x1="-2" y1="-1" x2="-2" y2="-2" stroke="black" stroke-width="0.1" />
<circle cx="-2" cy="-2" r="0.1" fill="green" stroke="none" stroke-width="0.2"/>
<line x1="-2" y1="-2" x2="-1" y2="-3" stroke="black" stroke-width="0.1" />
<circle cx="-1" cy="-3" r="0.1" fill="green" stroke="none" stroke-width="0.2"/>
<line x1="-1" y1="-3" x2="1" y2="-4" stroke="black" stroke-width="0.1" />
<circle cx="1" cy="-4" r="0.1" fill="green" stroke="none" stroke-width="0.2"/>
<line x1="1" y1="-4" x2="2" y2="-4" stroke="black" stroke-width="0.1" />
<circle cx="2" cy="-4" r="0.1" fill="green" stroke="none" stroke-width="0.2"/>
<line x1="2" y1="-4" x2="2" y2="-5" stroke="black" stroke-width="0.1" />
<circle cx="2" cy="-5" r="0.1" fill="green" stroke="none" stroke-width="0.2"/>
<line x1="2" y1="-5" x2="1" y2="-5" stroke="black" stroke-width="0.1" />
<circle cx="1" cy="-5" r="0.1" fill="green" stroke="none" stroke-width="0.2"/>
<line x1="1" y1="-5" x2="1" y2="-6" stroke="black" stroke-width="0.1" />
<circle cx="1" cy="-6" r="0.1" fill="green" stroke="none" stroke-width="0.2"/>
<line x1="1" y1="-6" x2="2" y2="-8" stroke="black" stroke-width="0.1" />
<circle cx="2" cy="-8" r="0.1" fill="green" stroke="none" stroke-width="0.2"/>
<line x1="2" y1="-8" x2="4" y2="-11" stroke="black" stroke-width="0.1" />
<circle cx="4" cy="-11" r="0.1" fill="green" stroke="none" stroke-width="0.2"/>
<line x1="4" y1="-11" x2="5" y2="-14" stroke="black" stroke-width="0.1" />
<circle cx="5" cy="-14" r="0.1" fill="green" stroke="none" stroke-width="0.2"/>
<line x1="5" y1="-14" x2="6" y2="-17" stroke="black" stroke-width="0.1" />
<circle cx="6" cy="-17" r="0.1" fill="green" stroke="none" stroke-width="0.2"/>
<line x1="6" y1="-17" x2="6" y2="-20" stroke="black" stroke-width="0.1" />
<circle cx="6" cy="-20" r="0.1" fill="green" stroke="none" stroke-width="0.2"/>
<line x1="6" y1="-20" x2="7" y2="-22" stroke="black" stroke-width="0.1" />
<circle cx="7" cy="-22" r="0.1" fill="green" stroke="none" stroke-width="0.2"/>
<line x1="7" y1="-22" x2="9" y2="-23" stroke="black" stroke-width="0.1" />
<circle cx="9" cy="-23" r="0.1" fill="green" stroke="none" stroke-width="0.2"/>
<line x1="9" y1="-23" x2="11" y2="-25" stroke="black" stroke-width="0.1" />
<circle cx="11" cy="-25" r="0.1" fill="green" stroke="none" stroke-width="0.2"/>
<line x1="11" y1="-25" x2="12" y2="-27" stroke="black" stroke-width="0.1" />
<circle cx="12" cy="-27" r="0.1" fill="green" stroke="none" stroke-width="0.2"/>
<line x1="12" y1="-27" x2="12" y2="-29" stroke="black" stroke-width="0.1" />
<circle cx="12" cy="-29" r="0.1" fill="green" stroke="none" stroke-width="0.2"/>
<line x1="12" y1="-29" x2="13" y2="-30" stroke="black" stroke-width="0.1" />
<circle cx="13" cy="-30" r="0.1" fill="green" stroke="none" stroke-width="0.2"/>
<line x1="13" y1="-30" x2="15" y2="-32" stroke="black" stroke-width="0.1" />
<circle cx="15" cy="-32" r="0.1" fill="green" stroke="none" stroke-width="0.2"/>
<line x1="15" y1="-32" x2="18" y2="-34" stroke="black" stroke-width="0.1" />
<circle cx="18" cy="-34" r="0.1" fill="green" stroke="none" stroke-width="0.2"/>
<line x1="18" y1="-34" x2="20" y2="-36" stroke="black" stroke-width="0.1" />
<circle cx="20" cy="-36" r="0.1" fill="green" stroke="none" stroke-width="0.2"/>
<line x1="20" y1="-36" x2="21" y2="-38" stroke="black" stroke-width="0.1" />
<circle cx="21" cy="-38" r="0.1" fill="green" stroke="none" stroke-width="0.2"/>
<line x1="21" y1="-38" x2="23" y2="-40" stroke="black" stroke-width="0.1" />
<circle cx="23" cy="-40" r="0.1" fill="green" stroke="none" stroke-width="0.2"/>
<line x1="23" y1="-40" x2="26" y2="-42" stroke="black" stroke-width="0.1" />
<circle cx="26" cy="-42" r="0.1" fill="green" stroke="none" stroke-width="0.2"/>
<line x1="26" y1="-42" x2="29" y2="-44" stroke="black" stroke-width="0.1" />
<circle cx="29" cy="-44" r="0.1" fill="green" stroke="none" stroke-width="0.2"/>
<line x1="29" y1="-44" x2="32" y2="-46" stroke="black" stroke-width="0.1" />
<circle cx="32" cy="-46" r="0.1" fill="green" stroke="none" stroke-width="0.2"/>
<line x1="32" y1="-46" x2="35" y2="-48" stroke="black" stroke-width="0.1" />
<circle cx="35" cy="-48" r="0.1" fill="green" stroke="none" stroke-width="0.2"/>
<line x1="35" y1="-48" x2="38" y2="-51" stroke="black" stroke-width="0.1" />
<circle cx="38" cy="-51" r="0.1" fill="green" stroke="none" stroke-width="0.2"/>
<line x1="38" y1="-51" x2="41" y2="-53" stroke="black" stroke-width="0.1" />
<circle cx="41" cy="-53" r="0.1" fill="green" stroke="none" stroke-width="0.2"/>
<line x1="41" y1="-53" x2="45" y2="-55" stroke="black" stroke-width="0.1" />
<circle cx="45" cy="-55" r="0.1" fill="green" stroke="none" stroke-width="0.2"/>
<line x1="45" y1="-55" x2="48" y2="-57" stroke="black" stroke-width="0.1" />
<circle cx="48" cy="-57" r="0.1" fill="green" stroke="none" stroke-width="0.2"/>
<line x1="48" y1="-57" x2="52" y2="-58" stroke="black" stroke-width="0.1" />
<circle cx="52" cy="-58" r="0.1" fill="green" stroke="none" stroke-width="0.2"/>
<line x1="52" y1="-58" x2="55" y2="-60" stroke="black" stroke-width="0.1" />
<circle cx="55" cy="-60" r="0.1" fill="green" stroke="none" stroke-width="0.2"/>
<line x1="55" y1="-60" x2="59" y2="-63" stroke="black" stroke-width="0.1" />
<circle cx="59" cy="-63" r="0.1" fill="green" stroke="none" stroke-width="0.2"/>
<line x1="59" y1="-63" x2="63" y2="-65" stroke="black" stroke-width="0.1" />
<circle cx="63" cy="-65" r="0.1" fill="green" stroke="none" stroke-width="0.2"/>
<line x1="63" y1="-65" x2="66" y2="-66" stroke="black" stroke-width="0.1" />
<circle cx="66" cy="-66" r="0.1" fill="green" stroke="none" stroke-width="0.2"/>
<line x1="66" y1="-66" x2="70" y2="-68" stroke="black" stroke-width="0.1" />
<circle cx="70" cy="-68" r="0.1" fill="green" stroke="none" stroke-width="0.2"/>
<line x1="70" y1="-68" x2="73" y2="-69" stroke="black" stroke-width="0.1" />
<circle cx="73" cy="-69" r="0.1" fill="green" stroke="none" stroke-width="0.2"/>
<line x1="73" y1="-69" x2="75" y2="-69" stroke="black" stroke-width="0.1" />
<circle cx="75" cy="-69" r="0.1" fill="green" stroke="none" stroke-width="0.2"/>
<line x1="75" y1="-69" x2="76" y2="-68" stroke="black" stroke-width="0.1" />
<circle cx="76" cy="-68" r="0.1" fill="green" stroke="none" stroke-width="0.2"/>
<line x1="76" y1="-68" x2="76" y2="-68" stroke="black" stroke-width="0.1" />
<circle cx="76" cy="-68" r="0.1" fill="green" stroke="none" stroke-width="0.2"/>
<line x1="76" y1="-68" x2="75" y2="-68" stroke="black" stroke-width="0.1" />
<circle cx="75" cy="-68" r="0.1" fill="green" stroke="none" stroke-width="0.2"/>
<line x1="75" y1="-68" x2="74" y2="-68" stroke="black" stroke-width="0.1" />
<circle cx="74" cy="-68" r="0.1" fill="green" stroke="none" stroke-width="0.2"/>
<line x1="74" y1="-68" x2="74" y2="-69" stroke="black" stroke-width="0.1" />
<circle cx="74" cy="-69" r="0.1" fill="green" stroke="none" stroke-width="0.2"/>
<line x1="74" y1="-69" x2="75" y2="-69" stroke="black" stroke-width="0.1" />
<circle cx="75" cy="-69" r="0.1" fill="green" stroke="none" stroke-width="0.2"/>
<line x1="75" y1="-69" x2="77" y2="-69" stroke="black" stroke-width="0.1" />
<circle cx="77" cy="-69" r="0.1" fill="green" stroke="none" stroke-width="0.2"/>
<line x1="77" y1="-69" x2="79" y2="-69" stroke="black" stroke-width="0.1" />
<circle cx="79" cy="-69" r="0.1" fill="green" stroke="none" stroke-width="0.2"/>
<line x1="79" y1="-69" x2="82" y2="-70" stroke="black" stroke-width="0.1" />
<circle cx="82" cy="-70" r="0.1" fill="green" stroke="none" stroke-width="0.2"/>
<line x1="82" y1="-70" x2="85" y2="-70" stroke="black" stroke-width="0.1" />
<circle cx="85" cy="-70" r="0.1" fill="green" stroke="none" stroke-width="0.2"/>
<line x1="85" y1="-70" x2="87" y2="-71" stroke="black" stroke-width="0.1" />
<circle cx="87" cy="-71" r="0.1" fill="green" stroke="none" stroke-width="0.2"/>
<line x1="87" y1="-71" x2="88" y2="-71" stroke="black" stroke-width="0.1" />
<circle cx="88" cy="-71" r="0.1" fill="green" stroke="none" stroke-width="0.2"/>
<line x1="88" y1="-71" x2="88" y2="-72" stroke="black" stroke-width="0.1" />
<circle cx="88" cy="-72" r="0.1" fill="green" stroke="none" stroke-width="0.2"/>
<line x1="88" y1="-72" x2="87" y2="-73" stroke="black" stroke-width="0.1" />
<circle cx="87" cy="-73" r="0.1" fill="green" stroke="none" stroke-width="0.2"/>
<line x1="87" y1="-73" x2="87" y2="-73" stroke="black" stroke-width="0.1" />
<circle cx="87" cy="-73" r="0.1" fill="green" stroke="none" stroke-width="0.2"/>
<line x1="87" y1="-73" x2="88" y2="-74" stroke="black" stroke-width="0.1" />
<circle cx="88" cy="-74" r="0.1" fill="green" stroke="none" stroke-width="0.2"/>
<line x1="88" y1="-74" x2="90" y2="-74" stroke="black" stroke-width="0.1" />
<circle cx="90" cy="-74" r="0.1" fill="green" stroke="none" stroke-width="0.2"/>
<line x1="90" y1="-74" x2="91" y2="-75" stroke="black" stroke-width="0.1" />
<circle cx="91" cy="-75" r="0.1" fill="green" stroke="none" stroke-width="0.2"/>
<line x1="91" y1="-75" x2="93" y2="-77" stroke="black" stroke-width="0.1" />
<circle cx="93" cy="-77" r="0.1" fill="green" stroke="none" stroke-width="0.2"/>
<line x1="93" y1="-77" x2="94" y2="-78" stroke="black" stroke-width="0.1" />
<circle cx="94" cy="-78" r="0.1" fill="green" stroke="none" stroke-width="0.2"/>
<line x1="94" y1="-78" x2="96" y2="-80" stroke="black" stroke-width="0.1" />
<circle cx="96" cy="-80" r="0.1" fill="green" stroke="none" stroke-width="0.2"/>
<line x1="96" y1="-80" x2="97" y2="-82" stroke="black" stroke-width="0.1" />
<circle cx="97" cy="-82" r="0.1" fill="green" stroke="none" stroke-width="0.2"/>
<line x1="97" y1="-82" x2="97" y2="-84" stroke="black" stroke-width="0.1" />
<circle cx="97" cy="-84" r="0.1" fill="green" stroke="none" stroke-width="0.2"/>
<line x1="97" y1="-84" x2="98" y2="-86" stroke="black" stroke-width="0.1" />
<circle cx="98" cy="-86" r="0.1" fill="green" stroke="none" stroke-width="0.2"/>
<line x1="98" y1="-86" x2="100" y2="-88" stroke="black" stroke-width="0.1" />
<circle cx="100" cy="-88" r="0.1" fill="green" stroke="none" stroke-width="0.2"/>
<line x1="100" y1="-88" x2="101" y2="-91" stroke="black" stroke-width="0.1" />
<circle cx="101" cy="-91" r="0.1" fill="green" stroke="none" stroke-width="0.2"/>
<line x1="101" y1="-91" x2="103" y2="-94" stroke="black" stroke-width="0.1" />
<circle cx="103" cy="-94" r="0.1" fill="green" stroke="none" stroke-width="0.2"/>
<line x1="103" y1="-94" x2="105" y2="-96" stroke="black" stroke-width="0.1" />
<circle cx="105" cy="-96" r="0.1" fill="green" stroke="none" stroke-width="0.2"/>
<line x1="105" y1="-96" x2="106" y2="-99" stroke="black" stroke-width="0.1" />
<circle cx="106" cy="-99" r="0.1" fill="green" stroke="none" stroke-width="0.2"/>
<line x1="106" y1="-99" x2="107" y2="-102" stroke="black" stroke-width="0.1" />
<circle cx="107" cy="-102" r="0.1" fill="green" stroke="none" stroke-width="0.2"/>
<line x1="107" y1="-102" x2="109" y2="-105" stroke="black" stroke-width="0.1" />
<circle cx="109" cy="-105" r="0.1" fill="green" stroke="none" stroke-width="0.2"/>
<line x1="109" y1="-105" x2="110" y2="-108" stroke="black" stroke-width="0.1" />
<circle cx="110" cy="-108" r="0.1" fill="green" stroke="none" stroke-width="0.2"/>
<line x1="110" y1="-108" x2="112" y2="-111" stroke="black" stroke-width="0.1" />
<circle cx="112" cy="-111" r="0.1" fill="green" stroke="none" stroke-width="0.2"/>
<line x1="112" y1="-111" x2="114" y2="-113" stroke="black" stroke-width="0.1" />
<circle cx="114" cy="-113" r="0.1" fill="green" stroke="none" stroke-width="0.2"/>
<line x1="114" y1="-113" x2="115" y2="-115" stroke="black" stroke-width="0.1" />
<circle cx="115" cy="-115" r="0.1" fill="green" stroke="none" stroke-width="0.2"/>
<line x1="115" y1="-115" x2="116" y2="-117" stroke="black" stroke-width="0.1" />
<circle cx="116" cy="-117" r="0.1" fill="green" stroke="none" stroke-width="0.2"/>
<line x1="116" y1="-117" x2="117" y2="-119" stroke="black" stroke-width="0.1" />
<circle cx="117" cy="-119" r="0.1" fill="green" stroke="none" stroke-width="0.2"/>
<line x1="117" y1="-119" x2="118" y2="-121" stroke="black" stroke-width="0.1" />
<circle cx="118" cy="-121" r="0.1" fill="green" stroke="none" stroke-width="0.2"/>
<line x1="118" y1="-121" x2="120" y2="-123" stroke="black" stroke-width="0.1" />
<circle cx="120" cy="-123" r="0.1" fill="green" stroke="none" stroke-width="0.2"/>
<line x1="120" y1="-123" x2="122" y2="-125" stroke="black" stroke-width="0.1" />
<circle cx="122" cy="-125" r="0.1" fill="green" stroke="none" stroke-width="0.2"/>
<line x1="122" y1="-125" x2="124" y2="-126" stroke="black" stroke-width="0.1" />
<circle cx="124" cy="-126" r="0.1" fill="green" stroke="none" stroke-width="0.2"/>
<line x1="124" y1="-126" x2="126" y2="-128" stroke="black" stroke-width="0.1" />
<circle cx="126" cy="-128" r="0.1" fill="green" stroke="none" stroke-width="0.2"/>
<line x1="126" y1="-128" x2="127" y2="-131" stroke="black" stroke-width="0.1" />
<circle cx="127" cy="-131" r="0.1" fill="green" stroke="none" stroke-width="0.2"/>
<line x1="127" y1="-131" x2="129" y2="-133" stroke="black" stroke-width="0.1" />
<circle cx="129" cy="-133" r="0.1" fill="green" stroke="none" stroke-width="0.2"/>
<line x1="129" y1="-133" x2="131" y2="-134" stroke="black" stroke-width="0.1" />
<circle cx="131" cy="-134" r="0.1" fill="green" stroke="none" stroke-width="0.2"/>
<line x1="131" y1="-134" x2="133" y2="-136" stroke="black" stroke-width="0.1" />
<circle cx="133" cy="-136" r="0.1" fill="green" stroke="none" stroke-width="0.2"/>
<line x1="133" y1="-136" x2="135" y2="-138" stroke="black" stroke-width="0.1" />
<circle cx="135" cy="-138" r="0.1" fill="green" stroke="none" stroke-width="0.2"/>
<line x1="135" y1="-138" x2="137" y2="-140" stroke="black" stroke-width="0.1" />
<circle cx="137" cy="-140" r="0.1" fill="green" stroke="none" stroke-width="0.2"/>
<line x1="137" y1="-140" x2="139" y2="-142" stroke="black" stroke-width="0.1" />
<circle cx="139" cy="-142" r="0.1" fill="green" stroke="none" stroke-width="0.2"/>
<line x1="139" y1="-142" x2="141" y2="-144" stroke="black" stroke-width="0.1" />
<circle cx="141" cy="-144" r="0.1" fill="green" stroke="none" stroke-width="0.2"/>
<line x1="141" y1="-144" x2="143" y2="-147" stroke="black" stroke-width="0.1" />
<circle cx="143" cy="-147" r="0.1" fill="green" stroke="none" stroke-width="0.2"/>
<line x1="143" y1="-147" x2="146" y2="-149" stroke="black" stroke-width="0.1" />
<circle cx="146" cy="-149" r="0.1" fill="green" stroke="none" stroke-width="0.2"/>
<line x1="146" y1="-149" x2="149" y2="-152" stroke="black" stroke-width="0.1" />
<circle cx="149" cy="-152" r="0.1" fill="green" stroke="none" stroke-width="0.2"/>
<line x1="149" y1="-152" x2="153" y2="-154" stroke="black" stroke-width="0.1" />
<circle cx="153" cy="-154" r="0.1" fill="green" stroke="none" stroke-width="0.2"/>
<line x1="153" y1="-154" x2="156" y2="-156" stroke="black" stroke-width="0.1" />
<circle cx="156" cy="-156" r="0.1" fill="green" stroke="none" stroke-width="0.2"/>
<line x1="156" y1="-156" x2="158" y2="-157" stroke="black" stroke-width="0.1" />
<circle cx="158" cy="-157" r="0.1" fill="green" stroke="none" stroke-width="0.2"/>
<line x1="158" y1="-157" x2="161" y2="-158" stroke="black" stroke-width="0.1" />
<circle cx="161" cy="-158" r="0.1" fill="green" stroke="none" stroke-width="0.2"/>
<line x1="161" y1="-158" x2="165" y2="-160" stroke="black" stroke-width="0.1" />
<circle cx="165" cy="-160" r="0.1" fill="green" stroke="none" stroke-width="0.2"/>
<line x1="165" y1="-160" x2="169" y2="-161" stroke="black" stroke-width="0.1" />
<circle cx="169" cy="-161" r="0.1" fill="green" stroke="none" stroke-width="0.2"/>
<line x1="169" y1="-161" x2="173" y2="-161" stroke="black" stroke-width="0.1" />
<circle cx="173" cy="-161" r="0.1" fill="green" stroke="none" stroke-width="0.2"/>

    </svg>
