
    <svg version="1.1"
        viewBox="-2.4, -161.4, 175.8, 161.8"
        xmlns="http://www.w3.org/2000/svg">

        <rect x="-2.4" y="-161.4" width="100%" height="100%" style="fill:white; stroke-width:0.1; stroke: black" />

<circle cx="0" cy="0" r="0.30000000000000004" fill="red" stroke="none" stroke-width="0.2"/>
<circle cx="-2" cy="-1" r="0.2" fill="blue" stroke="none" stroke-width="0.2"/>
<circle cx="-2" cy="-2" r="0.2" fill="blue" stroke="none" stroke-width="0.2"/>
<circle cx="1" cy="-4" r="0.2" fill="blue" stroke="none" stroke-width="0.2"/>
<circle cx="1" cy="-5" r="0.2" fill="blue" stroke="none" stroke-width="0.2"/>
<circle cx="2" cy="-8" r="0.2" fill="blue" stroke="none" stroke-width="0.2"/>
<circle cx="4" cy="-11" r="0.2" fill="blue" stroke="none" stroke-width="0.2"/>
<circle cx="6" cy="-17" r="0.2" fill="blue" stroke="none" stroke-width="0.2"/>
<circle cx="6" cy="-20" r="0.2" fill="blue" stroke="none" stroke-width="0.2"/>
<circle cx="11" cy="-25" r="0.2" fill="blue" stroke="none" stroke-width="0.2"/>
<circle cx="12" cy="-29" r="0.2" fill="blue" stroke="none" stroke-width="0.2"/>
<circle cx="18" cy="-34" r="0.2" fill="blue" stroke="none" stroke-width="0.2"/>
<circle cx="21" cy="-38" r="0.2" fill="blue" stroke="none" stroke-width="0.2"/>
<circle cx="29" cy="-44" r="0.2" fill="blue" stroke="none" stroke-width="0.2"/>
<circle cx="35" cy="-48" r="0.2" fill="blue" stroke="none" stroke-width="0.2"/>
<circle cx="41" cy="-53" r="0.2" fill="blue" stroke="none" stroke-width="0.2"/>
<circle cx="48" cy="-57" r="0.2" fill="blue" stroke="none" stroke-width="0.2"/>
<circle cx="55" cy="-60" r="0.2" fill="blue" stroke="none" stroke-width="0.2"/>
<circle cx="59" cy="-63" r="0.2" fill="blue" stroke="none" stroke-width="0.2"/>
<circle cx="63" cy="-65" r="0.2" fill="blue" stroke="none" stroke-width="0.2"/>
<circle cx="70" cy="-68" r="0.2" fill="blue" stroke="none" stroke-width="0.2"/>
<circle cx="74" cy="-68" r="0.2" fill="blue" stroke="none" stroke-width="0.2"/>
<circle cx="79" cy="-69" r="0.2" fill="blue" stroke="none" stroke-width="0.2"/>
<circle cx="85" cy="-70" r="0.2" fill="blue" stroke="none" stroke-width="0.2"/>
<circle cx="87" cy="-73" r="0.2" fill="blue" stroke="none" stroke-width="0.2"/>
<circle cx="90" cy="-74" r="0.2" fill="blue" stroke="none" stroke-width="0.2"/>
<circle cx="94" cy="-78" r="0.2" fill="blue" stroke="none" stroke-width="0.2"/>
<circle cx="96" cy="-80" r="0.2" fill="blue" stroke="none" stroke-width="0.2"/>
<circle cx="97" cy="-84" r="0.2" fill="blue" stroke="none" stroke-width="0.2"/>
<circle cx="100" cy="-88" r="0.2" fill="blue" stroke="none" stroke-width="0.2"/>
<circle cx="103" cy="-94" r="0.2" fill="blue" stroke="none" stroke-width="0.2"/>
<circle cx="105" cy="-96" r="0.2" fill="blue" stroke="none" stroke-width="0.2"/>
<circle cx="107" cy="-102" r="0.2" fill="blue" stroke="none" stroke-width="0.2"/>
<circle cx="109" cy="-105" r="0.2" fill="blue" stroke="none" stroke-width="0.2"/>
<circle cx="112" cy="-111" r="0.2" fill="blue" stroke="none" stroke-width="0.2"/>
<circle cx="114" cy="-113" r="0.2" fill="blue" stroke="none" stroke-width="0.2"/>
<circle cx="116" cy="-117" r="0.2" fill="blue" stroke="none" stroke-width="0.2"/>
<circle cx="118" cy="-121" r="0.2" fill="blue" stroke="none" stroke-width="0.2"/>
<circle cx="122" cy="-125" r="0.2" fill="blue" stroke="none" stroke-width="0.2"/>
<circle cx="126" cy="-128" r="0.2" fill="blue" stroke="none" stroke-width="0.2"/>
<circle cx="129" cy="-133" r="0.2" fill="blue" stroke="none" stroke-width="0.2"/>
<circle cx="133" cy="-136" r="0.2" fill="blue" stroke="none" stroke-width="0.2"/>
<circle cx="137" cy="-140" r="0.2" fill="blue" stroke="none" stroke-width="0.2"/>
<circle cx="141" cy="-144" r="0.2" fill="blue" stroke="none" stroke-width="0.2"/>
<circle cx="143" cy="-147" r="0.2" fill="blue" stroke="none" stroke-width="0.2"/>
<circle cx="149" cy="-152" r="0.2" fill="blue" stroke="none" stroke-width="0.2"/>
<circle cx="153" cy="-154" r="0.2" fill="blue" stroke="none" stroke-width="0.2"/>
<circle cx="156" cy="-156" r="0.2" fill="blue" stroke="none" stroke-width="0.2"/>
<circle cx="161" cy="-158" r="0.2" fill="blue" stroke="none" stroke-width="0.2"/>
<circle cx="165" cy="-160" r="0.2" fill="blue" stroke="none" stroke-width="0.2"/>
<circle cx="173" cy="-161" r="0.2" fill="blue" stroke="none" stroke-width="0.2"/>

    </svg>
