
    <svg version="1.1"
        viewBox="-84.668, -159.668, 233.336, 335.336"
        xmlns="http://www.w3.org/2000/svg">

        <rect x="-84.668" y="-159.668" width="100%" height="100%" style="fill:white; stroke-width:0.1; stroke: black" />

<circle cx="0" cy="0" r="0.501" fill="red" stroke="none" stroke-width="0.2"/>
<circle cx="63" cy="57" r="0.334" fill="blue" stroke="none" stroke-width="0.2"/>
<circle cx="1" cy="2" r="0.334" fill="blue" stroke="none" stroke-width="0.2"/>
<circle cx="78" cy="62" r="0.334" fill="blue" stroke="none" stroke-width="0.2"/>
<circle cx="138" cy="153" r="0.334" fill="blue" stroke="none" stroke-width="0.2"/>
<circle cx="35" cy="44" r="0.334" fill="blue" stroke="none" stroke-width="0.2"/>
<circle cx="110" cy="104" r="0.334" fill="blue" stroke="none" stroke-width="0.2"/>
<circle cx="141" cy="175" r="0.334" fill="blue" stroke="none" stroke-width="0.2"/>
<circle cx="-53" cy="-137" r="0.334" fill="blue" stroke="none" stroke-width="0.2"/>
<circle cx="-2" cy="-74" r="0.334" fill="blue" stroke="none" stroke-width="0.2"/>
<circle cx="35" cy="-21" r="0.334" fill="blue" stroke="none" stroke-width="0.2"/>
<circle cx="136" cy="153" r="0.334" fill="blue" stroke="none" stroke-width="0.2"/>
<circle cx="144" cy="172" r="0.334" fill="blue" stroke="none" stroke-width="0.2"/>
<circle cx="142" cy="136" r="0.334" fill="blue" stroke="none" stroke-width="0.2"/>
<circle cx="142" cy="175" r="0.334" fill="blue" stroke="none" stroke-width="0.2"/>
<circle cx="-12" cy="-88" r="0.334" fill="blue" stroke="none" stroke-width="0.2"/>
<circle cx="118" cy="71" r="0.334" fill="blue" stroke="none" stroke-width="0.2"/>
<circle cx="103" cy="95" r="0.334" fill="blue" stroke="none" stroke-width="0.2"/>
<circle cx="118" cy="137" r="0.334" fill="blue" stroke="none" stroke-width="0.2"/>
<circle cx="24" cy="-35" r="0.334" fill="blue" stroke="none" stroke-width="0.2"/>
<circle cx="146" cy="141" r="0.334" fill="blue" stroke="none" stroke-width="0.2"/>
<circle cx="134" cy="162" r="0.334" fill="blue" stroke="none" stroke-width="0.2"/>
<circle cx="107" cy="67" r="0.334" fill="blue" stroke="none" stroke-width="0.2"/>
<circle cx="131" cy="159" r="0.334" fill="blue" stroke="none" stroke-width="0.2"/>
<circle cx="43" cy="-11" r="0.334" fill="blue" stroke="none" stroke-width="0.2"/>
<circle cx="-84" cy="-159" r="0.334" fill="blue" stroke="none" stroke-width="0.2"/>
<circle cx="-21" cy="-101" r="0.334" fill="blue" stroke="none" stroke-width="0.2"/>
<circle cx="96" cy="69" r="0.334" fill="blue" stroke="none" stroke-width="0.2"/>
<circle cx="96" cy="85" r="0.334" fill="blue" stroke="none" stroke-width="0.2"/>
<circle cx="94" cy="72" r="0.334" fill="blue" stroke="none" stroke-width="0.2"/>
<circle cx="132" cy="160" r="0.334" fill="blue" stroke="none" stroke-width="0.2"/>
<circle cx="136" cy="175" r="0.334" fill="blue" stroke="none" stroke-width="0.2"/>
<circle cx="7" cy="-60" r="0.334" fill="blue" stroke="none" stroke-width="0.2"/>
<circle cx="138" cy="119" r="0.334" fill="blue" stroke="none" stroke-width="0.2"/>
<circle cx="136" cy="98" r="0.334" fill="blue" stroke="none" stroke-width="0.2"/>
<circle cx="136" cy="106" r="0.334" fill="blue" stroke="none" stroke-width="0.2"/>
<circle cx="112" cy="112" r="0.334" fill="blue" stroke="none" stroke-width="0.2"/>
<circle cx="52" cy="5" r="0.334" fill="blue" stroke="none" stroke-width="0.2"/>
<circle cx="41" cy="49" r="0.334" fill="blue" stroke="none" stroke-width="0.2"/>
<circle cx="-32" cy="-115" r="0.334" fill="blue" stroke="none" stroke-width="0.2"/>
<circle cx="102" cy="68" r="0.334" fill="blue" stroke="none" stroke-width="0.2"/>
<circle cx="-75" cy="-156" r="0.334" fill="blue" stroke="none" stroke-width="0.2"/>
<circle cx="69" cy="38" r="0.334" fill="blue" stroke="none" stroke-width="0.2"/>
<circle cx="104" cy="66" r="0.334" fill="blue" stroke="none" stroke-width="0.2"/>
<circle cx="122" cy="143" r="0.334" fill="blue" stroke="none" stroke-width="0.2"/>
<circle cx="148" cy="153" r="0.334" fill="blue" stroke="none" stroke-width="0.2"/>
<circle cx="53" cy="57" r="0.334" fill="blue" stroke="none" stroke-width="0.2"/>
<circle cx="148" cy="162" r="0.334" fill="blue" stroke="none" stroke-width="0.2"/>
<circle cx="-61" cy="-147" r="0.334" fill="blue" stroke="none" stroke-width="0.2"/>
<circle cx="137" cy="156" r="0.334" fill="blue" stroke="none" stroke-width="0.2"/>
<circle cx="127" cy="77" r="0.334" fill="blue" stroke="none" stroke-width="0.2"/>
<circle cx="24" cy="36" r="0.334" fill="blue" stroke="none" stroke-width="0.2"/>
<circle cx="137" cy="113" r="0.334" fill="blue" stroke="none" stroke-width="0.2"/>
<circle cx="137" cy="155" r="0.334" fill="blue" stroke="none" stroke-width="0.2"/>
<circle cx="87" cy="72" r="0.334" fill="blue" stroke="none" stroke-width="0.2"/>
<circle cx="19" cy="33" r="0.334" fill="blue" stroke="none" stroke-width="0.2"/>
<circle cx="57" cy="18" r="0.334" fill="blue" stroke="none" stroke-width="0.2"/>
<circle cx="140" cy="125" r="0.334" fill="blue" stroke="none" stroke-width="0.2"/>
<circle cx="-45" cy="-127" r="0.334" fill="blue" stroke="none" stroke-width="0.2"/>
<circle cx="90" cy="71" r="0.334" fill="blue" stroke="none" stroke-width="0.2"/>
<circle cx="146" cy="167" r="0.334" fill="blue" stroke="none" stroke-width="0.2"/>
<circle cx="84" cy="65" r="0.334" fill="blue" stroke="none" stroke-width="0.2"/>
<circle cx="79" cy="64" r="0.334" fill="blue" stroke="none" stroke-width="0.2"/>
<circle cx="81" cy="61" r="0.334" fill="blue" stroke="none" stroke-width="0.2"/>
<circle cx="3" cy="7" r="0.334" fill="blue" stroke="none" stroke-width="0.2"/>
<circle cx="114" cy="69" r="0.334" fill="blue" stroke="none" stroke-width="0.2"/>
<circle cx="80" cy="66" r="0.334" fill="blue" stroke="none" stroke-width="0.2"/>
<circle cx="115" cy="121" r="0.334" fill="blue" stroke="none" stroke-width="0.2"/>
<circle cx="14" cy="25" r="0.334" fill="blue" stroke="none" stroke-width="0.2"/>
<circle cx="7" cy="12" r="0.334" fill="blue" stroke="none" stroke-width="0.2"/>
<circle cx="74" cy="52" r="0.334" fill="blue" stroke="none" stroke-width="0.2"/>
<circle cx="130" cy="84" r="0.334" fill="blue" stroke="none" stroke-width="0.2"/>
<circle cx="13" cy="18" r="0.334" fill="blue" stroke="none" stroke-width="0.2"/>
<circle cx="137" cy="165" r="0.334" fill="blue" stroke="none" stroke-width="0.2"/>
<circle cx="94" cy="73" r="0.334" fill="blue" stroke="none" stroke-width="0.2"/>
<circle cx="59" cy="58" r="0.334" fill="blue" stroke="none" stroke-width="0.2"/>
<circle cx="141" cy="132" r="0.334" fill="blue" stroke="none" stroke-width="0.2"/>
<circle cx="129" cy="153" r="0.334" fill="blue" stroke="none" stroke-width="0.2"/>
<circle cx="63" cy="29" r="0.334" fill="blue" stroke="none" stroke-width="0.2"/>
<circle cx="136" cy="159" r="0.334" fill="blue" stroke="none" stroke-width="0.2"/>
<circle cx="145" cy="147" r="0.334" fill="blue" stroke="none" stroke-width="0.2"/>
<circle cx="73" cy="61" r="0.334" fill="blue" stroke="none" stroke-width="0.2"/>
<circle cx="135" cy="158" r="0.334" fill="blue" stroke="none" stroke-width="0.2"/>
<circle cx="136" cy="153" r="0.334" fill="blue" stroke="none" stroke-width="0.2"/>
<circle cx="121" cy="74" r="0.334" fill="blue" stroke="none" stroke-width="0.2"/>
<circle cx="133" cy="91" r="0.334" fill="blue" stroke="none" stroke-width="0.2"/>
<circle cx="-66" cy="-152" r="0.334" fill="blue" stroke="none" stroke-width="0.2"/>
<circle cx="136" cy="168" r="0.334" fill="blue" stroke="none" stroke-width="0.2"/>
<circle cx="137" cy="154" r="0.334" fill="blue" stroke="none" stroke-width="0.2"/>
<circle cx="127" cy="151" r="0.334" fill="blue" stroke="none" stroke-width="0.2"/>
<circle cx="30" cy="39" r="0.334" fill="blue" stroke="none" stroke-width="0.2"/>
<circle cx="87" cy="67" r="0.334" fill="blue" stroke="none" stroke-width="0.2"/>
<circle cx="16" cy="-46" r="0.334" fill="blue" stroke="none" stroke-width="0.2"/>
<circle cx="45" cy="56" r="0.334" fill="blue" stroke="none" stroke-width="0.2"/>
<circle cx="133" cy="156" r="0.334" fill="blue" stroke="none" stroke-width="0.2"/>
<circle cx="70" cy="58" r="0.334" fill="blue" stroke="none" stroke-width="0.2"/>
<circle cx="115" cy="130" r="0.334" fill="blue" stroke="none" stroke-width="0.2"/>
<circle cx="125" cy="147" r="0.334" fill="blue" stroke="none" stroke-width="0.2"/>
<circle cx="134" cy="172" r="0.334" fill="blue" stroke="none" stroke-width="0.2"/>
<circle cx="130" cy="157" r="0.334" fill="blue" stroke="none" stroke-width="0.2"/>
<circle cx="17" cy="31" r="0.334" fill="blue" stroke="none" stroke-width="0.2"/>

    </svg>
