
    <svg version="1.1"
        width="233.336" height="335.336"
        xmlns="http://www.w3.org/2000/svg">

        <rect width="100%" height="100%" style="fill:white; stroke-width:0.1; stroke: black" />

<circle cx="147.668" cy="216.668" r="0.334" fill="blue" stroke="none" stroke-width="0.2"/>
<circle cx="85.668" cy="161.668" r="0.334" fill="blue" stroke="none" stroke-width="0.2"/>
<circle cx="162.668" cy="221.668" r="0.334" fill="blue" stroke="none" stroke-width="0.2"/>
<circle cx="222.668" cy="312.668" r="0.334" fill="blue" stroke="none" stroke-width="0.2"/>
<circle cx="119.668" cy="203.668" r="0.334" fill="blue" stroke="none" stroke-width="0.2"/>
<circle cx="194.668" cy="263.668" r="0.334" fill="blue" stroke="none" stroke-width="0.2"/>
<circle cx="225.668" cy="334.668" r="0.334" fill="blue" stroke="none" stroke-width="0.2"/>
<circle cx="31.668" cy="22.668" r="0.334" fill="blue" stroke="none" stroke-width="0.2"/>
<circle cx="82.668" cy="85.668" r="0.334" fill="blue" stroke="none" stroke-width="0.2"/>
<circle cx="119.668" cy="138.668" r="0.334" fill="blue" stroke="none" stroke-width="0.2"/>
<circle cx="220.668" cy="312.668" r="0.334" fill="blue" stroke="none" stroke-width="0.2"/>
<circle cx="228.668" cy="331.668" r="0.334" fill="blue" stroke="none" stroke-width="0.2"/>
<circle cx="226.668" cy="295.668" r="0.334" fill="blue" stroke="none" stroke-width="0.2"/>
<circle cx="226.668" cy="334.668" r="0.334" fill="blue" stroke="none" stroke-width="0.2"/>
<circle cx="72.668" cy="71.668" r="0.334" fill="blue" stroke="none" stroke-width="0.2"/>
<circle cx="202.668" cy="230.668" r="0.334" fill="blue" stroke="none" stroke-width="0.2"/>
<circle cx="187.668" cy="254.668" r="0.334" fill="blue" stroke="none" stroke-width="0.2"/>
<circle cx="202.668" cy="296.668" r="0.334" fill="blue" stroke="none" stroke-width="0.2"/>
<circle cx="108.668" cy="124.668" r="0.334" fill="blue" stroke="none" stroke-width="0.2"/>
<circle cx="230.668" cy="300.668" r="0.334" fill="blue" stroke="none" stroke-width="0.2"/>
<circle cx="218.668" cy="321.668" r="0.334" fill="blue" stroke="none" stroke-width="0.2"/>
<circle cx="191.668" cy="226.668" r="0.334" fill="blue" stroke="none" stroke-width="0.2"/>
<circle cx="215.668" cy="318.668" r="0.334" fill="blue" stroke="none" stroke-width="0.2"/>
<circle cx="127.668" cy="148.668" r="0.334" fill="blue" stroke="none" stroke-width="0.2"/>
<circle cx="0.668" cy="0.668" r="0.334" fill="blue" stroke="none" stroke-width="0.2"/>
<circle cx="63.668" cy="58.668" r="0.334" fill="blue" stroke="none" stroke-width="0.2"/>
<circle cx="180.668" cy="228.668" r="0.334" fill="blue" stroke="none" stroke-width="0.2"/>
<circle cx="180.668" cy="244.668" r="0.334" fill="blue" stroke="none" stroke-width="0.2"/>
<circle cx="178.668" cy="231.668" r="0.334" fill="blue" stroke="none" stroke-width="0.2"/>
<circle cx="216.668" cy="319.668" r="0.334" fill="blue" stroke="none" stroke-width="0.2"/>
<circle cx="220.668" cy="334.668" r="0.334" fill="blue" stroke="none" stroke-width="0.2"/>
<circle cx="91.668" cy="99.668" r="0.334" fill="blue" stroke="none" stroke-width="0.2"/>
<circle cx="222.668" cy="278.668" r="0.334" fill="blue" stroke="none" stroke-width="0.2"/>
<circle cx="220.668" cy="257.668" r="0.334" fill="blue" stroke="none" stroke-width="0.2"/>
<circle cx="220.668" cy="265.668" r="0.334" fill="blue" stroke="none" stroke-width="0.2"/>
<circle cx="196.668" cy="271.668" r="0.334" fill="blue" stroke="none" stroke-width="0.2"/>
<circle cx="136.668" cy="164.668" r="0.334" fill="blue" stroke="none" stroke-width="0.2"/>
<circle cx="125.668" cy="208.668" r="0.334" fill="blue" stroke="none" stroke-width="0.2"/>
<circle cx="52.668" cy="44.668" r="0.334" fill="blue" stroke="none" stroke-width="0.2"/>
<circle cx="186.668" cy="227.668" r="0.334" fill="blue" stroke="none" stroke-width="0.2"/>
<circle cx="9.668" cy="3.668" r="0.334" fill="blue" stroke="none" stroke-width="0.2"/>
<circle cx="153.668" cy="197.668" r="0.334" fill="blue" stroke="none" stroke-width="0.2"/>
<circle cx="188.668" cy="225.668" r="0.334" fill="blue" stroke="none" stroke-width="0.2"/>
<circle cx="206.668" cy="302.668" r="0.334" fill="blue" stroke="none" stroke-width="0.2"/>
<circle cx="232.668" cy="312.668" r="0.334" fill="blue" stroke="none" stroke-width="0.2"/>
<circle cx="137.668" cy="216.668" r="0.334" fill="blue" stroke="none" stroke-width="0.2"/>
<circle cx="232.668" cy="321.668" r="0.334" fill="blue" stroke="none" stroke-width="0.2"/>
<circle cx="23.668" cy="12.668" r="0.334" fill="blue" stroke="none" stroke-width="0.2"/>
<circle cx="221.668" cy="315.668" r="0.334" fill="blue" stroke="none" stroke-width="0.2"/>
<circle cx="211.668" cy="236.668" r="0.334" fill="blue" stroke="none" stroke-width="0.2"/>
<circle cx="108.668" cy="195.668" r="0.334" fill="blue" stroke="none" stroke-width="0.2"/>
<circle cx="221.668" cy="272.668" r="0.334" fill="blue" stroke="none" stroke-width="0.2"/>
<circle cx="221.668" cy="314.668" r="0.334" fill="blue" stroke="none" stroke-width="0.2"/>
<circle cx="171.668" cy="231.668" r="0.334" fill="blue" stroke="none" stroke-width="0.2"/>
<circle cx="103.668" cy="192.668" r="0.334" fill="blue" stroke="none" stroke-width="0.2"/>
<circle cx="141.668" cy="177.668" r="0.334" fill="blue" stroke="none" stroke-width="0.2"/>
<circle cx="224.668" cy="284.668" r="0.334" fill="blue" stroke="none" stroke-width="0.2"/>
<circle cx="39.668" cy="32.668" r="0.334" fill="blue" stroke="none" stroke-width="0.2"/>
<circle cx="174.668" cy="230.668" r="0.334" fill="blue" stroke="none" stroke-width="0.2"/>
<circle cx="230.668" cy="326.668" r="0.334" fill="blue" stroke="none" stroke-width="0.2"/>
<circle cx="168.668" cy="224.668" r="0.334" fill="blue" stroke="none" stroke-width="0.2"/>
<circle cx="163.668" cy="223.668" r="0.334" fill="blue" stroke="none" stroke-width="0.2"/>
<circle cx="165.668" cy="220.668" r="0.334" fill="blue" stroke="none" stroke-width="0.2"/>
<circle cx="87.668" cy="166.668" r="0.334" fill="blue" stroke="none" stroke-width="0.2"/>
<circle cx="198.668" cy="228.668" r="0.334" fill="blue" stroke="none" stroke-width="0.2"/>
<circle cx="164.668" cy="225.668" r="0.334" fill="blue" stroke="none" stroke-width="0.2"/>
<circle cx="199.668" cy="280.668" r="0.334" fill="blue" stroke="none" stroke-width="0.2"/>
<circle cx="98.668" cy="184.668" r="0.334" fill="blue" stroke="none" stroke-width="0.2"/>
<circle cx="91.668" cy="171.668" r="0.334" fill="blue" stroke="none" stroke-width="0.2"/>
<circle cx="158.668" cy="211.668" r="0.334" fill="blue" stroke="none" stroke-width="0.2"/>
<circle cx="214.668" cy="243.668" r="0.334" fill="blue" stroke="none" stroke-width="0.2"/>
<circle cx="97.668" cy="177.668" r="0.334" fill="blue" stroke="none" stroke-width="0.2"/>
<circle cx="221.668" cy="324.668" r="0.334" fill="blue" stroke="none" stroke-width="0.2"/>
<circle cx="178.668" cy="232.668" r="0.334" fill="blue" stroke="none" stroke-width="0.2"/>
<circle cx="143.668" cy="217.668" r="0.334" fill="blue" stroke="none" stroke-width="0.2"/>
<circle cx="225.668" cy="291.668" r="0.334" fill="blue" stroke="none" stroke-width="0.2"/>
<circle cx="213.668" cy="312.668" r="0.334" fill="blue" stroke="none" stroke-width="0.2"/>
<circle cx="147.668" cy="188.668" r="0.334" fill="blue" stroke="none" stroke-width="0.2"/>
<circle cx="220.668" cy="318.668" r="0.334" fill="blue" stroke="none" stroke-width="0.2"/>
<circle cx="229.668" cy="306.668" r="0.334" fill="blue" stroke="none" stroke-width="0.2"/>
<circle cx="157.668" cy="220.668" r="0.334" fill="blue" stroke="none" stroke-width="0.2"/>
<circle cx="219.668" cy="317.668" r="0.334" fill="blue" stroke="none" stroke-width="0.2"/>
<circle cx="220.668" cy="312.668" r="0.334" fill="blue" stroke="none" stroke-width="0.2"/>
<circle cx="205.668" cy="233.668" r="0.334" fill="blue" stroke="none" stroke-width="0.2"/>
<circle cx="217.668" cy="250.668" r="0.334" fill="blue" stroke="none" stroke-width="0.2"/>
<circle cx="18.668" cy="7.668" r="0.334" fill="blue" stroke="none" stroke-width="0.2"/>
<circle cx="220.668" cy="327.668" r="0.334" fill="blue" stroke="none" stroke-width="0.2"/>
<circle cx="221.668" cy="313.668" r="0.334" fill="blue" stroke="none" stroke-width="0.2"/>
<circle cx="211.668" cy="310.668" r="0.334" fill="blue" stroke="none" stroke-width="0.2"/>
<circle cx="114.668" cy="198.668" r="0.334" fill="blue" stroke="none" stroke-width="0.2"/>
<circle cx="171.668" cy="226.668" r="0.334" fill="blue" stroke="none" stroke-width="0.2"/>
<circle cx="100.668" cy="113.668" r="0.334" fill="blue" stroke="none" stroke-width="0.2"/>
<circle cx="129.668" cy="215.668" r="0.334" fill="blue" stroke="none" stroke-width="0.2"/>
<circle cx="217.668" cy="315.668" r="0.334" fill="blue" stroke="none" stroke-width="0.2"/>
<circle cx="154.668" cy="217.668" r="0.334" fill="blue" stroke="none" stroke-width="0.2"/>
<circle cx="199.668" cy="289.668" r="0.334" fill="blue" stroke="none" stroke-width="0.2"/>
<circle cx="209.668" cy="306.668" r="0.334" fill="blue" stroke="none" stroke-width="0.2"/>
<circle cx="218.668" cy="331.668" r="0.334" fill="blue" stroke="none" stroke-width="0.2"/>
<circle cx="214.668" cy="316.668" r="0.334" fill="blue" stroke="none" stroke-width="0.2"/>
<circle cx="101.668" cy="190.668" r="0.334" fill="blue" stroke="none" stroke-width="0.2"/>

    </svg>
